<svg width="21" height="20" viewBox="0 0 21 20" fill="none" xmlns="http://www.w3.org/2000/svg">
<path d="M12.4667 7.32508L8.8917 10.9084L7.5167 9.53341C7.442 9.44618 7.35006 9.37533 7.24668 9.32531C7.14329 9.27529 7.03068 9.24718 6.91591 9.24275C6.80115 9.23832 6.6867 9.25766 6.57977 9.29955C6.47283 9.34145 6.37571 9.40499 6.29449 9.48621C6.21328 9.56742 6.14973 9.66454 6.10784 9.77148C6.06594 9.87842 6.0466 9.99286 6.05104 10.1076C6.05547 10.2224 6.08358 10.335 6.1336 10.4384C6.18362 10.5418 6.25447 10.6337 6.3417 10.7084L8.30004 12.6751C8.3779 12.7523 8.47025 12.8134 8.57178 12.8549C8.67331 12.8964 8.78203 12.9174 8.8917 12.9167C9.11032 12.9158 9.31982 12.829 9.47504 12.6751L13.6417 8.50842C13.7198 8.43095 13.7818 8.33878 13.8241 8.23723C13.8664 8.13568 13.8882 8.02676 13.8882 7.91675C13.8882 7.80674 13.8664 7.69782 13.8241 7.59627C13.7818 7.49472 13.7198 7.40255 13.6417 7.32508C13.4856 7.16987 13.2744 7.08275 13.0542 7.08275C12.834 7.08275 12.6228 7.16987 12.4667 7.32508ZM10.2 1.66675C8.55186 1.66675 6.94069 2.15549 5.57028 3.07117C4.19987 3.98685 3.13177 5.28834 2.50104 6.81105C1.87031 8.33377 1.70528 10.0093 2.02683 11.6258C2.34837 13.2423 3.14204 14.7272 4.30748 15.8926C5.47292 17.0581 6.95778 17.8517 8.57428 18.1733C10.1908 18.4948 11.8663 18.3298 13.3891 17.6991C14.9118 17.0683 16.2133 16.0002 17.1289 14.6298C18.0446 13.2594 18.5334 11.6483 18.5334 10.0001C18.5334 8.90573 18.3178 7.8221 17.899 6.81105C17.4802 5.80001 16.8664 4.88135 16.0926 4.10752C15.3188 3.3337 14.4001 2.71987 13.3891 2.30109C12.378 1.8823 11.2944 1.66675 10.2 1.66675ZM10.2 16.6667C8.88149 16.6667 7.59256 16.2758 6.49623 15.5432C5.39991 14.8107 4.54542 13.7695 4.04084 12.5513C3.53626 11.3331 3.40423 9.99269 3.66147 8.69948C3.9187 7.40627 4.55364 6.21839 5.48599 5.28604C6.41834 4.35369 7.60623 3.71875 8.89943 3.46151C10.1926 3.20428 11.5331 3.3363 12.7513 3.84088C13.9694 4.34547 15.0106 5.19995 15.7432 6.29628C16.4757 7.39261 16.8667 8.68154 16.8667 10.0001C16.8667 11.7682 16.1643 13.4639 14.9141 14.7141C13.6638 15.9644 11.9681 16.6667 10.2 16.6667Z" fill="#006E8C"/>
</svg>
