<svg width="21" height="20" viewBox="0 0 21 20" fill="none" xmlns="http://www.w3.org/2000/svg">
<path d="M10.2001 13.3332C10.0353 13.3332 9.87415 13.3821 9.73711 13.4737C9.60007 13.5652 9.49326 13.6954 9.43019 13.8477C9.36711 13.9999 9.35061 14.1675 9.38277 14.3291C9.41492 14.4908 9.49429 14.6393 9.61083 14.7558C9.72738 14.8724 9.87586 14.9517 10.0375 14.9839C10.1992 15.016 10.3667 14.9995 10.519 14.9365C10.6713 14.8734 10.8014 14.7666 10.893 14.6295C10.9845 14.4925 11.0334 14.3314 11.0334 14.1666C11.0334 13.9456 10.9456 13.7336 10.7893 13.5773C10.6331 13.421 10.4211 13.3332 10.2001 13.3332ZM19.0918 14.5582L12.3834 2.89157C12.1666 2.50283 11.8499 2.17903 11.4661 1.95362C11.0823 1.72822 10.6452 1.60937 10.2001 1.60938C9.75497 1.60937 9.31792 1.72822 8.93409 1.95362C8.55027 2.17903 8.23358 2.50283 8.01675 2.89157L1.35009 14.5582C1.12575 14.9366 1.00521 15.3674 1.00062 15.8073C0.996042 16.2471 1.10759 16.6803 1.32399 17.0633C1.5404 17.4462 1.85401 17.7653 2.23316 17.9883C2.61231 18.2112 3.04357 18.3302 3.48342 18.3332H16.9168C17.3601 18.3376 17.7967 18.224 18.1817 18.004C18.5667 17.784 18.8862 17.4656 19.1076 17.0814C19.3289 16.6972 19.4441 16.2611 19.4413 15.8177C19.4386 15.3743 19.3179 14.9396 19.0918 14.5582ZM17.6501 16.2249C17.577 16.3549 17.4705 16.4628 17.3415 16.5376C17.2125 16.6123 17.0658 16.6511 16.9168 16.6499H3.48342C3.33435 16.6511 3.18767 16.6123 3.05869 16.5376C2.9297 16.4628 2.82313 16.3549 2.75009 16.2249C2.67695 16.0982 2.63844 15.9545 2.63844 15.8082C2.63844 15.662 2.67695 15.5182 2.75009 15.3916L9.41675 3.7249C9.48669 3.5884 9.59293 3.47385 9.72379 3.39385C9.85465 3.31386 10.005 3.27153 10.1584 3.27153C10.3118 3.27153 10.4622 3.31386 10.593 3.39385C10.7239 3.47385 10.8302 3.5884 10.9001 3.7249L17.6084 15.3916C17.6911 15.5164 17.7386 15.6613 17.7459 15.8108C17.7533 15.9604 17.7202 16.1092 17.6501 16.2416V16.2249ZM10.2001 6.66657C9.97907 6.66657 9.76711 6.75436 9.61083 6.91065C9.45455 7.06693 9.36675 7.27889 9.36675 7.4999V10.8332C9.36675 11.0542 9.45455 11.2662 9.61083 11.4225C9.76711 11.5788 9.97907 11.6666 10.2001 11.6666C10.4211 11.6666 10.6331 11.5788 10.7893 11.4225C10.9456 11.2662 11.0334 11.0542 11.0334 10.8332V7.4999C11.0334 7.27889 10.9456 7.06693 10.7893 6.91065C10.6331 6.75436 10.4211 6.66657 10.2001 6.66657Z" fill="#EF1B1B"/>
</svg>
