<svg width="16" height="16" viewBox="0 0 16 16" fill="none" xmlns="http://www.w3.org/2000/svg">
<g clip-path="url(#clip0_1492_11785)">
<path fill-rule="evenodd" clip-rule="evenodd" d="M7.99996 2.00008C4.68625 2.00008 1.99996 4.68637 1.99996 8.00008C1.99996 11.3138 4.68625 14.0001 7.99996 14.0001C11.3137 14.0001 14 11.3138 14 8.00008C14 4.68637 11.3137 2.00008 7.99996 2.00008ZM0.666626 8.00008C0.666626 3.94999 3.94987 0.666748 7.99996 0.666748C12.05 0.666748 15.3333 3.94999 15.3333 8.00008C15.3333 12.0502 12.05 15.3334 7.99996 15.3334C3.94987 15.3334 0.666626 12.0502 0.666626 8.00008Z" fill="#006E8C"/>
<path fill-rule="evenodd" clip-rule="evenodd" d="M0.666626 7.99992C0.666626 7.63173 0.965103 7.33325 1.33329 7.33325H14.6666C15.0348 7.33325 15.3333 7.63173 15.3333 7.99992C15.3333 8.36811 15.0348 8.66659 14.6666 8.66659H1.33329C0.965103 8.66659 0.666626 8.36811 0.666626 7.99992Z" fill="#006E8C"/>
<path fill-rule="evenodd" clip-rule="evenodd" d="M7.99996 0.666748C8.18724 0.666748 8.36588 0.745522 8.49219 0.883799C10.2687 2.82869 11.2783 5.35265 11.3331 7.9862C11.3333 7.99545 11.3333 8.00471 11.3331 8.01397C11.2783 10.6475 10.2687 13.1715 8.49219 15.1164C8.36588 15.2546 8.18724 15.3334 7.99996 15.3334C7.81268 15.3334 7.63404 15.2546 7.50773 15.1164C5.73122 13.1715 4.72163 10.6475 4.66677 8.01397C4.66658 8.00471 4.66658 7.99545 4.66677 7.9862C4.72163 5.35265 5.73122 2.82869 7.50773 0.883799C7.63404 0.745522 7.81268 0.666748 7.99996 0.666748ZM6.00011 8.00008C6.0458 10.05 6.7508 12.0235 7.99996 13.6329C9.24912 12.0235 9.95411 10.05 9.9998 8.00008C9.95411 5.95019 9.24912 3.97664 7.99996 2.36728C6.7508 3.97664 6.0458 5.95019 6.00011 8.00008Z" fill="#006E8C"/>
</g>
<defs>
<clipPath id="clip0_1492_11785">
<rect width="16" height="16" fill="white"/>
</clipPath>
</defs>
</svg>
