<svg width="21" height="20" viewBox="0 0 21 20" fill="none" xmlns="http://www.w3.org/2000/svg">
<path d="M9.36703 1.66675C7.71885 1.66675 6.10769 2.15549 4.73728 3.07117C3.36687 3.98685 2.29876 5.28834 1.66803 6.81105C1.0373 8.33377 0.872274 10.0093 1.19382 11.6258C1.51536 13.2423 2.30903 14.7272 3.47447 15.8926C4.63991 17.0581 6.12477 17.8517 7.74128 18.1733C9.35778 18.4948 11.0333 18.3298 12.5561 17.6991C14.0788 17.0683 15.3803 16.0002 16.2959 14.6298C17.2116 13.2594 17.7004 11.6483 17.7004 10.0001C17.7004 8.90573 17.4848 7.8221 17.066 6.81105C16.6472 5.80001 16.0334 4.88135 15.2596 4.10752C14.4858 3.3337 13.5671 2.71987 12.5561 2.30109C11.545 1.8823 10.4614 1.66675 9.36703 1.66675ZM9.36703 16.6667C8.04849 16.6667 6.75955 16.2758 5.66323 15.5432C4.5669 14.8107 3.71242 13.7695 3.20783 12.5513C2.70325 11.3331 2.57123 9.99269 2.82846 8.69948C3.08569 7.40627 3.72063 6.21839 4.65298 5.28604C5.58533 4.35369 6.77322 3.71875 8.06643 3.46151C9.35963 3.20428 10.7001 3.3363 11.9183 3.84088C13.1364 4.34547 14.1776 5.19995 14.9102 6.29628C15.6427 7.39261 16.0337 8.68154 16.0337 10.0001C16.0337 11.7682 15.3313 13.4639 14.0811 14.7141C12.8308 15.9644 11.1351 16.6667 9.36703 16.6667ZM11.9504 10.5251L10.2004 9.51675V5.83342C10.2004 5.6124 10.1126 5.40044 9.95628 5.24416C9.8 5.08788 9.58804 5.00008 9.36703 5.00008C9.14602 5.00008 8.93405 5.08788 8.77777 5.24416C8.62149 5.40044 8.5337 5.6124 8.5337 5.83342V10.0001C8.5337 10.0001 8.5337 10.0667 8.5337 10.1001C8.53863 10.1575 8.5527 10.2138 8.57536 10.2667C8.59252 10.3162 8.61487 10.3637 8.64203 10.4084C8.66483 10.4558 8.69278 10.5005 8.72536 10.5417L8.8587 10.6501L8.93369 10.7251L11.1004 11.9751C11.2274 12.0471 11.371 12.0844 11.517 12.0834C11.7015 12.0847 11.8813 12.0247 12.028 11.9129C12.1748 11.801 12.2802 11.6436 12.3279 11.4654C12.3756 11.2871 12.3627 11.0981 12.2914 10.9279C12.22 10.7577 12.0942 10.6161 11.9337 10.5251H11.9504Z" fill="#FF8A1F"/>
</svg>
