<svg width="26" height="25" viewBox="0 0 26 25" fill="none" xmlns="http://www.w3.org/2000/svg">
<path d="M19.9229 14.7107V24.9667C21.1979 24.9511 22.3027 24.2286 22.864 23.173C22.9679 23.2364 23.0875 23.2784 23.222 23.2781H23.364C23.6097 23.2784 23.8143 23.1439 23.937 22.978C24.0621 22.8102 24.1279 22.6025 24.129 22.38V21.5551V20.3198V12.5948H23.7489C23.5431 12.5948 23.3775 12.4259 23.3796 12.2198C23.3808 12.1788 23.3808 12.1366 23.3808 12.0955C23.3808 6.22116 18.6185 1.45955 12.7445 1.45955C6.87073 1.45955 2.10838 6.22119 2.10838 12.0955C2.10838 12.1366 2.10838 12.1788 2.10932 12.2198C2.11217 12.4259 1.94626 12.5948 1.73954 12.5948H1.3606V22.38C1.36134 22.6025 1.42594 22.8102 1.55223 22.978C1.67493 23.1439 1.87951 23.2784 2.12492 23.2781H2.26746C2.39087 23.2784 2.5032 23.2443 2.60087 23.19C3.16486 24.2365 4.26636 24.9512 5.53611 24.9667V14.7107C4.53559 14.7228 3.64338 15.1712 3.03198 15.8712V12.9554C3.343 12.8953 3.57515 12.6338 3.60536 12.3161L3.61246 12.2817L3.61152 12.1689C3.61152 9.64603 4.63329 7.36559 6.28647 5.71183C7.94015 4.0585 10.2215 3.03724 12.7445 3.03689C15.267 3.03724 17.5474 4.0585 19.2016 5.71183C20.855 7.36563 21.876 9.64673 21.876 12.1695V12.2461V12.2494C21.8767 12.5965 22.1229 12.8907 22.4565 12.9554V15.9059C21.8458 15.1854 20.9387 14.723 19.9229 14.7107Z" fill="#616E7D"/>
<path d="M23.7489 12.5948H24.129H24.4674C24.6694 12.5948 24.8353 12.4328 24.8388 12.2308C24.8396 12.1856 24.8396 12.1408 24.8396 12.0955C24.8396 5.41528 19.4239 0 12.7445 0C6.06466 0 0.648682 5.41528 0.648682 12.0955C0.648682 12.1408 0.649618 12.1856 0.650553 12.2308C0.653867 12.4328 0.818561 12.5948 1.02104 12.5948H1.3606H1.73954C1.94627 12.5948 2.11213 12.4259 2.10932 12.2198C2.10839 12.1788 2.10839 12.1366 2.10839 12.0955C2.10839 6.22116 6.87074 1.45955 12.7445 1.45955C18.6185 1.45955 23.3808 6.2212 23.3808 12.0955C23.3808 12.1366 23.3808 12.1788 23.3796 12.2198C23.3775 12.4259 23.5431 12.5948 23.7489 12.5948Z" fill="#AAD4C8"/>
<path d="M0 20.4793C0 21.1557 0.544144 21.7049 1.21972 21.7129V17.9645C0.544144 17.9728 0 18.5217 0 19.1986V20.4793Z" fill="#616E7D"/>
<path d="M24.272 21.7129C24.9469 21.7049 25.4918 21.1557 25.4918 20.4793V19.1987C25.4918 18.5217 24.9469 17.9728 24.272 17.9646V21.7129Z" fill="#616E7D"/>
<path d="M5.75455 14.709V25H6.99766C7.19281 25 7.34998 24.8424 7.34998 24.6484V15.0605C7.34998 14.8662 7.19281 14.709 6.99766 14.709H5.75455Z" fill="#82BFAB"/>
<path d="M18.0873 15.0605V24.6484C18.0873 24.8424 18.2444 25 18.4386 25H19.6827V14.709H18.4386C18.2444 14.709 18.0873 14.8662 18.0873 15.0605Z" fill="#82BFAB"/>
</svg>
