<svg width="32" height="32" viewBox="0 0 32 32" fill="none" xmlns="http://www.w3.org/2000/svg">
<g clip-path="url(#clip0_2_7)">
<path d="M7.58867 22.2257V23.2923H24.4113V22.2257H23.1217V13.4913H24.4113V12.4247H7.58867V13.4913H8.87834V22.2257H7.58867ZM12.2193 22.2257V13.4913H14.3293V22.2257H12.2193ZM17.6707 22.2257V13.4913H19.7807V22.2257H17.6707ZM22.0547 13.4913V22.2257H20.847V13.4913H22.0547ZM16.604 13.4913V22.2257H15.396V13.4913H16.604ZM9.94534 13.4913H11.153V22.2257H9.94534V13.4913Z" fill="white"/>
<path d="M25.3317 24.3557H6.66834C6.37367 24.3557 6.135 24.5943 6.135 24.889C6.135 25.1833 6.37367 25.4223 6.66834 25.4223H25.332C25.6263 25.4223 25.8653 25.1833 25.8653 24.889C25.865 24.5943 25.6263 24.3557 25.3317 24.3557Z" fill="white"/>
<path d="M25.8577 10.756C25.856 10.7427 25.8557 10.7293 25.853 10.7163C25.849 10.6983 25.8423 10.6813 25.8367 10.6637C25.8317 10.6483 25.828 10.6323 25.8217 10.6177C25.8147 10.6017 25.8053 10.5873 25.797 10.572C25.7887 10.5573 25.782 10.542 25.7723 10.528C25.7633 10.5143 25.7513 10.5023 25.7407 10.4897C25.7293 10.476 25.7187 10.4613 25.706 10.4487C25.6963 10.439 25.6843 10.431 25.674 10.4223C25.6573 10.4083 25.6413 10.394 25.6233 10.3823C25.6213 10.381 25.62 10.3793 25.618 10.378L16.2863 4.43967C16.1117 4.32834 15.8887 4.32834 15.7137 4.43967L6.382 10.378C6.38 10.3793 6.37867 10.381 6.37667 10.3823C6.35867 10.394 6.34267 10.4083 6.32634 10.4223C6.31567 10.431 6.30367 10.439 6.294 10.4487C6.28134 10.4613 6.27067 10.476 6.25934 10.4897C6.24867 10.5023 6.237 10.5143 6.22767 10.528C6.21834 10.542 6.21134 10.5573 6.20334 10.572C6.195 10.5873 6.18534 10.6017 6.17834 10.6177C6.172 10.6323 6.16867 10.6483 6.16367 10.6637C6.158 10.6813 6.151 10.6983 6.14734 10.7163C6.14434 10.7293 6.144 10.7427 6.14234 10.756C6.13934 10.778 6.136 10.7997 6.13567 10.822C6.13567 10.824 6.135 10.826 6.135 10.828C6.135 10.8397 6.13767 10.8507 6.13834 10.862C6.14 10.884 6.141 10.9053 6.145 10.927C6.148 10.9433 6.15334 10.9587 6.158 10.9743C6.163 10.992 6.167 11.0097 6.174 11.0267C6.18134 11.0453 6.19134 11.062 6.20067 11.0793C6.20667 11.091 6.211 11.1033 6.21834 11.1147C6.21967 11.1167 6.22134 11.1183 6.22267 11.1203C6.23334 11.1363 6.246 11.1507 6.258 11.1653C6.26834 11.178 6.278 11.1917 6.28934 11.2033C6.29867 11.2123 6.30934 11.22 6.319 11.2283C6.33534 11.2427 6.35134 11.2573 6.369 11.2697C6.37667 11.2747 6.38567 11.2783 6.39367 11.2833C6.415 11.296 6.436 11.309 6.45867 11.3187C6.46867 11.3227 6.47934 11.325 6.48934 11.3287C6.51167 11.3367 6.534 11.3447 6.55734 11.3497C6.56767 11.3517 6.57834 11.352 6.58867 11.3533C6.61334 11.3573 6.63767 11.3607 6.66267 11.361C6.66467 11.361 6.66634 11.3613 6.66834 11.3613H25.332C25.3737 11.3613 25.4137 11.3557 25.4527 11.3463C25.4633 11.344 25.4733 11.34 25.484 11.3367C25.5127 11.3283 25.54 11.318 25.5663 11.305C25.5783 11.299 25.59 11.2927 25.6013 11.2857C25.6267 11.2707 25.65 11.254 25.6723 11.2353C25.6813 11.2277 25.691 11.221 25.6997 11.2127C25.7293 11.1847 25.7557 11.1533 25.778 11.1193C25.779 11.1173 25.7807 11.1163 25.782 11.1143C25.789 11.103 25.7933 11.091 25.7997 11.0793C25.809 11.062 25.8187 11.045 25.826 11.0267C25.833 11.0093 25.8373 10.9917 25.8423 10.9743C25.8467 10.9583 25.852 10.943 25.855 10.9267C25.8593 10.9053 25.8603 10.8837 25.8617 10.862C25.8623 10.8503 25.865 10.8397 25.865 10.828C25.865 10.8257 25.8643 10.8237 25.8643 10.8217C25.8643 10.7997 25.861 10.778 25.8577 10.756ZM16 5.522L23.5003 10.2947H8.49967L16 5.522Z" fill="white"/>
<path d="M16 0C7.17767 0 0 7.17733 0 16C0 24.8227 7.17767 32 16 32C24.8223 32 32 24.8227 32 16C32 7.17733 24.8223 0 16 0ZM16 30.9333C7.76567 30.9333 1.06667 24.2343 1.06667 16C1.06667 7.76567 7.76567 1.06667 16 1.06667C24.2343 1.06667 30.9333 7.76567 30.9333 16C30.9333 24.2343 24.2343 30.9333 16 30.9333Z" fill="white"/>
</g>
<defs>
<clipPath id="clip0_2_7">
<rect width="32" height="32" fill="white"/>
</clipPath>
</defs>
</svg>
