<svg width="32" height="32" viewBox="0 0 32 32" fill="none" xmlns="http://www.w3.org/2000/svg">
<path d="M3.20815 27.1442V28.7645H28.7622V27.1442H26.8031V13.8765H28.7622V12.2562H3.20815V13.8765H5.16719V27.1442H3.20815ZM10.2422 27.1442V13.8765H13.4474V27.1442H10.2422ZM18.5229 27.1442V13.8765H21.7281V27.1442H18.5229ZM25.1823 13.8765V27.1442H23.3479V13.8765H25.1823ZM16.9027 13.8765V27.1442H15.0677V13.8765H16.9027ZM6.78799 13.8765H8.62246V27.1442H6.78799V13.8765Z" fill="white"/>
<path d="M30.1602 30.3797H1.81015C1.36254 30.3797 1 30.7422 1 31.1898C1 31.6369 1.36254 32 1.81015 32H30.1607C30.6078 32 30.9708 31.6369 30.9708 31.1898C30.9703 30.7422 30.6078 30.3797 30.1602 30.3797Z" fill="white"/>
<path d="M30.9592 9.7215C30.9567 9.70124 30.9562 9.68099 30.9521 9.66124C30.946 9.6339 30.9359 9.60808 30.9273 9.58124C30.9197 9.55795 30.9141 9.53365 30.9045 9.51137C30.8939 9.48706 30.8797 9.46529 30.867 9.442C30.8544 9.41972 30.8443 9.39643 30.8296 9.37516C30.8159 9.3544 30.7977 9.33617 30.7815 9.31693C30.7643 9.29617 30.748 9.27389 30.7288 9.25465C30.7141 9.23997 30.6959 9.22782 30.6802 9.21465C30.6549 9.19338 30.6306 9.17161 30.6032 9.15389C30.6002 9.15186 30.5982 9.14933 30.5951 9.14731L16.4201 0.126839C16.1548 -0.0422795 15.816 -0.0422795 15.5502 0.126839L1.3752 9.14731C1.37216 9.14933 1.37014 9.15186 1.3671 9.15389C1.33975 9.17161 1.31545 9.19338 1.29064 9.21465C1.27444 9.22782 1.25621 9.23997 1.24152 9.25465C1.22228 9.27389 1.20608 9.29617 1.18887 9.31693C1.17266 9.33617 1.15494 9.3544 1.14076 9.37516C1.12659 9.39643 1.11595 9.41972 1.1038 9.442C1.09114 9.46529 1.07646 9.48706 1.06582 9.51137C1.0562 9.53365 1.05114 9.55795 1.04355 9.58124C1.03494 9.60808 1.0243 9.6339 1.01873 9.66124C1.01418 9.68099 1.01367 9.70124 1.01114 9.7215C1.00658 9.75492 1.00152 9.78783 1.00101 9.82175C1.00101 9.82479 1 9.82783 1 9.83087C1 9.84859 1.00405 9.8653 1.00506 9.88251C1.0076 9.91593 1.00911 9.94834 1.01519 9.98125C1.01975 10.0061 1.02785 10.0294 1.03494 10.0532C1.04253 10.08 1.04861 10.1068 1.05924 10.1326C1.07038 10.161 1.08557 10.1863 1.09975 10.2126C1.10886 10.2304 1.11545 10.2491 1.12659 10.2663C1.12861 10.2694 1.13114 10.2719 1.13317 10.2749C1.14937 10.2992 1.16861 10.321 1.18684 10.3433C1.20254 10.3625 1.21722 10.3833 1.23444 10.401C1.24861 10.4147 1.26482 10.4263 1.2795 10.439C1.30431 10.4608 1.32862 10.483 1.35545 10.5018C1.3671 10.5094 1.38077 10.5149 1.39292 10.5225C1.42533 10.5418 1.45723 10.5615 1.49166 10.5762C1.50685 10.5823 1.52305 10.5858 1.53824 10.5914C1.57217 10.6035 1.60609 10.6157 1.64153 10.6233C1.65723 10.6263 1.67343 10.6268 1.68913 10.6289C1.7266 10.6349 1.76356 10.64 1.80154 10.6405C1.80458 10.6405 1.80711 10.641 1.81015 10.641H30.1607C30.224 10.641 30.2847 10.6324 30.344 10.6182C30.3602 10.6147 30.3754 10.6086 30.3916 10.6035C30.4351 10.5909 30.4767 10.5752 30.5167 10.5554C30.5349 10.5463 30.5526 10.5367 30.5698 10.5261C30.6083 10.5033 30.6437 10.478 30.6777 10.4496C30.6913 10.438 30.706 10.4278 30.7192 10.4152C30.7643 10.3727 30.8043 10.3251 30.8382 10.2734C30.8397 10.2704 30.8422 10.2689 30.8443 10.2658C30.8549 10.2486 30.8615 10.2304 30.8711 10.2126C30.8853 10.1863 30.9 10.1605 30.9111 10.1326C30.9217 10.1063 30.9283 10.0795 30.9359 10.0532C30.9425 10.0288 30.9506 10.0056 30.9551 9.98075C30.9617 9.94834 30.9632 9.91543 30.9653 9.88251C30.9663 9.86479 30.9703 9.84859 30.9703 9.83087C30.9703 9.82732 30.9693 9.82429 30.9693 9.82125C30.9693 9.78783 30.9643 9.75492 30.9592 9.7215ZM15.9852 1.77093L27.3783 9.02072H4.59198L15.9852 1.77093Z" fill="white"/>
</svg>
