<svg width="188" height="238" viewBox="0 0 188 238" fill="none" xmlns="http://www.w3.org/2000/svg">
<path d="M103.204 175.986C103.116 175.674 103.303 175.337 103.615 175.249L188 153.579L187.676 152.28L102.643 173.813L187.09 147.733L182.94 145.285C177.319 146.459 165.891 148.783 152.282 151.306C133.575 154.765 105.572 157.301 94.0187 171.689C82.4658 157.313 54.462 154.765 35.7555 151.306C22.1462 148.783 10.7179 146.459 5.09725 145.285L0.947166 147.733L85.3945 173.813L0.32403 152.28L0 153.579L84.385 175.249C84.6966 175.349 84.8835 175.674 84.7963 175.986L84.1607 178.284C83.8117 179.533 84.7464 180.77 86.0426 180.77H101.957C103.254 180.77 104.188 179.533 103.839 178.284L103.204 175.986Z" fill="url(#paint0_linear_14140_47313)"/>
<path d="M59.3724 102.394C57.8395 102.294 56.4562 101.42 55.7333 100.058C53.6645 96.1614 52.3684 91.2029 53.2158 85.1701C55.3096 70.3318 80.1602 55.4935 90.2176 47.3874C90.2176 47.2625 90.1802 47.1501 90.1802 47.0127C90.1802 45.8011 90.7535 44.7145 91.6384 44.0275C92.436 43.403 92.947 42.4663 93.0342 41.4546L93.3956 37.4827C92.947 37.2579 92.6354 36.8082 92.6354 36.2712C92.6354 36.2337 92.6354 36.2087 92.6354 36.1712C88.5975 35.6092 85.1328 32.5241 84.3851 28.1401C83.4878 22.8692 87.1518 17.7607 92.4235 16.8989C92.4485 16.8989 92.4734 16.8989 92.4858 16.8989C88.6349 18.5226 86.5411 22.8817 87.912 27.0284C89.1708 30.8254 93.1339 33.1861 97.0597 32.4991C100.487 31.8996 102.955 29.2642 103.64 26.1416C103.665 26.0542 103.677 25.9668 103.69 25.8793C103.69 25.8793 103.69 25.8669 103.69 25.8544C104.014 30.4008 101.11 34.6974 96.5612 35.9464C96.1499 36.0588 95.7386 36.1463 95.3273 36.1962C95.3273 36.2337 95.3273 36.2587 95.3273 36.2961C95.3273 36.8332 95.0158 37.2953 94.5671 37.5077L94.9285 41.4795C95.0282 42.4913 95.5267 43.428 96.3244 44.0525C97.2092 44.752 97.7825 45.8261 97.7825 47.0377C97.7825 47.1626 97.7576 47.2875 97.7451 47.4124C107.79 55.5185 132.653 70.3568 134.747 85.1951C135.594 91.2278 134.298 96.1864 132.229 100.083C131.507 101.445 130.123 102.319 128.59 102.419H59.335L59.3724 102.394Z" fill="url(#paint1_linear_14140_47313)"/>
<path d="M92.3112 26.2918L91.9124 28.6025L93.9937 27.5158L96.075 28.6025L95.6762 26.2918L97.3586 24.6431L95.0281 24.3058L93.9937 22.195L92.9593 24.3058L90.6288 24.6431L92.3112 26.2918Z" fill="url(#paint2_linear_14140_47313)"/>
<path d="M42.822 83.7592H41.3887V62.0388H41.3264C41.4635 61.9389 41.5881 61.814 41.6629 61.6641C42.1739 60.6898 42.4979 59.4533 42.2861 57.9545C41.6754 53.5954 33.1634 49.2489 32.1539 47.6376C31.1444 49.2364 22.6324 53.5954 22.0217 57.9545C21.8098 59.4533 22.1339 60.6898 22.6448 61.6641C22.7321 61.814 22.8442 61.9389 22.9813 62.0388H22.919V83.7592H21.4983C20.7505 83.7592 20.1523 84.3587 20.1523 85.1081V92.0152C20.1523 93.464 20.9374 94.8129 22.1962 95.5374L22.919 95.9496V147.297C26.8572 148.058 31.1693 148.883 35.7307 149.732C37.5378 150.069 39.4321 150.394 41.3887 150.719V95.9496L42.124 95.5374C43.3828 94.8129 44.1679 93.4765 44.1679 92.0152V85.1081C44.1679 84.3587 43.5697 83.7592 42.8344 83.7592H42.822ZM28.278 83.7592H25.0377V68.3713C25.0377 67.472 25.7605 66.7601 26.6578 66.7601C27.1065 66.7601 27.5053 66.9349 27.8044 67.2347C28.1035 67.522 28.278 67.9341 28.278 68.3713V83.7592ZM33.774 83.7592H30.5462V68.3713C30.5462 67.472 31.269 66.7601 32.1539 66.7601C33.0387 66.7601 33.7616 67.4845 33.7616 68.3713V83.7592H33.774ZM39.2701 83.7592H36.0422V68.3713C36.0422 67.472 36.7651 66.7601 37.6499 66.7601C38.0986 66.7601 38.4974 66.9349 38.7965 67.2347C39.0831 67.522 39.2701 67.9341 39.2701 68.3713V83.7592Z" fill="url(#paint3_linear_14140_47313)"/>
<path d="M166.502 83.7592H165.069V62.0388H165.006C165.143 61.9389 165.256 61.814 165.343 61.6641C165.866 60.6898 166.178 59.4533 165.966 57.9545C165.355 53.5954 156.843 49.2489 155.834 47.6376C154.824 49.2364 146.312 53.5954 145.702 57.9545C145.49 59.4533 145.814 60.6898 146.325 61.6641C146.412 61.814 146.524 61.9389 146.661 62.0388H146.586V83.7592H145.166C144.43 83.7592 143.832 84.3587 143.832 85.1081V92.0152C143.832 93.464 144.605 94.8129 145.876 95.5374L146.611 95.9496V150.719C148.568 150.382 150.462 150.057 152.269 149.732C156.831 148.883 161.155 148.071 165.081 147.297V95.9496L165.804 95.5374C167.063 94.8129 167.848 93.4765 167.848 92.0152V85.1081C167.848 84.3587 167.25 83.7592 166.502 83.7592ZM151.958 83.7592H148.718V68.3713C148.718 67.472 149.44 66.7601 150.338 66.7601C150.786 66.7601 151.185 66.9349 151.484 67.2347C151.783 67.522 151.958 67.9341 151.958 68.3713V83.7592ZM157.454 83.7592H154.226V68.3713C154.226 67.472 154.949 66.7601 155.834 66.7601C156.719 66.7601 157.441 67.4845 157.441 68.3713V83.7592H157.454ZM162.95 83.7592H159.722V68.3713C159.722 67.472 160.445 66.7601 161.33 66.7601C161.778 66.7601 162.177 66.9349 162.476 67.2347C162.763 67.522 162.95 67.9341 162.95 68.3713V83.7592Z" fill="url(#paint4_linear_14140_47313)"/>
<path d="M33.4998 45.5515C33.4998 46.2884 32.9016 46.8879 32.1663 46.8879C31.431 46.8879 30.8328 46.2884 30.8328 45.5515C30.8328 44.8146 31.431 44.215 32.1663 44.215C32.9016 44.215 33.4998 44.8146 33.4998 45.5515Z" fill="url(#paint5_linear_14140_47313)"/>
<path d="M157.18 45.5515C157.18 46.2884 156.582 46.8879 155.846 46.8879C155.111 46.8879 154.513 46.2884 154.513 45.5515C154.513 44.8146 155.111 44.215 155.846 44.215C156.582 44.215 157.18 44.8146 157.18 45.5515Z" fill="url(#paint6_linear_14140_47313)"/>
<path d="M141.863 88.8425H136.878V71.1564C136.878 51.7217 127.855 33.2363 112.75 21.6954C112.252 21.3207 111.753 20.946 111.242 20.5713C110.071 19.7095 108.775 18.8227 107.391 17.8734C103.366 15.1006 98.4679 11.7407 94.0063 7.30674C89.5446 11.7283 84.6468 15.1006 80.6213 17.8734C79.238 18.8227 77.9418 19.722 76.7704 20.5713C76.2594 20.946 75.7484 21.3207 75.2624 21.6954C60.1576 33.2238 51.1346 51.7092 51.1346 71.1564V88.8425H46.1495V71.1564C46.1495 50.1729 55.9078 30.2012 72.2339 17.7235C72.7574 17.3238 73.2808 16.9366 73.8292 16.537C75.063 15.6377 76.3965 14.7259 77.8048 13.7517C82.416 10.5792 87.6503 6.982 92.1743 2.0234L94.0187 0L95.8632 2.0234C100.387 6.99449 105.622 10.5792 110.233 13.7517C111.641 14.7259 112.975 15.6377 114.208 16.537C114.744 16.9366 115.28 17.3238 115.804 17.7235C132.142 30.1887 141.888 50.1729 141.888 71.1564V88.8425H141.863Z" fill="url(#paint7_linear_14140_47313)"/>
<path d="M130.323 114.685C130.323 114.685 130.223 114.66 130.173 114.647H57.8395C57.8395 114.647 57.7398 114.672 57.69 114.685C53.8514 115.546 51.147 118.981 51.147 122.928V152.355C51.147 152.355 51.82 152.48 52.979 152.705V142.563C52.979 138.129 56.344 136.268 57.7897 135.606C59.2353 134.944 59.4472 134.094 59.4472 134.094C59.4472 134.094 59.6715 134.956 61.1047 135.606C62.5504 136.268 65.9153 138.116 65.9153 142.563V155.59C66.3391 155.69 66.7628 155.802 67.1865 155.915V136.43C67.1865 130.897 71.3865 128.574 73.1811 127.762C74.9757 126.937 75.2499 125.876 75.2499 125.876C75.2499 125.876 75.5241 126.95 77.3187 127.762C79.1134 128.586 83.3133 130.897 83.3133 136.43V160.661C83.7869 160.823 84.248 160.998 84.7216 161.16V131.721C84.7216 125.339 89.5571 122.678 91.6259 121.729C93.6947 120.78 94.0063 119.556 94.0063 119.556C94.0063 119.556 94.3179 120.792 96.3867 121.729C98.4555 122.678 103.291 125.339 103.291 131.721V161.123C103.752 160.948 104.226 160.786 104.699 160.611V136.417C104.699 130.884 108.899 128.561 110.694 127.749C112.488 126.925 112.763 125.863 112.763 125.863C112.763 125.863 113.037 126.937 114.831 127.749C116.626 128.574 120.826 130.884 120.826 136.417V155.865C121.25 155.752 121.686 155.652 122.097 155.552V142.563C122.097 138.129 125.462 136.268 126.908 135.606C128.354 134.944 128.565 134.094 128.565 134.094C128.565 134.094 128.79 134.956 130.223 135.606C131.669 136.268 135.034 138.116 135.034 142.563V152.705C136.193 152.48 136.866 152.355 136.866 152.355V122.928C136.866 118.981 134.149 115.546 130.323 114.685Z" fill="url(#paint8_linear_14140_47313)"/>
<path d="M130.871 103.656H56.6679C54.9481 103.656 53.5522 105.055 53.5522 106.779V110.276C53.5522 111.999 54.9481 113.398 56.6679 113.398H130.871C132.591 113.398 133.987 111.999 133.987 110.276V106.779C133.987 105.055 132.591 103.656 130.871 103.656ZM60.7308 110.351H57.5652V108.777C57.5652 107.69 58.3878 107.228 58.7492 107.078C59.0981 106.916 59.1605 106.704 59.1605 106.704C59.1605 106.704 59.2103 106.916 59.5717 107.078C59.9207 107.241 60.7557 107.69 60.7557 108.777V110.351H60.7308ZM65.3918 110.351H62.2263V108.777C62.2263 107.69 63.0488 107.228 63.4102 107.078C63.7592 106.916 63.8215 106.704 63.8215 106.704C63.8215 106.704 63.8714 106.916 64.2328 107.078C64.5817 107.241 65.4167 107.69 65.4167 108.777V110.351H65.3918ZM69.841 110.351H66.6755V108.777C66.6755 107.69 67.498 107.228 67.8594 107.078C68.2084 106.916 68.2707 106.704 68.2707 106.704C68.2707 106.704 68.3206 106.916 68.682 107.078C69.0309 107.241 69.8659 107.69 69.8659 108.777V110.351H69.841ZM74.203 110.351H71.0374V108.777C71.0374 107.69 71.86 107.228 72.2214 107.078C72.5703 106.916 72.6327 106.704 72.6327 106.704C72.6327 106.704 72.6825 106.916 73.0439 107.078C73.3929 107.241 74.2279 107.69 74.2279 108.777V110.351H74.203ZM78.5026 110.351H75.3371V108.777C75.3371 107.69 76.1596 107.228 76.521 107.078C76.87 106.916 76.9323 106.704 76.9323 106.704C76.9323 106.704 76.9821 106.916 77.3436 107.078C77.6925 107.241 78.5275 107.69 78.5275 108.777V110.351H78.5026ZM82.877 110.351H79.7115V108.777C79.7115 107.69 80.534 107.228 80.8954 107.078C81.2444 106.916 81.3067 106.704 81.3067 106.704C81.3067 106.704 81.3566 106.916 81.718 107.078C82.0669 107.241 82.9019 107.69 82.9019 108.777V110.351H82.877ZM87.1642 110.351H83.9986V108.777C83.9986 107.69 84.8212 107.228 85.1826 107.078C85.5316 106.916 85.5939 106.704 85.5939 106.704C85.5939 106.704 85.6437 106.916 86.0051 107.078C86.3541 107.241 87.1891 107.69 87.1891 108.777V110.351H87.1642ZM91.389 110.351H88.2235V108.777C88.2235 107.69 89.046 107.228 89.4075 107.078C89.7564 106.916 89.8187 106.704 89.8187 106.704C89.8187 106.704 89.8686 106.916 90.23 107.078C90.579 107.241 91.414 107.69 91.414 108.777V110.351H91.389ZM95.5391 110.351H92.3736V108.777C92.3736 107.69 93.1961 107.228 93.5575 107.078C93.9065 106.916 93.9688 106.704 93.9688 106.704C93.9688 106.704 94.0187 106.916 94.3801 107.078C94.729 107.241 95.564 107.69 95.564 108.777V110.351H95.5391ZM100.2 110.351H97.0346V108.777C97.0346 107.69 97.8572 107.228 98.2186 107.078C98.5676 106.916 98.6299 106.704 98.6299 106.704C98.6299 106.704 98.6797 106.916 99.0411 107.078C99.3901 107.241 100.225 107.69 100.225 108.777V110.351H100.2ZM104.649 110.351H101.484V108.777C101.484 107.69 102.306 107.228 102.668 107.078C103.017 106.916 103.079 106.704 103.079 106.704C103.079 106.704 103.129 106.916 103.49 107.078C103.839 107.241 104.674 107.69 104.674 108.777V110.351H104.649ZM109.011 110.351H105.846V108.777C105.846 107.69 106.668 107.228 107.03 107.078C107.379 106.916 107.441 106.704 107.441 106.704C107.441 106.704 107.491 106.916 107.852 107.078C108.201 107.241 109.036 107.69 109.036 108.777V110.351H109.011ZM113.311 110.351H110.145V108.777C110.145 107.69 110.968 107.228 111.329 107.078C111.678 106.916 111.741 106.704 111.741 106.704C111.741 106.704 111.79 106.916 112.152 107.078C112.501 107.241 113.336 107.69 113.336 108.777V110.351H113.311ZM117.685 110.351H114.52V108.777C114.52 107.69 115.342 107.228 115.704 107.078C116.053 106.916 116.115 106.704 116.115 106.704C116.115 106.704 116.165 106.916 116.526 107.078C116.875 107.241 117.71 107.69 117.71 108.777V110.351H117.685ZM121.973 110.351H118.807V108.777C118.807 107.69 119.63 107.228 119.991 107.078C120.34 106.916 120.402 106.704 120.402 106.704C120.402 106.704 120.452 106.916 120.813 107.078C121.162 107.241 121.997 107.69 121.997 108.777V110.351H121.973ZM126.197 110.351H123.032V108.777C123.032 107.69 123.854 107.228 124.216 107.078C124.565 106.916 124.627 106.704 124.627 106.704C124.627 106.704 124.677 106.916 125.038 107.078C125.387 107.241 126.222 107.69 126.222 108.777V110.351H126.197ZM130.347 110.351H127.182V108.777C127.182 107.69 128.004 107.228 128.366 107.078C128.715 106.916 128.777 106.704 128.777 106.704C128.777 106.704 128.827 106.916 129.188 107.078C129.537 107.241 130.372 107.69 130.372 108.777V110.351H130.347Z" fill="url(#paint9_linear_14140_47313)"/>
<path d="M13.6342 201.091C14.0205 201.091 14.4816 201.204 15.0175 201.429C15.5534 201.653 16.1142 201.953 16.7 202.328C17.2857 202.703 17.8715 203.127 18.4572 203.602C19.043 204.077 19.5664 204.576 20.0151 205.088C20.4637 205.6 20.8376 206.112 21.1242 206.612C21.4109 207.112 21.548 207.586 21.548 208.011V225.547H14.706V206.887C14.706 206.55 14.6187 206.225 14.4567 205.913C14.2947 205.6 14.0454 205.45 13.7463 205.45H10.5309L12.4253 201.079H13.6466L13.6342 201.091ZM20.04 192.111L16.7872 195.371L13.4971 192.111L16.7872 188.814L20.04 192.111Z" fill="url(#paint10_linear_14140_47313)"/>
<path d="M35.3317 194.272C35.3317 195.059 35.6433 195.82 36.2789 196.532C36.9145 197.244 37.7495 197.956 38.7839 198.668C39.8183 199.368 41.0022 200.08 42.3233 200.779C43.6443 201.478 45.0028 202.203 46.3861 202.952C47.7695 203.689 49.1279 204.476 50.449 205.288C51.77 206.1 52.954 206.974 53.9884 207.911C55.0228 208.848 55.8578 209.847 56.4934 210.921C57.129 211.995 57.4405 213.157 57.4405 214.406C57.4405 215.243 57.2536 216.104 56.8673 216.991C56.2192 218.503 55.2596 219.802 53.9634 220.888C52.6798 221.975 51.1843 222.874 49.4893 223.574C47.7944 224.285 45.9749 224.798 44.0182 225.135C42.0616 225.472 40.1049 225.634 38.1483 225.634C36.1916 225.634 34.2973 225.472 32.4528 225.135C30.6208 224.798 29.0006 224.31 27.6048 223.661C26.209 223.012 25.0874 222.225 24.2399 221.288C23.3924 220.351 22.9687 219.302 22.9687 218.128C22.9687 217.141 23.2055 216.242 23.6666 215.405C24.1277 214.568 24.7259 213.819 25.4363 213.169C26.1467 212.507 26.9443 211.945 27.8042 211.483C28.6641 211.021 29.4742 210.659 30.2344 210.421L30.5585 210.821C29.7235 211.296 29.1003 211.895 28.6766 212.62C28.2653 213.332 28.0535 214.119 28.0535 214.955C28.0535 215.892 28.5271 216.704 29.4867 217.416C30.4463 218.115 31.6801 218.702 33.1881 219.177C34.7086 219.639 36.391 220.001 38.2729 220.239C40.1423 220.476 41.9992 220.601 43.8437 220.601C45.2769 220.601 46.6478 220.526 47.944 220.389C49.2401 220.251 50.3991 220.026 51.3961 219.739C52.3931 219.452 53.1908 219.09 53.7765 218.64C54.3623 218.203 54.6489 217.691 54.6489 217.116C54.6489 216.691 54.3124 216.154 53.6519 215.542C52.9789 214.918 52.1065 214.256 51.0347 213.531C49.9629 212.82 48.7665 212.07 47.433 211.308C46.0995 210.546 44.7909 209.784 43.4823 209.047C42.1737 208.311 40.9399 207.611 39.7933 206.962C38.6468 206.312 37.6996 205.763 36.9643 205.313C36.2539 204.863 35.556 204.389 34.883 203.914C34.2101 203.439 33.6243 202.94 33.1133 202.44C32.6024 201.941 32.1786 201.416 31.8546 200.879C31.5306 200.342 31.3436 199.78 31.3062 199.205V199.093L31.2689 198.843V198.731C31.2689 197.869 31.4558 197.007 31.8297 196.133C32.2036 195.258 32.6771 194.434 33.2754 193.635C33.8736 192.835 34.5465 192.111 35.3192 191.424C36.0795 190.737 36.8521 190.15 37.6248 189.65C38.3975 189.151 39.1577 188.751 39.893 188.464C40.6283 188.176 41.2889 188.039 41.8622 188.039C42.2236 188.039 42.7096 188.176 43.3452 188.439C43.9808 188.701 44.6413 189.026 45.3268 189.413C46.0122 189.8 46.6852 190.2 47.3084 190.637C47.944 191.062 48.4425 191.461 48.8288 191.824L44.8906 197.132C44.2176 196.482 43.5197 195.87 42.7719 195.271C42.0242 194.671 41.3013 194.147 40.566 193.672C39.8432 193.21 39.1453 192.835 38.4723 192.548C37.7993 192.261 37.2136 192.111 36.6777 192.086C36.3163 192.086 35.9922 192.298 35.7056 192.735C35.4189 193.16 35.2818 193.697 35.2818 194.309L35.3317 194.272Z" fill="url(#paint11_linear_14140_47313)"/>
<path d="M41.613 184.905L38.0736 188.489L34.5591 184.905L38.0736 181.382L41.613 184.905Z" fill="#FF0000"/>
<path d="M49.1654 184.905L45.626 188.489L42.0742 184.905L45.626 181.382L49.1654 184.905Z" fill="white"/>
<path d="M68.0839 217.404C67.6975 218.453 67.2863 219.477 66.8501 220.451C66.4139 221.438 65.9403 222.3 65.4543 223.049C64.9682 223.799 64.4448 224.411 63.8964 224.86C63.3481 225.31 62.7872 225.547 62.2139 225.547C61.2543 225.547 60.4193 225.272 59.6965 224.735C58.9736 224.198 58.363 223.486 57.8894 222.625C57.4158 221.75 57.0544 220.751 56.8176 219.627C56.5808 218.503 56.4562 217.366 56.4562 216.217V215.817C56.506 214.906 56.6057 214.006 56.7428 213.107C56.8924 212.208 57.1042 211.383 57.3909 210.609C57.6526 209.91 58.0514 209.198 58.5748 208.461C59.0983 207.724 59.7089 206.999 60.3819 206.287C61.0674 205.588 61.8151 204.914 62.6377 204.277C63.4602 203.64 64.3077 203.09 65.1801 202.603C66.0525 202.128 66.9373 201.753 67.8222 201.479C68.7195 201.204 69.567 201.067 70.377 201.067C70.6387 201.067 70.9503 201.067 71.3242 201.079C71.6981 201.079 72.0844 201.104 72.5082 201.129C72.9194 201.154 73.3432 201.191 73.7793 201.241C74.2031 201.291 74.6019 201.354 74.9633 201.416L74.9259 206.55C74.714 206.5 74.3526 206.437 73.8541 206.375C73.3556 206.3 72.8197 206.25 72.2589 206.2C71.6981 206.15 71.1622 206.113 70.6512 206.075C70.1402 206.038 69.7539 206.025 69.4922 206.025H69.3426C68.059 206.15 66.9996 206.587 66.1896 207.337C65.3795 208.086 64.7563 209.01 64.3326 210.084C63.9089 211.159 63.6347 212.32 63.5225 213.544C63.4104 214.781 63.3979 215.917 63.4851 216.954C63.5724 217.991 63.7344 218.853 63.9712 219.539C64.208 220.226 64.4448 220.564 64.6816 220.564C64.8934 220.564 65.1302 220.339 65.4044 219.902C65.6661 219.465 65.9403 218.877 66.2269 218.141C66.5136 217.416 66.8127 216.592 67.1243 215.68C67.4358 214.768 67.7349 213.856 68.034 212.932C68.3331 212.008 68.6073 211.121 68.8815 210.259C69.1432 209.397 69.38 208.673 69.5919 208.074H74.9259V219.552C74.9259 219.889 75.0132 220.189 75.2001 220.451C75.3746 220.714 75.6114 220.888 75.898 220.988C76.1348 221.063 76.409 221.101 76.7205 221.113C77.0321 221.113 77.3561 221.126 77.6926 221.126H82.4908V225.535H76.0476C75.1627 225.535 74.2529 225.285 73.3307 224.785C72.396 224.286 71.561 223.636 70.8008 222.849C70.0405 222.062 69.4174 221.176 68.9189 220.214C68.4204 219.252 68.1462 218.303 68.0963 217.404H68.0839Z" fill="url(#paint12_linear_14140_47313)"/>
<path d="M86.3416 219.564C86.3416 219.902 86.4289 220.201 86.5909 220.464C86.7529 220.726 86.9897 220.901 87.2763 221.001C87.5131 221.076 87.7873 221.113 88.0989 221.126C88.4104 221.138 88.7345 221.138 89.0709 221.138H97.4459V225.547H87.4633C86.5286 225.547 85.5938 225.285 84.6591 224.76C83.712 224.236 82.8645 223.561 82.1043 222.749C81.3441 221.937 80.7085 221.038 80.2224 220.064C79.7364 219.09 79.4871 218.128 79.4871 217.191V194.622C79.4871 194.284 79.4123 193.972 79.2503 193.672C79.1008 193.373 78.864 193.223 78.5524 193.223H75.337L77.2314 188.814H78.4527C79.026 188.814 79.7613 189.063 80.6586 189.551C81.5559 190.038 82.4283 190.637 83.2758 191.349C84.1232 192.061 84.8461 192.81 85.4568 193.61C86.0674 194.409 86.3665 195.134 86.3665 195.783V219.564H86.3416Z" fill="url(#paint13_linear_14140_47313)"/>
<path d="M101.907 217.404C101.521 218.453 101.11 219.477 100.674 220.451C100.237 221.438 99.7639 222.3 99.2779 223.049C98.7918 223.799 98.2684 224.411 97.72 224.86C97.1717 225.31 96.6108 225.547 96.0376 225.547C95.0779 225.547 94.2429 225.272 93.5201 224.735C92.7973 224.198 92.1866 223.486 91.713 222.625C91.2394 221.75 90.878 220.751 90.6412 219.627C90.4044 218.503 90.2798 217.366 90.2798 216.217V215.817C90.3296 214.906 90.4293 214.006 90.5664 213.107C90.716 212.208 90.9278 211.383 91.2145 210.609C91.4762 209.91 91.875 209.198 92.3984 208.461C92.9219 207.724 93.5325 206.999 94.2055 206.287C94.891 205.588 95.6388 204.914 96.4613 204.277C97.2838 203.64 98.1313 203.09 99.0037 202.603C99.8761 202.128 100.761 201.753 101.646 201.479C102.543 201.204 103.391 201.067 104.201 201.067C104.462 201.067 104.774 201.067 105.148 201.079C105.522 201.079 105.908 201.104 106.332 201.129C106.743 201.154 107.167 201.191 107.603 201.241C108.027 201.291 108.425 201.354 108.787 201.416L108.75 206.55C108.538 206.5 108.176 206.437 107.678 206.375C107.179 206.3 106.643 206.25 106.083 206.2C105.522 206.15 104.986 206.113 104.475 206.075C103.964 206.038 103.577 206.025 103.316 206.025H103.166C101.883 206.15 100.823 206.587 100.013 207.337C99.2031 208.086 98.58 209.01 98.1562 210.084C97.7325 211.159 97.4583 212.32 97.3461 213.544C97.234 214.781 97.2215 215.917 97.3088 216.954C97.396 217.991 97.558 218.853 97.7948 219.539C98.0316 220.226 98.2684 220.564 98.5052 220.564C98.717 220.564 98.9538 220.339 99.228 219.902C99.4897 219.465 99.7639 218.877 100.051 218.141C100.337 217.416 100.636 216.592 100.948 215.68C101.259 214.768 101.559 213.856 101.858 212.932C102.157 212.008 102.431 211.121 102.705 210.259C102.967 209.397 103.204 208.673 103.415 208.074H108.75V219.552C108.75 219.889 108.837 220.189 109.024 220.451C109.198 220.714 109.435 220.888 109.722 220.988C109.958 221.063 110.233 221.101 110.544 221.113C110.856 221.113 111.18 221.126 111.516 221.126H116.314V225.535H109.871C108.986 225.535 108.077 225.285 107.154 224.785C106.22 224.286 105.385 223.636 104.624 222.849C103.864 222.062 103.241 221.176 102.742 220.214C102.244 219.252 101.97 218.303 101.92 217.404H101.907Z" fill="url(#paint14_linear_14140_47313)"/>
<path d="M123.132 217.404C122.745 218.453 122.334 219.477 121.898 220.451C121.462 221.438 120.988 222.3 120.502 223.049C120.016 223.799 119.492 224.411 118.944 224.86C118.396 225.31 117.835 225.547 117.262 225.547C116.302 225.547 115.467 225.272 114.744 224.735C114.021 224.198 113.411 223.486 112.937 222.625C112.463 221.75 112.102 220.751 111.865 219.627C111.628 218.503 111.504 217.366 111.504 216.217V215.817C111.554 214.906 111.653 214.006 111.79 213.107C111.94 212.208 112.152 211.383 112.439 210.609C112.7 209.91 113.099 209.198 113.623 208.461C114.146 207.724 114.757 206.999 115.43 206.287C116.115 205.588 116.863 204.914 117.685 204.277C118.508 203.64 119.355 203.09 120.228 202.603C121.1 202.128 121.985 201.753 122.87 201.479C123.767 201.204 124.615 201.067 125.425 201.067C125.686 201.067 125.998 201.067 126.372 201.079C126.746 201.079 127.132 201.104 127.556 201.129C127.967 201.154 128.391 201.191 128.827 201.241C129.251 201.291 129.65 201.354 130.011 201.416L129.974 206.55C129.762 206.5 129.4 206.437 128.902 206.375C128.403 206.3 127.867 206.25 127.307 206.2C126.746 206.15 126.21 206.113 125.699 206.075C125.188 206.038 124.802 206.025 124.54 206.025H124.39C123.107 206.15 122.047 206.587 121.237 207.337C120.427 208.086 119.804 209.01 119.38 210.084C118.957 211.159 118.682 212.32 118.57 213.544C118.458 214.781 118.446 215.917 118.533 216.954C118.62 217.991 118.782 218.853 119.019 219.539C119.256 220.226 119.492 220.564 119.729 220.564C119.941 220.564 120.178 220.339 120.452 219.902C120.714 219.465 120.988 218.877 121.275 218.141C121.561 217.416 121.86 216.592 122.172 215.68C122.483 214.768 122.783 213.856 123.082 212.932C123.381 212.008 123.655 211.121 123.929 210.259C124.191 209.397 124.428 208.673 124.64 208.074H129.974V219.552C129.974 219.889 130.061 220.189 130.248 220.451C130.422 220.714 130.659 220.888 130.946 220.988C131.182 221.063 131.457 221.101 131.768 221.113C132.08 221.113 132.404 221.126 132.74 221.126H137.538V225.535H131.095C130.21 225.535 129.301 225.285 128.378 224.785C127.444 224.286 126.609 223.636 125.848 222.849C125.088 222.062 124.465 221.176 123.967 220.214C123.468 219.252 123.194 218.303 123.144 217.404H123.132Z" fill="url(#paint15_linear_14140_47313)"/>
<path d="M143.035 207.362C143.296 206.237 143.695 205.251 144.231 204.401C144.767 203.552 145.39 202.84 146.113 202.253C146.823 201.666 147.608 201.229 148.443 200.929C149.278 200.629 150.126 200.48 150.986 200.48C151.97 200.48 152.768 200.692 153.404 201.104C154.039 201.529 154.55 202.066 154.949 202.715C155.348 203.377 155.634 204.114 155.821 204.939C156.008 205.763 156.145 206.587 156.22 207.399C156.482 206.275 156.881 205.288 157.417 204.439C157.952 203.59 158.576 202.865 159.298 202.266C160.021 201.666 160.794 201.216 161.629 200.917C162.464 200.617 163.311 200.467 164.171 200.467C165.031 200.467 165.792 200.642 166.39 200.992C166.988 201.341 167.486 201.791 167.898 202.341C168.309 202.89 168.608 203.515 168.832 204.227C169.044 204.939 169.206 205.65 169.294 206.4C169.393 207.137 169.443 207.861 169.468 208.573C169.493 209.273 169.505 209.897 169.505 210.422V219.564C169.505 219.902 169.593 220.201 169.755 220.464C169.917 220.726 170.153 220.901 170.44 221.001C170.677 221.076 170.951 221.113 171.263 221.126C171.574 221.126 171.898 221.138 172.235 221.138H177.033V225.547H170.627C169.692 225.547 168.758 225.285 167.823 224.76C166.876 224.236 166.028 223.561 165.268 222.749C164.508 221.938 163.885 221.038 163.411 220.064C162.938 219.09 162.701 218.128 162.701 217.191V210.334C162.701 209.622 162.701 208.935 162.663 208.273C162.638 207.611 162.564 207.037 162.427 206.537C162.289 206.038 162.103 205.638 161.853 205.338C161.604 205.038 161.255 204.889 160.794 204.889C160.333 204.889 159.847 205.038 159.323 205.351C158.8 205.663 158.314 206.088 157.878 206.637C157.441 207.187 157.068 207.836 156.781 208.598C156.494 209.348 156.357 210.172 156.357 211.059V225.547H149.515V210.334C149.515 209.622 149.515 208.935 149.478 208.273C149.453 207.611 149.378 207.037 149.241 206.537C149.104 206.038 148.917 205.638 148.668 205.338C148.418 205.038 148.07 204.889 147.608 204.889C147.147 204.889 146.711 205.026 146.213 205.301C145.714 205.576 145.24 205.963 144.817 206.462C144.393 206.962 144.019 207.561 143.72 208.261C143.421 208.96 143.234 209.71 143.159 210.522V225.547H136.317V206.887C136.317 206.55 136.23 206.225 136.068 205.913C135.906 205.6 135.669 205.451 135.382 205.451H132.167L134.024 201.079H135.283C135.806 201.079 136.467 201.279 137.264 201.691C138.062 202.103 138.86 202.615 139.645 203.252C140.43 203.889 141.153 204.564 141.788 205.301C142.436 206.025 142.848 206.712 143.035 207.362Z" fill="url(#paint16_linear_14140_47313)"/>
<path d="M13.6591 236.077C13.6341 235.714 13.4846 235.627 12.7368 235.302L12.5 235.202C11.6277 234.803 11.0918 234.278 11.0918 233.279C11.0918 232.13 11.9018 231.318 13.0235 231.318C13.6341 231.318 14.2573 231.543 14.7433 231.917C14.868 232.005 14.9303 232.217 14.8555 232.354L14.5938 232.892C14.5315 233.016 14.4193 233.091 14.2822 233.091C14.2074 233.091 14.1327 233.079 14.0703 233.041C13.5968 232.717 13.2229 232.654 13.0484 232.654C12.6745 232.654 12.4377 232.879 12.4377 233.216C12.4377 233.516 12.5748 233.716 13.2977 234.041C13.335 234.041 13.4472 234.091 13.8585 234.265C14.5938 234.59 15.0175 235.227 15.0175 236.002C15.0175 237.213 14.0953 238 12.9487 238C12.3505 238 11.7274 237.788 11.2039 237.4C11.0793 237.313 11.017 237.101 11.0918 236.963L11.3784 236.426C11.4407 236.301 11.5529 236.226 11.6775 236.226C11.7523 236.226 11.8271 236.239 11.8894 236.289C12.2633 236.539 12.6122 236.664 12.9238 236.664C13.3849 236.664 13.6715 236.439 13.6715 236.064L13.6591 236.077Z" fill="white"/>
<path d="M17.9089 234.315L17.5724 237.538C17.535 237.75 17.373 237.9 17.1736 237.9H16.5629C16.4507 237.9 16.3635 237.863 16.3012 237.788C16.2389 237.7 16.2015 237.6 16.2139 237.488L16.8869 231.83C16.9118 231.58 17.0863 231.405 17.3231 231.405H18.0709C18.2578 231.405 18.4323 231.53 18.4821 231.73L19.7035 235.664L20.9124 231.717C20.9622 231.53 21.1367 231.405 21.3361 231.405H22.0091C22.2584 231.405 22.4453 231.58 22.4578 231.83L23.1307 237.488C23.1307 237.613 23.1058 237.713 23.0435 237.788C22.9812 237.863 22.8939 237.9 22.7818 237.9H22.1462C21.9468 237.9 21.7723 237.75 21.7474 237.538L21.3984 234.315L20.3765 237.638C20.3266 237.825 20.1522 237.963 19.9652 237.963H19.3421C19.1551 237.963 18.9807 237.838 18.9308 237.65L17.9089 234.328V234.315Z" fill="white"/>
<path d="M29.5116 237.388C29.5116 237.388 29.5116 237.463 29.5116 237.513C29.5116 237.725 29.3621 237.888 29.1502 237.888H28.5769C28.3775 237.888 28.2155 237.763 28.1532 237.563L27.8292 236.464H26.1841L25.8601 237.563C25.8102 237.763 25.6357 237.888 25.4488 237.888H24.8755C24.6637 237.888 24.5141 237.725 24.5141 237.513C24.5141 237.463 24.5141 237.425 24.5141 237.388L26.2713 231.693C26.3212 231.505 26.4957 231.368 26.6951 231.368H27.3182C27.5176 231.368 27.6796 231.493 27.7419 231.693L29.4992 237.388H29.5116ZM27.0066 233.666L26.5704 235.14H27.4304L26.9942 233.666H27.0066Z" fill="white"/>
<path d="M33.5745 235.315L34.8083 237.326C34.8457 237.388 34.8581 237.463 34.8581 237.525C34.8581 237.738 34.7086 237.888 34.4967 237.888H33.8362C33.6866 237.888 33.562 237.813 33.4748 237.688L32.1787 235.489H32.054V237.525C32.054 237.738 31.9045 237.888 31.7051 237.888H31.0695C30.8825 237.888 30.7205 237.738 30.7205 237.525V231.967C30.7205 231.817 30.7704 231.68 30.8701 231.58C30.9573 231.468 31.0944 231.418 31.2315 231.418H32.7395C33.8611 231.418 34.7211 232.342 34.7211 233.454C34.7211 234.265 34.2599 234.99 33.562 235.315H33.5745ZM32.0665 232.767V234.141H32.7146C33.1134 234.141 33.3875 233.853 33.3875 233.466C33.3875 233.079 33.1258 232.767 32.7146 232.767H32.0665Z" fill="white"/>
<path d="M40.0925 232.417C40.0925 232.617 39.9429 232.779 39.7435 232.779H38.5596V237.525C38.5596 237.738 38.41 237.888 38.2106 237.888H37.5625C37.3631 237.888 37.2136 237.738 37.2136 237.525V232.779H36.0296C35.8427 232.779 35.6807 232.617 35.6807 232.417V231.78C35.6807 231.568 35.8302 231.418 36.0296 231.418H39.731C39.9304 231.418 40.08 231.568 40.08 231.78V232.417H40.0925Z" fill="white"/>
<path d="M45.3144 234.315L44.9779 237.538C44.9405 237.75 44.7785 237.9 44.5791 237.9H43.9684C43.8562 237.9 43.769 237.863 43.7067 237.788C43.6444 237.7 43.607 237.6 43.6195 237.488L44.2924 231.83C44.3174 231.58 44.4918 231.405 44.7286 231.405H45.4764C45.6633 231.405 45.8378 231.53 45.8877 231.73L47.109 235.664L48.3179 231.717C48.3677 231.53 48.5422 231.405 48.7416 231.405H49.4146C49.6639 231.405 49.8508 231.58 49.8633 231.83L50.5363 237.488C50.5363 237.613 50.5113 237.713 50.449 237.788C50.3867 237.863 50.2995 237.9 50.1873 237.9H49.5517C49.3523 237.9 49.1778 237.75 49.1529 237.538L48.8039 234.315L47.782 237.638C47.7321 237.825 47.5577 237.963 47.3707 237.963H46.7476C46.5607 237.963 46.3862 237.838 46.3363 237.65L45.3144 234.328V234.315Z" fill="white"/>
<path d="M56.9296 237.388C56.9296 237.388 56.9296 237.463 56.9296 237.513C56.9296 237.725 56.7801 237.888 56.5682 237.888H55.9949C55.7955 237.888 55.6335 237.763 55.5712 237.563L55.2472 236.464H53.6021L53.278 237.563C53.2282 237.763 53.0537 237.888 52.8668 237.888H52.2935C52.0816 237.888 51.9321 237.725 51.9321 237.513C51.9321 237.463 51.9321 237.425 51.9321 237.388L53.6893 231.693C53.7392 231.505 53.9136 231.368 54.113 231.368H54.7362C54.9356 231.368 55.0976 231.493 55.1599 231.693L56.9172 237.388H56.9296ZM54.4246 233.666L53.9884 235.14H54.8483L54.4121 233.666H54.4246Z" fill="white"/>
<path d="M60.4939 236.077C60.469 235.714 60.3194 235.627 59.5717 235.302L59.3349 235.202C58.4625 234.803 57.9266 234.278 57.9266 233.279C57.9266 232.13 58.7367 231.318 59.8583 231.318C60.469 231.318 61.0921 231.543 61.5782 231.917C61.7028 232.005 61.7651 232.217 61.6903 232.354L61.4286 232.892C61.3663 233.016 61.2541 233.091 61.117 233.091C61.0423 233.091 60.9675 233.079 60.9052 233.041C60.4316 232.717 60.0577 232.654 59.8832 232.654C59.5094 232.654 59.2726 232.879 59.2726 233.216C59.2726 233.516 59.4097 233.716 60.1325 234.041C60.1699 234.041 60.282 234.091 60.6933 234.265C61.4286 234.59 61.8524 235.227 61.8524 236.002C61.8524 237.213 60.9301 238 59.7835 238C59.1853 238 58.5622 237.788 58.0388 237.4C57.9141 237.313 57.8518 237.101 57.9266 236.963L58.2132 236.426C58.2755 236.301 58.3877 236.226 58.5123 236.226C58.5871 236.226 58.6619 236.239 58.7242 236.289C59.0981 236.539 59.447 236.664 59.7586 236.664C60.2197 236.664 60.5064 236.439 60.5064 236.064L60.4939 236.077Z" fill="white"/>
<path d="M64.8185 231.38C65.0055 231.38 65.155 231.543 65.155 231.742V236.214C65.155 237.101 64.5568 237.888 63.6221 237.888H62.9491C62.7497 237.888 62.6002 237.738 62.6002 237.525V236.901C62.6002 236.701 62.7497 236.539 62.9491 236.539H63.5598C63.647 236.539 63.7093 236.526 63.7467 236.464C63.7966 236.414 63.8215 236.339 63.8215 236.226V231.755C63.8215 231.555 63.9711 231.393 64.1705 231.393H64.8185V231.38Z" fill="white"/>
<path d="M69.1057 231.38C69.2926 231.38 69.4546 231.543 69.4546 231.742V232.329C69.4546 232.542 69.3051 232.692 69.1057 232.692H68.5947V236.564H69.1057C69.2926 236.564 69.4546 236.726 69.4546 236.926V237.513C69.4546 237.725 69.3051 237.875 69.1057 237.875H66.7253C66.5384 237.875 66.3763 237.725 66.3763 237.513V236.926C66.3763 236.726 66.5259 236.564 66.7253 236.564H67.2363V232.692H66.7253C66.5384 232.692 66.3763 232.542 66.3763 232.329V231.742C66.3763 231.543 66.5259 231.38 66.7253 231.38H69.1057Z" fill="white"/>
<path d="M75.2747 235.34C75.2747 236.714 74.2777 237.9 72.8694 237.9H71.2866C70.9875 237.9 70.7632 237.638 70.7632 237.351V231.98C70.7632 231.83 70.813 231.692 70.9127 231.593C71 231.48 71.1371 231.43 71.2742 231.43H72.8569C74.2652 231.43 75.2622 232.629 75.2622 234.003V235.34H75.2747ZM73.9412 233.966C73.9412 233.354 73.4676 232.792 72.832 232.792H72.0967V236.526H72.832C73.4676 236.526 73.9412 235.952 73.9412 235.34V233.966Z" fill="white"/>
<path d="M80.7209 234.315L80.3844 237.538C80.3471 237.75 80.185 237.9 79.9856 237.9H79.375C79.2628 237.9 79.1756 237.863 79.1132 237.788C79.0509 237.7 79.0135 237.6 79.026 237.488L79.699 231.83C79.7239 231.58 79.8984 231.405 80.1352 231.405H80.883C81.0699 231.405 81.2444 231.53 81.2942 231.73L82.5156 235.664L83.7245 231.717C83.7743 231.53 83.9488 231.405 84.1482 231.405H84.8212C85.0704 231.405 85.2574 231.58 85.2698 231.83L85.9428 237.488C85.9428 237.613 85.9179 237.713 85.8556 237.788C85.7933 237.863 85.706 237.9 85.5939 237.9H84.9583C84.7589 237.9 84.5844 237.75 84.5595 237.538L84.2105 234.315L83.1886 237.638C83.1387 237.825 82.9642 237.963 82.7773 237.963H82.1541C81.9672 237.963 81.7927 237.838 81.7429 237.65L80.7209 234.328V234.315Z" fill="white"/>
<path d="M92.3237 237.388C92.3237 237.388 92.3237 237.463 92.3237 237.513C92.3237 237.725 92.1742 237.888 91.9623 237.888H91.389C91.1896 237.888 91.0276 237.763 90.9653 237.563L90.6413 236.464H88.9962L88.6721 237.563C88.6223 237.763 88.4478 237.888 88.2609 237.888H87.6876C87.4757 237.888 87.3262 237.725 87.3262 237.513C87.3262 237.463 87.3262 237.425 87.3262 237.388L89.0834 231.693C89.1333 231.505 89.3077 231.368 89.5071 231.368H90.1303C90.3297 231.368 90.4917 231.493 90.554 231.693L92.3113 237.388H92.3237ZM89.8187 233.666L89.3825 235.14H90.2425L89.8062 233.666H89.8187Z" fill="white"/>
<path d="M94.8536 234.103V237.525C94.8536 237.738 94.704 237.888 94.5046 237.888H93.9314C93.7444 237.888 93.5824 237.738 93.5824 237.525V231.842C93.5824 231.605 93.7693 231.405 93.9937 231.405H94.6542C94.8037 231.405 94.9284 231.48 95.0156 231.618L97.0221 235.215V231.78C97.0221 231.568 97.1717 231.418 97.3711 231.418H97.9568C98.1438 231.418 98.2933 231.568 98.2933 231.78V237.463C98.2933 237.7 98.1064 237.9 97.882 237.9H97.2091C97.0595 237.9 96.9349 237.825 96.8476 237.688L94.8536 234.103Z" fill="white"/>
<path d="M104.612 237.388C104.612 237.388 104.612 237.463 104.612 237.513C104.612 237.725 104.462 237.888 104.251 237.888H103.677C103.478 237.888 103.316 237.763 103.253 237.563L102.929 236.464H101.284L100.96 237.563C100.911 237.763 100.736 237.888 100.549 237.888H99.9758C99.7639 237.888 99.6144 237.725 99.6144 237.513C99.6144 237.463 99.6144 237.425 99.6144 237.388L101.372 231.693C101.421 231.505 101.596 231.368 101.795 231.368H102.418C102.618 231.368 102.78 231.493 102.842 231.693L104.599 237.388H104.612ZM102.107 233.666L101.671 235.14H102.531L102.094 233.666H102.107Z" fill="white"/>
<path d="M109.684 233.891C109.983 233.891 110.22 234.153 110.22 234.453V235.44C110.22 236.726 109.211 237.888 107.902 237.888C106.594 237.888 105.572 236.726 105.572 235.44V233.616C105.572 232.317 106.569 231.168 107.902 231.168C108.637 231.168 109.298 231.468 109.734 231.98C109.784 232.055 109.821 232.142 109.821 232.242C109.821 232.342 109.784 232.442 109.722 232.529L109.348 232.942C109.273 233.029 109.186 233.066 109.086 233.066C109.011 233.066 108.912 233.054 108.812 232.942C108.575 232.679 108.276 232.542 107.902 232.542C107.341 232.542 106.905 233.079 106.905 233.628V235.452C106.905 235.989 107.341 236.539 107.902 236.539C108.463 236.539 108.887 236.039 108.887 235.489V235.252H107.964C107.777 235.252 107.615 235.102 107.615 234.89V234.278C107.615 234.078 107.765 233.916 107.964 233.916H109.684V233.891Z" fill="white"/>
<path d="M113.024 232.792V233.878H114.42C114.619 233.878 114.769 234.028 114.769 234.24V234.852C114.769 235.052 114.619 235.215 114.42 235.215H113.024V236.539H114.968C115.155 236.539 115.317 236.701 115.317 236.901V237.538C115.317 237.75 115.168 237.9 114.968 237.9H112.214C111.915 237.9 111.691 237.638 111.691 237.351V231.98C111.691 231.83 111.741 231.692 111.84 231.593C111.928 231.48 112.065 231.43 112.202 231.43H114.956C115.143 231.43 115.305 231.58 115.305 231.792V232.429C115.305 232.629 115.155 232.792 114.956 232.792H113.012H113.024Z" fill="white"/>
<path d="M118.271 234.315L117.935 237.538C117.897 237.75 117.735 237.9 117.536 237.9H116.925C116.813 237.9 116.726 237.863 116.663 237.788C116.601 237.7 116.564 237.6 116.576 237.488L117.249 231.83C117.274 231.58 117.449 231.405 117.685 231.405H118.433C118.62 231.405 118.794 231.53 118.844 231.73L120.066 235.664L121.275 231.717C121.324 231.53 121.499 231.405 121.698 231.405H122.371C122.621 231.405 122.807 231.58 122.82 231.83L123.493 237.488C123.493 237.613 123.468 237.713 123.406 237.788C123.343 237.863 123.256 237.9 123.144 237.9H122.508C122.309 237.9 122.134 237.75 122.11 237.538L121.761 234.315L120.739 237.638C120.689 237.825 120.514 237.963 120.327 237.963H119.704C119.517 237.963 119.343 237.838 119.293 237.65L118.271 234.328V234.315Z" fill="white"/>
<path d="M126.397 232.792V233.878H127.793C127.992 233.878 128.142 234.028 128.142 234.24V234.852C128.142 235.052 127.992 235.215 127.793 235.215H126.397V236.539H128.341C128.528 236.539 128.69 236.701 128.69 236.901V237.538C128.69 237.75 128.54 237.9 128.341 237.9H125.587C125.288 237.9 125.063 237.638 125.063 237.351V231.98C125.063 231.83 125.113 231.692 125.213 231.593C125.3 231.48 125.437 231.43 125.574 231.43H128.328C128.515 231.43 128.677 231.58 128.677 231.792V232.429C128.677 232.629 128.528 232.792 128.328 232.792H126.384H126.397Z" fill="white"/>
<path d="M131.357 234.103V237.525C131.357 237.738 131.207 237.888 131.008 237.888H130.435C130.248 237.888 130.086 237.738 130.086 237.525V231.842C130.086 231.605 130.273 231.405 130.497 231.405H131.157C131.307 231.405 131.432 231.48 131.519 231.618L133.525 235.215V231.78C133.525 231.568 133.675 231.418 133.874 231.418H134.46C134.647 231.418 134.797 231.568 134.797 231.78V237.463C134.797 237.7 134.61 237.9 134.385 237.9H133.712C133.563 237.9 133.438 237.825 133.351 237.688L131.357 234.103Z" fill="white"/>
<path d="M140.517 232.417C140.517 232.617 140.367 232.779 140.168 232.779H138.984V237.525C138.984 237.738 138.835 237.888 138.635 237.888H137.987C137.788 237.888 137.638 237.738 137.638 237.525V232.779H136.454C136.267 232.779 136.105 232.617 136.105 232.417V231.78C136.105 231.568 136.255 231.418 136.454 231.418H140.156C140.355 231.418 140.505 231.568 140.505 231.78V232.417H140.517Z" fill="white"/>
<path d="M146.412 236.077C146.387 235.714 146.237 235.627 145.49 235.302L145.253 235.202C144.38 234.803 143.845 234.278 143.845 233.279C143.845 232.13 144.655 231.318 145.776 231.318C146.387 231.318 147.01 231.543 147.496 231.917C147.621 232.005 147.683 232.217 147.608 232.354L147.347 232.892C147.284 233.016 147.172 233.091 147.035 233.091C146.96 233.091 146.885 233.079 146.823 233.041C146.35 232.717 145.976 232.654 145.801 232.654C145.427 232.654 145.191 232.879 145.191 233.216C145.191 233.516 145.328 233.716 146.05 234.041C146.088 234.041 146.2 234.091 146.611 234.265C147.347 234.59 147.77 235.227 147.77 236.002C147.77 237.213 146.848 238 145.702 238C145.103 238 144.48 237.788 143.957 237.4C143.832 237.313 143.77 237.101 143.845 236.963L144.131 236.426C144.194 236.301 144.306 236.226 144.43 236.226C144.505 236.226 144.58 236.239 144.642 236.289C145.016 236.539 145.365 236.664 145.677 236.664C146.138 236.664 146.424 236.439 146.424 236.064L146.412 236.077Z" fill="white"/>
<path d="M153.079 231.418C153.279 231.418 153.441 231.58 153.441 231.792C153.441 231.867 153.428 231.942 153.379 232.005L151.696 234.965V237.525C151.696 237.738 151.547 237.888 151.347 237.888H150.712C150.512 237.888 150.363 237.738 150.363 237.525V234.965L148.68 232.005C148.63 231.942 148.618 231.867 148.618 231.792C148.618 231.58 148.78 231.418 148.979 231.418H149.652C149.789 231.418 149.901 231.48 149.964 231.605L151.023 233.541L152.082 231.605C152.145 231.48 152.257 231.418 152.394 231.418H153.067H153.079Z" fill="white"/>
<path d="M156.856 236.077C156.831 235.714 156.681 235.627 155.933 235.302L155.697 235.202C154.824 234.803 154.288 234.278 154.288 233.279C154.288 232.13 155.098 231.318 156.22 231.318C156.831 231.318 157.454 231.543 157.94 231.917C158.064 232.005 158.127 232.217 158.052 232.354L157.79 232.892C157.728 233.016 157.616 233.091 157.479 233.091C157.404 233.091 157.329 233.079 157.267 233.041C156.793 232.717 156.419 232.654 156.245 232.654C155.871 232.654 155.634 232.879 155.634 233.216C155.634 233.516 155.771 233.716 156.494 234.041C156.532 234.041 156.644 234.091 157.055 234.265C157.79 234.59 158.214 235.227 158.214 236.002C158.214 237.213 157.292 238 156.145 238C155.547 238 154.924 237.788 154.4 237.4C154.276 237.313 154.214 237.101 154.288 236.963L154.575 236.426C154.637 236.301 154.749 236.226 154.874 236.226C154.949 236.226 155.024 236.239 155.086 236.289C155.46 236.539 155.809 236.664 156.12 236.664C156.581 236.664 156.868 236.439 156.868 236.064L156.856 236.077Z" fill="white"/>
<path d="M163.486 232.417C163.486 232.617 163.336 232.779 163.137 232.779H161.953V237.525C161.953 237.738 161.803 237.888 161.604 237.888H160.956C160.756 237.888 160.607 237.738 160.607 237.525V232.779H159.423C159.236 232.779 159.074 232.617 159.074 232.417V231.78C159.074 231.568 159.224 231.418 159.423 231.418H163.124C163.324 231.418 163.473 231.568 163.473 231.78V232.417H163.486Z" fill="white"/>
<path d="M166.066 232.792V233.878H167.461C167.661 233.878 167.81 234.028 167.81 234.24V234.852C167.81 235.052 167.661 235.215 167.461 235.215H166.066V236.539H168.01C168.197 236.539 168.359 236.701 168.359 236.901V237.538C168.359 237.75 168.209 237.9 168.01 237.9H165.256C164.956 237.9 164.732 237.638 164.732 237.351V231.98C164.732 231.83 164.782 231.692 164.882 231.593C164.969 231.48 165.106 231.43 165.243 231.43H167.997C168.184 231.43 168.346 231.58 168.346 231.792V232.429C168.346 232.629 168.197 232.792 167.997 232.792H166.053H166.066Z" fill="white"/>
<path d="M171.312 234.315L170.976 237.538C170.938 237.75 170.776 237.9 170.577 237.9H169.966C169.854 237.9 169.767 237.863 169.705 237.788C169.642 237.7 169.605 237.6 169.617 237.488L170.29 231.83C170.315 231.58 170.49 231.405 170.727 231.405H171.474C171.661 231.405 171.836 231.53 171.886 231.73L173.107 235.664L174.316 231.717C174.366 231.53 174.54 231.405 174.74 231.405H175.413C175.662 231.405 175.849 231.58 175.861 231.83L176.534 237.488C176.534 237.613 176.509 237.713 176.447 237.788C176.385 237.863 176.297 237.9 176.185 237.9H175.55C175.35 237.9 175.176 237.75 175.151 237.538L174.802 234.315L173.78 237.638C173.73 237.825 173.556 237.963 173.369 237.963H172.746C172.559 237.963 172.384 237.838 172.334 237.65L171.312 234.328V234.315Z" fill="white"/>
<defs>
<linearGradient id="paint0_linear_14140_47313" x1="24.5889" y1="134.157" x2="225.607" y2="186.798" gradientUnits="userSpaceOnUse">
<stop stop-color="#D69C47"/>
<stop offset="0.17" stop-color="#FFE68F"/>
<stop offset="0.28" stop-color="#E8BC66"/>
<stop offset="0.37" stop-color="#D69C47"/>
<stop offset="0.5" stop-color="#ECC675"/>
<stop offset="0.6" stop-color="#FFEB9E"/>
<stop offset="0.74" stop-color="#977943"/>
<stop offset="0.81" stop-color="#603D13"/>
<stop offset="0.91" stop-color="#7A5118"/>
<stop offset="0.95" stop-color="#8C5E1C"/>
<stop offset="1" stop-color="#D69C47"/>
</linearGradient>
<linearGradient id="paint1_linear_14140_47313" x1="135.794" y1="59.6527" x2="31.3812" y2="59.6527" gradientUnits="userSpaceOnUse">
<stop stop-color="#D69C47"/>
<stop offset="0.17" stop-color="#FFE68F"/>
<stop offset="0.28" stop-color="#E8BC66"/>
<stop offset="0.37" stop-color="#D69C47"/>
<stop offset="0.5" stop-color="#ECC675"/>
<stop offset="0.6" stop-color="#FFEB9E"/>
<stop offset="0.74" stop-color="#977943"/>
<stop offset="0.81" stop-color="#603D13"/>
<stop offset="0.91" stop-color="#7A5118"/>
<stop offset="0.95" stop-color="#8C5E1C"/>
<stop offset="1" stop-color="#D69C47"/>
</linearGradient>
<linearGradient id="paint2_linear_14140_47313" x1="91.6009" y1="23.5814" x2="100.331" y2="32.2928" gradientUnits="userSpaceOnUse">
<stop stop-color="#D69C47"/>
<stop offset="0.17" stop-color="#FFE68F"/>
<stop offset="0.28" stop-color="#E8BC66"/>
<stop offset="0.37" stop-color="#D69C47"/>
<stop offset="0.5" stop-color="#ECC675"/>
<stop offset="0.6" stop-color="#FFEB9E"/>
<stop offset="0.74" stop-color="#977943"/>
<stop offset="0.81" stop-color="#603D13"/>
<stop offset="0.91" stop-color="#7A5118"/>
<stop offset="0.95" stop-color="#8C5E1C"/>
<stop offset="1" stop-color="#D69C47"/>
</linearGradient>
<linearGradient id="paint3_linear_14140_47313" x1="40.9152" y1="99.172" x2="11.6776" y2="99.172" gradientUnits="userSpaceOnUse">
<stop stop-color="#D69C47"/>
<stop offset="0.17" stop-color="#FFE68F"/>
<stop offset="0.28" stop-color="#E8BC66"/>
<stop offset="0.37" stop-color="#D69C47"/>
<stop offset="0.5" stop-color="#ECC675"/>
<stop offset="0.6" stop-color="#FFEB9E"/>
<stop offset="0.74" stop-color="#977943"/>
<stop offset="0.81" stop-color="#603D13"/>
<stop offset="0.91" stop-color="#7A5118"/>
<stop offset="0.95" stop-color="#8C5E1C"/>
<stop offset="1" stop-color="#D69C47"/>
</linearGradient>
<linearGradient id="paint4_linear_14140_47313" x1="165.056" y1="99.172" x2="132.94" y2="99.172" gradientUnits="userSpaceOnUse">
<stop stop-color="#D69C47"/>
<stop offset="0.17" stop-color="#FFE68F"/>
<stop offset="0.28" stop-color="#E8BC66"/>
<stop offset="0.37" stop-color="#D69C47"/>
<stop offset="0.5" stop-color="#ECC675"/>
<stop offset="0.6" stop-color="#FFEB9E"/>
<stop offset="0.74" stop-color="#977943"/>
<stop offset="0.81" stop-color="#603D13"/>
<stop offset="0.91" stop-color="#7A5118"/>
<stop offset="0.95" stop-color="#8C5E1C"/>
<stop offset="1" stop-color="#D69C47"/>
</linearGradient>
<linearGradient id="paint5_linear_14140_47313" x1="34.8582" y1="46.9129" x2="26.638" y2="42.7682" gradientUnits="userSpaceOnUse">
<stop stop-color="#D69C47"/>
<stop offset="0.17" stop-color="#FFE68F"/>
<stop offset="0.28" stop-color="#E8BC66"/>
<stop offset="0.37" stop-color="#D69C47"/>
<stop offset="0.5" stop-color="#ECC675"/>
<stop offset="0.6" stop-color="#FFEB9E"/>
<stop offset="0.74" stop-color="#977943"/>
<stop offset="0.81" stop-color="#603D13"/>
<stop offset="0.91" stop-color="#7A5118"/>
<stop offset="0.95" stop-color="#8C5E1C"/>
<stop offset="1" stop-color="#D69C47"/>
</linearGradient>
<linearGradient id="paint6_linear_14140_47313" x1="157.678" y1="46.2634" x2="152.054" y2="44.086" gradientUnits="userSpaceOnUse">
<stop stop-color="#D69C47"/>
<stop offset="0.17" stop-color="#FFE68F"/>
<stop offset="0.28" stop-color="#E8BC66"/>
<stop offset="0.37" stop-color="#D69C47"/>
<stop offset="0.5" stop-color="#ECC675"/>
<stop offset="0.6" stop-color="#FFEB9E"/>
<stop offset="0.74" stop-color="#977943"/>
<stop offset="0.81" stop-color="#603D13"/>
<stop offset="0.91" stop-color="#7A5118"/>
<stop offset="0.95" stop-color="#8C5E1C"/>
<stop offset="1" stop-color="#D69C47"/>
</linearGradient>
<linearGradient id="paint7_linear_14140_47313" x1="133.675" y1="44.415" x2="6.01955" y2="44.415" gradientUnits="userSpaceOnUse">
<stop stop-color="#D69C47"/>
<stop offset="0.17" stop-color="#FFE68F"/>
<stop offset="0.28" stop-color="#E8BC66"/>
<stop offset="0.37" stop-color="#D69C47"/>
<stop offset="0.5" stop-color="#ECC675"/>
<stop offset="0.6" stop-color="#FFEB9E"/>
<stop offset="0.74" stop-color="#977943"/>
<stop offset="0.81" stop-color="#603D13"/>
<stop offset="0.91" stop-color="#7A5118"/>
<stop offset="0.95" stop-color="#8C5E1C"/>
<stop offset="1" stop-color="#D69C47"/>
</linearGradient>
<linearGradient id="paint8_linear_14140_47313" x1="136.866" y1="137.904" x2="30.9824" y2="137.904" gradientUnits="userSpaceOnUse">
<stop stop-color="#D69C47"/>
<stop offset="0.17" stop-color="#FFE68F"/>
<stop offset="0.28" stop-color="#E8BC66"/>
<stop offset="0.37" stop-color="#D69C47"/>
<stop offset="0.5" stop-color="#ECC675"/>
<stop offset="0.6" stop-color="#FFEB9E"/>
<stop offset="0.74" stop-color="#977943"/>
<stop offset="0.81" stop-color="#603D13"/>
<stop offset="0.91" stop-color="#7A5118"/>
<stop offset="0.95" stop-color="#8C5E1C"/>
<stop offset="1" stop-color="#D69C47"/>
</linearGradient>
<linearGradient id="paint9_linear_14140_47313" x1="133.974" y1="108.527" x2="33.0262" y2="108.527" gradientUnits="userSpaceOnUse">
<stop stop-color="#D69C47"/>
<stop offset="0.17" stop-color="#FFE68F"/>
<stop offset="0.28" stop-color="#E8BC66"/>
<stop offset="0.37" stop-color="#D69C47"/>
<stop offset="0.5" stop-color="#ECC675"/>
<stop offset="0.6" stop-color="#FFEB9E"/>
<stop offset="0.74" stop-color="#977943"/>
<stop offset="0.81" stop-color="#603D13"/>
<stop offset="0.91" stop-color="#7A5118"/>
<stop offset="0.95" stop-color="#8C5E1C"/>
<stop offset="1" stop-color="#D69C47"/>
</linearGradient>
<linearGradient id="paint10_linear_14140_47313" x1="6.43071" y1="206.6" x2="228.034" y2="220.552" gradientUnits="userSpaceOnUse">
<stop stop-color="#D69C47"/>
<stop offset="0.17" stop-color="#FFE68F"/>
<stop offset="0.28" stop-color="#E8BC66"/>
<stop offset="0.37" stop-color="#D69C47"/>
<stop offset="0.5" stop-color="#ECC675"/>
<stop offset="0.6" stop-color="#FFEB9E"/>
<stop offset="0.74" stop-color="#977943"/>
<stop offset="0.81" stop-color="#603D13"/>
<stop offset="0.91" stop-color="#7A5118"/>
<stop offset="0.95" stop-color="#8C5E1C"/>
<stop offset="1" stop-color="#D69C47"/>
</linearGradient>
<linearGradient id="paint11_linear_14140_47313" x1="6.54284" y1="204.738" x2="228.146" y2="218.704" gradientUnits="userSpaceOnUse">
<stop stop-color="#D69C47"/>
<stop offset="0.17" stop-color="#FFE68F"/>
<stop offset="0.28" stop-color="#E8BC66"/>
<stop offset="0.37" stop-color="#D69C47"/>
<stop offset="0.5" stop-color="#ECC675"/>
<stop offset="0.6" stop-color="#FFEB9E"/>
<stop offset="0.74" stop-color="#977943"/>
<stop offset="0.81" stop-color="#603D13"/>
<stop offset="0.91" stop-color="#7A5118"/>
<stop offset="0.95" stop-color="#8C5E1C"/>
<stop offset="1" stop-color="#D69C47"/>
</linearGradient>
<linearGradient id="paint12_linear_14140_47313" x1="6.24391" y1="209.497" x2="227.847" y2="223.45" gradientUnits="userSpaceOnUse">
<stop stop-color="#D69C47"/>
<stop offset="0.17" stop-color="#FFE68F"/>
<stop offset="0.28" stop-color="#E8BC66"/>
<stop offset="0.37" stop-color="#D69C47"/>
<stop offset="0.5" stop-color="#ECC675"/>
<stop offset="0.6" stop-color="#FFEB9E"/>
<stop offset="0.74" stop-color="#977943"/>
<stop offset="0.81" stop-color="#603D13"/>
<stop offset="0.91" stop-color="#7A5118"/>
<stop offset="0.95" stop-color="#8C5E1C"/>
<stop offset="1" stop-color="#D69C47"/>
</linearGradient>
<linearGradient id="paint13_linear_14140_47313" x1="6.69242" y1="202.365" x2="228.296" y2="216.318" gradientUnits="userSpaceOnUse">
<stop stop-color="#D69C47"/>
<stop offset="0.17" stop-color="#FFE68F"/>
<stop offset="0.28" stop-color="#E8BC66"/>
<stop offset="0.37" stop-color="#D69C47"/>
<stop offset="0.5" stop-color="#ECC675"/>
<stop offset="0.6" stop-color="#FFEB9E"/>
<stop offset="0.74" stop-color="#977943"/>
<stop offset="0.81" stop-color="#603D13"/>
<stop offset="0.91" stop-color="#7A5118"/>
<stop offset="0.95" stop-color="#8C5E1C"/>
<stop offset="1" stop-color="#D69C47"/>
</linearGradient>
<linearGradient id="paint14_linear_14140_47313" x1="6.38082" y1="207.362" x2="227.984" y2="221.327" gradientUnits="userSpaceOnUse">
<stop stop-color="#D69C47"/>
<stop offset="0.17" stop-color="#FFE68F"/>
<stop offset="0.28" stop-color="#E8BC66"/>
<stop offset="0.37" stop-color="#D69C47"/>
<stop offset="0.5" stop-color="#ECC675"/>
<stop offset="0.6" stop-color="#FFEB9E"/>
<stop offset="0.74" stop-color="#977943"/>
<stop offset="0.81" stop-color="#603D13"/>
<stop offset="0.91" stop-color="#7A5118"/>
<stop offset="0.95" stop-color="#8C5E1C"/>
<stop offset="1" stop-color="#D69C47"/>
</linearGradient>
<linearGradient id="paint15_linear_14140_47313" x1="6.46811" y1="206.025" x2="228.071" y2="219.978" gradientUnits="userSpaceOnUse">
<stop stop-color="#D69C47"/>
<stop offset="0.17" stop-color="#FFE68F"/>
<stop offset="0.28" stop-color="#E8BC66"/>
<stop offset="0.37" stop-color="#D69C47"/>
<stop offset="0.5" stop-color="#ECC675"/>
<stop offset="0.6" stop-color="#FFEB9E"/>
<stop offset="0.74" stop-color="#977943"/>
<stop offset="0.81" stop-color="#603D13"/>
<stop offset="0.91" stop-color="#7A5118"/>
<stop offset="0.95" stop-color="#8C5E1C"/>
<stop offset="1" stop-color="#D69C47"/>
</linearGradient>
<linearGradient id="paint16_linear_14140_47313" x1="6.59284" y1="203.914" x2="228.196" y2="217.879" gradientUnits="userSpaceOnUse">
<stop stop-color="#D69C47"/>
<stop offset="0.17" stop-color="#FFE68F"/>
<stop offset="0.28" stop-color="#E8BC66"/>
<stop offset="0.37" stop-color="#D69C47"/>
<stop offset="0.5" stop-color="#ECC675"/>
<stop offset="0.6" stop-color="#FFEB9E"/>
<stop offset="0.74" stop-color="#977943"/>
<stop offset="0.81" stop-color="#603D13"/>
<stop offset="0.91" stop-color="#7A5118"/>
<stop offset="0.95" stop-color="#8C5E1C"/>
<stop offset="1" stop-color="#D69C47"/>
</linearGradient>
</defs>
</svg>
