<svg width="50" height="48" viewBox="0 0 50 48" fill="none" xmlns="http://www.w3.org/2000/svg">
<g clip-path="url(#clip0_14140_47247)">
<path d="M27.4205 46.6427C27.3974 46.5599 27.447 46.4705 27.5298 46.4474L49.9503 40.7039L49.8642 40.3597L27.2715 46.0667L49.7086 39.1547L48.606 38.5059C47.1126 38.817 44.0762 39.4328 40.4603 40.1014C35.4901 41.0184 28.0497 41.6904 24.9801 45.5039C21.9106 41.6937 14.4702 41.0184 9.5 40.1014C5.88411 39.4328 2.84768 38.817 1.3543 38.5059L0.251656 39.1547L22.6887 46.0667L0.0860927 40.3597L0 40.7039L22.4205 46.4474C22.5033 46.4739 22.553 46.5599 22.5298 46.6427L22.3609 47.2518C22.2682 47.5828 22.5166 47.9105 22.8609 47.9105H27.0894C27.4338 47.9105 27.6821 47.5828 27.5894 47.2518L27.4205 46.6427Z" fill="url(#paint0_linear_14140_47247)"/>
<path d="M15.7749 27.1382C15.3676 27.1117 15 26.88 14.808 26.5192C14.2583 25.4863 13.9139 24.1721 14.1391 22.5732C14.6954 18.6405 21.298 14.7078 23.9702 12.5594C23.9702 12.5263 23.9603 12.4965 23.9603 12.4601C23.9603 12.139 24.1126 11.851 24.3477 11.669C24.5596 11.5034 24.6954 11.2552 24.7186 10.987L24.8146 9.93433C24.6954 9.87474 24.6126 9.75557 24.6126 9.61323C24.6126 9.6033 24.6126 9.59667 24.6126 9.58674C23.5398 9.43778 22.6192 8.62012 22.4206 7.45819C22.1821 6.06123 23.1557 4.7073 24.5563 4.47888C24.5629 4.47888 24.5696 4.47888 24.5729 4.47888C23.5497 4.90923 22.9934 6.06454 23.3576 7.16357C23.6921 8.16992 24.7451 8.79557 25.7881 8.6135C26.6987 8.45461 27.3543 7.75612 27.5364 6.92854C27.5431 6.90536 27.5464 6.88219 27.5497 6.85902C27.5497 6.85902 27.5497 6.85571 27.5497 6.8524C27.6358 8.05736 26.8643 9.19612 25.6557 9.52716C25.5464 9.55695 25.4371 9.58012 25.3278 9.59336C25.3278 9.6033 25.3278 9.60992 25.3278 9.61985C25.3278 9.76219 25.2451 9.88468 25.1259 9.94095L25.2219 10.9936C25.2484 11.2618 25.3808 11.5101 25.5927 11.6756C25.8278 11.861 25.9802 12.1456 25.9802 12.4667C25.9802 12.4998 25.9735 12.533 25.9702 12.5661C28.6391 14.7145 35.2451 18.6472 35.8013 22.5798C36.0265 24.1787 35.6821 25.493 35.1325 26.5258C34.9404 26.8866 34.5729 27.1183 34.1656 27.1448H15.7649L15.7749 27.1382Z" fill="url(#paint1_linear_14140_47247)"/>
<path d="M24.5265 6.9683L24.4205 7.58071L24.9735 7.29271L25.5265 7.58071L25.4205 6.9683L25.8675 6.53133L25.2483 6.44196L24.9735 5.88251L24.6987 6.44196L24.0795 6.53133L24.5265 6.9683Z" fill="url(#paint2_linear_14140_47247)"/>
<path d="M11.3775 22.1992H10.9967V16.4425H10.9801C11.0166 16.416 11.0497 16.3829 11.0695 16.3432C11.2053 16.085 11.2914 15.7573 11.2351 15.36C11.0729 14.2047 8.81126 13.0527 8.54305 12.6257C8.27484 13.0494 6.01325 14.2047 5.851 15.36C5.79471 15.7573 5.8808 16.085 6.01656 16.3432C6.03974 16.3829 6.06954 16.416 6.10596 16.4425H6.08941V22.1992H5.71192C5.51325 22.1992 5.35431 22.3581 5.35431 22.5567V24.3873C5.35431 24.7713 5.56292 25.1288 5.89736 25.3208L6.08941 25.4301V39.0389C7.13577 39.2408 8.28146 39.4593 9.49338 39.6844C9.97351 39.7738 10.4768 39.8599 10.9967 39.9459V25.4301L11.1921 25.3208C11.5265 25.1288 11.7351 24.7746 11.7351 24.3873V22.5567C11.7351 22.3581 11.5762 22.1992 11.3808 22.1992H11.3775ZM7.51325 22.1992H6.65232V18.1208C6.65232 17.8825 6.84438 17.6938 7.08279 17.6938C7.20199 17.6938 7.30795 17.7402 7.38742 17.8196C7.46689 17.8957 7.51325 18.005 7.51325 18.1208V22.1992ZM8.97351 22.1992H8.1159V18.1208C8.1159 17.8825 8.30795 17.6938 8.54305 17.6938C8.77815 17.6938 8.9702 17.8858 8.9702 18.1208V22.1992H8.97351ZM10.4338 22.1992H9.57616V18.1208C9.57616 17.8825 9.76822 17.6938 10.0033 17.6938C10.1225 17.6938 10.2285 17.7402 10.308 17.8196C10.3841 17.8957 10.4338 18.005 10.4338 18.1208V22.1992Z" fill="url(#paint3_linear_14140_47247)"/>
<path d="M44.2384 22.1992H43.8576V16.4425H43.841C43.8775 16.416 43.9073 16.3829 43.9304 16.3432C44.0695 16.085 44.1523 15.7573 44.096 15.36C43.9338 14.2047 41.6722 13.0527 41.404 12.6257C41.1357 13.0494 38.8742 14.2047 38.7119 15.36C38.6556 15.7573 38.7417 16.085 38.8775 16.3432C38.9006 16.3829 38.9304 16.416 38.9669 16.4425H38.947V22.1992H38.5695C38.3742 22.1992 38.2152 22.3581 38.2152 22.5567V24.3873C38.2152 24.7713 38.4205 25.1288 38.7583 25.3208L38.9536 25.4301V39.9459C39.4735 39.8566 39.9768 39.7705 40.4569 39.6844C41.6689 39.4593 42.8179 39.2442 43.8609 39.0389V25.4301L44.053 25.3208C44.3874 25.1288 44.596 24.7746 44.596 24.3873V22.5567C44.596 22.3581 44.4371 22.1992 44.2384 22.1992ZM40.3741 22.1992H39.5132V18.1208C39.5132 17.8825 39.7053 17.6938 39.9437 17.6938C40.0629 17.6938 40.1689 17.7402 40.2483 17.8196C40.3278 17.8957 40.3741 18.005 40.3741 18.1208V22.1992ZM41.8344 22.1992H40.9768V18.1208C40.9768 17.8825 41.1689 17.6938 41.404 17.6938C41.6391 17.6938 41.8311 17.8858 41.8311 18.1208V22.1992H41.8344ZM43.2947 22.1992H42.4371V18.1208C42.4371 17.8825 42.6291 17.6938 42.8642 17.6938C42.9834 17.6938 43.0894 17.7402 43.1688 17.8196C43.245 17.8957 43.2947 18.005 43.2947 18.1208V22.1992Z" fill="url(#paint4_linear_14140_47247)"/>
<path d="M8.90069 12.0728C8.90069 12.2681 8.74175 12.427 8.54638 12.427C8.35102 12.427 8.19208 12.2681 8.19208 12.0728C8.19208 11.8775 8.35102 11.7186 8.54638 11.7186C8.74175 11.7186 8.90069 11.8775 8.90069 12.0728Z" fill="url(#paint5_linear_14140_47247)"/>
<path d="M41.7616 12.0728C41.7616 12.2681 41.6026 12.427 41.4073 12.427C41.2119 12.427 41.053 12.2681 41.053 12.0728C41.053 11.8775 41.2119 11.7186 41.4073 11.7186C41.6026 11.7186 41.7616 11.8775 41.7616 12.0728Z" fill="url(#paint6_linear_14140_47247)"/>
<path d="M37.6921 23.5465H36.3676V18.859C36.3676 13.7081 33.9702 8.80883 29.957 5.75007C29.8245 5.65076 29.6921 5.55145 29.5563 5.45214C29.245 5.22372 28.9007 4.98869 28.5331 4.7371C27.4636 4.00221 26.1623 3.11172 24.9768 1.93655C23.7914 3.10841 22.4901 4.00221 21.4205 4.7371C21.053 4.98869 20.7086 5.22703 20.3974 5.45214C20.2616 5.55145 20.1258 5.65076 19.9967 5.75007C15.9835 8.80552 13.5861 13.7048 13.5861 18.859V23.5465H12.2616V18.859C12.2616 13.2977 14.8543 8.00441 19.1921 4.69738C19.3311 4.59145 19.4702 4.48883 19.6159 4.3829C19.9437 4.14455 20.298 3.9029 20.6722 3.64469C21.8974 2.80386 23.2881 1.85048 24.4901 0.536276L24.9801 0L25.4702 0.536276C26.6722 1.85379 28.0629 2.80386 29.2881 3.64469C29.6623 3.9029 30.0166 4.14455 30.3444 4.3829C30.4868 4.48883 30.6291 4.59145 30.7682 4.69738C35.1093 8.0011 37.6987 13.2977 37.6987 18.859V23.5465H37.6921Z" fill="url(#paint7_linear_14140_47247)"/>
<path d="M34.6258 30.3956C34.6258 30.3956 34.5993 30.389 34.5861 30.3857H15.3676C15.3676 30.3857 15.3411 30.3923 15.3278 30.3956C14.308 30.624 13.5894 31.5344 13.5894 32.5804V40.3796C13.5894 40.3796 13.7682 40.4127 14.0762 40.4723V37.7843C14.0762 36.6091 14.9702 36.1159 15.3543 35.9404C15.7384 35.765 15.7947 35.5399 15.7947 35.5399C15.7947 35.5399 15.8543 35.7683 16.2351 35.9404C16.6192 36.1159 17.5133 36.6058 17.5133 37.7843V41.237C17.6258 41.2635 17.7384 41.2933 17.851 41.3231V36.1589C17.851 34.6924 18.9669 34.0767 19.4437 33.8615C19.9205 33.6431 19.9934 33.3617 19.9934 33.3617C19.9934 33.3617 20.0662 33.6464 20.5431 33.8615C21.0199 34.08 22.1358 34.6924 22.1358 36.1589V42.581C22.2616 42.624 22.3841 42.6704 22.5099 42.7134V34.9109C22.5099 33.2193 23.7947 32.5142 24.3444 32.2626C24.8941 32.0111 24.9768 31.6866 24.9768 31.6866C24.9768 31.6866 25.0596 32.0144 25.6093 32.2626C26.159 32.5142 27.4437 33.2193 27.4437 34.9109V42.7035C27.5662 42.6571 27.6921 42.6141 27.8179 42.5677V36.1556C27.8179 34.6891 28.9338 34.0734 29.4106 33.8582C29.8874 33.6397 29.9603 33.3584 29.9603 33.3584C29.9603 33.3584 30.0331 33.6431 30.5099 33.8582C30.9868 34.0767 32.1027 34.6891 32.1027 36.1556V41.3098C32.2152 41.28 32.3311 41.2535 32.4404 41.2271V37.7843C32.4404 36.6091 33.3344 36.1159 33.7186 35.9404C34.1027 35.765 34.159 35.5399 34.159 35.5399C34.159 35.5399 34.2186 35.7683 34.5993 35.9404C34.9835 36.1159 35.8775 36.6058 35.8775 37.7843V40.4723C36.1854 40.4127 36.3643 40.3796 36.3643 40.3796V32.5804C36.3643 31.5344 35.6424 30.624 34.6258 30.3956Z" fill="url(#paint8_linear_14140_47247)"/>
<path d="M34.7715 27.4725H15.0563C14.5993 27.4725 14.2285 27.8433 14.2285 28.3001V29.227C14.2285 29.6838 14.5993 30.0546 15.0563 30.0546H34.7715C35.2285 30.0546 35.5993 29.6838 35.5993 29.227V28.3001C35.5993 27.8433 35.2285 27.4725 34.7715 27.4725ZM16.1357 29.2469H15.2947V28.8298C15.2947 28.5418 15.5132 28.4193 15.6092 28.3796C15.702 28.3365 15.7185 28.2803 15.7185 28.2803C15.7185 28.2803 15.7318 28.3365 15.8278 28.3796C15.9205 28.4226 16.1424 28.5418 16.1424 28.8298V29.2469H16.1357ZM17.3742 29.2469H16.5331V28.8298C16.5331 28.5418 16.7516 28.4193 16.8477 28.3796C16.9404 28.3365 16.9569 28.2803 16.9569 28.2803C16.9569 28.2803 16.9702 28.3365 17.0662 28.3796C17.1589 28.4226 17.3808 28.5418 17.3808 28.8298V29.2469H17.3742ZM18.5563 29.2469H17.7152V28.8298C17.7152 28.5418 17.9338 28.4193 18.0298 28.3796C18.1225 28.3365 18.139 28.2803 18.139 28.2803C18.139 28.2803 18.1523 28.3365 18.2483 28.3796C18.341 28.4226 18.5629 28.5418 18.5629 28.8298V29.2469H18.5563ZM19.7152 29.2469H18.8741V28.8298C18.8741 28.5418 19.0927 28.4193 19.1887 28.3796C19.2814 28.3365 19.298 28.2803 19.298 28.2803C19.298 28.2803 19.3112 28.3365 19.4073 28.3796C19.5 28.4226 19.7218 28.5418 19.7218 28.8298V29.2469H19.7152ZM20.8576 29.2469H20.0165V28.8298C20.0165 28.5418 20.2351 28.4193 20.3311 28.3796C20.4238 28.3365 20.4404 28.2803 20.4404 28.2803C20.4404 28.2803 20.4536 28.3365 20.5496 28.3796C20.6424 28.4226 20.8642 28.5418 20.8642 28.8298V29.2469H20.8576ZM22.0198 29.2469H21.1788V28.8298C21.1788 28.5418 21.3973 28.4193 21.4934 28.3796C21.5861 28.3365 21.6026 28.2803 21.6026 28.2803C21.6026 28.2803 21.6159 28.3365 21.7119 28.3796C21.8046 28.4226 22.0265 28.5418 22.0265 28.8298V29.2469H22.0198ZM23.1589 29.2469H22.3179V28.8298C22.3179 28.5418 22.5364 28.4193 22.6324 28.3796C22.7251 28.3365 22.7417 28.2803 22.7417 28.2803C22.7417 28.2803 22.7549 28.3365 22.851 28.3796C22.9437 28.4226 23.1655 28.5418 23.1655 28.8298V29.2469H23.1589ZM24.2814 29.2469H23.4404V28.8298C23.4404 28.5418 23.6589 28.4193 23.7549 28.3796C23.8477 28.3365 23.8642 28.2803 23.8642 28.2803C23.8642 28.2803 23.8775 28.3365 23.9735 28.3796C24.0662 28.4226 24.2881 28.5418 24.2881 28.8298V29.2469H24.2814ZM25.3841 29.2469H24.543V28.8298C24.543 28.5418 24.7616 28.4193 24.8576 28.3796C24.9503 28.3365 24.9669 28.2803 24.9669 28.2803C24.9669 28.2803 24.9801 28.3365 25.0761 28.3796C25.1689 28.4226 25.3907 28.5418 25.3907 28.8298V29.2469H25.3841ZM26.6225 29.2469H25.7814V28.8298C25.7814 28.5418 26 28.4193 26.096 28.3796C26.1887 28.3365 26.2053 28.2803 26.2053 28.2803C26.2053 28.2803 26.2185 28.3365 26.3145 28.3796C26.4073 28.4226 26.6291 28.5418 26.6291 28.8298V29.2469H26.6225ZM27.8046 29.2469H26.9636V28.8298C26.9636 28.5418 27.1821 28.4193 27.2781 28.3796C27.3708 28.3365 27.3874 28.2803 27.3874 28.2803C27.3874 28.2803 27.4006 28.3365 27.4967 28.3796C27.5894 28.4226 27.8112 28.5418 27.8112 28.8298V29.2469H27.8046ZM28.9636 29.2469H28.1225V28.8298C28.1225 28.5418 28.341 28.4193 28.4371 28.3796C28.5298 28.3365 28.5463 28.2803 28.5463 28.2803C28.5463 28.2803 28.5596 28.3365 28.6556 28.3796C28.7483 28.4226 28.9702 28.5418 28.9702 28.8298V29.2469H28.9636ZM30.1059 29.2469H29.2649V28.8298C29.2649 28.5418 29.4834 28.4193 29.5794 28.3796C29.6722 28.3365 29.6887 28.2803 29.6887 28.2803C29.6887 28.2803 29.702 28.3365 29.798 28.3796C29.8907 28.4226 30.1126 28.5418 30.1126 28.8298V29.2469H30.1059ZM31.2682 29.2469H30.4271V28.8298C30.4271 28.5418 30.6457 28.4193 30.7417 28.3796C30.8344 28.3365 30.851 28.2803 30.851 28.2803C30.851 28.2803 30.8642 28.3365 30.9602 28.3796C31.053 28.4226 31.2748 28.5418 31.2748 28.8298V29.2469H31.2682ZM32.4073 29.2469H31.5662V28.8298C31.5662 28.5418 31.7847 28.4193 31.8808 28.3796C31.9735 28.3365 31.99 28.2803 31.99 28.2803C31.99 28.2803 32.0033 28.3365 32.0993 28.3796C32.192 28.4226 32.4139 28.5418 32.4139 28.8298V29.2469H32.4073ZM33.5298 29.2469H32.6887V28.8298C32.6887 28.5418 32.9073 28.4193 33.0033 28.3796C33.096 28.3365 33.1126 28.2803 33.1126 28.2803C33.1126 28.2803 33.1258 28.3365 33.2218 28.3796C33.3145 28.4226 33.5364 28.5418 33.5364 28.8298V29.2469H33.5298ZM34.6324 29.2469H33.7914V28.8298C33.7914 28.5418 34.0099 28.4193 34.1059 28.3796C34.1987 28.3365 34.2152 28.2803 34.2152 28.2803C34.2152 28.2803 34.2285 28.3365 34.3245 28.3796C34.4172 28.4226 34.639 28.5418 34.639 28.8298V29.2469H34.6324Z" fill="url(#paint9_linear_14140_47247)"/>
</g>
<defs>
<linearGradient id="paint0_linear_14140_47247" x1="6.53311" y1="35.5563" x2="59.9253" y2="49.573" gradientUnits="userSpaceOnUse">
<stop stop-color="#D69C47"/>
<stop offset="0.17" stop-color="#FFE68F"/>
<stop offset="0.28" stop-color="#E8BC66"/>
<stop offset="0.37" stop-color="#D69C47"/>
<stop offset="0.5" stop-color="#ECC675"/>
<stop offset="0.6" stop-color="#FFEB9E"/>
<stop offset="0.74" stop-color="#977943"/>
<stop offset="0.81" stop-color="#603D13"/>
<stop offset="0.91" stop-color="#7A5118"/>
<stop offset="0.95" stop-color="#8C5E1C"/>
<stop offset="1" stop-color="#D69C47"/>
</linearGradient>
<linearGradient id="paint1_linear_14140_47247" x1="36.0795" y1="15.8102" x2="8.33777" y2="15.8102" gradientUnits="userSpaceOnUse">
<stop stop-color="#D69C47"/>
<stop offset="0.17" stop-color="#FFE68F"/>
<stop offset="0.28" stop-color="#E8BC66"/>
<stop offset="0.37" stop-color="#D69C47"/>
<stop offset="0.5" stop-color="#ECC675"/>
<stop offset="0.6" stop-color="#FFEB9E"/>
<stop offset="0.74" stop-color="#977943"/>
<stop offset="0.81" stop-color="#603D13"/>
<stop offset="0.91" stop-color="#7A5118"/>
<stop offset="0.95" stop-color="#8C5E1C"/>
<stop offset="1" stop-color="#D69C47"/>
</linearGradient>
<linearGradient id="paint2_linear_14140_47247" x1="24.3377" y1="6.24996" x2="26.6517" y2="8.56453" gradientUnits="userSpaceOnUse">
<stop stop-color="#D69C47"/>
<stop offset="0.17" stop-color="#FFE68F"/>
<stop offset="0.28" stop-color="#E8BC66"/>
<stop offset="0.37" stop-color="#D69C47"/>
<stop offset="0.5" stop-color="#ECC675"/>
<stop offset="0.6" stop-color="#FFEB9E"/>
<stop offset="0.74" stop-color="#977943"/>
<stop offset="0.81" stop-color="#603D13"/>
<stop offset="0.91" stop-color="#7A5118"/>
<stop offset="0.95" stop-color="#8C5E1C"/>
<stop offset="1" stop-color="#D69C47"/>
</linearGradient>
<linearGradient id="paint3_linear_14140_47247" x1="10.8709" y1="26.2842" x2="3.10265" y2="26.2842" gradientUnits="userSpaceOnUse">
<stop stop-color="#D69C47"/>
<stop offset="0.17" stop-color="#FFE68F"/>
<stop offset="0.28" stop-color="#E8BC66"/>
<stop offset="0.37" stop-color="#D69C47"/>
<stop offset="0.5" stop-color="#ECC675"/>
<stop offset="0.6" stop-color="#FFEB9E"/>
<stop offset="0.74" stop-color="#977943"/>
<stop offset="0.81" stop-color="#603D13"/>
<stop offset="0.91" stop-color="#7A5118"/>
<stop offset="0.95" stop-color="#8C5E1C"/>
<stop offset="1" stop-color="#D69C47"/>
</linearGradient>
<linearGradient id="paint4_linear_14140_47247" x1="43.8543" y1="26.2842" x2="35.3212" y2="26.2842" gradientUnits="userSpaceOnUse">
<stop stop-color="#D69C47"/>
<stop offset="0.17" stop-color="#FFE68F"/>
<stop offset="0.28" stop-color="#E8BC66"/>
<stop offset="0.37" stop-color="#D69C47"/>
<stop offset="0.5" stop-color="#ECC675"/>
<stop offset="0.6" stop-color="#FFEB9E"/>
<stop offset="0.74" stop-color="#977943"/>
<stop offset="0.81" stop-color="#603D13"/>
<stop offset="0.91" stop-color="#7A5118"/>
<stop offset="0.95" stop-color="#8C5E1C"/>
<stop offset="1" stop-color="#D69C47"/>
</linearGradient>
<linearGradient id="paint5_linear_14140_47247" x1="9.26161" y1="12.4337" x2="7.07974" y2="11.3308" gradientUnits="userSpaceOnUse">
<stop stop-color="#D69C47"/>
<stop offset="0.17" stop-color="#FFE68F"/>
<stop offset="0.28" stop-color="#E8BC66"/>
<stop offset="0.37" stop-color="#D69C47"/>
<stop offset="0.5" stop-color="#ECC675"/>
<stop offset="0.6" stop-color="#FFEB9E"/>
<stop offset="0.74" stop-color="#977943"/>
<stop offset="0.81" stop-color="#603D13"/>
<stop offset="0.91" stop-color="#7A5118"/>
<stop offset="0.95" stop-color="#8C5E1C"/>
<stop offset="1" stop-color="#D69C47"/>
</linearGradient>
<linearGradient id="paint6_linear_14140_47247" x1="41.894" y1="12.2615" x2="40.4008" y2="11.6819" gradientUnits="userSpaceOnUse">
<stop stop-color="#D69C47"/>
<stop offset="0.17" stop-color="#FFE68F"/>
<stop offset="0.28" stop-color="#E8BC66"/>
<stop offset="0.37" stop-color="#D69C47"/>
<stop offset="0.5" stop-color="#ECC675"/>
<stop offset="0.6" stop-color="#FFEB9E"/>
<stop offset="0.74" stop-color="#977943"/>
<stop offset="0.81" stop-color="#603D13"/>
<stop offset="0.91" stop-color="#7A5118"/>
<stop offset="0.95" stop-color="#8C5E1C"/>
<stop offset="1" stop-color="#D69C47"/>
</linearGradient>
<linearGradient id="paint7_linear_14140_47247" x1="35.5166" y1="11.7716" x2="1.59935" y2="11.7716" gradientUnits="userSpaceOnUse">
<stop stop-color="#D69C47"/>
<stop offset="0.17" stop-color="#FFE68F"/>
<stop offset="0.28" stop-color="#E8BC66"/>
<stop offset="0.37" stop-color="#D69C47"/>
<stop offset="0.5" stop-color="#ECC675"/>
<stop offset="0.6" stop-color="#FFEB9E"/>
<stop offset="0.74" stop-color="#977943"/>
<stop offset="0.81" stop-color="#603D13"/>
<stop offset="0.91" stop-color="#7A5118"/>
<stop offset="0.95" stop-color="#8C5E1C"/>
<stop offset="1" stop-color="#D69C47"/>
</linearGradient>
<linearGradient id="paint8_linear_14140_47247" x1="36.3643" y1="36.5495" x2="8.2318" y2="36.5495" gradientUnits="userSpaceOnUse">
<stop stop-color="#D69C47"/>
<stop offset="0.17" stop-color="#FFE68F"/>
<stop offset="0.28" stop-color="#E8BC66"/>
<stop offset="0.37" stop-color="#D69C47"/>
<stop offset="0.5" stop-color="#ECC675"/>
<stop offset="0.6" stop-color="#FFEB9E"/>
<stop offset="0.74" stop-color="#977943"/>
<stop offset="0.81" stop-color="#603D13"/>
<stop offset="0.91" stop-color="#7A5118"/>
<stop offset="0.95" stop-color="#8C5E1C"/>
<stop offset="1" stop-color="#D69C47"/>
</linearGradient>
<linearGradient id="paint9_linear_14140_47247" x1="35.596" y1="28.7636" x2="8.77481" y2="28.7636" gradientUnits="userSpaceOnUse">
<stop stop-color="#D69C47"/>
<stop offset="0.17" stop-color="#FFE68F"/>
<stop offset="0.28" stop-color="#E8BC66"/>
<stop offset="0.37" stop-color="#D69C47"/>
<stop offset="0.5" stop-color="#ECC675"/>
<stop offset="0.6" stop-color="#FFEB9E"/>
<stop offset="0.74" stop-color="#977943"/>
<stop offset="0.81" stop-color="#603D13"/>
<stop offset="0.91" stop-color="#7A5118"/>
<stop offset="0.95" stop-color="#8C5E1C"/>
<stop offset="1" stop-color="#D69C47"/>
</linearGradient>
<clipPath id="clip0_14140_47247">
<rect width="50" height="48" fill="white"/>
</clipPath>
</defs>
</svg>
