<svg width="168" height="48" viewBox="0 0 168 48" fill="none" xmlns="http://www.w3.org/2000/svg">
<g clip-path="url(#clip0_14140_46656)">
<path d="M27.4205 46.6427C27.3974 46.5599 27.447 46.4705 27.5298 46.4474L49.9503 40.7039L49.8642 40.3597L27.2715 46.0667L49.7086 39.1547L48.606 38.5059C47.1126 38.817 44.0762 39.4328 40.4603 40.1014C35.4901 41.0184 28.0497 41.6904 24.9801 45.5039C21.9106 41.6937 14.4702 41.0184 9.5 40.1014C5.88411 39.4328 2.84768 38.817 1.3543 38.5059L0.251656 39.1547L22.6887 46.0667L0.0860927 40.3597L0 40.7039L22.4205 46.4474C22.5033 46.4739 22.553 46.5599 22.5298 46.6427L22.3609 47.2518C22.2682 47.5828 22.5166 47.9105 22.8609 47.9105H27.0894C27.4338 47.9105 27.6821 47.5828 27.5894 47.2518L27.4205 46.6427Z" fill="url(#paint0_linear_14140_46656)"/>
<path d="M15.7749 27.1382C15.3676 27.1117 15 26.88 14.808 26.5192C14.2583 25.4863 13.9139 24.1721 14.1391 22.5732C14.6954 18.6405 21.298 14.7078 23.9702 12.5594C23.9702 12.5263 23.9603 12.4965 23.9603 12.4601C23.9603 12.139 24.1126 11.851 24.3477 11.669C24.5596 11.5034 24.6954 11.2552 24.7186 10.987L24.8146 9.93433C24.6954 9.87474 24.6126 9.75557 24.6126 9.61323C24.6126 9.6033 24.6126 9.59667 24.6126 9.58674C23.5398 9.43778 22.6192 8.62012 22.4206 7.45819C22.1821 6.06123 23.1557 4.7073 24.5563 4.47888C24.5629 4.47888 24.5696 4.47888 24.5729 4.47888C23.5497 4.90923 22.9934 6.06454 23.3576 7.16357C23.6921 8.16992 24.7451 8.79557 25.7881 8.6135C26.6987 8.45461 27.3543 7.75612 27.5364 6.92854C27.5431 6.90536 27.5464 6.88219 27.5497 6.85902C27.5497 6.85902 27.5497 6.85571 27.5497 6.8524C27.6358 8.05736 26.8643 9.19612 25.6557 9.52716C25.5464 9.55695 25.4371 9.58012 25.3278 9.59336C25.3278 9.6033 25.3278 9.60992 25.3278 9.61985C25.3278 9.76219 25.2451 9.88468 25.1259 9.94095L25.2219 10.9936C25.2484 11.2618 25.3808 11.5101 25.5927 11.6756C25.8278 11.861 25.9802 12.1456 25.9802 12.4667C25.9802 12.4998 25.9735 12.533 25.9702 12.5661C28.6391 14.7145 35.2451 18.6472 35.8013 22.5798C36.0265 24.1787 35.6821 25.493 35.1325 26.5258C34.9404 26.8866 34.5729 27.1183 34.1656 27.1448H15.7649L15.7749 27.1382Z" fill="url(#paint1_linear_14140_46656)"/>
<path d="M24.5265 6.9683L24.4205 7.58071L24.9735 7.29271L25.5265 7.58071L25.4205 6.9683L25.8675 6.53133L25.2483 6.44196L24.9735 5.88251L24.6987 6.44196L24.0795 6.53133L24.5265 6.9683Z" fill="url(#paint2_linear_14140_46656)"/>
<path d="M11.3775 22.1992H10.9967V16.4425H10.9801C11.0166 16.416 11.0497 16.3829 11.0695 16.3432C11.2053 16.085 11.2914 15.7573 11.2351 15.36C11.0729 14.2047 8.81126 13.0527 8.54305 12.6257C8.27484 13.0494 6.01325 14.2047 5.851 15.36C5.79471 15.7573 5.8808 16.085 6.01656 16.3432C6.03974 16.3829 6.06954 16.416 6.10596 16.4425H6.08941V22.1992H5.71192C5.51325 22.1992 5.35431 22.3581 5.35431 22.5567V24.3873C5.35431 24.7713 5.56292 25.1288 5.89736 25.3208L6.08941 25.4301V39.0389C7.13577 39.2408 8.28146 39.4593 9.49338 39.6844C9.97351 39.7738 10.4768 39.8599 10.9967 39.9459V25.4301L11.1921 25.3208C11.5265 25.1288 11.7351 24.7746 11.7351 24.3873V22.5567C11.7351 22.3581 11.5762 22.1992 11.3808 22.1992H11.3775ZM7.51325 22.1992H6.65232V18.1208C6.65232 17.8825 6.84438 17.6938 7.08279 17.6938C7.20199 17.6938 7.30795 17.7402 7.38742 17.8196C7.46689 17.8957 7.51325 18.005 7.51325 18.1208V22.1992ZM8.97351 22.1992H8.1159V18.1208C8.1159 17.8825 8.30795 17.6938 8.54305 17.6938C8.77815 17.6938 8.9702 17.8858 8.9702 18.1208V22.1992H8.97351ZM10.4338 22.1992H9.57616V18.1208C9.57616 17.8825 9.76822 17.6938 10.0033 17.6938C10.1225 17.6938 10.2285 17.7402 10.308 17.8196C10.3841 17.8957 10.4338 18.005 10.4338 18.1208V22.1992Z" fill="url(#paint3_linear_14140_46656)"/>
<path d="M44.2384 22.1992H43.8576V16.4425H43.841C43.8775 16.416 43.9073 16.3829 43.9304 16.3432C44.0695 16.085 44.1523 15.7573 44.096 15.36C43.9338 14.2047 41.6722 13.0527 41.404 12.6257C41.1357 13.0494 38.8742 14.2047 38.7119 15.36C38.6556 15.7573 38.7417 16.085 38.8775 16.3432C38.9006 16.3829 38.9304 16.416 38.9669 16.4425H38.947V22.1992H38.5695C38.3742 22.1992 38.2152 22.3581 38.2152 22.5567V24.3873C38.2152 24.7713 38.4205 25.1288 38.7583 25.3208L38.9536 25.4301V39.9459C39.4735 39.8566 39.9768 39.7705 40.4569 39.6844C41.6689 39.4593 42.8179 39.2442 43.8609 39.0389V25.4301L44.053 25.3208C44.3874 25.1288 44.596 24.7746 44.596 24.3873V22.5567C44.596 22.3581 44.4371 22.1992 44.2384 22.1992ZM40.3741 22.1992H39.5132V18.1208C39.5132 17.8825 39.7053 17.6938 39.9437 17.6938C40.0629 17.6938 40.1689 17.7402 40.2483 17.8196C40.3278 17.8957 40.3741 18.005 40.3741 18.1208V22.1992ZM41.8344 22.1992H40.9768V18.1208C40.9768 17.8825 41.1689 17.6938 41.404 17.6938C41.6391 17.6938 41.8311 17.8858 41.8311 18.1208V22.1992H41.8344ZM43.2947 22.1992H42.4371V18.1208C42.4371 17.8825 42.6291 17.6938 42.8642 17.6938C42.9834 17.6938 43.0894 17.7402 43.1688 17.8196C43.245 17.8957 43.2947 18.005 43.2947 18.1208V22.1992Z" fill="url(#paint4_linear_14140_46656)"/>
<path d="M8.90069 12.0728C8.90069 12.2681 8.74175 12.427 8.54638 12.427C8.35102 12.427 8.19208 12.2681 8.19208 12.0728C8.19208 11.8775 8.35102 11.7186 8.54638 11.7186C8.74175 11.7186 8.90069 11.8775 8.90069 12.0728Z" fill="url(#paint5_linear_14140_46656)"/>
<path d="M41.7616 12.0728C41.7616 12.2681 41.6026 12.427 41.4073 12.427C41.2119 12.427 41.053 12.2681 41.053 12.0728C41.053 11.8775 41.2119 11.7186 41.4073 11.7186C41.6026 11.7186 41.7616 11.8775 41.7616 12.0728Z" fill="url(#paint6_linear_14140_46656)"/>
<path d="M37.6921 23.5465H36.3676V18.859C36.3676 13.7081 33.9702 8.80883 29.957 5.75007C29.8245 5.65076 29.6921 5.55145 29.5563 5.45214C29.245 5.22372 28.9007 4.98869 28.5331 4.7371C27.4636 4.00221 26.1623 3.11172 24.9768 1.93655C23.7914 3.10841 22.4901 4.00221 21.4205 4.7371C21.053 4.98869 20.7086 5.22703 20.3974 5.45214C20.2616 5.55145 20.1258 5.65076 19.9967 5.75007C15.9835 8.80552 13.5861 13.7048 13.5861 18.859V23.5465H12.2616V18.859C12.2616 13.2977 14.8543 8.00441 19.1921 4.69738C19.3311 4.59145 19.4702 4.48883 19.6159 4.3829C19.9437 4.14455 20.298 3.9029 20.6722 3.64469C21.8974 2.80386 23.2881 1.85048 24.4901 0.536276L24.9801 0L25.4702 0.536276C26.6722 1.85379 28.0629 2.80386 29.2881 3.64469C29.6623 3.9029 30.0166 4.14455 30.3444 4.3829C30.4868 4.48883 30.6291 4.59145 30.7682 4.69738C35.1093 8.0011 37.6987 13.2977 37.6987 18.859V23.5465H37.6921Z" fill="url(#paint7_linear_14140_46656)"/>
<path d="M34.6258 30.3956C34.6258 30.3956 34.5993 30.389 34.5861 30.3857H15.3676C15.3676 30.3857 15.3411 30.3923 15.3278 30.3956C14.308 30.624 13.5894 31.5344 13.5894 32.5804V40.3796C13.5894 40.3796 13.7682 40.4127 14.0762 40.4723V37.7843C14.0762 36.6091 14.9702 36.1159 15.3543 35.9404C15.7384 35.765 15.7947 35.5399 15.7947 35.5399C15.7947 35.5399 15.8543 35.7683 16.2351 35.9404C16.6192 36.1159 17.5133 36.6058 17.5133 37.7843V41.237C17.6258 41.2635 17.7384 41.2933 17.851 41.3231V36.1589C17.851 34.6924 18.9669 34.0767 19.4437 33.8615C19.9205 33.6431 19.9934 33.3617 19.9934 33.3617C19.9934 33.3617 20.0662 33.6464 20.5431 33.8615C21.0199 34.08 22.1358 34.6924 22.1358 36.1589V42.581C22.2616 42.624 22.3841 42.6704 22.5099 42.7134V34.9109C22.5099 33.2193 23.7947 32.5142 24.3444 32.2626C24.8941 32.0111 24.9768 31.6866 24.9768 31.6866C24.9768 31.6866 25.0596 32.0144 25.6093 32.2626C26.159 32.5142 27.4437 33.2193 27.4437 34.9109V42.7035C27.5662 42.6571 27.6921 42.6141 27.8179 42.5677V36.1556C27.8179 34.6891 28.9338 34.0734 29.4106 33.8582C29.8874 33.6397 29.9603 33.3584 29.9603 33.3584C29.9603 33.3584 30.0331 33.6431 30.5099 33.8582C30.9868 34.0767 32.1027 34.6891 32.1027 36.1556V41.3098C32.2152 41.28 32.3311 41.2535 32.4404 41.2271V37.7843C32.4404 36.6091 33.3344 36.1159 33.7186 35.9404C34.1027 35.765 34.159 35.5399 34.159 35.5399C34.159 35.5399 34.2186 35.7683 34.5993 35.9404C34.9835 36.1159 35.8775 36.6058 35.8775 37.7843V40.4723C36.1854 40.4127 36.3643 40.3796 36.3643 40.3796V32.5804C36.3643 31.5344 35.6424 30.624 34.6258 30.3956Z" fill="url(#paint8_linear_14140_46656)"/>
<path d="M34.7715 27.4725H15.0563C14.5993 27.4725 14.2285 27.8433 14.2285 28.3001V29.227C14.2285 29.6838 14.5993 30.0546 15.0563 30.0546H34.7715C35.2285 30.0546 35.5993 29.6838 35.5993 29.227V28.3001C35.5993 27.8433 35.2285 27.4725 34.7715 27.4725ZM16.1357 29.2469H15.2947V28.8298C15.2947 28.5418 15.5132 28.4193 15.6092 28.3796C15.702 28.3365 15.7185 28.2803 15.7185 28.2803C15.7185 28.2803 15.7318 28.3365 15.8278 28.3796C15.9205 28.4226 16.1424 28.5418 16.1424 28.8298V29.2469H16.1357ZM17.3742 29.2469H16.5331V28.8298C16.5331 28.5418 16.7516 28.4193 16.8477 28.3796C16.9404 28.3365 16.9569 28.2803 16.9569 28.2803C16.9569 28.2803 16.9702 28.3365 17.0662 28.3796C17.1589 28.4226 17.3808 28.5418 17.3808 28.8298V29.2469H17.3742ZM18.5563 29.2469H17.7152V28.8298C17.7152 28.5418 17.9338 28.4193 18.0298 28.3796C18.1225 28.3365 18.139 28.2803 18.139 28.2803C18.139 28.2803 18.1523 28.3365 18.2483 28.3796C18.341 28.4226 18.5629 28.5418 18.5629 28.8298V29.2469H18.5563ZM19.7152 29.2469H18.8741V28.8298C18.8741 28.5418 19.0927 28.4193 19.1887 28.3796C19.2814 28.3365 19.298 28.2803 19.298 28.2803C19.298 28.2803 19.3112 28.3365 19.4073 28.3796C19.5 28.4226 19.7218 28.5418 19.7218 28.8298V29.2469H19.7152ZM20.8576 29.2469H20.0165V28.8298C20.0165 28.5418 20.2351 28.4193 20.3311 28.3796C20.4238 28.3365 20.4404 28.2803 20.4404 28.2803C20.4404 28.2803 20.4536 28.3365 20.5496 28.3796C20.6424 28.4226 20.8642 28.5418 20.8642 28.8298V29.2469H20.8576ZM22.0198 29.2469H21.1788V28.8298C21.1788 28.5418 21.3973 28.4193 21.4934 28.3796C21.5861 28.3365 21.6026 28.2803 21.6026 28.2803C21.6026 28.2803 21.6159 28.3365 21.7119 28.3796C21.8046 28.4226 22.0265 28.5418 22.0265 28.8298V29.2469H22.0198ZM23.1589 29.2469H22.3179V28.8298C22.3179 28.5418 22.5364 28.4193 22.6324 28.3796C22.7251 28.3365 22.7417 28.2803 22.7417 28.2803C22.7417 28.2803 22.7549 28.3365 22.851 28.3796C22.9437 28.4226 23.1655 28.5418 23.1655 28.8298V29.2469H23.1589ZM24.2814 29.2469H23.4404V28.8298C23.4404 28.5418 23.6589 28.4193 23.7549 28.3796C23.8477 28.3365 23.8642 28.2803 23.8642 28.2803C23.8642 28.2803 23.8775 28.3365 23.9735 28.3796C24.0662 28.4226 24.2881 28.5418 24.2881 28.8298V29.2469H24.2814ZM25.3841 29.2469H24.543V28.8298C24.543 28.5418 24.7616 28.4193 24.8576 28.3796C24.9503 28.3365 24.9669 28.2803 24.9669 28.2803C24.9669 28.2803 24.9801 28.3365 25.0761 28.3796C25.1689 28.4226 25.3907 28.5418 25.3907 28.8298V29.2469H25.3841ZM26.6225 29.2469H25.7814V28.8298C25.7814 28.5418 26 28.4193 26.096 28.3796C26.1887 28.3365 26.2053 28.2803 26.2053 28.2803C26.2053 28.2803 26.2185 28.3365 26.3145 28.3796C26.4073 28.4226 26.6291 28.5418 26.6291 28.8298V29.2469H26.6225ZM27.8046 29.2469H26.9636V28.8298C26.9636 28.5418 27.1821 28.4193 27.2781 28.3796C27.3708 28.3365 27.3874 28.2803 27.3874 28.2803C27.3874 28.2803 27.4006 28.3365 27.4967 28.3796C27.5894 28.4226 27.8112 28.5418 27.8112 28.8298V29.2469H27.8046ZM28.9636 29.2469H28.1225V28.8298C28.1225 28.5418 28.341 28.4193 28.4371 28.3796C28.5298 28.3365 28.5463 28.2803 28.5463 28.2803C28.5463 28.2803 28.5596 28.3365 28.6556 28.3796C28.7483 28.4226 28.9702 28.5418 28.9702 28.8298V29.2469H28.9636ZM30.1059 29.2469H29.2649V28.8298C29.2649 28.5418 29.4834 28.4193 29.5794 28.3796C29.6722 28.3365 29.6887 28.2803 29.6887 28.2803C29.6887 28.2803 29.702 28.3365 29.798 28.3796C29.8907 28.4226 30.1126 28.5418 30.1126 28.8298V29.2469H30.1059ZM31.2682 29.2469H30.4271V28.8298C30.4271 28.5418 30.6457 28.4193 30.7417 28.3796C30.8344 28.3365 30.851 28.2803 30.851 28.2803C30.851 28.2803 30.8642 28.3365 30.9602 28.3796C31.053 28.4226 31.2748 28.5418 31.2748 28.8298V29.2469H31.2682ZM32.4073 29.2469H31.5662V28.8298C31.5662 28.5418 31.7847 28.4193 31.8808 28.3796C31.9735 28.3365 31.99 28.2803 31.99 28.2803C31.99 28.2803 32.0033 28.3365 32.0993 28.3796C32.192 28.4226 32.4139 28.5418 32.4139 28.8298V29.2469H32.4073ZM33.5298 29.2469H32.6887V28.8298C32.6887 28.5418 32.9073 28.4193 33.0033 28.3796C33.096 28.3365 33.1126 28.2803 33.1126 28.2803C33.1126 28.2803 33.1258 28.3365 33.2218 28.3796C33.3145 28.4226 33.5364 28.5418 33.5364 28.8298V29.2469H33.5298ZM34.6324 29.2469H33.7914V28.8298C33.7914 28.5418 34.0099 28.4193 34.1059 28.3796C34.1987 28.3365 34.2152 28.2803 34.2152 28.2803C34.2152 28.2803 34.2285 28.3365 34.3245 28.3796C34.4172 28.4226 34.639 28.5418 34.639 28.8298V29.2469H34.6324Z" fill="url(#paint9_linear_14140_46656)"/>
</g>
<path d="M60.0501 18.38C60.3054 18.38 60.61 18.4535 60.9641 18.6004C61.3181 18.7473 61.6886 18.9432 62.0756 19.1881C62.4626 19.433 62.8495 19.7105 63.2365 20.0206C63.6235 20.3308 63.9693 20.6573 64.2657 20.992C64.5621 21.3266 64.8091 21.6613 64.9985 21.9878C65.1879 22.3143 65.2784 22.6245 65.2784 22.902V34.362H60.7582V22.1674C60.7582 21.947 60.7006 21.7348 60.5936 21.5307C60.4865 21.3266 60.3219 21.2287 60.1242 21.2287H58L59.2515 18.3719H60.0584L60.0501 18.38ZM64.2822 12.5113L62.1332 14.6416L59.9596 12.5113L62.1332 10.3564L64.2822 12.5113Z" fill="url(#paint10_linear_14140_46656)"/>
<path d="M74.3847 13.9232C74.3847 14.4375 74.5905 14.9354 75.0104 15.4006C75.4304 15.8659 75.982 16.3312 76.6654 16.7964C77.3488 17.2535 78.131 17.7188 79.0037 18.1759C79.8765 18.6329 80.7739 19.1064 81.6878 19.5961C82.6018 20.0777 83.4992 20.5919 84.372 21.1225C85.2447 21.653 86.0269 22.2244 86.7103 22.8366C87.3937 23.4488 87.9453 24.1017 88.3652 24.8037C88.7851 25.5057 88.991 26.2648 88.991 27.081C88.991 27.6279 88.8675 28.1911 88.6122 28.7706C88.1841 29.7583 87.5501 30.6072 86.6938 31.3173C85.8458 32.0274 84.8577 32.6151 83.738 33.0722C82.6182 33.5375 81.4161 33.8721 80.1235 34.0925C78.8308 34.3129 77.5381 34.419 76.2455 34.419C74.9528 34.419 73.7013 34.3129 72.4828 34.0925C71.2724 33.8721 70.2021 33.5538 69.2799 33.1294C68.3578 32.7049 67.6167 32.1907 67.0569 31.5785C66.497 30.9663 66.217 30.2807 66.217 29.5134C66.217 28.8686 66.3735 28.2809 66.6781 27.734C66.9828 27.1871 67.378 26.6974 67.8473 26.2729C68.3166 25.8403 68.8435 25.473 69.4116 25.171C69.9798 24.869 70.5149 24.6323 71.0172 24.4772L71.2313 24.7384C70.6796 25.0486 70.2679 25.4404 69.988 25.9138C69.7163 26.3791 69.5763 26.8933 69.5763 27.4402C69.5763 28.0524 69.8892 28.5829 70.5232 29.0482C71.1572 29.5053 71.9723 29.8889 72.9685 30.1991C73.973 30.5011 75.0845 30.7378 76.3278 30.8929C77.5628 31.0479 78.7896 31.1296 80.0082 31.1296C80.9551 31.1296 81.8607 31.0806 82.717 30.9908C83.5733 30.901 84.339 30.7541 84.9977 30.5664C85.6564 30.3786 86.1833 30.1419 86.5703 29.8481C86.9573 29.5624 87.1467 29.2277 87.1467 28.8523C87.1467 28.5747 86.9244 28.2238 86.488 27.8238C86.0434 27.4157 85.467 26.9831 84.7589 26.5097C84.0509 26.0444 83.2604 25.5546 82.3795 25.0567C81.4985 24.5588 80.6339 24.0609 79.7694 23.5794C78.9049 23.0978 78.0898 22.6407 77.3323 22.2162C76.5748 21.7918 75.9491 21.4327 75.4633 21.1388C74.994 20.845 74.5329 20.5348 74.0883 20.2246C73.6437 19.9144 73.2567 19.5879 72.9191 19.2615C72.5816 18.935 72.3016 18.5921 72.0875 18.2412C71.8735 17.8902 71.75 17.5229 71.7253 17.1474V17.0739L71.7006 16.9107V16.8372C71.7006 16.274 71.8241 15.7108 72.0711 15.1394C72.3181 14.5681 72.631 14.0294 73.0262 13.507C73.4214 12.9846 73.866 12.5112 74.3765 12.0622C74.8787 11.6133 75.3892 11.2297 75.8997 10.9032C76.4101 10.5767 76.9124 10.3155 77.3982 10.1277C77.8839 9.94 78.3203 9.85022 78.6991 9.85022C78.9378 9.85022 79.2589 9.94 79.6789 10.1114C80.0988 10.2828 80.5351 10.495 80.988 10.7481C81.4408 11.0011 81.8854 11.2623 82.2971 11.548C82.717 11.8255 83.0464 12.0867 83.3016 12.3234L80.6998 15.7924C80.2552 15.368 79.7941 14.968 79.3001 14.5762C78.8061 14.1844 78.3286 13.8416 77.8428 13.5315C77.3652 13.2294 76.9042 12.9846 76.4595 12.7968C76.0149 12.6091 75.628 12.5112 75.2739 12.4948C75.0351 12.4948 74.8211 12.6336 74.6317 12.9193C74.4423 13.1968 74.3518 13.5478 74.3518 13.9477L74.3847 13.9232Z" fill="url(#paint11_linear_14140_46656)"/>
<path d="M78.5344 7.80179L76.1961 10.1444L73.8743 7.80179L76.1961 5.5L78.5344 7.80179Z" fill="#FF0000"/>
<path d="M83.524 7.80179L81.1857 10.1444L78.8391 7.80179L81.1857 5.5L83.524 7.80179Z" fill="white"/>
<path d="M96.0225 29.0401C95.7673 29.7258 95.4956 30.3951 95.2074 31.0317C94.9192 31.6766 94.6064 32.2398 94.2852 32.7295C93.9641 33.2193 93.6183 33.6192 93.2561 33.9131C92.8938 34.2069 92.5233 34.362 92.1445 34.362C91.5105 34.362 90.9589 34.1824 90.4814 33.8314C90.0038 33.4805 89.6004 33.0152 89.2875 32.452C88.9746 31.8806 88.7358 31.2276 88.5794 30.493C88.423 29.7584 88.3406 29.0156 88.3406 28.2647V28.0035C88.3736 27.4076 88.4394 26.8199 88.53 26.2323C88.6288 25.6446 88.7688 25.1058 88.9582 24.5998C89.1311 24.1427 89.3945 23.6774 89.7403 23.1958C90.0861 22.7143 90.4896 22.2408 90.9342 21.7756C91.387 21.3185 91.8811 20.8777 92.4245 20.4614C92.9679 20.0452 93.5278 19.686 94.1041 19.3677C94.6805 19.0575 95.265 18.8126 95.8496 18.6331C96.4424 18.4535 97.0023 18.3637 97.5375 18.3637C97.7104 18.3637 97.9162 18.3637 98.1632 18.3719C98.4102 18.3719 98.6655 18.3882 98.9454 18.4045C99.2171 18.4208 99.4971 18.4453 99.7852 18.478C100.065 18.5106 100.329 18.5514 100.567 18.5923L100.543 21.947C100.403 21.9143 100.164 21.8735 99.8346 21.8327C99.5053 21.7837 99.1513 21.7511 98.7807 21.7185C98.4102 21.6858 98.0562 21.6613 97.7186 21.6368C97.381 21.6123 97.1258 21.6042 96.9529 21.6042H96.8541C96.0061 21.6858 95.3062 21.9715 94.771 22.4612C94.2358 22.951 93.8242 23.555 93.5442 24.257C93.2643 24.9589 93.0832 25.718 93.009 26.5179C92.9349 27.326 92.9267 28.0688 92.9843 28.7463C93.042 29.4237 93.149 29.987 93.3055 30.4359C93.4619 30.8848 93.6183 31.1052 93.7748 31.1052C93.9147 31.1052 94.0712 30.9583 94.2523 30.6726C94.4252 30.3869 94.6064 30.0033 94.7957 29.5217C94.9851 29.0483 95.1827 28.5096 95.3885 27.9137C95.5944 27.3178 95.792 26.722 95.9896 26.118C96.1872 25.514 96.3683 24.9344 96.5495 24.3712C96.7224 23.808 96.8788 23.3346 97.0188 22.9428H100.543V30.444C100.543 30.6644 100.6 30.8603 100.724 31.0317C100.839 31.2032 100.996 31.3174 101.185 31.3827C101.341 31.4317 101.523 31.4562 101.728 31.4643C101.934 31.4643 102.148 31.4725 102.371 31.4725H105.54V34.3538H101.284C100.699 34.3538 100.098 34.1906 99.4888 33.8641C98.8713 33.5376 98.3197 33.1131 97.8174 32.5989C97.3152 32.0847 96.9035 31.5052 96.5742 30.8767C96.2448 30.2481 96.0637 29.6278 96.0308 29.0401H96.0225Z" fill="url(#paint12_linear_14140_46656)"/>
<path d="M108.085 30.4522C108.085 30.6726 108.142 30.8685 108.249 31.0399C108.356 31.2113 108.513 31.3256 108.702 31.3909C108.858 31.4398 109.04 31.4643 109.245 31.4725C109.451 31.4806 109.665 31.4807 109.888 31.4807H115.421V34.362H108.826C108.208 34.362 107.591 34.1906 106.973 33.8477C106.347 33.5049 105.787 33.0641 105.285 32.5336C104.783 32.003 104.363 31.4154 104.042 30.7787C103.721 30.142 103.556 29.5135 103.556 28.9013V14.1519C103.556 13.9315 103.507 13.7275 103.4 13.5316C103.301 13.3357 103.144 13.2377 102.939 13.2377H100.814L102.066 10.3564H102.873C103.251 10.3564 103.737 10.5196 104.33 10.838C104.923 11.1563 105.499 11.5481 106.059 12.0133C106.619 12.4786 107.097 12.9683 107.5 13.4907C107.903 14.0131 108.101 14.4866 108.101 14.911V30.4522H108.085Z" fill="url(#paint13_linear_14140_46656)"/>
<path d="M118.368 29.0401C118.113 29.7258 117.841 30.3951 117.553 31.0317C117.265 31.6766 116.952 32.2398 116.631 32.7295C116.31 33.2193 115.964 33.6192 115.602 33.9131C115.239 34.2069 114.869 34.362 114.49 34.362C113.856 34.362 113.305 34.1824 112.827 33.8314C112.35 33.4805 111.946 33.0152 111.633 32.452C111.32 31.8806 111.082 31.2276 110.925 30.493C110.769 29.7584 110.686 29.0156 110.686 28.2647V28.0035C110.719 27.4076 110.785 26.8199 110.876 26.2323C110.975 25.6446 111.114 25.1058 111.304 24.5998C111.477 24.1427 111.74 23.6774 112.086 23.1958C112.432 22.7143 112.835 22.2408 113.28 21.7756C113.733 21.3185 114.227 20.8777 114.77 20.4614C115.314 20.0452 115.873 19.686 116.45 19.3677C117.026 19.0575 117.611 18.8126 118.195 18.6331C118.788 18.4535 119.348 18.3637 119.883 18.3637C120.056 18.3637 120.262 18.3637 120.509 18.3719C120.756 18.3719 121.011 18.3882 121.291 18.4045C121.563 18.4208 121.843 18.4453 122.131 18.478C122.411 18.5106 122.674 18.5514 122.913 18.5923L122.888 21.947C122.748 21.9143 122.51 21.8735 122.18 21.8327C121.851 21.7837 121.497 21.7511 121.126 21.7185C120.756 21.6858 120.402 21.6613 120.064 21.6368C119.727 21.6123 119.472 21.6042 119.299 21.6042H119.2C118.352 21.6858 117.652 21.9715 117.117 22.4612C116.582 22.951 116.17 23.555 115.89 24.257C115.61 24.9589 115.429 25.718 115.355 26.5179C115.281 27.326 115.272 28.0688 115.33 28.7463C115.388 29.4237 115.495 29.987 115.651 30.4359C115.808 30.8848 115.964 31.1052 116.12 31.1052C116.26 31.1052 116.417 30.9583 116.598 30.6726C116.771 30.3869 116.952 30.0033 117.141 29.5217C117.331 29.0483 117.528 28.5096 117.734 27.9137C117.94 27.3178 118.138 26.722 118.335 26.118C118.533 25.514 118.714 24.9344 118.895 24.3712C119.068 23.808 119.225 23.3346 119.364 22.9428H122.888V30.444C122.888 30.6644 122.946 30.8603 123.07 31.0317C123.185 31.2032 123.341 31.3174 123.531 31.3827C123.687 31.4317 123.868 31.4562 124.074 31.4643C124.28 31.4643 124.494 31.4725 124.716 31.4725H127.886V34.3538H123.629C123.045 34.3538 122.444 34.1906 121.835 33.8641C121.217 33.5376 120.665 33.1131 120.163 32.5989C119.661 32.0847 119.249 31.5052 118.92 30.8767C118.591 30.2481 118.409 29.6278 118.376 29.0401H118.368Z" fill="url(#paint14_linear_14140_46656)"/>
<path d="M132.39 29.0401C132.135 29.7258 131.863 30.3951 131.575 31.0317C131.287 31.6766 130.974 32.2398 130.653 32.7295C130.332 33.2193 129.986 33.6192 129.623 33.9131C129.261 34.2069 128.891 34.362 128.512 34.362C127.878 34.362 127.326 34.1824 126.849 33.8314C126.371 33.4805 125.968 33.0152 125.655 32.452C125.342 31.8806 125.103 31.2276 124.947 30.493C124.79 29.7584 124.708 29.0156 124.708 28.2647V28.0035C124.741 27.4076 124.807 26.8199 124.897 26.2323C124.996 25.6446 125.136 25.1058 125.326 24.5998C125.498 24.1427 125.762 23.6774 126.108 23.1958C126.454 22.7143 126.857 22.2408 127.302 21.7756C127.754 21.3185 128.248 20.8777 128.792 20.4614C129.335 20.0452 129.895 19.686 130.472 19.3677C131.048 19.0575 131.632 18.8126 132.217 18.6331C132.81 18.4535 133.37 18.3637 133.905 18.3637C134.078 18.3637 134.284 18.3637 134.531 18.3719C134.778 18.3719 135.033 18.3882 135.313 18.4045C135.585 18.4208 135.864 18.4453 136.153 18.478C136.433 18.5106 136.696 18.5514 136.935 18.5923L136.91 21.947C136.77 21.9143 136.531 21.8735 136.202 21.8327C135.873 21.7837 135.519 21.7511 135.148 21.7185C134.778 21.6858 134.424 21.6613 134.086 21.6368C133.748 21.6123 133.493 21.6042 133.32 21.6042H133.222C132.373 21.6858 131.674 21.9715 131.138 22.4612C130.603 22.951 130.192 23.555 129.912 24.257C129.632 24.9589 129.451 25.718 129.376 26.5179C129.302 27.326 129.294 28.0688 129.352 28.7463C129.409 29.4237 129.516 29.987 129.673 30.4359C129.829 30.8848 129.986 31.1052 130.142 31.1052C130.282 31.1052 130.439 30.9583 130.62 30.6726C130.793 30.3869 130.974 30.0033 131.163 29.5217C131.353 29.0483 131.55 28.5096 131.756 27.9137C131.962 27.3178 132.159 26.722 132.357 26.118C132.555 25.514 132.736 24.9344 132.917 24.3712C133.09 23.808 133.246 23.3346 133.386 22.9428H136.91V30.444C136.91 30.6644 136.968 30.8603 137.091 31.0317C137.207 31.2032 137.363 31.3174 137.552 31.3827C137.709 31.4317 137.89 31.4562 138.096 31.4643C138.302 31.4643 138.516 31.4725 138.738 31.4725H141.908V34.3538H137.651C137.067 34.3538 136.466 34.1906 135.856 33.8641C135.239 33.5376 134.687 33.1131 134.185 32.5989C133.683 32.0847 133.271 31.5052 132.942 30.8767C132.612 30.2481 132.431 29.6278 132.398 29.0401H132.39Z" fill="url(#paint15_linear_14140_46656)"/>
<path d="M145.539 22.4776C145.712 21.743 145.975 21.0982 146.329 20.5431C146.683 19.9881 147.095 19.5228 147.573 19.1392C148.042 18.7556 148.561 18.4699 149.112 18.274C149.664 18.0781 150.224 17.9801 150.792 17.9801C151.442 17.9801 151.969 18.1189 152.389 18.3883C152.809 18.6658 153.147 19.0168 153.41 19.4412C153.674 19.8738 153.863 20.3554 153.987 20.8941C154.11 21.4328 154.201 21.9716 154.25 22.5021C154.423 21.7675 154.686 21.1227 155.04 20.5676C155.394 20.0126 155.806 19.5392 156.284 19.1474C156.761 18.7556 157.272 18.4617 157.823 18.2658C158.375 18.0699 158.935 17.972 159.503 17.972C160.071 17.972 160.573 18.0863 160.969 18.3148C161.364 18.5434 161.693 18.8372 161.965 19.1963C162.237 19.5555 162.434 19.9636 162.582 20.4289C162.722 20.8941 162.829 21.3594 162.887 21.8491C162.953 22.3307 162.986 22.8041 163.002 23.2694C163.019 23.7265 163.027 24.1346 163.027 24.4774V30.4523C163.027 30.6727 163.085 30.8686 163.192 31.04C163.299 31.2114 163.455 31.3257 163.644 31.391C163.801 31.4399 163.982 31.4644 164.188 31.4726C164.394 31.4726 164.608 31.4807 164.83 31.4807H168V34.3621H163.768C163.15 34.3621 162.533 34.1907 161.915 33.8478C161.29 33.505 160.73 33.0642 160.228 32.5337C159.725 32.0031 159.314 31.4154 159.001 30.7788C158.688 30.1421 158.531 29.5136 158.531 28.9014V24.4203C158.531 23.955 158.531 23.5061 158.507 23.0735C158.49 22.6409 158.441 22.2654 158.35 21.9389C158.26 21.6124 158.136 21.3512 157.972 21.1553C157.807 20.9594 157.576 20.8615 157.272 20.8615C156.967 20.8615 156.646 20.9594 156.3 21.1635C155.954 21.3675 155.633 21.6451 155.345 22.0042C155.057 22.3634 154.81 22.7878 154.621 23.2857C154.431 23.7754 154.341 24.3142 154.341 24.8937V34.3621H149.82V24.4203C149.82 23.955 149.82 23.5061 149.796 23.0735C149.779 22.6409 149.73 22.2654 149.639 21.9389C149.549 21.6124 149.425 21.3512 149.261 21.1553C149.096 20.9594 148.865 20.8615 148.561 20.8615C148.256 20.8615 147.968 20.9513 147.638 21.1308C147.309 21.3104 146.996 21.5634 146.716 21.8899C146.436 22.2164 146.189 22.6082 145.992 23.0653C145.794 23.5224 145.671 24.0122 145.621 24.5427V34.3621H141.101V22.1675C141.101 21.9471 141.043 21.7348 140.936 21.5308C140.829 21.3267 140.673 21.2288 140.484 21.2288H138.359L139.586 18.3719H140.418C140.764 18.3719 141.2 18.5025 141.727 18.7719C142.254 19.0413 142.781 19.3759 143.299 19.7922C143.818 20.2085 144.296 20.6492 144.716 21.1308C145.144 21.6042 145.415 22.0532 145.539 22.4776Z" fill="url(#paint16_linear_14140_46656)"/>
<path d="M60.0666 41.243C60.0502 41.0063 59.9514 40.9491 59.4574 40.7369L59.3009 40.6716C58.7246 40.4104 58.3705 40.0676 58.3705 39.4146C58.3705 38.6637 58.9057 38.1331 59.6467 38.1331C60.0502 38.1331 60.4618 38.28 60.7829 38.5249C60.8653 38.582 60.9065 38.7208 60.8571 38.8106L60.6841 39.1616C60.643 39.2432 60.5689 39.2922 60.4783 39.2922C60.4289 39.2922 60.3795 39.284 60.3383 39.2595C60.0255 39.0473 59.7785 39.0065 59.6632 39.0065C59.4162 39.0065 59.2597 39.1534 59.2597 39.3738C59.2597 39.5697 59.3503 39.7003 59.8279 39.9125C59.8526 39.9125 59.9267 39.9452 60.1984 40.0594C60.6841 40.2717 60.9641 40.6879 60.9641 41.194C60.9641 41.9858 60.3548 42.5 59.5973 42.5C59.2021 42.5 58.7904 42.3612 58.4446 42.1082C58.3623 42.0511 58.3211 41.9123 58.3705 41.8225L58.5599 41.4715C58.6011 41.3899 58.6752 41.3409 58.7575 41.3409C58.8069 41.3409 58.8563 41.3491 58.8975 41.3817C59.1445 41.545 59.375 41.6266 59.5809 41.6266C59.8855 41.6266 60.0749 41.4797 60.0749 41.2348L60.0666 41.243Z" fill="white"/>
<path d="M62.8743 40.0921L62.652 42.198C62.6273 42.3367 62.5202 42.4347 62.3885 42.4347H61.985C61.9109 42.4347 61.8533 42.4102 61.8121 42.3612C61.771 42.3041 61.7463 42.2388 61.7545 42.1653L62.1991 38.4678C62.2156 38.3045 62.3309 38.1902 62.4873 38.1902H62.9813C63.1048 38.1902 63.2201 38.2719 63.253 38.4025L64.0599 40.9736L64.8585 38.3943C64.8915 38.2719 65.0068 38.1902 65.1385 38.1902H65.5831C65.7478 38.1902 65.8713 38.3045 65.8795 38.4678L66.3241 42.1653C66.3241 42.247 66.3076 42.3123 66.2665 42.3612C66.2253 42.4102 66.1677 42.4347 66.0936 42.4347H65.6737C65.5419 42.4347 65.4267 42.3367 65.4102 42.198L65.1797 40.0921L64.5045 42.2633C64.4716 42.3857 64.3563 42.4755 64.2328 42.4755H63.8211C63.6976 42.4755 63.5823 42.3939 63.5494 42.2714L62.8743 40.1002V40.0921Z" fill="white"/>
<path d="M70.5397 42.1C70.5397 42.1 70.5397 42.149 70.5397 42.1817C70.5397 42.3204 70.4409 42.4265 70.3009 42.4265H69.9222C69.7904 42.4265 69.6834 42.3449 69.6422 42.2143L69.4282 41.496H68.3413L68.1273 42.2143C68.0943 42.3449 67.9791 42.4265 67.8556 42.4265H67.4768C67.3368 42.4265 67.238 42.3204 67.238 42.1817C67.238 42.149 67.238 42.1245 67.238 42.1L68.399 38.378C68.4319 38.2556 68.5472 38.1658 68.6789 38.1658H69.0906C69.2223 38.1658 69.3294 38.2474 69.3705 38.378L70.5314 42.1H70.5397ZM68.8847 39.6676L68.5966 40.6308H69.1647L68.8765 39.6676H68.8847Z" fill="white"/>
<path d="M73.2238 40.7451L74.0389 42.0592C74.0636 42.1 74.0718 42.149 74.0718 42.1898C74.0718 42.3286 73.973 42.4265 73.8331 42.4265H73.3967C73.2979 42.4265 73.2156 42.3776 73.1579 42.2959L72.3016 40.8594H72.2193V42.1898C72.2193 42.3286 72.1205 42.4265 71.9888 42.4265H71.5689C71.4454 42.4265 71.3383 42.3286 71.3383 42.1898V38.5576C71.3383 38.4596 71.3713 38.3698 71.4371 38.3045C71.4948 38.2311 71.5853 38.1984 71.6759 38.1984H72.6721C73.4132 38.1984 73.9813 38.8024 73.9813 39.5289C73.9813 40.0595 73.6766 40.5329 73.2156 40.7451H73.2238ZM72.2275 39.08V39.9778H72.6557C72.9192 39.9778 73.1003 39.7901 73.1003 39.5371C73.1003 39.284 72.9274 39.08 72.6557 39.08H72.2275Z" fill="white"/>
<path d="M77.53 38.8514C77.53 38.982 77.4312 39.0881 77.2994 39.0881H76.5172V42.1898C76.5172 42.3286 76.4184 42.4265 76.2867 42.4265H75.8586C75.7268 42.4265 75.628 42.3286 75.628 42.1898V39.0881H74.8458C74.7223 39.0881 74.6153 38.982 74.6153 38.8514V38.4351C74.6153 38.2964 74.7141 38.1984 74.8458 38.1984H77.2912C77.4229 38.1984 77.5217 38.2964 77.5217 38.4351V38.8514H77.53Z" fill="white"/>
<path d="M80.9798 40.0921L80.7575 42.198C80.7328 42.3367 80.6258 42.4347 80.494 42.4347H80.0906C80.0165 42.4347 79.9588 42.4102 79.9177 42.3612C79.8765 42.3041 79.8518 42.2388 79.86 42.1653L80.3046 38.4678C80.3211 38.3045 80.4364 38.1902 80.5928 38.1902H81.0868C81.2103 38.1902 81.3256 38.2719 81.3585 38.4025L82.1654 40.9736L82.9641 38.3943C82.997 38.2719 83.1123 38.1902 83.244 38.1902H83.6886C83.8533 38.1902 83.9768 38.3045 83.985 38.4678L84.4296 42.1653C84.4296 42.247 84.4132 42.3123 84.372 42.3612C84.3308 42.4102 84.2732 42.4347 84.1991 42.4347H83.7792C83.6475 42.4347 83.5322 42.3367 83.5157 42.198L83.2852 40.0921L82.61 42.2633C82.5771 42.3857 82.4618 42.4755 82.3383 42.4755H81.9267C81.8031 42.4755 81.6879 42.3939 81.6549 42.2714L80.9798 40.1002V40.0921Z" fill="white"/>
<path d="M88.6535 42.1C88.6535 42.1 88.6535 42.149 88.6535 42.1817C88.6535 42.3204 88.5546 42.4265 88.4147 42.4265H88.0359C87.9042 42.4265 87.7972 42.3449 87.756 42.2143L87.5419 41.496H86.4551L86.241 42.2143C86.2081 42.3449 86.0928 42.4265 85.9693 42.4265H85.5906C85.4506 42.4265 85.3518 42.3204 85.3518 42.1817C85.3518 42.149 85.3518 42.1245 85.3518 42.1L86.5127 38.378C86.5457 38.2556 86.6609 38.1658 86.7927 38.1658H87.2044C87.3361 38.1658 87.4431 38.2474 87.4843 38.378L88.6452 42.1H88.6535ZM86.9985 39.6676L86.7103 40.6308H87.2785L86.9903 39.6676H86.9985Z" fill="white"/>
<path d="M91.0082 41.243C90.9918 41.0063 90.893 40.9491 90.3989 40.7369L90.2425 40.6716C89.6662 40.4104 89.3121 40.0676 89.3121 39.4146C89.3121 38.6637 89.8473 38.1331 90.5883 38.1331C90.9918 38.1331 91.4034 38.28 91.7245 38.5249C91.8069 38.582 91.848 38.7208 91.7986 38.8106L91.6257 39.1616C91.5846 39.2432 91.5105 39.2922 91.4199 39.2922C91.3705 39.2922 91.3211 39.284 91.2799 39.2595C90.9671 39.0473 90.72 39.0065 90.6048 39.0065C90.3578 39.0065 90.2013 39.1534 90.2013 39.3738C90.2013 39.5697 90.2919 39.7003 90.7694 39.9125C90.7942 39.9125 90.8683 39.9452 91.14 40.0594C91.6257 40.2717 91.9057 40.6879 91.9057 41.194C91.9057 41.9858 91.2964 42.5 90.5389 42.5C90.1437 42.5 89.732 42.3612 89.3862 42.1082C89.3039 42.0511 89.2627 41.9123 89.3121 41.8225L89.5015 41.4715C89.5427 41.3899 89.6168 41.3409 89.6991 41.3409C89.7485 41.3409 89.7979 41.3491 89.8391 41.3817C90.0861 41.545 90.3166 41.6266 90.5224 41.6266C90.8271 41.6266 91.0165 41.4797 91.0165 41.2348L91.0082 41.243Z" fill="white"/>
<path d="M93.8653 38.1739C93.9888 38.1739 94.0876 38.28 94.0876 38.4106V41.3327C94.0876 41.9123 93.6924 42.4265 93.0749 42.4265H92.6303C92.4985 42.4265 92.3997 42.3285 92.3997 42.1898V41.7817C92.3997 41.6511 92.4985 41.545 92.6303 41.545H93.0337C93.0913 41.545 93.1325 41.5368 93.1572 41.496C93.1901 41.4633 93.2066 41.4144 93.2066 41.3409V38.4188C93.2066 38.2882 93.3054 38.182 93.4371 38.182H93.8653V38.1739Z" fill="white"/>
<path d="M96.6976 38.1739C96.8211 38.1739 96.9282 38.28 96.9282 38.4106V38.7942C96.9282 38.933 96.8294 39.0309 96.6976 39.0309H96.36V41.5613H96.6976C96.8211 41.5613 96.9282 41.6674 96.9282 41.798V42.1816C96.9282 42.3204 96.8294 42.4183 96.6976 42.4183H95.125C95.0015 42.4183 94.8945 42.3204 94.8945 42.1816V41.798C94.8945 41.6674 94.9933 41.5613 95.125 41.5613H95.4626V39.0309H95.125C95.0015 39.0309 94.8945 38.933 94.8945 38.7942V38.4106C94.8945 38.28 94.9933 38.1739 95.125 38.1739H96.6976Z" fill="white"/>
<path d="M100.773 40.7614C100.773 41.6592 100.115 42.4347 99.1841 42.4347H98.1385C97.9409 42.4347 97.7927 42.2633 97.7927 42.0755V38.5657C97.7927 38.4677 97.8256 38.378 97.8915 38.3127C97.9491 38.2392 98.0397 38.2065 98.1302 38.2065H99.1759C100.106 38.2065 100.765 38.9901 100.765 39.888V40.7614H100.773ZM99.8922 39.8635C99.8922 39.4636 99.5793 39.0963 99.1594 39.0963H98.6737V41.5368H99.1594C99.5793 41.5368 99.8922 41.1613 99.8922 40.7614V39.8635Z" fill="white"/>
<path d="M104.371 40.0921L104.149 42.198C104.124 42.3367 104.017 42.4347 103.885 42.4347H103.482C103.408 42.4347 103.35 42.4102 103.309 42.3612C103.268 42.3041 103.243 42.2388 103.251 42.1653L103.696 38.4678C103.713 38.3045 103.828 38.1902 103.984 38.1902H104.478C104.602 38.1902 104.717 38.2719 104.75 38.4025L105.557 40.9736L106.355 38.3943C106.388 38.2719 106.504 38.1902 106.635 38.1902H107.08C107.245 38.1902 107.368 38.3045 107.376 38.4678L107.821 42.1653C107.821 42.247 107.805 42.3123 107.763 42.3612C107.722 42.4102 107.665 42.4347 107.591 42.4347H107.171C107.039 42.4347 106.924 42.3367 106.907 42.198L106.677 40.0921L106.001 42.2633C105.969 42.3857 105.853 42.4755 105.73 42.4755H105.318C105.195 42.4755 105.079 42.3939 105.046 42.2714L104.371 40.1002V40.0921Z" fill="white"/>
<path d="M112.037 42.1C112.037 42.1 112.037 42.149 112.037 42.1817C112.037 42.3204 111.938 42.4265 111.798 42.4265H111.419C111.287 42.4265 111.18 42.3449 111.139 42.2143L110.925 41.496H109.838L109.624 42.2143C109.591 42.3449 109.476 42.4265 109.352 42.4265H108.974C108.834 42.4265 108.735 42.3204 108.735 42.1817C108.735 42.149 108.735 42.1245 108.735 42.1L109.896 38.378C109.929 38.2556 110.044 38.1658 110.176 38.1658H110.588C110.719 38.1658 110.826 38.2474 110.867 38.378L112.028 42.1H112.037ZM110.382 39.6676L110.094 40.6308H110.662L110.373 39.6676H110.382Z" fill="white"/>
<path d="M113.708 39.9533V42.1898C113.708 42.3286 113.609 42.4265 113.478 42.4265H113.099C112.975 42.4265 112.868 42.3286 112.868 42.1898V38.4759C112.868 38.3208 112.992 38.1902 113.14 38.1902H113.576C113.675 38.1902 113.757 38.2392 113.815 38.329L115.141 40.6798V38.4351C115.141 38.2964 115.239 38.1984 115.371 38.1984H115.758C115.882 38.1984 115.981 38.2964 115.981 38.4351V42.149C115.981 42.3041 115.857 42.4347 115.709 42.4347H115.264C115.165 42.4347 115.083 42.3857 115.025 42.2959L113.708 39.9533Z" fill="white"/>
<path d="M120.155 42.1C120.155 42.1 120.155 42.149 120.155 42.1817C120.155 42.3204 120.056 42.4265 119.916 42.4265H119.537C119.406 42.4265 119.299 42.3449 119.257 42.2143L119.043 41.496H117.957L117.742 42.2143C117.71 42.3449 117.594 42.4265 117.471 42.4265H117.092C116.952 42.4265 116.853 42.3204 116.853 42.1817C116.853 42.149 116.853 42.1245 116.853 42.1L118.014 38.378C118.047 38.2556 118.162 38.1658 118.294 38.1658H118.706C118.838 38.1658 118.945 38.2474 118.986 38.378L120.147 42.1H120.155ZM118.5 39.6676L118.212 40.6308H118.78L118.492 39.6676H118.5Z" fill="white"/>
<path d="M123.506 39.8146C123.704 39.8146 123.86 39.986 123.86 40.1819V40.8267C123.86 41.6674 123.193 42.4265 122.329 42.4265C121.464 42.4265 120.789 41.6674 120.789 40.8267V39.635C120.789 38.7861 121.448 38.0352 122.329 38.0352C122.814 38.0352 123.251 38.231 123.539 38.5657C123.572 38.6147 123.597 38.6718 123.597 38.7371C123.597 38.8024 123.572 38.8677 123.531 38.9249L123.284 39.1942C123.234 39.2514 123.177 39.2758 123.111 39.2758C123.061 39.2758 122.995 39.2677 122.93 39.1942C122.773 39.0228 122.576 38.933 122.329 38.933C121.958 38.933 121.67 39.284 121.67 39.6431V40.8348C121.67 41.1858 121.958 41.545 122.329 41.545C122.699 41.545 122.979 41.2185 122.979 40.8593V40.7043H122.37C122.246 40.7043 122.139 40.6063 122.139 40.4675V40.0676C122.139 39.937 122.238 39.8309 122.37 39.8309H123.506V39.8146Z" fill="white"/>
<path d="M125.713 39.0963V39.8064H126.635C126.766 39.8064 126.865 39.9043 126.865 40.0431V40.443C126.865 40.5736 126.766 40.6798 126.635 40.6798H125.713V41.545H126.997C127.12 41.545 127.227 41.6511 127.227 41.7817V42.198C127.227 42.3367 127.129 42.4347 126.997 42.4347H125.177C124.98 42.4347 124.832 42.2633 124.832 42.0755V38.5657C124.832 38.4677 124.864 38.378 124.93 38.3127C124.988 38.2392 125.079 38.2065 125.169 38.2065H126.989C127.112 38.2065 127.219 38.3045 127.219 38.4433V38.8595C127.219 38.9901 127.12 39.0963 126.989 39.0963H125.704H125.713Z" fill="white"/>
<path d="M129.179 40.0921L128.957 42.198C128.932 42.3367 128.825 42.4347 128.693 42.4347H128.29C128.216 42.4347 128.158 42.4102 128.117 42.3612C128.076 42.3041 128.051 42.2388 128.059 42.1653L128.504 38.4678C128.52 38.3045 128.635 38.1902 128.792 38.1902H129.286C129.409 38.1902 129.525 38.2719 129.558 38.4025L130.364 40.9736L131.163 38.3943C131.196 38.2719 131.311 38.1902 131.443 38.1902H131.888C132.052 38.1902 132.176 38.3045 132.184 38.4678L132.629 42.1653C132.629 42.247 132.612 42.3123 132.571 42.3612C132.53 42.4102 132.472 42.4347 132.398 42.4347H131.978C131.846 42.4347 131.731 42.3367 131.715 42.198L131.484 40.0921L130.809 42.2633C130.776 42.3857 130.661 42.4755 130.537 42.4755H130.126C130.002 42.4755 129.887 42.3939 129.854 42.2714L129.179 40.1002V40.0921Z" fill="white"/>
<path d="M134.547 39.0963V39.8064H135.469C135.601 39.8064 135.7 39.9043 135.7 40.0431V40.443C135.7 40.5736 135.601 40.6798 135.469 40.6798H134.547V41.545H135.832C135.955 41.545 136.062 41.6511 136.062 41.7817V42.198C136.062 42.3367 135.963 42.4347 135.832 42.4347H134.012C133.814 42.4347 133.666 42.2633 133.666 42.0755V38.5657C133.666 38.4677 133.699 38.378 133.765 38.3127C133.823 38.2392 133.913 38.2065 134.004 38.2065H135.823C135.947 38.2065 136.054 38.3045 136.054 38.4433V38.8595C136.054 38.9901 135.955 39.0963 135.823 39.0963H134.539H134.547Z" fill="white"/>
<path d="M137.824 39.9533V42.1898C137.824 42.3286 137.725 42.4265 137.594 42.4265H137.215C137.091 42.4265 136.984 42.3286 136.984 42.1898V38.4759C136.984 38.3208 137.108 38.1902 137.256 38.1902H137.692C137.791 38.1902 137.873 38.2392 137.931 38.329L139.257 40.6798V38.4351C139.257 38.2964 139.356 38.1984 139.487 38.1984H139.874C139.998 38.1984 140.097 38.2964 140.097 38.4351V42.149C140.097 42.3041 139.973 42.4347 139.825 42.4347H139.38C139.281 42.4347 139.199 42.3857 139.141 42.2959L137.824 39.9533Z" fill="white"/>
<path d="M143.876 38.8514C143.876 38.982 143.777 39.0881 143.645 39.0881H142.863V42.1898C142.863 42.3286 142.764 42.4265 142.632 42.4265H142.204C142.073 42.4265 141.974 42.3286 141.974 42.1898V39.0881H141.192C141.068 39.0881 140.961 38.982 140.961 38.8514V38.4351C140.961 38.2964 141.06 38.1984 141.192 38.1984H143.637C143.769 38.1984 143.867 38.2964 143.867 38.4351V38.8514H143.876Z" fill="white"/>
<path d="M147.77 41.243C147.754 41.0063 147.655 40.9491 147.161 40.7369L147.004 40.6716C146.428 40.4104 146.074 40.0676 146.074 39.4146C146.074 38.6637 146.609 38.1331 147.35 38.1331C147.754 38.1331 148.165 38.28 148.487 38.5249C148.569 38.582 148.61 38.7208 148.561 38.8106L148.388 39.1616C148.347 39.2432 148.272 39.2922 148.182 39.2922C148.132 39.2922 148.083 39.284 148.042 39.2595C147.729 39.0473 147.482 39.0065 147.367 39.0065C147.12 39.0065 146.963 39.1534 146.963 39.3738C146.963 39.5697 147.054 39.7003 147.531 39.9125C147.556 39.9125 147.63 39.9452 147.902 40.0594C148.388 40.2717 148.668 40.6879 148.668 41.194C148.668 41.9858 148.058 42.5 147.301 42.5C146.906 42.5 146.494 42.3612 146.148 42.1082C146.066 42.0511 146.025 41.9123 146.074 41.8225L146.263 41.4715C146.305 41.3899 146.379 41.3409 146.461 41.3409C146.51 41.3409 146.56 41.3491 146.601 41.3817C146.848 41.545 147.079 41.6266 147.284 41.6266C147.589 41.6266 147.778 41.4797 147.778 41.2348L147.77 41.243Z" fill="white"/>
<path d="M152.175 38.1984C152.307 38.1984 152.414 38.3045 152.414 38.4433C152.414 38.4923 152.406 38.5412 152.373 38.5821L151.261 40.5165V42.1898C151.261 42.3286 151.162 42.4265 151.031 42.4265H150.611C150.479 42.4265 150.38 42.3286 150.38 42.1898V40.5165L149.269 38.5821C149.236 38.5412 149.227 38.4923 149.227 38.4433C149.227 38.3045 149.335 38.1984 149.466 38.1984H149.911C150.001 38.1984 150.076 38.2392 150.117 38.3209L150.817 39.586L151.516 38.3209C151.558 38.2392 151.632 38.1984 151.722 38.1984H152.167H152.175Z" fill="white"/>
<path d="M154.67 41.243C154.653 41.0063 154.555 40.9491 154.061 40.7369L153.904 40.6716C153.328 40.4104 152.974 40.0676 152.974 39.4146C152.974 38.6637 153.509 38.1331 154.25 38.1331C154.653 38.1331 155.065 38.28 155.386 38.5249C155.468 38.582 155.51 38.7208 155.46 38.8106L155.287 39.1616C155.246 39.2432 155.172 39.2922 155.082 39.2922C155.032 39.2922 154.983 39.284 154.942 39.2595C154.629 39.0473 154.382 39.0065 154.266 39.0065C154.019 39.0065 153.863 39.1534 153.863 39.3738C153.863 39.5697 153.954 39.7003 154.431 39.9125C154.456 39.9125 154.53 39.9452 154.802 40.0594C155.287 40.2717 155.567 40.6879 155.567 41.194C155.567 41.9858 154.958 42.5 154.201 42.5C153.805 42.5 153.394 42.3612 153.048 42.1082C152.966 42.0511 152.924 41.9123 152.974 41.8225L153.163 41.4715C153.204 41.3899 153.278 41.3409 153.361 41.3409C153.41 41.3409 153.46 41.3491 153.501 41.3817C153.748 41.545 153.978 41.6266 154.184 41.6266C154.489 41.6266 154.678 41.4797 154.678 41.2348L154.67 41.243Z" fill="white"/>
<path d="M159.05 38.8514C159.05 38.982 158.951 39.0881 158.82 39.0881H158.037V42.1898C158.037 42.3286 157.939 42.4265 157.807 42.4265H157.379C157.247 42.4265 157.148 42.3286 157.148 42.1898V39.0881H156.366C156.242 39.0881 156.135 38.982 156.135 38.8514V38.4351C156.135 38.2964 156.234 38.1984 156.366 38.1984H158.811C158.943 38.1984 159.042 38.2964 159.042 38.4351V38.8514H159.05Z" fill="white"/>
<path d="M160.754 39.0963V39.8064H161.677C161.808 39.8064 161.907 39.9043 161.907 40.0431V40.443C161.907 40.5736 161.808 40.6798 161.677 40.6798H160.754V41.545H162.039C162.162 41.545 162.269 41.6511 162.269 41.7817V42.198C162.269 42.3367 162.171 42.4347 162.039 42.4347H160.219C160.022 42.4347 159.873 42.2633 159.873 42.0755V38.5657C159.873 38.4677 159.906 38.378 159.972 38.3127C160.03 38.2392 160.12 38.2065 160.211 38.2065H162.031C162.154 38.2065 162.261 38.3045 162.261 38.4433V38.8595C162.261 38.9901 162.162 39.0963 162.031 39.0963H160.746H160.754Z" fill="white"/>
<path d="M164.221 40.0921L163.998 42.198C163.974 42.3367 163.867 42.4347 163.735 42.4347H163.332C163.257 42.4347 163.2 42.4102 163.159 42.3612C163.117 42.3041 163.093 42.2388 163.101 42.1653L163.546 38.4678C163.562 38.3045 163.677 38.1902 163.834 38.1902H164.328C164.451 38.1902 164.567 38.2719 164.599 38.4025L165.406 40.9736L166.205 38.3943C166.238 38.2719 166.353 38.1902 166.485 38.1902H166.93C167.094 38.1902 167.218 38.3045 167.226 38.4678L167.671 42.1653C167.671 42.247 167.654 42.3123 167.613 42.3612C167.572 42.4102 167.514 42.4347 167.44 42.4347H167.02C166.888 42.4347 166.773 42.3367 166.757 42.198L166.526 40.0921L165.851 42.2633C165.818 42.3857 165.703 42.4755 165.579 42.4755H165.168C165.044 42.4755 164.929 42.3939 164.896 42.2714L164.221 40.1002V40.0921Z" fill="white"/>
<defs>
<linearGradient id="paint0_linear_14140_46656" x1="6.53311" y1="35.5563" x2="59.9253" y2="49.573" gradientUnits="userSpaceOnUse">
<stop stop-color="#D69C47"/>
<stop offset="0.17" stop-color="#FFE68F"/>
<stop offset="0.28" stop-color="#E8BC66"/>
<stop offset="0.37" stop-color="#D69C47"/>
<stop offset="0.5" stop-color="#ECC675"/>
<stop offset="0.6" stop-color="#FFEB9E"/>
<stop offset="0.74" stop-color="#977943"/>
<stop offset="0.81" stop-color="#603D13"/>
<stop offset="0.91" stop-color="#7A5118"/>
<stop offset="0.95" stop-color="#8C5E1C"/>
<stop offset="1" stop-color="#D69C47"/>
</linearGradient>
<linearGradient id="paint1_linear_14140_46656" x1="36.0795" y1="15.8102" x2="8.33777" y2="15.8102" gradientUnits="userSpaceOnUse">
<stop stop-color="#D69C47"/>
<stop offset="0.17" stop-color="#FFE68F"/>
<stop offset="0.28" stop-color="#E8BC66"/>
<stop offset="0.37" stop-color="#D69C47"/>
<stop offset="0.5" stop-color="#ECC675"/>
<stop offset="0.6" stop-color="#FFEB9E"/>
<stop offset="0.74" stop-color="#977943"/>
<stop offset="0.81" stop-color="#603D13"/>
<stop offset="0.91" stop-color="#7A5118"/>
<stop offset="0.95" stop-color="#8C5E1C"/>
<stop offset="1" stop-color="#D69C47"/>
</linearGradient>
<linearGradient id="paint2_linear_14140_46656" x1="24.3377" y1="6.24996" x2="26.6517" y2="8.56453" gradientUnits="userSpaceOnUse">
<stop stop-color="#D69C47"/>
<stop offset="0.17" stop-color="#FFE68F"/>
<stop offset="0.28" stop-color="#E8BC66"/>
<stop offset="0.37" stop-color="#D69C47"/>
<stop offset="0.5" stop-color="#ECC675"/>
<stop offset="0.6" stop-color="#FFEB9E"/>
<stop offset="0.74" stop-color="#977943"/>
<stop offset="0.81" stop-color="#603D13"/>
<stop offset="0.91" stop-color="#7A5118"/>
<stop offset="0.95" stop-color="#8C5E1C"/>
<stop offset="1" stop-color="#D69C47"/>
</linearGradient>
<linearGradient id="paint3_linear_14140_46656" x1="10.8709" y1="26.2842" x2="3.10265" y2="26.2842" gradientUnits="userSpaceOnUse">
<stop stop-color="#D69C47"/>
<stop offset="0.17" stop-color="#FFE68F"/>
<stop offset="0.28" stop-color="#E8BC66"/>
<stop offset="0.37" stop-color="#D69C47"/>
<stop offset="0.5" stop-color="#ECC675"/>
<stop offset="0.6" stop-color="#FFEB9E"/>
<stop offset="0.74" stop-color="#977943"/>
<stop offset="0.81" stop-color="#603D13"/>
<stop offset="0.91" stop-color="#7A5118"/>
<stop offset="0.95" stop-color="#8C5E1C"/>
<stop offset="1" stop-color="#D69C47"/>
</linearGradient>
<linearGradient id="paint4_linear_14140_46656" x1="43.8543" y1="26.2842" x2="35.3212" y2="26.2842" gradientUnits="userSpaceOnUse">
<stop stop-color="#D69C47"/>
<stop offset="0.17" stop-color="#FFE68F"/>
<stop offset="0.28" stop-color="#E8BC66"/>
<stop offset="0.37" stop-color="#D69C47"/>
<stop offset="0.5" stop-color="#ECC675"/>
<stop offset="0.6" stop-color="#FFEB9E"/>
<stop offset="0.74" stop-color="#977943"/>
<stop offset="0.81" stop-color="#603D13"/>
<stop offset="0.91" stop-color="#7A5118"/>
<stop offset="0.95" stop-color="#8C5E1C"/>
<stop offset="1" stop-color="#D69C47"/>
</linearGradient>
<linearGradient id="paint5_linear_14140_46656" x1="9.26161" y1="12.4337" x2="7.07974" y2="11.3308" gradientUnits="userSpaceOnUse">
<stop stop-color="#D69C47"/>
<stop offset="0.17" stop-color="#FFE68F"/>
<stop offset="0.28" stop-color="#E8BC66"/>
<stop offset="0.37" stop-color="#D69C47"/>
<stop offset="0.5" stop-color="#ECC675"/>
<stop offset="0.6" stop-color="#FFEB9E"/>
<stop offset="0.74" stop-color="#977943"/>
<stop offset="0.81" stop-color="#603D13"/>
<stop offset="0.91" stop-color="#7A5118"/>
<stop offset="0.95" stop-color="#8C5E1C"/>
<stop offset="1" stop-color="#D69C47"/>
</linearGradient>
<linearGradient id="paint6_linear_14140_46656" x1="41.894" y1="12.2615" x2="40.4008" y2="11.6819" gradientUnits="userSpaceOnUse">
<stop stop-color="#D69C47"/>
<stop offset="0.17" stop-color="#FFE68F"/>
<stop offset="0.28" stop-color="#E8BC66"/>
<stop offset="0.37" stop-color="#D69C47"/>
<stop offset="0.5" stop-color="#ECC675"/>
<stop offset="0.6" stop-color="#FFEB9E"/>
<stop offset="0.74" stop-color="#977943"/>
<stop offset="0.81" stop-color="#603D13"/>
<stop offset="0.91" stop-color="#7A5118"/>
<stop offset="0.95" stop-color="#8C5E1C"/>
<stop offset="1" stop-color="#D69C47"/>
</linearGradient>
<linearGradient id="paint7_linear_14140_46656" x1="35.5166" y1="11.7716" x2="1.59935" y2="11.7716" gradientUnits="userSpaceOnUse">
<stop stop-color="#D69C47"/>
<stop offset="0.17" stop-color="#FFE68F"/>
<stop offset="0.28" stop-color="#E8BC66"/>
<stop offset="0.37" stop-color="#D69C47"/>
<stop offset="0.5" stop-color="#ECC675"/>
<stop offset="0.6" stop-color="#FFEB9E"/>
<stop offset="0.74" stop-color="#977943"/>
<stop offset="0.81" stop-color="#603D13"/>
<stop offset="0.91" stop-color="#7A5118"/>
<stop offset="0.95" stop-color="#8C5E1C"/>
<stop offset="1" stop-color="#D69C47"/>
</linearGradient>
<linearGradient id="paint8_linear_14140_46656" x1="36.3643" y1="36.5495" x2="8.2318" y2="36.5495" gradientUnits="userSpaceOnUse">
<stop stop-color="#D69C47"/>
<stop offset="0.17" stop-color="#FFE68F"/>
<stop offset="0.28" stop-color="#E8BC66"/>
<stop offset="0.37" stop-color="#D69C47"/>
<stop offset="0.5" stop-color="#ECC675"/>
<stop offset="0.6" stop-color="#FFEB9E"/>
<stop offset="0.74" stop-color="#977943"/>
<stop offset="0.81" stop-color="#603D13"/>
<stop offset="0.91" stop-color="#7A5118"/>
<stop offset="0.95" stop-color="#8C5E1C"/>
<stop offset="1" stop-color="#D69C47"/>
</linearGradient>
<linearGradient id="paint9_linear_14140_46656" x1="35.596" y1="28.7636" x2="8.77481" y2="28.7636" gradientUnits="userSpaceOnUse">
<stop stop-color="#D69C47"/>
<stop offset="0.17" stop-color="#FFE68F"/>
<stop offset="0.28" stop-color="#E8BC66"/>
<stop offset="0.37" stop-color="#D69C47"/>
<stop offset="0.5" stop-color="#ECC675"/>
<stop offset="0.6" stop-color="#FFEB9E"/>
<stop offset="0.74" stop-color="#977943"/>
<stop offset="0.81" stop-color="#603D13"/>
<stop offset="0.91" stop-color="#7A5118"/>
<stop offset="0.95" stop-color="#8C5E1C"/>
<stop offset="1" stop-color="#D69C47"/>
</linearGradient>
<linearGradient id="paint10_linear_14140_46656" x1="55.2912" y1="21.9796" x2="201.681" y2="31.2975" gradientUnits="userSpaceOnUse">
<stop stop-color="#D69C47"/>
<stop offset="0.17" stop-color="#FFE68F"/>
<stop offset="0.28" stop-color="#E8BC66"/>
<stop offset="0.37" stop-color="#D69C47"/>
<stop offset="0.5" stop-color="#ECC675"/>
<stop offset="0.6" stop-color="#FFEB9E"/>
<stop offset="0.74" stop-color="#977943"/>
<stop offset="0.81" stop-color="#603D13"/>
<stop offset="0.91" stop-color="#7A5118"/>
<stop offset="0.95" stop-color="#8C5E1C"/>
<stop offset="1" stop-color="#D69C47"/>
</linearGradient>
<linearGradient id="paint11_linear_14140_46656" x1="55.3653" y1="20.7633" x2="201.755" y2="30.0895" gradientUnits="userSpaceOnUse">
<stop stop-color="#D69C47"/>
<stop offset="0.17" stop-color="#FFE68F"/>
<stop offset="0.28" stop-color="#E8BC66"/>
<stop offset="0.37" stop-color="#D69C47"/>
<stop offset="0.5" stop-color="#ECC675"/>
<stop offset="0.6" stop-color="#FFEB9E"/>
<stop offset="0.74" stop-color="#977943"/>
<stop offset="0.81" stop-color="#603D13"/>
<stop offset="0.91" stop-color="#7A5118"/>
<stop offset="0.95" stop-color="#8C5E1C"/>
<stop offset="1" stop-color="#D69C47"/>
</linearGradient>
<linearGradient id="paint12_linear_14140_46656" x1="55.1678" y1="23.8733" x2="201.558" y2="33.1912" gradientUnits="userSpaceOnUse">
<stop stop-color="#D69C47"/>
<stop offset="0.17" stop-color="#FFE68F"/>
<stop offset="0.28" stop-color="#E8BC66"/>
<stop offset="0.37" stop-color="#D69C47"/>
<stop offset="0.5" stop-color="#ECC675"/>
<stop offset="0.6" stop-color="#FFEB9E"/>
<stop offset="0.74" stop-color="#977943"/>
<stop offset="0.81" stop-color="#603D13"/>
<stop offset="0.91" stop-color="#7A5118"/>
<stop offset="0.95" stop-color="#8C5E1C"/>
<stop offset="1" stop-color="#D69C47"/>
</linearGradient>
<linearGradient id="paint13_linear_14140_46656" x1="55.4641" y1="19.2126" x2="201.854" y2="28.5305" gradientUnits="userSpaceOnUse">
<stop stop-color="#D69C47"/>
<stop offset="0.17" stop-color="#FFE68F"/>
<stop offset="0.28" stop-color="#E8BC66"/>
<stop offset="0.37" stop-color="#D69C47"/>
<stop offset="0.5" stop-color="#ECC675"/>
<stop offset="0.6" stop-color="#FFEB9E"/>
<stop offset="0.74" stop-color="#977943"/>
<stop offset="0.81" stop-color="#603D13"/>
<stop offset="0.91" stop-color="#7A5118"/>
<stop offset="0.95" stop-color="#8C5E1C"/>
<stop offset="1" stop-color="#D69C47"/>
</linearGradient>
<linearGradient id="paint14_linear_14140_46656" x1="55.2582" y1="22.4776" x2="201.648" y2="31.8037" gradientUnits="userSpaceOnUse">
<stop stop-color="#D69C47"/>
<stop offset="0.17" stop-color="#FFE68F"/>
<stop offset="0.28" stop-color="#E8BC66"/>
<stop offset="0.37" stop-color="#D69C47"/>
<stop offset="0.5" stop-color="#ECC675"/>
<stop offset="0.6" stop-color="#FFEB9E"/>
<stop offset="0.74" stop-color="#977943"/>
<stop offset="0.81" stop-color="#603D13"/>
<stop offset="0.91" stop-color="#7A5118"/>
<stop offset="0.95" stop-color="#8C5E1C"/>
<stop offset="1" stop-color="#D69C47"/>
</linearGradient>
<linearGradient id="paint15_linear_14140_46656" x1="55.3159" y1="21.6042" x2="201.706" y2="30.9221" gradientUnits="userSpaceOnUse">
<stop stop-color="#D69C47"/>
<stop offset="0.17" stop-color="#FFE68F"/>
<stop offset="0.28" stop-color="#E8BC66"/>
<stop offset="0.37" stop-color="#D69C47"/>
<stop offset="0.5" stop-color="#ECC675"/>
<stop offset="0.6" stop-color="#FFEB9E"/>
<stop offset="0.74" stop-color="#977943"/>
<stop offset="0.81" stop-color="#603D13"/>
<stop offset="0.91" stop-color="#7A5118"/>
<stop offset="0.95" stop-color="#8C5E1C"/>
<stop offset="1" stop-color="#D69C47"/>
</linearGradient>
<linearGradient id="paint16_linear_14140_46656" x1="55.3983" y1="20.2248" x2="201.788" y2="29.551" gradientUnits="userSpaceOnUse">
<stop stop-color="#D69C47"/>
<stop offset="0.17" stop-color="#FFE68F"/>
<stop offset="0.28" stop-color="#E8BC66"/>
<stop offset="0.37" stop-color="#D69C47"/>
<stop offset="0.5" stop-color="#ECC675"/>
<stop offset="0.6" stop-color="#FFEB9E"/>
<stop offset="0.74" stop-color="#977943"/>
<stop offset="0.81" stop-color="#603D13"/>
<stop offset="0.91" stop-color="#7A5118"/>
<stop offset="0.95" stop-color="#8C5E1C"/>
<stop offset="1" stop-color="#D69C47"/>
</linearGradient>
<clipPath id="clip0_14140_46656">
<rect width="50" height="48" fill="white"/>
</clipPath>
</defs>
</svg>
