<svg width="168" height="48" viewBox="0 0 168 48" fill="none" xmlns="http://www.w3.org/2000/svg">
<path d="M2.05015 18.38C2.30539 18.38 2.61003 18.4535 2.96407 18.6004C3.31811 18.7473 3.68862 18.9432 4.0756 19.1881C4.46257 19.433 4.84955 19.7105 5.23652 20.0206C5.6235 20.3308 5.96931 20.6573 6.26571 20.992C6.56212 21.3266 6.80913 21.6613 6.9985 21.9878C7.18787 22.3143 7.27844 22.6245 7.27844 22.902V34.362H2.75823V22.1674C2.75823 21.947 2.7006 21.7348 2.59356 21.5307C2.48653 21.3266 2.32185 21.2287 2.12425 21.2287H0L1.2515 18.3719H2.05838L2.05015 18.38ZM6.28218 12.5113L4.13323 14.6416L1.95958 12.5113L4.13323 10.3564L6.28218 12.5113Z" fill="url(#paint0_linear_14140_47174)"/>
<path d="M16.3847 13.9232C16.3847 14.4375 16.5905 14.9354 17.0104 15.4006C17.4304 15.8659 17.982 16.3312 18.6654 16.7964C19.3488 17.2535 20.131 17.7188 21.0037 18.1759C21.8765 18.6329 22.7739 19.1064 23.6878 19.5961C24.6018 20.0777 25.4992 20.5919 26.372 21.1225C27.2447 21.653 28.0269 22.2244 28.7103 22.8366C29.3937 23.4488 29.9453 24.1017 30.3652 24.8037C30.7851 25.5057 30.991 26.2648 30.991 27.081C30.991 27.6279 30.8675 28.1911 30.6122 28.7706C30.1841 29.7583 29.5501 30.6072 28.6938 31.3173C27.8458 32.0274 26.8577 32.6151 25.738 33.0722C24.6182 33.5375 23.4161 33.8721 22.1235 34.0925C20.8308 34.3129 19.5381 34.419 18.2455 34.419C16.9528 34.419 15.7013 34.3129 14.4828 34.0925C13.2724 33.8721 12.2021 33.5538 11.2799 33.1294C10.3578 32.7049 9.61674 32.1907 9.05686 31.5785C8.49698 30.9663 8.21704 30.2807 8.21704 29.5134C8.21704 28.8686 8.37348 28.2809 8.67812 27.734C8.98276 27.1871 9.37797 26.6974 9.84728 26.2729C10.3166 25.8403 10.8435 25.473 11.4116 25.171C11.9798 24.869 12.5149 24.6323 13.0172 24.4772L13.2313 24.7384C12.6796 25.0486 12.2679 25.4404 11.988 25.9138C11.7163 26.3791 11.5763 26.8933 11.5763 27.4402C11.5763 28.0524 11.8892 28.5829 12.5232 29.0482C13.1572 29.5053 13.9723 29.8889 14.9685 30.1991C15.973 30.5011 17.0845 30.7378 18.3278 30.8929C19.5628 31.0479 20.7896 31.1296 22.0082 31.1296C22.9551 31.1296 23.8607 31.0806 24.717 30.9908C25.5733 30.901 26.339 30.7541 26.9977 30.5664C27.6564 30.3786 28.1833 30.1419 28.5703 29.8481C28.9573 29.5624 29.1467 29.2277 29.1467 28.8523C29.1467 28.5747 28.9244 28.2238 28.488 27.8238C28.0434 27.4157 27.467 26.9831 26.7589 26.5097C26.0509 26.0444 25.2604 25.5546 24.3795 25.0567C23.4985 24.5588 22.6339 24.0609 21.7694 23.5794C20.9049 23.0978 20.0898 22.6407 19.3323 22.2162C18.5748 21.7918 17.9491 21.4327 17.4633 21.1388C16.994 20.845 16.5329 20.5348 16.0883 20.2246C15.6437 19.9144 15.2567 19.5879 14.9191 19.2615C14.5816 18.935 14.3016 18.5921 14.0875 18.2412C13.8735 17.8902 13.75 17.5229 13.7253 17.1474V17.0739L13.7006 16.9107V16.8372C13.7006 16.274 13.8241 15.7108 14.0711 15.1394C14.3181 14.5681 14.631 14.0294 15.0262 13.507C15.4214 12.9846 15.866 12.5112 16.3765 12.0622C16.8787 11.6133 17.3892 11.2297 17.8997 10.9032C18.4101 10.5767 18.9124 10.3155 19.3982 10.1277C19.8839 9.94 20.3203 9.85022 20.6991 9.85022C20.9378 9.85022 21.2589 9.94 21.6789 10.1114C22.0988 10.2828 22.5351 10.495 22.988 10.7481C23.4408 11.0011 23.8854 11.2623 24.2971 11.548C24.717 11.8255 25.0464 12.0867 25.3016 12.3234L22.6998 15.7924C22.2552 15.368 21.7941 14.968 21.3001 14.5762C20.8061 14.1844 20.3286 13.8416 19.8428 13.5315C19.3652 13.2294 18.9042 12.9846 18.4595 12.7968C18.0149 12.6091 17.628 12.5112 17.2739 12.4948C17.0351 12.4948 16.8211 12.6336 16.6317 12.9193C16.4423 13.1968 16.3518 13.5478 16.3518 13.9477L16.3847 13.9232Z" fill="url(#paint1_linear_14140_47174)"/>
<path d="M20.5344 7.80179L18.1961 10.1444L15.8743 7.80179L18.1961 5.5L20.5344 7.80179Z" fill="#FF0000"/>
<path d="M25.524 7.80179L23.1857 10.1444L20.8391 7.80179L23.1857 5.5L25.524 7.80179Z" fill="white"/>
<path d="M38.0225 29.0401C37.7673 29.7258 37.4956 30.3951 37.2074 31.0317C36.9192 31.6766 36.6064 32.2398 36.2852 32.7295C35.9641 33.2193 35.6183 33.6192 35.2561 33.9131C34.8938 34.2069 34.5233 34.362 34.1445 34.362C33.5105 34.362 32.9589 34.1824 32.4814 33.8314C32.0038 33.4805 31.6004 33.0152 31.2875 32.452C30.9746 31.8806 30.7358 31.2276 30.5794 30.493C30.423 29.7584 30.3406 29.0156 30.3406 28.2647V28.0035C30.3736 27.4076 30.4394 26.8199 30.53 26.2323C30.6288 25.6446 30.7688 25.1058 30.9582 24.5998C31.1311 24.1427 31.3945 23.6774 31.7403 23.1958C32.0861 22.7143 32.4896 22.2408 32.9342 21.7756C33.387 21.3185 33.8811 20.8777 34.4245 20.4614C34.9679 20.0452 35.5278 19.686 36.1041 19.3677C36.6805 19.0575 37.265 18.8126 37.8496 18.6331C38.4424 18.4535 39.0023 18.3637 39.5375 18.3637C39.7104 18.3637 39.9162 18.3637 40.1632 18.3719C40.4102 18.3719 40.6655 18.3882 40.9454 18.4045C41.2171 18.4208 41.4971 18.4453 41.7852 18.478C42.0652 18.5106 42.3287 18.5514 42.5674 18.5923L42.5427 21.947C42.4028 21.9143 42.164 21.8735 41.8346 21.8327C41.5053 21.7837 41.1513 21.7511 40.7807 21.7185C40.4102 21.6858 40.0562 21.6613 39.7186 21.6368C39.381 21.6123 39.1258 21.6042 38.9529 21.6042H38.8541C38.0061 21.6858 37.3062 21.9715 36.771 22.4612C36.2358 22.951 35.8242 23.555 35.5442 24.257C35.2643 24.9589 35.0832 25.718 35.009 26.5179C34.9349 27.326 34.9267 28.0688 34.9843 28.7463C35.042 29.4237 35.149 29.987 35.3055 30.4359C35.4619 30.8848 35.6183 31.1052 35.7748 31.1052C35.9147 31.1052 36.0712 30.9583 36.2523 30.6726C36.4252 30.3869 36.6064 30.0033 36.7957 29.5217C36.9851 29.0483 37.1827 28.5096 37.3885 27.9137C37.5944 27.3178 37.792 26.722 37.9896 26.118C38.1872 25.514 38.3683 24.9344 38.5495 24.3712C38.7224 23.808 38.8788 23.3346 39.0188 22.9428H42.5427V30.444C42.5427 30.6644 42.6004 30.8603 42.7239 31.0317C42.8391 31.2032 42.9956 31.3174 43.1849 31.3827C43.3414 31.4317 43.5225 31.4562 43.7284 31.4643C43.9342 31.4643 44.1483 31.4725 44.3706 31.4725H47.5405V34.3538H43.2837C42.6992 34.3538 42.0981 34.1906 41.4888 33.8641C40.8713 33.5376 40.3197 33.1131 39.8174 32.5989C39.3152 32.0847 38.9035 31.5052 38.5742 30.8767C38.2448 30.2481 38.0637 29.6278 38.0308 29.0401H38.0225Z" fill="url(#paint2_linear_14140_47174)"/>
<path d="M50.0845 30.4522C50.0845 30.6726 50.1422 30.8685 50.2492 31.0399C50.3562 31.2113 50.5127 31.3256 50.702 31.3909C50.8585 31.4398 51.0396 31.4643 51.2455 31.4725C51.4513 31.4806 51.6654 31.4807 51.8877 31.4807H57.4206V34.362H50.8256C50.208 34.362 49.5905 34.1906 48.973 33.8477C48.3473 33.5049 47.7874 33.0641 47.2851 32.5336C46.7829 32.003 46.363 31.4154 46.0419 30.7787C45.7208 30.142 45.5561 29.5135 45.5561 28.9013V14.1519C45.5561 13.9315 45.5067 13.7275 45.3997 13.5316C45.3009 13.3357 45.1444 13.2377 44.9386 13.2377H42.8143L44.0658 10.3564H44.8727C45.2515 10.3564 45.7372 10.5196 46.33 10.838C46.9229 11.1563 47.4992 11.5481 48.0591 12.0133C48.619 12.4786 49.0965 12.9683 49.5 13.4907C49.9034 14.0131 50.101 14.4866 50.101 14.911V30.4522H50.0845Z" fill="url(#paint3_linear_14140_47174)"/>
<path d="M60.3682 29.0401C60.113 29.7258 59.8413 30.3951 59.5531 31.0317C59.2649 31.6766 58.9521 32.2398 58.6309 32.7295C58.3098 33.2193 57.964 33.6192 57.6018 33.9131C57.2395 34.2069 56.869 34.362 56.4902 34.362C55.8562 34.362 55.3046 34.1824 54.8271 33.8314C54.3495 33.4805 53.9461 33.0152 53.6332 32.452C53.3203 31.8806 53.0816 31.2276 52.9251 30.493C52.7687 29.7584 52.6863 29.0156 52.6863 28.2647V28.0035C52.7193 27.4076 52.7851 26.8199 52.8757 26.2323C52.9745 25.6446 53.1145 25.1058 53.3039 24.5998C53.4768 24.1427 53.7402 23.6774 54.086 23.1958C54.4318 22.7143 54.8353 22.2408 55.2799 21.7756C55.7327 21.3185 56.2268 20.8777 56.7702 20.4614C57.3136 20.0452 57.8735 19.686 58.4498 19.3677C59.0262 19.0575 59.6107 18.8126 60.1953 18.6331C60.7881 18.4535 61.348 18.3637 61.8832 18.3637C62.0561 18.3637 62.2619 18.3637 62.5089 18.3719C62.7559 18.3719 63.0112 18.3882 63.2911 18.4045C63.5628 18.4208 63.8428 18.4453 64.1309 18.478C64.4109 18.5106 64.6744 18.5514 64.9131 18.5923L64.8884 21.947C64.7485 21.9143 64.5097 21.8735 64.1803 21.8327C63.851 21.7837 63.497 21.7511 63.1265 21.7185C62.7559 21.6858 62.4019 21.6613 62.0643 21.6368C61.7268 21.6123 61.4715 21.6042 61.2986 21.6042H61.1998C60.3518 21.6858 59.6519 21.9715 59.1167 22.4612C58.5815 22.951 58.1699 23.555 57.8899 24.257C57.61 24.9589 57.4289 25.718 57.3547 26.5179C57.2806 27.326 57.2724 28.0688 57.33 28.7463C57.3877 29.4237 57.4947 29.987 57.6512 30.4359C57.8076 30.8848 57.964 31.1052 58.1205 31.1052C58.2604 31.1052 58.4169 30.9583 58.598 30.6726C58.7709 30.3869 58.9521 30.0033 59.1414 29.5217C59.3308 29.0483 59.5284 28.5096 59.7342 27.9137C59.9401 27.3178 60.1377 26.722 60.3353 26.118C60.5329 25.514 60.714 24.9344 60.8952 24.3712C61.0681 23.808 61.2245 23.3346 61.3645 22.9428H64.8884V30.444C64.8884 30.6644 64.9461 30.8603 65.0696 31.0317C65.1848 31.2032 65.3413 31.3174 65.5306 31.3827C65.6871 31.4317 65.8682 31.4562 66.0741 31.4643C66.2799 31.4643 66.494 31.4725 66.7163 31.4725H69.8862V34.3538H65.6294C65.0449 34.3538 64.4438 34.1906 63.8345 33.8641C63.217 33.5376 62.6654 33.1131 62.1631 32.5989C61.6609 32.0847 61.2492 31.5052 60.9199 30.8767C60.5905 30.2481 60.4094 29.6278 60.3765 29.0401H60.3682Z" fill="url(#paint4_linear_14140_47174)"/>
<path d="M74.39 29.0401C74.1347 29.7258 73.863 30.3951 73.5748 31.0317C73.2867 31.6766 72.9738 32.2398 72.6527 32.7295C72.3316 33.2193 71.9858 33.6192 71.6235 33.9131C71.2612 34.2069 70.8907 34.362 70.512 34.362C69.878 34.362 69.3263 34.1824 68.8488 33.8314C68.3712 33.4805 67.9678 33.0152 67.6549 32.452C67.3421 31.8806 67.1033 31.2276 66.9468 30.493C66.7904 29.7584 66.7081 29.0156 66.7081 28.2647V28.0035C66.741 27.4076 66.8069 26.8199 66.8974 26.2323C66.9962 25.6446 67.1362 25.1058 67.3256 24.5998C67.4985 24.1427 67.762 23.6774 68.1078 23.1958C68.4536 22.7143 68.857 22.2408 69.3016 21.7756C69.7545 21.3185 70.2485 20.8777 70.7919 20.4614C71.3353 20.0452 71.8952 19.686 72.4715 19.3677C73.0479 19.0575 73.6325 18.8126 74.217 18.6331C74.8099 18.4535 75.3697 18.3637 75.9049 18.3637C76.0778 18.3637 76.2837 18.3637 76.5307 18.3719C76.7777 18.3719 77.0329 18.3882 77.3128 18.4045C77.5846 18.4208 77.8645 18.4453 78.1527 18.478C78.4326 18.5106 78.6961 18.5514 78.9349 18.5923L78.9102 21.947C78.7702 21.9143 78.5314 21.8735 78.2021 21.8327C77.8727 21.7837 77.5187 21.7511 77.1482 21.7185C76.7777 21.6858 76.4236 21.6613 76.0861 21.6368C75.7485 21.6123 75.4932 21.6042 75.3203 21.6042H75.2215C74.3735 21.6858 73.6736 21.9715 73.1385 22.4612C72.6033 22.951 72.1916 23.555 71.9117 24.257C71.6317 24.9589 71.4506 25.718 71.3765 26.5179C71.3024 27.326 71.2941 28.0688 71.3518 28.7463C71.4094 29.4237 71.5164 29.987 71.6729 30.4359C71.8293 30.8848 71.9858 31.1052 72.1422 31.1052C72.2822 31.1052 72.4386 30.9583 72.6197 30.6726C72.7926 30.3869 72.9738 30.0033 73.1632 29.5217C73.3525 29.0483 73.5501 28.5096 73.756 27.9137C73.9618 27.3178 74.1594 26.722 74.357 26.118C74.5546 25.514 74.7358 24.9344 74.9169 24.3712C75.0898 23.808 75.2462 23.3346 75.3862 22.9428H78.9102V30.444C78.9102 30.6644 78.9678 30.8603 79.0913 31.0317C79.2066 31.2032 79.363 31.3174 79.5524 31.3827C79.7088 31.4317 79.8899 31.4562 80.0958 31.4643C80.3016 31.4643 80.5157 31.4725 80.738 31.4725H83.9079V34.3538H79.6512C79.0666 34.3538 78.4655 34.1906 77.8563 33.8641C77.2388 33.5376 76.6871 33.1131 76.1849 32.5989C75.6826 32.0847 75.2709 31.5052 74.9416 30.8767C74.6123 30.2481 74.4311 29.6278 74.3982 29.0401H74.39Z" fill="url(#paint5_linear_14140_47174)"/>
<path d="M87.5389 22.4776C87.7118 21.743 87.9753 21.0982 88.3294 20.5431C88.6834 19.9881 89.0951 19.5228 89.5726 19.1392C90.0419 18.7556 90.5607 18.4699 91.1123 18.274C91.6639 18.0781 92.2238 17.9801 92.7919 17.9801C93.4424 17.9801 93.9693 18.1189 94.3892 18.3883C94.8091 18.6658 95.1467 19.0168 95.4102 19.4412C95.6737 19.8738 95.863 20.3554 95.9865 20.8941C96.11 21.4328 96.2006 21.9716 96.25 22.5021C96.4229 21.7675 96.6864 21.1227 97.0404 20.5676C97.3945 20.0126 97.8062 19.5392 98.2837 19.1474C98.7612 18.7556 99.2717 18.4617 99.8234 18.2658C100.375 18.0699 100.935 17.972 101.503 17.972C102.071 17.972 102.573 18.0863 102.969 18.3148C103.364 18.5434 103.693 18.8372 103.965 19.1963C104.237 19.5555 104.434 19.9636 104.582 20.4289C104.722 20.8941 104.829 21.3594 104.887 21.8491C104.953 22.3307 104.986 22.8041 105.002 23.2694C105.019 23.7265 105.027 24.1346 105.027 24.4774V30.4523C105.027 30.6727 105.085 30.8686 105.192 31.04C105.299 31.2114 105.455 31.3257 105.644 31.391C105.801 31.4399 105.982 31.4644 106.188 31.4726C106.394 31.4726 106.608 31.4807 106.83 31.4807H110V34.3621H105.768C105.15 34.3621 104.533 34.1907 103.915 33.8478C103.29 33.505 102.73 33.0642 102.228 32.5337C101.725 32.0031 101.314 31.4154 101.001 30.7788C100.688 30.1421 100.531 29.5136 100.531 28.9014V24.4203C100.531 23.955 100.531 23.5061 100.507 23.0735C100.49 22.6409 100.441 22.2654 100.35 21.9389C100.26 21.6124 100.136 21.3512 99.9716 21.1553C99.8069 20.9594 99.5764 20.8615 99.2717 20.8615C98.9671 20.8615 98.646 20.9594 98.3002 21.1635C97.9544 21.3675 97.6333 21.6451 97.3451 22.0042C97.0569 22.3634 96.8099 22.7878 96.6205 23.2857C96.4312 23.7754 96.3406 24.3142 96.3406 24.8937V34.3621H91.8204V24.4203C91.8204 23.955 91.8204 23.5061 91.7957 23.0735C91.7792 22.6409 91.7298 22.2654 91.6392 21.9389C91.5487 21.6124 91.4252 21.3512 91.2605 21.1553C91.0958 20.9594 90.8653 20.8615 90.5607 20.8615C90.256 20.8615 89.9678 20.9513 89.6385 21.1308C89.3092 21.3104 88.9963 21.5634 88.7163 21.8899C88.4364 22.2164 88.1894 22.6082 87.9918 23.0653C87.7942 23.5224 87.6707 24.0122 87.6213 24.5427V34.3621H83.1011V22.1675C83.1011 21.9471 83.0434 21.7348 82.9364 21.5308C82.8294 21.3267 82.6729 21.2288 82.4836 21.2288H80.3593L81.5861 18.3719H82.4177C82.7635 18.3719 83.1999 18.5025 83.7268 18.7719C84.2538 19.0413 84.7807 19.3759 85.2994 19.7922C85.8181 20.2085 86.2957 20.6492 86.7156 21.1308C87.1437 21.6042 87.4154 22.0532 87.5389 22.4776Z" fill="url(#paint6_linear_14140_47174)"/>
<path d="M2.06663 41.243C2.05017 41.0063 1.95136 40.9491 1.45735 40.7369L1.30091 40.6716C0.724568 40.4104 0.370526 40.0676 0.370526 39.4146C0.370526 38.6637 0.905705 38.1331 1.64672 38.1331C2.05017 38.1331 2.46184 38.28 2.78295 38.5249C2.86528 38.582 2.90645 38.7208 2.85705 38.8106L2.68415 39.1616C2.64298 39.2432 2.56888 39.2922 2.47831 39.2922C2.42891 39.2922 2.37951 39.284 2.33834 39.2595C2.02547 39.0473 1.77846 39.0065 1.66319 39.0065C1.41618 39.0065 1.25975 39.1534 1.25975 39.3738C1.25975 39.5697 1.35032 39.7003 1.82786 39.9125C1.85256 39.9125 1.92666 39.9452 2.19837 40.0594C2.68415 40.2717 2.96409 40.6879 2.96409 41.194C2.96409 41.9858 2.35481 42.5 1.59732 42.5C1.20211 42.5 0.790436 42.3612 0.444628 42.1082C0.362292 42.0511 0.321125 41.9123 0.370526 41.8225L0.559897 41.4715C0.601065 41.3899 0.675167 41.3409 0.757502 41.3409C0.806903 41.3409 0.856304 41.3491 0.897472 41.3817C1.14448 41.545 1.37502 41.6266 1.58085 41.6266C1.88549 41.6266 2.07487 41.4797 2.07487 41.2348L2.06663 41.243Z" fill="white"/>
<path d="M4.87427 40.0921L4.65196 42.198C4.62726 42.3367 4.52022 42.4347 4.38849 42.4347H3.98505C3.91094 42.4347 3.85331 42.4102 3.81214 42.3612C3.77097 42.3041 3.74627 42.2388 3.75451 42.1653L4.19912 38.4678C4.21558 38.3045 4.33085 38.1902 4.48729 38.1902H4.9813C5.10481 38.1902 5.22007 38.2719 5.25301 38.4025L6.05989 40.9736L6.85855 38.3943C6.89148 38.2719 7.00675 38.1902 7.13849 38.1902H7.5831C7.74777 38.1902 7.87127 38.3045 7.8795 38.4678L8.32411 42.1653C8.32411 42.247 8.30765 42.3123 8.26648 42.3612C8.22531 42.4102 8.16768 42.4347 8.09358 42.4347H7.67367C7.54193 42.4347 7.42666 42.3367 7.41019 42.198L7.17965 40.0921L6.50451 42.2633C6.47157 42.3857 6.3563 42.4755 6.2328 42.4755H5.82112C5.69762 42.4755 5.58235 42.3939 5.54942 42.2714L4.87427 40.1002V40.0921Z" fill="white"/>
<path d="M12.5397 42.1C12.5397 42.1 12.5397 42.149 12.5397 42.1817C12.5397 42.3204 12.4409 42.4265 12.3009 42.4265H11.9222C11.7904 42.4265 11.6834 42.3449 11.6422 42.2143L11.4282 41.496H10.3413L10.1273 42.2143C10.0943 42.3449 9.97905 42.4265 9.85555 42.4265H9.47681C9.33684 42.4265 9.23804 42.3204 9.23804 42.1817C9.23804 42.149 9.23804 42.1245 9.23804 42.1L10.399 38.378C10.4319 38.2556 10.5472 38.1658 10.6789 38.1658H11.0906C11.2223 38.1658 11.3294 38.2474 11.3705 38.378L12.5314 42.1H12.5397ZM10.8847 39.6676L10.5966 40.6308H11.1647L10.8765 39.6676H10.8847Z" fill="white"/>
<path d="M15.2238 40.7451L16.0389 42.0592C16.0636 42.1 16.0718 42.149 16.0718 42.1898C16.0718 42.3286 15.973 42.4265 15.8331 42.4265H15.3967C15.2979 42.4265 15.2156 42.3776 15.1579 42.2959L14.3016 40.8594H14.2193V42.1898C14.2193 42.3286 14.1205 42.4265 13.9888 42.4265H13.5689C13.4454 42.4265 13.3383 42.3286 13.3383 42.1898V38.5576C13.3383 38.4596 13.3713 38.3698 13.4371 38.3045C13.4948 38.2311 13.5853 38.1984 13.6759 38.1984H14.6721C15.4132 38.1984 15.9813 38.8024 15.9813 39.5289C15.9813 40.0595 15.6766 40.5329 15.2156 40.7451H15.2238ZM14.2275 39.08V39.9778H14.6557C14.9192 39.9778 15.1003 39.7901 15.1003 39.5371C15.1003 39.284 14.9274 39.08 14.6557 39.08H14.2275Z" fill="white"/>
<path d="M19.53 38.8514C19.53 38.982 19.4312 39.0881 19.2994 39.0881H18.5172V42.1898C18.5172 42.3286 18.4184 42.4265 18.2867 42.4265H17.8586C17.7268 42.4265 17.628 42.3286 17.628 42.1898V39.0881H16.8458C16.7223 39.0881 16.6153 38.982 16.6153 38.8514V38.4351C16.6153 38.2964 16.7141 38.1984 16.8458 38.1984H19.2912C19.4229 38.1984 19.5217 38.2964 19.5217 38.4351V38.8514H19.53Z" fill="white"/>
<path d="M22.9798 40.0921L22.7575 42.198C22.7328 42.3367 22.6258 42.4347 22.494 42.4347H22.0906C22.0165 42.4347 21.9588 42.4102 21.9177 42.3612C21.8765 42.3041 21.8518 42.2388 21.86 42.1653L22.3046 38.4678C22.3211 38.3045 22.4364 38.1902 22.5928 38.1902H23.0868C23.2103 38.1902 23.3256 38.2719 23.3585 38.4025L24.1654 40.9736L24.9641 38.3943C24.997 38.2719 25.1123 38.1902 25.244 38.1902H25.6886C25.8533 38.1902 25.9768 38.3045 25.985 38.4678L26.4296 42.1653C26.4296 42.247 26.4132 42.3123 26.372 42.3612C26.3308 42.4102 26.2732 42.4347 26.1991 42.4347H25.7792C25.6475 42.4347 25.5322 42.3367 25.5157 42.198L25.2852 40.0921L24.61 42.2633C24.5771 42.3857 24.4618 42.4755 24.3383 42.4755H23.9267C23.8031 42.4755 23.6879 42.3939 23.6549 42.2714L22.9798 40.1002V40.0921Z" fill="white"/>
<path d="M30.6535 42.1C30.6535 42.1 30.6535 42.149 30.6535 42.1817C30.6535 42.3204 30.5546 42.4265 30.4147 42.4265H30.0359C29.9042 42.4265 29.7972 42.3449 29.756 42.2143L29.5419 41.496H28.4551L28.241 42.2143C28.2081 42.3449 28.0928 42.4265 27.9693 42.4265H27.5906C27.4506 42.4265 27.3518 42.3204 27.3518 42.1817C27.3518 42.149 27.3518 42.1245 27.3518 42.1L28.5127 38.378C28.5457 38.2556 28.6609 38.1658 28.7927 38.1658H29.2044C29.3361 38.1658 29.4431 38.2474 29.4843 38.378L30.6452 42.1H30.6535ZM28.9985 39.6676L28.7103 40.6308H29.2785L28.9903 39.6676H28.9985Z" fill="white"/>
<path d="M33.0082 41.243C32.9918 41.0063 32.893 40.9491 32.3989 40.7369L32.2425 40.6716C31.6662 40.4104 31.3121 40.0676 31.3121 39.4146C31.3121 38.6637 31.8473 38.1331 32.5883 38.1331C32.9918 38.1331 33.4034 38.28 33.7245 38.5249C33.8069 38.582 33.848 38.7208 33.7986 38.8106L33.6257 39.1616C33.5846 39.2432 33.5105 39.2922 33.4199 39.2922C33.3705 39.2922 33.3211 39.284 33.2799 39.2595C32.9671 39.0473 32.72 39.0065 32.6048 39.0065C32.3578 39.0065 32.2013 39.1534 32.2013 39.3738C32.2013 39.5697 32.2919 39.7003 32.7694 39.9125C32.7942 39.9125 32.8683 39.9452 33.14 40.0594C33.6257 40.2717 33.9057 40.6879 33.9057 41.194C33.9057 41.9858 33.2964 42.5 32.5389 42.5C32.1437 42.5 31.732 42.3612 31.3862 42.1082C31.3039 42.0511 31.2627 41.9123 31.3121 41.8225L31.5015 41.4715C31.5427 41.3899 31.6168 41.3409 31.6991 41.3409C31.7485 41.3409 31.7979 41.3491 31.8391 41.3817C32.0861 41.545 32.3166 41.6266 32.5224 41.6266C32.8271 41.6266 33.0165 41.4797 33.0165 41.2348L33.0082 41.243Z" fill="white"/>
<path d="M35.8653 38.1739C35.9888 38.1739 36.0876 38.28 36.0876 38.4106V41.3327C36.0876 41.9123 35.6924 42.4265 35.0749 42.4265H34.6303C34.4985 42.4265 34.3997 42.3285 34.3997 42.1898V41.7817C34.3997 41.6511 34.4985 41.545 34.6303 41.545H35.0337C35.0913 41.545 35.1325 41.5368 35.1572 41.496C35.1901 41.4633 35.2066 41.4144 35.2066 41.3409V38.4188C35.2066 38.2882 35.3054 38.182 35.4371 38.182H35.8653V38.1739Z" fill="white"/>
<path d="M38.6976 38.1739C38.8211 38.1739 38.9282 38.28 38.9282 38.4106V38.7942C38.9282 38.933 38.8294 39.0309 38.6976 39.0309H38.36V41.5613H38.6976C38.8211 41.5613 38.9282 41.6674 38.9282 41.798V42.1816C38.9282 42.3204 38.8294 42.4183 38.6976 42.4183H37.125C37.0015 42.4183 36.8945 42.3204 36.8945 42.1816V41.798C36.8945 41.6674 36.9933 41.5613 37.125 41.5613H37.4626V39.0309H37.125C37.0015 39.0309 36.8945 38.933 36.8945 38.7942V38.4106C36.8945 38.28 36.9933 38.1739 37.125 38.1739H38.6976Z" fill="white"/>
<path d="M42.7732 40.7614C42.7732 41.6592 42.1145 42.4347 41.1841 42.4347H40.1385C39.9409 42.4347 39.7927 42.2633 39.7927 42.0755V38.5657C39.7927 38.4677 39.8256 38.378 39.8915 38.3127C39.9491 38.2392 40.0397 38.2065 40.1302 38.2065H41.1759C42.1063 38.2065 42.765 38.9901 42.765 39.888V40.7614H42.7732ZM41.8922 39.8635C41.8922 39.4636 41.5793 39.0963 41.1594 39.0963H40.6737V41.5368H41.1594C41.5793 41.5368 41.8922 41.1613 41.8922 40.7614V39.8635Z" fill="white"/>
<path d="M46.3712 40.0921L46.1489 42.198C46.1242 42.3367 46.0172 42.4347 45.8854 42.4347H45.482C45.4079 42.4347 45.3503 42.4102 45.3091 42.3612C45.2679 42.3041 45.2432 42.2388 45.2515 42.1653L45.6961 38.4678C45.7125 38.3045 45.8278 38.1902 45.9842 38.1902H46.4783C46.6018 38.1902 46.717 38.2719 46.75 38.4025L47.5568 40.9736L48.3555 38.3943C48.3884 38.2719 48.5037 38.1902 48.6354 38.1902H49.08C49.2447 38.1902 49.3682 38.3045 49.3765 38.4678L49.8211 42.1653C49.8211 42.247 49.8046 42.3123 49.7634 42.3612C49.7223 42.4102 49.6646 42.4347 49.5905 42.4347H49.1706C49.0389 42.4347 48.9236 42.3367 48.9071 42.198L48.6766 40.0921L48.0015 42.2633C47.9685 42.3857 47.8532 42.4755 47.7297 42.4755H47.3181C47.1946 42.4755 47.0793 42.3939 47.0464 42.2714L46.3712 40.1002V40.0921Z" fill="white"/>
<path d="M54.0366 42.1C54.0366 42.1 54.0366 42.149 54.0366 42.1817C54.0366 42.3204 53.9378 42.4265 53.7979 42.4265H53.4191C53.2874 42.4265 53.1803 42.3449 53.1392 42.2143L52.9251 41.496H51.8383L51.6242 42.2143C51.5913 42.3449 51.476 42.4265 51.3525 42.4265H50.9738C50.8338 42.4265 50.735 42.3204 50.735 42.1817C50.735 42.149 50.735 42.1245 50.735 42.1L51.8959 38.378C51.9288 38.2556 52.0441 38.1658 52.1759 38.1658H52.5875C52.7193 38.1658 52.8263 38.2474 52.8675 38.378L54.0284 42.1H54.0366ZM52.3817 39.6676L52.0935 40.6308H52.6616L52.3735 39.6676H52.3817Z" fill="white"/>
<path d="M55.708 39.9533V42.1898C55.708 42.3286 55.6092 42.4265 55.4775 42.4265H55.0988C54.9753 42.4265 54.8682 42.3286 54.8682 42.1898V38.4759C54.8682 38.3208 54.9917 38.1902 55.1399 38.1902H55.5763C55.6751 38.1902 55.7574 38.2392 55.8151 38.329L57.1407 40.6798V38.4351C57.1407 38.2964 57.2395 38.1984 57.3712 38.1984H57.7582C57.8817 38.1984 57.9805 38.2964 57.9805 38.4351V42.149C57.9805 42.3041 57.857 42.4347 57.7088 42.4347H57.2642C57.1654 42.4347 57.083 42.3857 57.0254 42.2959L55.708 39.9533Z" fill="white"/>
<path d="M62.1549 42.1C62.1549 42.1 62.1549 42.149 62.1549 42.1817C62.1549 42.3204 62.0561 42.4265 61.9161 42.4265H61.5374C61.4057 42.4265 61.2986 42.3449 61.2575 42.2143L61.0434 41.496H59.9566L59.7425 42.2143C59.7096 42.3449 59.5943 42.4265 59.4708 42.4265H59.092C58.9521 42.4265 58.8533 42.3204 58.8533 42.1817C58.8533 42.149 58.8533 42.1245 58.8533 42.1L60.0142 38.378C60.0471 38.2556 60.1624 38.1658 60.2941 38.1658H60.7058C60.8376 38.1658 60.9446 38.2474 60.9858 38.378L62.1467 42.1H62.1549ZM60.5 39.6676L60.2118 40.6308H60.7799L60.4917 39.6676H60.5Z" fill="white"/>
<path d="M65.5059 39.8146C65.7036 39.8146 65.86 39.986 65.86 40.1819V40.8267C65.86 41.6674 65.1931 42.4265 64.3286 42.4265C63.464 42.4265 62.7889 41.6674 62.7889 40.8267V39.635C62.7889 38.7861 63.4476 38.0352 64.3286 38.0352C64.8143 38.0352 65.2507 38.231 65.5389 38.5657C65.5718 38.6147 65.5965 38.6718 65.5965 38.7371C65.5965 38.8024 65.5718 38.8677 65.5306 38.9249L65.2836 39.1942C65.2342 39.2514 65.1766 39.2758 65.1107 39.2758C65.0613 39.2758 64.9955 39.2677 64.9296 39.1942C64.7732 39.0228 64.5756 38.933 64.3286 38.933C63.958 38.933 63.6699 39.284 63.6699 39.6431V40.8348C63.6699 41.1858 63.958 41.545 64.3286 41.545C64.6991 41.545 64.979 41.2185 64.979 40.8593V40.7043H64.3697C64.2462 40.7043 64.1392 40.6063 64.1392 40.4675V40.0676C64.1392 39.937 64.238 39.8309 64.3697 39.8309H65.5059V39.8146Z" fill="white"/>
<path d="M67.7125 39.0963V39.8064H68.6347C68.7664 39.8064 68.8652 39.9043 68.8652 40.0431V40.443C68.8652 40.5736 68.7664 40.6798 68.6347 40.6798H67.7125V41.545H68.997C69.1205 41.545 69.2275 41.6511 69.2275 41.7817V42.198C69.2275 42.3367 69.1287 42.4347 68.997 42.4347H67.1773C66.9797 42.4347 66.8315 42.2633 66.8315 42.0755V38.5657C66.8315 38.4677 66.8645 38.378 66.9303 38.3127C66.988 38.2392 67.0785 38.2065 67.1691 38.2065H68.9887C69.1122 38.2065 69.2193 38.3045 69.2193 38.4433V38.8595C69.2193 38.9901 69.1205 39.0963 68.9887 39.0963H67.7043H67.7125Z" fill="white"/>
<path d="M71.1788 40.0921L70.9565 42.198C70.9318 42.3367 70.8248 42.4347 70.6931 42.4347H70.2896C70.2155 42.4347 70.1579 42.4102 70.1167 42.3612C70.0755 42.3041 70.0508 42.2388 70.0591 42.1653L70.5037 38.4678C70.5202 38.3045 70.6354 38.1902 70.7919 38.1902H71.2859C71.4094 38.1902 71.5246 38.2719 71.5576 38.4025L72.3645 40.9736L73.1631 38.3943C73.196 38.2719 73.3113 38.1902 73.4431 38.1902H73.8877C74.0523 38.1902 74.1758 38.3045 74.1841 38.4678L74.6287 42.1653C74.6287 42.247 74.6122 42.3123 74.571 42.3612C74.5299 42.4102 74.4722 42.4347 74.3981 42.4347H73.9782C73.8465 42.4347 73.7312 42.3367 73.7148 42.198L73.4842 40.0921L72.8091 42.2633C72.7761 42.3857 72.6609 42.4755 72.5374 42.4755H72.1257C72.0022 42.4755 71.8869 42.3939 71.854 42.2714L71.1788 40.1002V40.0921Z" fill="white"/>
<path d="M76.5471 39.0963V39.8064H77.4693C77.601 39.8064 77.6998 39.9043 77.6998 40.0431V40.443C77.6998 40.5736 77.601 40.6798 77.4693 40.6798H76.5471V41.545H77.8316C77.9551 41.545 78.0621 41.6511 78.0621 41.7817V42.198C78.0621 42.3367 77.9633 42.4347 77.8316 42.4347H76.0119C75.8143 42.4347 75.6661 42.2633 75.6661 42.0755V38.5657C75.6661 38.4677 75.6991 38.378 75.7649 38.3127C75.8226 38.2392 75.9131 38.2065 76.0037 38.2065H77.8233C77.9468 38.2065 78.0539 38.3045 78.0539 38.4433V38.8595C78.0539 38.9901 77.9551 39.0963 77.8233 39.0963H76.5389H76.5471Z" fill="white"/>
<path d="M79.8241 39.9533V42.1898C79.8241 42.3286 79.7253 42.4265 79.5935 42.4265H79.2148C79.0913 42.4265 78.9843 42.3286 78.9843 42.1898V38.4759C78.9843 38.3208 79.1078 38.1902 79.256 38.1902H79.6923C79.7911 38.1902 79.8735 38.2392 79.9311 38.329L81.2567 40.6798V38.4351C81.2567 38.2964 81.3555 38.1984 81.4872 38.1984H81.8742C81.9977 38.1984 82.0965 38.2964 82.0965 38.4351V42.149C82.0965 42.3041 81.973 42.4347 81.8248 42.4347H81.3802C81.2814 42.4347 81.1991 42.3857 81.1414 42.2959L79.8241 39.9533Z" fill="white"/>
<path d="M85.8757 38.8514C85.8757 38.982 85.7769 39.0881 85.6452 39.0881H84.863V42.1898C84.863 42.3286 84.7642 42.4265 84.6325 42.4265H84.2043C84.0726 42.4265 83.9738 42.3286 83.9738 42.1898V39.0881H83.1916C83.0681 39.0881 82.9611 38.982 82.9611 38.8514V38.4351C82.9611 38.2964 83.0599 38.1984 83.1916 38.1984H85.637C85.7687 38.1984 85.8675 38.2964 85.8675 38.4351V38.8514H85.8757Z" fill="white"/>
<path d="M89.7702 41.243C89.7537 41.0063 89.6549 40.9491 89.1609 40.7369L89.0045 40.6716C88.4281 40.4104 88.0741 40.0676 88.0741 39.4146C88.0741 38.6637 88.6093 38.1331 89.3503 38.1331C89.7537 38.1331 90.1654 38.28 90.4865 38.5249C90.5688 38.582 90.61 38.7208 90.5606 38.8106L90.3877 39.1616C90.3465 39.2432 90.2724 39.2922 90.1819 39.2922C90.1325 39.2922 90.0831 39.284 90.0419 39.2595C89.729 39.0473 89.482 39.0065 89.3667 39.0065C89.1197 39.0065 88.9633 39.1534 88.9633 39.3738C88.9633 39.5697 89.0539 39.7003 89.5314 39.9125C89.5561 39.9125 89.6302 39.9452 89.9019 40.0594C90.3877 40.2717 90.6676 40.6879 90.6676 41.194C90.6676 41.9858 90.0584 42.5 89.3009 42.5C88.9057 42.5 88.494 42.3612 88.1482 42.1082C88.0658 42.0511 88.0247 41.9123 88.0741 41.8225L88.2635 41.4715C88.3046 41.3899 88.3787 41.3409 88.4611 41.3409C88.5105 41.3409 88.5599 41.3491 88.601 41.3817C88.848 41.545 89.0786 41.6266 89.2844 41.6266C89.589 41.6266 89.7784 41.4797 89.7784 41.2348L89.7702 41.243Z" fill="white"/>
<path d="M94.1751 38.1984C94.3068 38.1984 94.4139 38.3045 94.4139 38.4433C94.4139 38.4923 94.4056 38.5412 94.3727 38.5821L93.2612 40.5165V42.1898C93.2612 42.3286 93.1624 42.4265 93.0306 42.4265H92.6107C92.479 42.4265 92.3802 42.3286 92.3802 42.1898V40.5165L91.2686 38.5821C91.2357 38.5412 91.2275 38.4923 91.2275 38.4433C91.2275 38.3045 91.3345 38.1984 91.4663 38.1984H91.9109C92.0014 38.1984 92.0755 38.2392 92.1167 38.3209L92.8165 39.586L93.5164 38.3209C93.5576 38.2392 93.6317 38.1984 93.7222 38.1984H94.1668H94.1751Z" fill="white"/>
<path d="M96.6698 41.243C96.6534 41.0063 96.5546 40.9491 96.0606 40.7369L95.9041 40.6716C95.3278 40.4104 94.9737 40.0676 94.9737 39.4146C94.9737 38.6637 95.5089 38.1331 96.2499 38.1331C96.6534 38.1331 97.0651 38.28 97.3862 38.5249C97.4685 38.582 97.5097 38.7208 97.4603 38.8106L97.2874 39.1616C97.2462 39.2432 97.1721 39.2922 97.0815 39.2922C97.0321 39.2922 96.9827 39.284 96.9415 39.2595C96.6287 39.0473 96.3817 39.0065 96.2664 39.0065C96.0194 39.0065 95.863 39.1534 95.863 39.3738C95.863 39.5697 95.9535 39.7003 96.4311 39.9125C96.4558 39.9125 96.5299 39.9452 96.8016 40.0594C97.2874 40.2717 97.5673 40.6879 97.5673 41.194C97.5673 41.9858 96.958 42.5 96.2005 42.5C95.8053 42.5 95.3936 42.3612 95.0478 42.1082C94.9655 42.0511 94.9243 41.9123 94.9737 41.8225L95.1631 41.4715C95.2043 41.3899 95.2784 41.3409 95.3607 41.3409C95.4101 41.3409 95.4595 41.3491 95.5007 41.3817C95.7477 41.545 95.9782 41.6266 96.1841 41.6266C96.4887 41.6266 96.6781 41.4797 96.6781 41.2348L96.6698 41.243Z" fill="white"/>
<path d="M101.05 38.8514C101.05 38.982 100.951 39.0881 100.82 39.0881H100.037V42.1898C100.037 42.3286 99.9386 42.4265 99.8068 42.4265H99.3787C99.247 42.4265 99.1482 42.3286 99.1482 42.1898V39.0881H98.366C98.2425 39.0881 98.1354 38.982 98.1354 38.8514V38.4351C98.1354 38.2964 98.2342 38.1984 98.366 38.1984H100.811C100.943 38.1984 101.042 38.2964 101.042 38.4351V38.8514H101.05Z" fill="white"/>
<path d="M102.754 39.0963V39.8064H103.677C103.808 39.8064 103.907 39.9043 103.907 40.0431V40.443C103.907 40.5736 103.808 40.6798 103.677 40.6798H102.754V41.545H104.039C104.162 41.545 104.269 41.6511 104.269 41.7817V42.198C104.269 42.3367 104.171 42.4347 104.039 42.4347H102.219C102.022 42.4347 101.873 42.2633 101.873 42.0755V38.5657C101.873 38.4677 101.906 38.378 101.972 38.3127C102.03 38.2392 102.12 38.2065 102.211 38.2065H104.031C104.154 38.2065 104.261 38.3045 104.261 38.4433V38.8595C104.261 38.9901 104.162 39.0963 104.031 39.0963H102.746H102.754Z" fill="white"/>
<path d="M106.221 40.0921L105.998 42.198C105.974 42.3367 105.867 42.4347 105.735 42.4347H105.332C105.257 42.4347 105.2 42.4102 105.159 42.3612C105.117 42.3041 105.093 42.2388 105.101 42.1653L105.546 38.4678C105.562 38.3045 105.677 38.1902 105.834 38.1902H106.328C106.451 38.1902 106.567 38.2719 106.599 38.4025L107.406 40.9736L108.205 38.3943C108.238 38.2719 108.353 38.1902 108.485 38.1902H108.93C109.094 38.1902 109.218 38.3045 109.226 38.4678L109.671 42.1653C109.671 42.247 109.654 42.3123 109.613 42.3612C109.572 42.4102 109.514 42.4347 109.44 42.4347H109.02C108.888 42.4347 108.773 42.3367 108.757 42.198L108.526 40.0921L107.851 42.2633C107.818 42.3857 107.703 42.4755 107.579 42.4755H107.168C107.044 42.4755 106.929 42.3939 106.896 42.2714L106.221 40.1002V40.0921Z" fill="white"/>
<g clip-path="url(#clip0_14140_47174)">
<path d="M145.421 46.6427C145.397 46.5599 145.447 46.4705 145.53 46.4474L167.95 40.7039L167.864 40.3597L145.272 46.0667L167.709 39.1547L166.606 38.5059C165.113 38.817 162.076 39.4328 158.46 40.1014C153.49 41.0184 146.05 41.6904 142.98 45.5039C139.911 41.6937 132.47 41.0184 127.5 40.1014C123.884 39.4328 120.848 38.817 119.354 38.5059L118.252 39.1547L140.689 46.0667L118.086 40.3597L118 40.7039L140.421 46.4474C140.503 46.4739 140.553 46.5599 140.53 46.6427L140.361 47.2518C140.268 47.5828 140.517 47.9105 140.861 47.9105H145.089C145.434 47.9105 145.682 47.5828 145.589 47.2518L145.421 46.6427Z" fill="url(#paint7_linear_14140_47174)"/>
<path d="M133.775 27.1382C133.368 27.1117 133 26.88 132.808 26.5192C132.258 25.4863 131.914 24.1721 132.139 22.5732C132.695 18.6405 139.298 14.7078 141.97 12.5594C141.97 12.5263 141.96 12.4965 141.96 12.4601C141.96 12.139 142.113 11.851 142.348 11.669C142.56 11.5034 142.695 11.2552 142.719 10.987L142.815 9.93433C142.695 9.87474 142.613 9.75557 142.613 9.61323C142.613 9.6033 142.613 9.59667 142.613 9.58674C141.54 9.43778 140.619 8.62012 140.421 7.45819C140.182 6.06123 141.156 4.7073 142.556 4.47888C142.563 4.47888 142.57 4.47888 142.573 4.47888C141.55 4.90923 140.993 6.06454 141.358 7.16357C141.692 8.16992 142.745 8.79557 143.788 8.6135C144.699 8.45461 145.354 7.75612 145.536 6.92854C145.543 6.90536 145.546 6.88219 145.55 6.85902C145.55 6.85902 145.55 6.85571 145.55 6.8524C145.636 8.05736 144.864 9.19612 143.656 9.52716C143.546 9.55695 143.437 9.58012 143.328 9.59336C143.328 9.6033 143.328 9.60992 143.328 9.61985C143.328 9.76219 143.245 9.88468 143.126 9.94095L143.222 10.9936C143.248 11.2618 143.381 11.5101 143.593 11.6756C143.828 11.861 143.98 12.1456 143.98 12.4667C143.98 12.4998 143.974 12.533 143.97 12.5661C146.639 14.7145 153.245 18.6472 153.801 22.5798C154.027 24.1787 153.682 25.493 153.132 26.5258C152.94 26.8866 152.573 27.1183 152.166 27.1448H133.765L133.775 27.1382Z" fill="url(#paint8_linear_14140_47174)"/>
<path d="M142.526 6.9683L142.421 7.58071L142.974 7.29271L143.526 7.58071L143.421 6.9683L143.868 6.53133L143.248 6.44196L142.974 5.88251L142.699 6.44196L142.079 6.53133L142.526 6.9683Z" fill="url(#paint9_linear_14140_47174)"/>
<path d="M129.377 22.1992H128.997V16.4425H128.98C129.017 16.416 129.05 16.3829 129.07 16.3432C129.205 16.085 129.291 15.7573 129.235 15.36C129.073 14.2047 126.811 13.0527 126.543 12.6257C126.275 13.0494 124.013 14.2047 123.851 15.36C123.795 15.7573 123.881 16.085 124.017 16.3432C124.04 16.3829 124.07 16.416 124.106 16.4425H124.089V22.1992H123.712C123.513 22.1992 123.354 22.3581 123.354 22.5567V24.3873C123.354 24.7713 123.563 25.1288 123.897 25.3208L124.089 25.4301V39.0389C125.136 39.2408 126.281 39.4593 127.493 39.6844C127.974 39.7738 128.477 39.8599 128.997 39.9459V25.4301L129.192 25.3208C129.526 25.1288 129.735 24.7746 129.735 24.3873V22.5567C129.735 22.3581 129.576 22.1992 129.381 22.1992H129.377ZM125.513 22.1992H124.652V18.1208C124.652 17.8825 124.844 17.6938 125.083 17.6938C125.202 17.6938 125.308 17.7402 125.387 17.8196C125.467 17.8957 125.513 18.005 125.513 18.1208V22.1992ZM126.974 22.1992H126.116V18.1208C126.116 17.8825 126.308 17.6938 126.543 17.6938C126.778 17.6938 126.97 17.8858 126.97 18.1208V22.1992H126.974ZM128.434 22.1992H127.576V18.1208C127.576 17.8825 127.768 17.6938 128.003 17.6938C128.123 17.6938 128.228 17.7402 128.308 17.8196C128.384 17.8957 128.434 18.005 128.434 18.1208V22.1992Z" fill="url(#paint10_linear_14140_47174)"/>
<path d="M162.238 22.1992H161.858V16.4425H161.841C161.877 16.416 161.907 16.3829 161.93 16.3432C162.07 16.085 162.152 15.7573 162.096 15.36C161.934 14.2047 159.672 13.0527 159.404 12.6257C159.136 13.0494 156.874 14.2047 156.712 15.36C156.656 15.7573 156.742 16.085 156.877 16.3432C156.901 16.3829 156.93 16.416 156.967 16.4425H156.947V22.1992H156.57C156.374 22.1992 156.215 22.3581 156.215 22.5567V24.3873C156.215 24.7713 156.421 25.1288 156.758 25.3208L156.954 25.4301V39.9459C157.473 39.8566 157.977 39.7705 158.457 39.6844C159.669 39.4593 160.818 39.2442 161.861 39.0389V25.4301L162.053 25.3208C162.387 25.1288 162.596 24.7746 162.596 24.3873V22.5567C162.596 22.3581 162.437 22.1992 162.238 22.1992ZM158.374 22.1992H157.513V18.1208C157.513 17.8825 157.705 17.6938 157.944 17.6938C158.063 17.6938 158.169 17.7402 158.248 17.8196C158.328 17.8957 158.374 18.005 158.374 18.1208V22.1992ZM159.834 22.1992H158.977V18.1208C158.977 17.8825 159.169 17.6938 159.404 17.6938C159.639 17.6938 159.831 17.8858 159.831 18.1208V22.1992H159.834ZM161.295 22.1992H160.437V18.1208C160.437 17.8825 160.629 17.6938 160.864 17.6938C160.983 17.6938 161.089 17.7402 161.169 17.8196C161.245 17.8957 161.295 18.005 161.295 18.1208V22.1992Z" fill="url(#paint11_linear_14140_47174)"/>
<path d="M126.901 12.0728C126.901 12.2681 126.742 12.427 126.546 12.427C126.351 12.427 126.192 12.2681 126.192 12.0728C126.192 11.8775 126.351 11.7186 126.546 11.7186C126.742 11.7186 126.901 11.8775 126.901 12.0728Z" fill="url(#paint12_linear_14140_47174)"/>
<path d="M159.762 12.0728C159.762 12.2681 159.603 12.427 159.407 12.427C159.212 12.427 159.053 12.2681 159.053 12.0728C159.053 11.8775 159.212 11.7186 159.407 11.7186C159.603 11.7186 159.762 11.8775 159.762 12.0728Z" fill="url(#paint13_linear_14140_47174)"/>
<path d="M155.692 23.5465H154.368V18.859C154.368 13.7081 151.97 8.80883 147.957 5.75007C147.825 5.65076 147.692 5.55145 147.556 5.45214C147.245 5.22372 146.901 4.98869 146.533 4.7371C145.464 4.00221 144.162 3.11172 142.977 1.93655C141.791 3.10841 140.49 4.00221 139.421 4.7371C139.053 4.98869 138.709 5.22703 138.397 5.45214C138.262 5.55145 138.126 5.65076 137.997 5.75007C133.983 8.80552 131.586 13.7048 131.586 18.859V23.5465H130.262V18.859C130.262 13.2977 132.854 8.00441 137.192 4.69738C137.331 4.59145 137.47 4.48883 137.616 4.3829C137.944 4.14455 138.298 3.9029 138.672 3.64469C139.897 2.80386 141.288 1.85048 142.49 0.536276L142.98 0L143.47 0.536276C144.672 1.85379 146.063 2.80386 147.288 3.64469C147.662 3.9029 148.017 4.14455 148.344 4.3829C148.487 4.48883 148.629 4.59145 148.768 4.69738C153.109 8.0011 155.699 13.2977 155.699 18.859V23.5465H155.692Z" fill="url(#paint14_linear_14140_47174)"/>
<path d="M152.626 30.3956C152.626 30.3956 152.599 30.389 152.586 30.3857H133.368C133.368 30.3857 133.341 30.3923 133.328 30.3956C132.308 30.624 131.589 31.5344 131.589 32.5804V40.3796C131.589 40.3796 131.768 40.4127 132.076 40.4723V37.7843C132.076 36.6091 132.97 36.1159 133.354 35.9404C133.738 35.765 133.795 35.5399 133.795 35.5399C133.795 35.5399 133.854 35.7683 134.235 35.9404C134.619 36.1159 135.513 36.6058 135.513 37.7843V41.237C135.626 41.2635 135.738 41.2933 135.851 41.3231V36.1589C135.851 34.6924 136.967 34.0767 137.444 33.8615C137.921 33.6431 137.993 33.3617 137.993 33.3617C137.993 33.3617 138.066 33.6464 138.543 33.8615C139.02 34.08 140.136 34.6924 140.136 36.1589V42.581C140.262 42.624 140.384 42.6704 140.51 42.7134V34.9109C140.51 33.2193 141.795 32.5142 142.344 32.2626C142.894 32.0111 142.977 31.6866 142.977 31.6866C142.977 31.6866 143.06 32.0144 143.609 32.2626C144.159 32.5142 145.444 33.2193 145.444 34.9109V42.7035C145.566 42.6571 145.692 42.6141 145.818 42.5677V36.1556C145.818 34.6891 146.934 34.0734 147.411 33.8582C147.887 33.6397 147.96 33.3584 147.96 33.3584C147.96 33.3584 148.033 33.6431 148.51 33.8582C148.987 34.0767 150.103 34.6891 150.103 36.1556V41.3098C150.215 41.28 150.331 41.2535 150.44 41.2271V37.7843C150.44 36.6091 151.334 36.1159 151.719 35.9404C152.103 35.765 152.159 35.5399 152.159 35.5399C152.159 35.5399 152.219 35.7683 152.599 35.9404C152.983 36.1159 153.877 36.6058 153.877 37.7843V40.4723C154.185 40.4127 154.364 40.3796 154.364 40.3796V32.5804C154.364 31.5344 153.642 30.624 152.626 30.3956Z" fill="url(#paint15_linear_14140_47174)"/>
<path d="M152.772 27.4725H133.056C132.599 27.4725 132.228 27.8433 132.228 28.3001V29.227C132.228 29.6838 132.599 30.0546 133.056 30.0546H152.772C153.228 30.0546 153.599 29.6838 153.599 29.227V28.3001C153.599 27.8433 153.228 27.4725 152.772 27.4725ZM134.136 29.2469H133.295V28.8298C133.295 28.5418 133.513 28.4193 133.609 28.3796C133.702 28.3365 133.719 28.2803 133.719 28.2803C133.719 28.2803 133.732 28.3365 133.828 28.3796C133.921 28.4226 134.142 28.5418 134.142 28.8298V29.2469H134.136ZM135.374 29.2469H134.533V28.8298C134.533 28.5418 134.752 28.4193 134.848 28.3796C134.94 28.3365 134.957 28.2803 134.957 28.2803C134.957 28.2803 134.97 28.3365 135.066 28.3796C135.159 28.4226 135.381 28.5418 135.381 28.8298V29.2469H135.374ZM136.556 29.2469H135.715V28.8298C135.715 28.5418 135.934 28.4193 136.03 28.3796C136.122 28.3365 136.139 28.2803 136.139 28.2803C136.139 28.2803 136.152 28.3365 136.248 28.3796C136.341 28.4226 136.563 28.5418 136.563 28.8298V29.2469H136.556ZM137.715 29.2469H136.874V28.8298C136.874 28.5418 137.093 28.4193 137.189 28.3796C137.281 28.3365 137.298 28.2803 137.298 28.2803C137.298 28.2803 137.311 28.3365 137.407 28.3796C137.5 28.4226 137.722 28.5418 137.722 28.8298V29.2469H137.715ZM138.858 29.2469H138.017V28.8298C138.017 28.5418 138.235 28.4193 138.331 28.3796C138.424 28.3365 138.44 28.2803 138.44 28.2803C138.44 28.2803 138.454 28.3365 138.55 28.3796C138.642 28.4226 138.864 28.5418 138.864 28.8298V29.2469H138.858ZM140.02 29.2469H139.179V28.8298C139.179 28.5418 139.397 28.4193 139.493 28.3796C139.586 28.3365 139.603 28.2803 139.603 28.2803C139.603 28.2803 139.616 28.3365 139.712 28.3796C139.805 28.4226 140.026 28.5418 140.026 28.8298V29.2469H140.02ZM141.159 29.2469H140.318V28.8298C140.318 28.5418 140.536 28.4193 140.632 28.3796C140.725 28.3365 140.742 28.2803 140.742 28.2803C140.742 28.2803 140.755 28.3365 140.851 28.3796C140.944 28.4226 141.166 28.5418 141.166 28.8298V29.2469H141.159ZM142.281 29.2469H141.44V28.8298C141.44 28.5418 141.659 28.4193 141.755 28.3796C141.848 28.3365 141.864 28.2803 141.864 28.2803C141.864 28.2803 141.877 28.3365 141.973 28.3796C142.066 28.4226 142.288 28.5418 142.288 28.8298V29.2469H142.281ZM143.384 29.2469H142.543V28.8298C142.543 28.5418 142.762 28.4193 142.858 28.3796C142.95 28.3365 142.967 28.2803 142.967 28.2803C142.967 28.2803 142.98 28.3365 143.076 28.3796C143.169 28.4226 143.391 28.5418 143.391 28.8298V29.2469H143.384ZM144.622 29.2469H143.781V28.8298C143.781 28.5418 144 28.4193 144.096 28.3796C144.189 28.3365 144.205 28.2803 144.205 28.2803C144.205 28.2803 144.219 28.3365 144.315 28.3796C144.407 28.4226 144.629 28.5418 144.629 28.8298V29.2469H144.622ZM145.805 29.2469H144.964V28.8298C144.964 28.5418 145.182 28.4193 145.278 28.3796C145.371 28.3365 145.387 28.2803 145.387 28.2803C145.387 28.2803 145.401 28.3365 145.497 28.3796C145.589 28.4226 145.811 28.5418 145.811 28.8298V29.2469H145.805ZM146.964 29.2469H146.122V28.8298C146.122 28.5418 146.341 28.4193 146.437 28.3796C146.53 28.3365 146.546 28.2803 146.546 28.2803C146.546 28.2803 146.56 28.3365 146.656 28.3796C146.748 28.4226 146.97 28.5418 146.97 28.8298V29.2469H146.964ZM148.106 29.2469H147.265V28.8298C147.265 28.5418 147.483 28.4193 147.579 28.3796C147.672 28.3365 147.689 28.2803 147.689 28.2803C147.689 28.2803 147.702 28.3365 147.798 28.3796C147.891 28.4226 148.113 28.5418 148.113 28.8298V29.2469H148.106ZM149.268 29.2469H148.427V28.8298C148.427 28.5418 148.646 28.4193 148.742 28.3796C148.834 28.3365 148.851 28.2803 148.851 28.2803C148.851 28.2803 148.864 28.3365 148.96 28.3796C149.053 28.4226 149.275 28.5418 149.275 28.8298V29.2469H149.268ZM150.407 29.2469H149.566V28.8298C149.566 28.5418 149.785 28.4193 149.881 28.3796C149.973 28.3365 149.99 28.2803 149.99 28.2803C149.99 28.2803 150.003 28.3365 150.099 28.3796C150.192 28.4226 150.414 28.5418 150.414 28.8298V29.2469H150.407ZM151.53 29.2469H150.689V28.8298C150.689 28.5418 150.907 28.4193 151.003 28.3796C151.096 28.3365 151.113 28.2803 151.113 28.2803C151.113 28.2803 151.126 28.3365 151.222 28.3796C151.315 28.4226 151.536 28.5418 151.536 28.8298V29.2469H151.53ZM152.632 29.2469H151.791V28.8298C151.791 28.5418 152.01 28.4193 152.106 28.3796C152.199 28.3365 152.215 28.2803 152.215 28.2803C152.215 28.2803 152.228 28.3365 152.324 28.3796C152.417 28.4226 152.639 28.5418 152.639 28.8298V29.2469H152.632Z" fill="url(#paint16_linear_14140_47174)"/>
</g>
<defs>
<linearGradient id="paint0_linear_14140_47174" x1="-2.70883" y1="21.9796" x2="143.681" y2="31.2975" gradientUnits="userSpaceOnUse">
<stop stop-color="#D69C47"/>
<stop offset="0.17" stop-color="#FFE68F"/>
<stop offset="0.28" stop-color="#E8BC66"/>
<stop offset="0.37" stop-color="#D69C47"/>
<stop offset="0.5" stop-color="#ECC675"/>
<stop offset="0.6" stop-color="#FFEB9E"/>
<stop offset="0.74" stop-color="#977943"/>
<stop offset="0.81" stop-color="#603D13"/>
<stop offset="0.91" stop-color="#7A5118"/>
<stop offset="0.95" stop-color="#8C5E1C"/>
<stop offset="1" stop-color="#D69C47"/>
</linearGradient>
<linearGradient id="paint1_linear_14140_47174" x1="-2.63475" y1="20.7633" x2="143.755" y2="30.0895" gradientUnits="userSpaceOnUse">
<stop stop-color="#D69C47"/>
<stop offset="0.17" stop-color="#FFE68F"/>
<stop offset="0.28" stop-color="#E8BC66"/>
<stop offset="0.37" stop-color="#D69C47"/>
<stop offset="0.5" stop-color="#ECC675"/>
<stop offset="0.6" stop-color="#FFEB9E"/>
<stop offset="0.74" stop-color="#977943"/>
<stop offset="0.81" stop-color="#603D13"/>
<stop offset="0.91" stop-color="#7A5118"/>
<stop offset="0.95" stop-color="#8C5E1C"/>
<stop offset="1" stop-color="#D69C47"/>
</linearGradient>
<linearGradient id="paint2_linear_14140_47174" x1="-2.83225" y1="23.8733" x2="143.558" y2="33.1912" gradientUnits="userSpaceOnUse">
<stop stop-color="#D69C47"/>
<stop offset="0.17" stop-color="#FFE68F"/>
<stop offset="0.28" stop-color="#E8BC66"/>
<stop offset="0.37" stop-color="#D69C47"/>
<stop offset="0.5" stop-color="#ECC675"/>
<stop offset="0.6" stop-color="#FFEB9E"/>
<stop offset="0.74" stop-color="#977943"/>
<stop offset="0.81" stop-color="#603D13"/>
<stop offset="0.91" stop-color="#7A5118"/>
<stop offset="0.95" stop-color="#8C5E1C"/>
<stop offset="1" stop-color="#D69C47"/>
</linearGradient>
<linearGradient id="paint3_linear_14140_47174" x1="-2.53594" y1="19.2126" x2="143.854" y2="28.5305" gradientUnits="userSpaceOnUse">
<stop stop-color="#D69C47"/>
<stop offset="0.17" stop-color="#FFE68F"/>
<stop offset="0.28" stop-color="#E8BC66"/>
<stop offset="0.37" stop-color="#D69C47"/>
<stop offset="0.5" stop-color="#ECC675"/>
<stop offset="0.6" stop-color="#FFEB9E"/>
<stop offset="0.74" stop-color="#977943"/>
<stop offset="0.81" stop-color="#603D13"/>
<stop offset="0.91" stop-color="#7A5118"/>
<stop offset="0.95" stop-color="#8C5E1C"/>
<stop offset="1" stop-color="#D69C47"/>
</linearGradient>
<linearGradient id="paint4_linear_14140_47174" x1="-2.74176" y1="22.4776" x2="143.648" y2="31.8037" gradientUnits="userSpaceOnUse">
<stop stop-color="#D69C47"/>
<stop offset="0.17" stop-color="#FFE68F"/>
<stop offset="0.28" stop-color="#E8BC66"/>
<stop offset="0.37" stop-color="#D69C47"/>
<stop offset="0.5" stop-color="#ECC675"/>
<stop offset="0.6" stop-color="#FFEB9E"/>
<stop offset="0.74" stop-color="#977943"/>
<stop offset="0.81" stop-color="#603D13"/>
<stop offset="0.91" stop-color="#7A5118"/>
<stop offset="0.95" stop-color="#8C5E1C"/>
<stop offset="1" stop-color="#D69C47"/>
</linearGradient>
<linearGradient id="paint5_linear_14140_47174" x1="-2.68409" y1="21.6042" x2="143.706" y2="30.9221" gradientUnits="userSpaceOnUse">
<stop stop-color="#D69C47"/>
<stop offset="0.17" stop-color="#FFE68F"/>
<stop offset="0.28" stop-color="#E8BC66"/>
<stop offset="0.37" stop-color="#D69C47"/>
<stop offset="0.5" stop-color="#ECC675"/>
<stop offset="0.6" stop-color="#FFEB9E"/>
<stop offset="0.74" stop-color="#977943"/>
<stop offset="0.81" stop-color="#603D13"/>
<stop offset="0.91" stop-color="#7A5118"/>
<stop offset="0.95" stop-color="#8C5E1C"/>
<stop offset="1" stop-color="#D69C47"/>
</linearGradient>
<linearGradient id="paint6_linear_14140_47174" x1="-2.6017" y1="20.2248" x2="143.788" y2="29.551" gradientUnits="userSpaceOnUse">
<stop stop-color="#D69C47"/>
<stop offset="0.17" stop-color="#FFE68F"/>
<stop offset="0.28" stop-color="#E8BC66"/>
<stop offset="0.37" stop-color="#D69C47"/>
<stop offset="0.5" stop-color="#ECC675"/>
<stop offset="0.6" stop-color="#FFEB9E"/>
<stop offset="0.74" stop-color="#977943"/>
<stop offset="0.81" stop-color="#603D13"/>
<stop offset="0.91" stop-color="#7A5118"/>
<stop offset="0.95" stop-color="#8C5E1C"/>
<stop offset="1" stop-color="#D69C47"/>
</linearGradient>
<linearGradient id="paint7_linear_14140_47174" x1="124.533" y1="35.5563" x2="177.925" y2="49.573" gradientUnits="userSpaceOnUse">
<stop stop-color="#D69C47"/>
<stop offset="0.17" stop-color="#FFE68F"/>
<stop offset="0.28" stop-color="#E8BC66"/>
<stop offset="0.37" stop-color="#D69C47"/>
<stop offset="0.5" stop-color="#ECC675"/>
<stop offset="0.6" stop-color="#FFEB9E"/>
<stop offset="0.74" stop-color="#977943"/>
<stop offset="0.81" stop-color="#603D13"/>
<stop offset="0.91" stop-color="#7A5118"/>
<stop offset="0.95" stop-color="#8C5E1C"/>
<stop offset="1" stop-color="#D69C47"/>
</linearGradient>
<linearGradient id="paint8_linear_14140_47174" x1="154.079" y1="15.8102" x2="126.338" y2="15.8102" gradientUnits="userSpaceOnUse">
<stop stop-color="#D69C47"/>
<stop offset="0.17" stop-color="#FFE68F"/>
<stop offset="0.28" stop-color="#E8BC66"/>
<stop offset="0.37" stop-color="#D69C47"/>
<stop offset="0.5" stop-color="#ECC675"/>
<stop offset="0.6" stop-color="#FFEB9E"/>
<stop offset="0.74" stop-color="#977943"/>
<stop offset="0.81" stop-color="#603D13"/>
<stop offset="0.91" stop-color="#7A5118"/>
<stop offset="0.95" stop-color="#8C5E1C"/>
<stop offset="1" stop-color="#D69C47"/>
</linearGradient>
<linearGradient id="paint9_linear_14140_47174" x1="142.338" y1="6.24996" x2="144.652" y2="8.56453" gradientUnits="userSpaceOnUse">
<stop stop-color="#D69C47"/>
<stop offset="0.17" stop-color="#FFE68F"/>
<stop offset="0.28" stop-color="#E8BC66"/>
<stop offset="0.37" stop-color="#D69C47"/>
<stop offset="0.5" stop-color="#ECC675"/>
<stop offset="0.6" stop-color="#FFEB9E"/>
<stop offset="0.74" stop-color="#977943"/>
<stop offset="0.81" stop-color="#603D13"/>
<stop offset="0.91" stop-color="#7A5118"/>
<stop offset="0.95" stop-color="#8C5E1C"/>
<stop offset="1" stop-color="#D69C47"/>
</linearGradient>
<linearGradient id="paint10_linear_14140_47174" x1="128.871" y1="26.2842" x2="121.103" y2="26.2842" gradientUnits="userSpaceOnUse">
<stop stop-color="#D69C47"/>
<stop offset="0.17" stop-color="#FFE68F"/>
<stop offset="0.28" stop-color="#E8BC66"/>
<stop offset="0.37" stop-color="#D69C47"/>
<stop offset="0.5" stop-color="#ECC675"/>
<stop offset="0.6" stop-color="#FFEB9E"/>
<stop offset="0.74" stop-color="#977943"/>
<stop offset="0.81" stop-color="#603D13"/>
<stop offset="0.91" stop-color="#7A5118"/>
<stop offset="0.95" stop-color="#8C5E1C"/>
<stop offset="1" stop-color="#D69C47"/>
</linearGradient>
<linearGradient id="paint11_linear_14140_47174" x1="161.854" y1="26.2842" x2="153.321" y2="26.2842" gradientUnits="userSpaceOnUse">
<stop stop-color="#D69C47"/>
<stop offset="0.17" stop-color="#FFE68F"/>
<stop offset="0.28" stop-color="#E8BC66"/>
<stop offset="0.37" stop-color="#D69C47"/>
<stop offset="0.5" stop-color="#ECC675"/>
<stop offset="0.6" stop-color="#FFEB9E"/>
<stop offset="0.74" stop-color="#977943"/>
<stop offset="0.81" stop-color="#603D13"/>
<stop offset="0.91" stop-color="#7A5118"/>
<stop offset="0.95" stop-color="#8C5E1C"/>
<stop offset="1" stop-color="#D69C47"/>
</linearGradient>
<linearGradient id="paint12_linear_14140_47174" x1="127.262" y1="12.4337" x2="125.08" y2="11.3308" gradientUnits="userSpaceOnUse">
<stop stop-color="#D69C47"/>
<stop offset="0.17" stop-color="#FFE68F"/>
<stop offset="0.28" stop-color="#E8BC66"/>
<stop offset="0.37" stop-color="#D69C47"/>
<stop offset="0.5" stop-color="#ECC675"/>
<stop offset="0.6" stop-color="#FFEB9E"/>
<stop offset="0.74" stop-color="#977943"/>
<stop offset="0.81" stop-color="#603D13"/>
<stop offset="0.91" stop-color="#7A5118"/>
<stop offset="0.95" stop-color="#8C5E1C"/>
<stop offset="1" stop-color="#D69C47"/>
</linearGradient>
<linearGradient id="paint13_linear_14140_47174" x1="159.894" y1="12.2615" x2="158.401" y2="11.6819" gradientUnits="userSpaceOnUse">
<stop stop-color="#D69C47"/>
<stop offset="0.17" stop-color="#FFE68F"/>
<stop offset="0.28" stop-color="#E8BC66"/>
<stop offset="0.37" stop-color="#D69C47"/>
<stop offset="0.5" stop-color="#ECC675"/>
<stop offset="0.6" stop-color="#FFEB9E"/>
<stop offset="0.74" stop-color="#977943"/>
<stop offset="0.81" stop-color="#603D13"/>
<stop offset="0.91" stop-color="#7A5118"/>
<stop offset="0.95" stop-color="#8C5E1C"/>
<stop offset="1" stop-color="#D69C47"/>
</linearGradient>
<linearGradient id="paint14_linear_14140_47174" x1="153.517" y1="11.7716" x2="119.599" y2="11.7716" gradientUnits="userSpaceOnUse">
<stop stop-color="#D69C47"/>
<stop offset="0.17" stop-color="#FFE68F"/>
<stop offset="0.28" stop-color="#E8BC66"/>
<stop offset="0.37" stop-color="#D69C47"/>
<stop offset="0.5" stop-color="#ECC675"/>
<stop offset="0.6" stop-color="#FFEB9E"/>
<stop offset="0.74" stop-color="#977943"/>
<stop offset="0.81" stop-color="#603D13"/>
<stop offset="0.91" stop-color="#7A5118"/>
<stop offset="0.95" stop-color="#8C5E1C"/>
<stop offset="1" stop-color="#D69C47"/>
</linearGradient>
<linearGradient id="paint15_linear_14140_47174" x1="154.364" y1="36.5495" x2="126.232" y2="36.5495" gradientUnits="userSpaceOnUse">
<stop stop-color="#D69C47"/>
<stop offset="0.17" stop-color="#FFE68F"/>
<stop offset="0.28" stop-color="#E8BC66"/>
<stop offset="0.37" stop-color="#D69C47"/>
<stop offset="0.5" stop-color="#ECC675"/>
<stop offset="0.6" stop-color="#FFEB9E"/>
<stop offset="0.74" stop-color="#977943"/>
<stop offset="0.81" stop-color="#603D13"/>
<stop offset="0.91" stop-color="#7A5118"/>
<stop offset="0.95" stop-color="#8C5E1C"/>
<stop offset="1" stop-color="#D69C47"/>
</linearGradient>
<linearGradient id="paint16_linear_14140_47174" x1="153.596" y1="28.7636" x2="126.775" y2="28.7636" gradientUnits="userSpaceOnUse">
<stop stop-color="#D69C47"/>
<stop offset="0.17" stop-color="#FFE68F"/>
<stop offset="0.28" stop-color="#E8BC66"/>
<stop offset="0.37" stop-color="#D69C47"/>
<stop offset="0.5" stop-color="#ECC675"/>
<stop offset="0.6" stop-color="#FFEB9E"/>
<stop offset="0.74" stop-color="#977943"/>
<stop offset="0.81" stop-color="#603D13"/>
<stop offset="0.91" stop-color="#7A5118"/>
<stop offset="0.95" stop-color="#8C5E1C"/>
<stop offset="1" stop-color="#D69C47"/>
</linearGradient>
<clipPath id="clip0_14140_47174">
<rect width="50" height="48" fill="white" transform="translate(118)"/>
</clipPath>
</defs>
</svg>
