<svg width="343" height="343" viewBox="0 0 343 343" fill="none" xmlns="http://www.w3.org/2000/svg">
<mask id="mask0_87_6872" style="mask-type:alpha" maskUnits="userSpaceOnUse" x="0" y="0" width="343" height="343">
<rect width="343" height="343" rx="24" fill="url(#paint0_linear_87_6872)"/>
</mask>
<g mask="url(#mask0_87_6872)">
<g style="mix-blend-mode:soft-light">
<path d="M-17 246.129V376H357.816V247.213H359V246.09H356.416C356.633 245.389 356.785 244.649 356.785 243.87C356.785 240.63 354.723 237.886 351.847 236.84C351.847 236.802 351.847 236.764 351.847 236.725C351.847 235.615 351.147 234.684 350.154 234.327L349.797 233.229C349.861 233.127 349.912 233.025 349.912 232.885C349.912 232.63 349.759 232.413 349.543 232.324L349.326 228.866C349.326 228.866 349.314 228.84 349.288 228.84C349.275 228.84 349.25 228.84 349.25 228.866L349.034 232.324C348.817 232.426 348.664 232.63 348.664 232.885C348.664 233.013 348.715 233.127 348.779 233.229L348.423 234.327C347.443 234.684 346.742 235.615 346.742 236.725C346.742 236.764 346.742 236.802 346.742 236.84C343.866 237.886 341.804 240.617 341.804 243.87C341.804 244.649 341.957 245.389 342.173 246.09H339.589V246.129H339.334V233.102H339.474C339.805 233.102 340.06 232.834 340.06 232.515V232.183C340.06 231.852 339.793 231.596 339.474 231.596H338.673C338.711 231.379 338.724 231.15 338.724 230.933C338.724 229.351 337.883 227.96 336.636 227.182C335.86 226.697 335.198 226.072 334.663 225.345C334.765 225.255 334.829 225.128 334.829 224.975C334.829 224.77 334.701 224.592 334.523 224.502L334.396 222.499H334.243L334.116 224.502C333.938 224.579 333.81 224.758 333.81 224.975C333.81 225.115 333.874 225.255 333.976 225.345C333.454 226.085 332.779 226.697 332.003 227.182C330.743 227.96 329.915 229.351 329.915 230.933C329.915 231.163 329.941 231.379 329.966 231.596H329.19C328.859 231.596 328.604 231.864 328.604 232.183V232.515C328.604 232.847 328.872 233.102 329.19 233.102H329.304V241.408H327.382C327.879 240.464 328.146 239.468 328.146 238.435C328.146 234.824 324.875 231.673 319.962 229.912C316.767 228.764 314.043 227.22 311.917 225.408C311.994 225.255 312.057 225.077 312.057 224.885C312.057 224.413 311.777 224.005 311.37 223.826L311.077 219.271H310.734L310.441 223.826C310.033 224.005 309.753 224.413 309.753 224.885C309.753 225.077 309.804 225.242 309.893 225.408C307.768 227.22 305.069 228.751 301.849 229.912C296.936 231.673 293.665 234.837 293.665 238.435C293.665 239.035 293.766 239.622 293.945 240.196H292.544C292.99 238.728 293.232 237.185 293.232 235.577C293.232 227.565 287.211 220.968 279.472 220.075L278.492 217.077C278.492 217.077 278.39 217.026 278.263 217L277.729 208.682C277.729 208.682 277.69 208.631 277.665 208.631C277.639 208.631 277.601 208.656 277.601 208.682L277.067 217C276.939 217.026 276.85 217.051 276.838 217.077L275.857 220.075C270.053 220.751 265.229 224.617 263.167 229.874L263.002 221.109H263.816V219.552H262.963L262.76 208.439H263.702V207.533H263.154V207.227H262.594V203.183H263.154V202.8H262.276C262.352 202.557 262.391 202.302 262.391 202.034C262.391 201.103 261.894 200.299 261.169 199.84C260.723 199.559 260.329 199.189 260.023 198.768C260.023 198.768 260.112 198.64 260.112 198.551C260.112 198.436 260.036 198.321 259.934 198.283L259.87 197.25C259.87 197.25 259.96 197.263 260.01 197.263C260.405 197.263 260.723 196.969 260.774 196.599C260.672 196.816 260.443 196.969 260.189 196.969C259.832 196.969 259.539 196.676 259.539 196.318C259.539 196.063 259.692 195.834 259.909 195.731C259.527 195.782 259.234 196.101 259.234 196.497C259.234 196.841 259.45 197.122 259.769 197.224L259.705 198.296C259.603 198.347 259.527 198.449 259.527 198.564C259.527 198.653 259.565 198.73 259.616 198.781C259.31 199.215 258.916 199.572 258.47 199.853C257.745 200.312 257.248 201.116 257.248 202.047C257.248 202.315 257.287 202.57 257.363 202.813H256.485V203.195H257.019V207.24H256.485V207.546H255.925V208.452H256.866L256.65 219.565H255.797V221.121H256.625L256.396 233.255H255.186V234.812H256.37L256.268 240.311H252.055C253.379 237.81 254.104 235.156 254.104 232.387C254.104 222.767 245.373 214.359 232.262 209.639C223.76 206.576 216.428 202.519 210.764 197.735C211.006 197.288 211.158 196.79 211.158 196.255C211.158 194.991 210.407 193.907 209.313 193.435L208.524 181.301H207.62L206.831 193.435C205.749 193.907 204.985 194.991 204.985 196.255C204.985 196.79 205.138 197.301 205.38 197.735C199.716 202.532 192.46 206.551 183.881 209.639C181.437 210.519 179.146 211.527 177.046 212.637V177.576H177.275C177.797 177.576 178.23 177.142 178.23 176.619V176.083C178.23 175.56 177.81 175.126 177.275 175.126H175.977C176.028 174.769 176.066 174.412 176.066 174.042C176.066 171.477 174.717 169.232 172.68 167.968C171.433 167.19 170.351 166.182 169.498 164.996C169.651 164.842 169.753 164.638 169.753 164.396C169.753 164.064 169.549 163.771 169.256 163.643L169.053 160.402H168.811L168.607 163.643C168.314 163.771 168.111 164.064 168.111 164.396C168.111 164.626 168.212 164.842 168.378 164.996C167.525 166.182 166.456 167.19 165.196 167.968C163.172 169.219 161.81 171.464 161.81 174.042C161.81 174.412 161.848 174.769 161.899 175.126H160.639C160.117 175.126 159.684 175.56 159.684 176.083V176.619C159.684 177.142 160.104 177.576 160.639 177.576H160.83V199.878C158.272 192.248 153.104 185.831 146.396 181.671C140.426 177.971 135.246 173.11 131.147 167.42C131.911 166.705 132.394 165.685 132.394 164.549C132.394 162.941 131.427 161.551 130.04 160.938L129.149 147.184C129.734 147.286 130.345 147.35 130.956 147.35C136.137 147.35 140.413 143.472 141.063 138.457C139.675 141.341 136.748 143.331 133.349 143.331C128.614 143.331 124.77 139.478 124.77 134.732C124.77 131.325 126.756 128.378 129.632 127C124.63 127.651 120.761 131.938 120.761 137.13C120.761 141.66 123.714 145.5 127.787 146.84L126.87 160.938C125.483 161.551 124.516 162.929 124.516 164.549C124.516 165.685 124.999 166.693 125.763 167.42C121.664 173.123 116.535 177.933 110.514 181.671C100.79 187.693 94.3108 198.462 94.3108 210.761C94.3108 214.283 94.8454 217.689 95.8382 220.892H87.7301C87.7683 220.356 87.7938 219.82 87.7938 219.271C87.7938 207.929 79.2784 198.589 68.2937 197.314L66.9063 193.065C66.9063 193.065 66.7663 192.988 66.5881 192.95L65.8244 181.174C65.8244 181.174 65.7735 181.097 65.7225 181.097C65.6716 181.097 65.6207 181.123 65.6207 181.174L64.857 192.95C64.6788 192.976 64.5515 193.014 64.5388 193.065L63.1387 197.314C52.1667 198.589 43.6513 207.929 43.6513 219.271C43.6513 221.555 43.995 223.75 44.6314 225.817H37.1216V229.134H40.6219V246.129H32.7048L32.2593 222.436H34.3341V219.705H32.2084L31.8011 198.385H33.2394V195.655H31.7502L31.381 176.134H33.023V174.552H32.0557V174.016H31.0756V166.909H32.0557V166.233H30.5155C30.6555 165.812 30.7192 165.366 30.7192 164.894C30.7192 163.26 29.8536 161.844 28.568 161.04C27.7789 160.543 27.0915 159.905 26.5569 159.152C26.6588 159.063 26.7224 158.922 26.7224 158.769C26.7224 158.552 26.5951 158.374 26.4042 158.284L26.2896 156.46C26.366 156.473 26.4424 156.486 26.5315 156.486C27.2188 156.486 27.7789 155.975 27.868 155.312C27.6898 155.694 27.2952 155.962 26.8497 155.962C26.226 155.962 25.7169 155.452 25.7169 154.827C25.7169 154.38 25.9842 153.985 26.366 153.806C25.7041 153.895 25.195 154.457 25.195 155.146C25.195 155.745 25.5896 156.256 26.1242 156.422L26.0096 158.297C25.8314 158.374 25.6914 158.565 25.6914 158.782C25.6914 158.935 25.755 159.063 25.8569 159.165C25.3223 159.93 24.6349 160.556 23.833 161.053C22.5475 161.844 21.6819 163.273 21.6819 164.906C21.6819 165.378 21.7583 165.825 21.8856 166.246H20.3454V166.922H21.2873V174.029H20.3454V174.565H19.3653V176.147H21.02L20.6509 195.668H19.149V198.398H20.6L20.1927 219.718H18.0543V222.448H20.1418L19.6836 246.141H15.6868V203.846H16.0305C16.8324 203.846 17.4815 203.195 17.4815 202.392V201.562C17.4815 200.758 16.8324 200.108 16.0305 200.108H14.0575C14.1339 199.572 14.1976 199.023 14.1976 198.462C14.1976 194.545 12.1355 191.126 9.04252 189.212C7.14597 188.038 5.49127 186.494 4.19296 184.682C4.4348 184.453 4.58754 184.134 4.58754 183.776C4.58754 183.266 4.28206 182.82 3.83656 182.628L3.51835 177.691H3.14922L2.83101 182.628C2.38551 182.82 2.08003 183.266 2.08003 183.776C2.08003 184.134 2.23277 184.453 2.47461 184.682C1.17631 186.494 -0.465673 188.025 -2.37495 189.212C-5.46798 191.126 -7.52999 194.545 -7.52999 198.462C-7.52999 199.023 -7.47908 199.572 -7.38998 200.108H-9.29925C-10.1011 200.108 -10.7503 200.758 -10.7503 201.562V202.392C-10.7503 203.195 -10.1011 203.846 -9.29925 203.846H-9.01923V246.141H-16.9873L-17 246.129ZM337.094 236.891C337.094 235.717 337.438 234.735 337.909 234.442C338.38 234.735 338.724 235.717 338.724 236.891V241.484H337.107V236.891H337.094ZM332.283 236.406C332.283 235.118 333.148 234.021 334.332 233.702C335.516 234.033 336.381 235.118 336.381 236.406V241.484H333.263V241.408H332.27V236.406H332.283ZM329.979 236.891C329.979 235.717 330.323 234.735 330.794 234.442C331.265 234.735 331.608 235.717 331.608 236.891V241.408H329.992V236.891H329.979ZM261.563 203.923C261.563 203.795 261.665 203.706 261.78 203.706H261.882C261.996 203.706 262.098 203.808 262.098 203.923V207.24H261.551V203.923H261.563ZM260.545 203.923C260.545 203.795 260.647 203.706 260.761 203.706H260.863C260.978 203.706 261.08 203.808 261.08 203.923V207.24H260.532V203.923H260.545ZM259.527 203.923C259.527 203.795 259.629 203.706 259.743 203.706H259.845C259.96 203.706 260.061 203.808 260.061 203.923V207.24H259.514V203.923H259.527ZM258.508 203.923C258.508 203.795 258.61 203.706 258.725 203.706H258.827C258.941 203.706 259.043 203.808 259.043 203.923V207.24H258.496V203.923H258.508ZM257.49 203.923C257.49 203.795 257.592 203.706 257.707 203.706H257.808C257.923 203.706 258.025 203.808 258.025 203.923V207.24H257.477V203.923H257.49ZM173.406 183.713C173.406 181.824 173.966 180.23 174.717 179.745C175.468 180.23 176.028 181.812 176.028 183.713V191.138H173.406V183.713ZM165.629 182.922C165.629 180.829 167.029 179.069 168.951 178.545C170.86 179.081 172.273 180.842 172.273 182.922V191.138H165.629V182.922ZM161.899 183.713C161.899 181.824 162.459 180.23 163.21 179.745C163.961 180.23 164.521 181.812 164.521 183.713V191.138H161.899V183.713ZM29.2936 168.198C29.2936 167.981 29.459 167.815 29.6754 167.815H29.8664C30.0827 167.815 30.2482 167.981 30.2482 168.198V174.016H29.2936V168.198ZM27.4988 168.198C27.4988 167.981 27.6643 167.815 27.8807 167.815H28.0716C28.288 167.815 28.4535 167.981 28.4535 168.198V174.016H27.4988V168.198ZM25.7041 168.198C25.7041 167.981 25.8823 167.815 26.086 167.815H26.2769C26.4933 167.815 26.6588 167.981 26.6588 168.198V174.016H25.7041V168.198ZM23.9094 168.198C23.9094 167.981 24.0876 167.815 24.2913 167.815H24.4822C24.6986 167.815 24.864 167.981 24.864 168.198V174.016H23.9094V168.198ZM22.1147 168.198C22.1147 167.981 22.2802 167.815 22.4965 167.815H22.6875C22.9039 167.815 23.0693 167.981 23.0693 168.198V174.016H22.1147V168.198ZM10.1244 213.173C10.1244 210.289 10.9645 207.865 12.1228 207.138C13.2811 207.878 14.1212 210.289 14.1212 213.173V224.502H10.1244V213.173ZM-1.7258 211.973C-1.7258 208.784 0.412596 206.117 3.34015 205.301C6.25498 206.117 8.4061 208.796 8.4061 211.973V224.49H-1.71307V211.973H-1.7258ZM-7.41544 213.173C-7.41544 210.289 -6.57535 207.865 -5.41706 207.138C-4.25877 207.878 -3.41869 210.289 -3.41869 213.173V224.502H-7.41544V213.173Z" fill="#3A3A3A"/>
</g>
</g>
<defs>
<linearGradient id="paint0_linear_87_6872" x1="171.501" y1="343" x2="171.501" y2="0" gradientUnits="userSpaceOnUse">
<stop stop-color="#FFFF61"/>
<stop offset="0.67" stop-color="#FF5A54"/>
<stop offset="1" stop-color="#8939CF"/>
</linearGradient>
</defs>
</svg>
