<svg width="35" height="35" viewBox="0 0 35 35" fill="none" xmlns="http://www.w3.org/2000/svg">
<path fill-rule="evenodd" clip-rule="evenodd" d="M15.3538 3.32953C16.0091 2.96064 16.7483 2.76685 17.5002 2.76685C18.2521 2.76685 18.9914 2.96064 19.6466 3.32953C20.3018 3.69842 20.8509 4.22996 21.2408 4.87285L21.245 4.87977L33.5971 25.5006L33.6089 25.5208C33.9909 26.1823 34.1931 26.9324 34.1952 27.6963C34.1974 28.4602 33.9994 29.2114 33.6211 29.875C33.2428 30.5387 32.6974 31.0918 32.039 31.4792C31.3806 31.8666 30.6322 32.0749 29.8683 32.0833L29.8523 32.0834L5.13209 32.0833C4.36821 32.075 3.61985 31.8666 2.96145 31.4792C2.30305 31.0918 1.75757 30.5387 1.37928 29.875C1.00098 29.2114 0.803054 28.4602 0.805193 27.6963C0.807332 26.9324 1.00946 26.1823 1.39147 25.5208L1.40331 25.5006L13.7596 4.87284C14.1495 4.22994 14.6986 3.69842 15.3538 3.32953ZM17.5002 11.6667C18.3056 11.6667 18.9585 12.3196 18.9585 13.125V18.9584C18.9585 19.7638 18.3056 20.4167 17.5002 20.4167C16.6948 20.4167 16.0418 19.7638 16.0418 18.9584V13.125C16.0418 12.3196 16.6948 11.6667 17.5002 11.6667ZM16.0418 24.7917C16.0418 23.9863 16.6948 23.3334 17.5002 23.3334H17.5148C18.3202 23.3334 18.9731 23.9863 18.9731 24.7917C18.9731 25.5971 18.3202 26.25 17.5148 26.25H17.5002C16.6948 26.25 16.0418 25.5971 16.0418 24.7917Z" fill="#EF1B1B"/>
</svg>
