<svg width="56" height="41" viewBox="0 0 56 41" fill="none" xmlns="http://www.w3.org/2000/svg">
<g clip-path="url(#clip0_812_9240)">
<path d="M18.6922 0.656812C18.8821 0.919445 19.0685 1.17709 19.2521 1.43104C19.8506 2.25855 20.4208 3.04691 20.9956 3.8412C14.1906 7.58259 9.22729 12.722 8.07257 20.7373L7.9389 21.6651L8.7839 21.2593C10.294 20.5342 11.8046 20.2906 13.4048 20.3412L13.4051 20.3412C18.8287 20.5097 22.9819 23.8683 23.9279 28.7684L23.9279 28.7685C25.2014 35.3616 19.1944 41.3621 12.1911 40.3956C7.18785 39.7047 4.07754 36.804 2.14397 32.5553L2.1439 32.5551C-0.0387809 27.7636 0.0730272 22.8054 1.77044 17.8645C3.84559 11.8247 7.99316 7.2508 13.4453 3.67125L13.4455 3.67113C14.6484 2.88059 15.9071 2.19057 17.2072 1.47786C17.6966 1.20958 18.1918 0.93809 18.6922 0.656812Z" fill="white" stroke="#006E8C"/>
<path d="M44.7866 20.3394C49.9941 20.4932 54.257 23.8748 55.2854 28.6141L55.2854 28.6142C56.7141 35.1949 50.655 41.3765 43.6216 40.3975L43.6215 40.3975C38.2445 39.6501 35.0464 36.4433 33.2383 31.822C31.0744 26.2901 31.6082 20.7529 34.1887 15.3939L34.1887 15.3938C37.1833 9.17235 42.21 4.78755 48.4746 1.54092L48.4749 1.54079C48.8779 1.33163 49.2867 1.14154 49.7063 0.946399C49.853 0.878195 50.001 0.809372 50.1505 0.738907L50.2713 0.905721C50.9712 1.87236 51.6722 2.84067 52.3961 3.84117C45.5911 7.58258 40.6258 12.7236 39.473 20.7317L39.3399 21.6562L40.183 21.2543C41.6787 20.5414 43.1884 20.2924 44.7866 20.3394ZM44.7866 20.3394L44.8014 19.8396M44.7866 20.3394L44.8014 19.8396M44.8014 19.8396C43.3278 19.7962 41.9114 19.995 40.5096 20.564M44.8014 19.8396C50.2169 19.9995 54.6925 23.5237 55.774 28.5081C57.2843 35.4644 50.8934 41.9145 43.5527 40.8928C37.9621 40.1157 34.6329 36.7589 32.7727 32.0041C30.5506 26.3236 31.1071 20.6411 33.7382 15.177C36.7921 8.83224 41.9127 4.3785 48.2446 1.09699C48.6578 0.882555 49.0819 0.6853 49.5057 0.48823C49.6769 0.408628 49.848 0.329056 50.0183 0.248394C50.0759 0.22083 50.1361 0.200775 50.2088 0.176563C50.2453 0.164413 50.285 0.151216 50.329 0.135498M40.5096 20.564L50.329 0.136922V0.135498M40.5096 20.564C40.4934 20.6669 40.4777 20.7703 40.4628 20.8742L39.9679 20.803L39.7527 20.3516C39.8555 20.3026 39.9583 20.2556 40.0611 20.2106L40.5096 20.564ZM50.329 0.135498L50.3294 0.136629L50.329 0.135498Z" fill="white" stroke="#006E8C"/>
</g>
<defs>
<clipPath id="clip0_812_9240">
<rect width="56" height="41" fill="white"/>
</clipPath>
</defs>
</svg>
