<svg width="20" height="20" viewBox="0 0 20 20" fill="none" xmlns="http://www.w3.org/2000/svg">
<path fill-rule="evenodd" clip-rule="evenodd" d="M12.0516 2.0776C12.7089 1.80523 13.4135 1.66504 14.125 1.66504C14.8366 1.66504 15.5411 1.80523 16.1985 2.0776C16.8557 2.34992 17.4528 2.74904 17.9558 3.25217C18.4589 3.75513 18.8583 4.35255 19.1306 5.00977C19.403 5.66712 19.5432 6.37168 19.5432 7.08323C19.5432 7.79477 19.403 8.49934 19.1306 9.15668C18.8583 9.81397 18.4591 10.4112 17.9559 10.9141C17.9559 10.9142 17.956 10.9141 17.9559 10.9141L10.5893 18.2808C10.2638 18.6063 9.7362 18.6063 9.41076 18.2808L2.0441 10.9141C1.02807 9.89812 0.457275 8.5201 0.457275 7.08323C0.457275 5.64635 1.02807 4.26833 2.0441 3.2523C3.06012 2.23628 4.43814 1.66548 5.87502 1.66548C7.31189 1.66548 8.68992 2.23628 9.70594 3.2523L10 3.54638L10.294 3.25244C10.2939 3.25249 10.294 3.2524 10.294 3.25244C10.7969 2.74926 11.3943 2.34995 12.0516 2.0776ZM14.125 3.33171C13.6324 3.33171 13.1446 3.42876 12.6895 3.61733C12.2345 3.80589 11.821 4.08227 11.4727 4.43068L10.5893 5.31415C10.2638 5.63959 9.7362 5.63959 9.41076 5.31415L8.52743 4.43082C7.82397 3.72735 6.86986 3.33215 5.87502 3.33215C4.88017 3.33215 3.92607 3.72735 3.22261 4.43082C2.51914 5.13428 2.12394 6.08838 2.12394 7.08323C2.12394 8.07807 2.51914 9.03218 3.22261 9.73564L10 16.513L16.7774 9.73564C17.1258 9.3874 17.4024 8.97378 17.5909 8.5187C17.7795 8.06361 17.8765 7.57583 17.8765 7.08323C17.8765 6.59062 17.7795 6.10284 17.5909 5.64776C17.4024 5.19267 17.126 4.7792 16.7776 4.43095C16.4293 4.08255 16.0156 3.80589 15.5605 3.61733C15.1054 3.42876 14.6176 3.33171 14.125 3.33171Z" fill="white"/>
</svg>
