<svg width="20" height="20" viewBox="0 0 20 20" fill="none" xmlns="http://www.w3.org/2000/svg">
<path d="M9.99984 15.8333C10.1647 15.8333 10.3258 15.7844 10.4628 15.6928C10.5999 15.6012 10.7067 15.4711 10.7697 15.3188C10.8328 15.1665 10.8493 14.999 10.8172 14.8373C10.785 14.6757 10.7056 14.5272 10.5891 14.4107C10.4725 14.2941 10.3241 14.2148 10.1624 14.1826C10.0008 14.1504 9.83321 14.1669 9.68093 14.23C9.52866 14.2931 9.39851 14.3999 9.30695 14.5369C9.21538 14.674 9.1665 14.8351 9.1665 14.9999C9.1665 15.2209 9.2543 15.4329 9.41058 15.5892C9.56686 15.7455 9.77882 15.8333 9.99984 15.8333ZM14.1665 15.8333C14.3313 15.8333 14.4924 15.7844 14.6295 15.6928C14.7665 15.6012 14.8733 15.4711 14.9364 15.3188C14.9995 15.1665 15.016 14.999 14.9838 14.8373C14.9517 14.6757 14.8723 14.5272 14.7558 14.4107C14.6392 14.2941 14.4907 14.2148 14.3291 14.1826C14.1674 14.1504 13.9999 14.1669 13.8476 14.23C13.6953 14.2931 13.5652 14.3999 13.4736 14.5369C13.382 14.674 13.3332 14.8351 13.3332 14.9999C13.3332 15.2209 13.421 15.4329 13.5772 15.5892C13.7335 15.7455 13.9455 15.8333 14.1665 15.8333ZM14.1665 12.4999C14.3313 12.4999 14.4924 12.451 14.6295 12.3595C14.7665 12.2679 14.8733 12.1378 14.9364 11.9855C14.9995 11.8332 15.016 11.6657 14.9838 11.504C14.9517 11.3424 14.8723 11.1939 14.7558 11.0773C14.6392 10.9608 14.4907 10.8814 14.3291 10.8493C14.1674 10.8171 13.9999 10.8336 13.8476 10.8967C13.6953 10.9598 13.5652 11.0666 13.4736 11.2036C13.382 11.3406 13.3332 11.5018 13.3332 11.6666C13.3332 11.8876 13.421 12.0996 13.5772 12.2558C13.7335 12.4121 13.9455 12.4999 14.1665 12.4999ZM9.99984 12.4999C10.1647 12.4999 10.3258 12.451 10.4628 12.3595C10.5999 12.2679 10.7067 12.1378 10.7697 11.9855C10.8328 11.8332 10.8493 11.6657 10.8172 11.504C10.785 11.3424 10.7056 11.1939 10.5891 11.0773C10.4725 10.9608 10.3241 10.8814 10.1624 10.8493C10.0008 10.8171 9.83321 10.8336 9.68093 10.8967C9.52866 10.9598 9.39851 11.0666 9.30695 11.2036C9.21538 11.3406 9.1665 11.5018 9.1665 11.6666C9.1665 11.8876 9.2543 12.0996 9.41058 12.2558C9.56686 12.4121 9.77882 12.4999 9.99984 12.4999ZM15.8332 2.49992H14.9998V1.66659C14.9998 1.44557 14.912 1.23361 14.7558 1.07733C14.5995 0.921049 14.3875 0.833252 14.1665 0.833252C13.9455 0.833252 13.7335 0.921049 13.5772 1.07733C13.421 1.23361 13.3332 1.44557 13.3332 1.66659V2.49992H6.6665V1.66659C6.6665 1.44557 6.57871 1.23361 6.42243 1.07733C6.26615 0.921049 6.05418 0.833252 5.83317 0.833252C5.61216 0.833252 5.4002 0.921049 5.24392 1.07733C5.08764 1.23361 4.99984 1.44557 4.99984 1.66659V2.49992H4.1665C3.50346 2.49992 2.86758 2.76331 2.39874 3.23215C1.9299 3.70099 1.6665 4.33688 1.6665 4.99992V16.6666C1.6665 17.3296 1.9299 17.9655 2.39874 18.4344C2.86758 18.9032 3.50346 19.1666 4.1665 19.1666H15.8332C16.4962 19.1666 17.1321 18.9032 17.6009 18.4344C18.0698 17.9655 18.3332 17.3296 18.3332 16.6666V4.99992C18.3332 4.33688 18.0698 3.70099 17.6009 3.23215C17.1321 2.76331 16.4962 2.49992 15.8332 2.49992ZM16.6665 16.6666C16.6665 16.8876 16.5787 17.0996 16.4224 17.2558C16.2661 17.4121 16.0542 17.4999 15.8332 17.4999H4.1665C3.94549 17.4999 3.73353 17.4121 3.57725 17.2558C3.42097 17.0996 3.33317 16.8876 3.33317 16.6666V9.16658H16.6665V16.6666ZM16.6665 7.49992H3.33317V4.99992C3.33317 4.7789 3.42097 4.56694 3.57725 4.41066C3.73353 4.25438 3.94549 4.16658 4.1665 4.16658H4.99984V4.99992C4.99984 5.22093 5.08764 5.43289 5.24392 5.58917C5.4002 5.74545 5.61216 5.83325 5.83317 5.83325C6.05418 5.83325 6.26615 5.74545 6.42243 5.58917C6.57871 5.43289 6.6665 5.22093 6.6665 4.99992V4.16658H13.3332V4.99992C13.3332 5.22093 13.421 5.43289 13.5772 5.58917C13.7335 5.74545 13.9455 5.83325 14.1665 5.83325C14.3875 5.83325 14.5995 5.74545 14.7558 5.58917C14.912 5.43289 14.9998 5.22093 14.9998 4.99992V4.16658H15.8332C16.0542 4.16658 16.2661 4.25438 16.4224 4.41066C16.5787 4.56694 16.6665 4.7789 16.6665 4.99992V7.49992ZM5.83317 12.4999C5.99799 12.4999 6.1591 12.451 6.29615 12.3595C6.43319 12.2679 6.54 12.1378 6.60307 11.9855C6.66614 11.8332 6.68265 11.6657 6.65049 11.504C6.61834 11.3424 6.53897 11.1939 6.42243 11.0773C6.30588 10.9608 6.1574 10.8814 5.99575 10.8493C5.8341 10.8171 5.66654 10.8336 5.51427 10.8967C5.362 10.9598 5.23185 11.0666 5.14028 11.2036C5.04871 11.3406 4.99984 11.5018 4.99984 11.6666C4.99984 11.8876 5.08764 12.0996 5.24392 12.2558C5.4002 12.4121 5.61216 12.4999 5.83317 12.4999ZM5.83317 15.8333C5.99799 15.8333 6.1591 15.7844 6.29615 15.6928C6.43319 15.6012 6.54 15.4711 6.60307 15.3188C6.66614 15.1665 6.68265 14.999 6.65049 14.8373C6.61834 14.6757 6.53897 14.5272 6.42243 14.4107C6.30588 14.2941 6.1574 14.2148 5.99575 14.1826C5.8341 14.1504 5.66654 14.1669 5.51427 14.23C5.362 14.2931 5.23185 14.3999 5.14028 14.5369C5.04871 14.674 4.99984 14.8351 4.99984 14.9999C4.99984 15.2209 5.08764 15.4329 5.24392 15.5892C5.4002 15.7455 5.61216 15.8333 5.83317 15.8333Z" fill="white"/>
</svg>
