<svg width="20" height="18" viewBox="0 0 20 18" fill="none" xmlns="http://www.w3.org/2000/svg">
<path d="M18.3333 15.6667H17.4999V5.66675H18.3333C18.5543 5.66675 18.7662 5.57895 18.9225 5.42267C19.0788 5.26639 19.1666 5.05443 19.1666 4.83342C19.1666 4.6124 19.0788 4.40044 18.9225 4.24416C18.7662 4.08788 18.5543 4.00008 18.3333 4.00008H17.4999V1.50008C17.4999 1.27907 17.4121 1.06711 17.2558 0.910826C17.0996 0.754545 16.8876 0.666748 16.6666 0.666748H3.33325C3.11224 0.666748 2.90028 0.754545 2.744 0.910826C2.58772 1.06711 2.49992 1.27907 2.49992 1.50008V4.00008H1.66659C1.44557 4.00008 1.23361 4.08788 1.07733 4.24416C0.921049 4.40044 0.833252 4.6124 0.833252 4.83342C0.833252 5.05443 0.921049 5.26639 1.07733 5.42267C1.23361 5.57895 1.44557 5.66675 1.66659 5.66675H2.49992V15.6667H1.66659C1.44557 15.6667 1.23361 15.7545 1.07733 15.9108C0.921049 16.0671 0.833252 16.2791 0.833252 16.5001C0.833252 16.7211 0.921049 16.9331 1.07733 17.0893C1.23361 17.2456 1.44557 17.3334 1.66659 17.3334H18.3333C18.5543 17.3334 18.7662 17.2456 18.9225 17.0893C19.0788 16.9331 19.1666 16.7211 19.1666 16.5001C19.1666 16.2791 19.0788 16.0671 18.9225 15.9108C18.7662 15.7545 18.5543 15.6667 18.3333 15.6667ZM12.4999 15.6667H7.49992V12.7251C7.49791 11.8319 7.72709 10.9535 8.16518 10.1751C8.60327 9.39679 9.23534 8.74509 9.99992 8.28342C10.7645 8.74509 11.3966 9.39679 11.8347 10.1751C12.2727 10.9535 12.5019 11.8319 12.4999 12.7251V15.6667ZM15.8333 15.6667H14.1666V12.7251C14.1722 11.4503 13.8197 10.1996 13.1494 9.11524C12.479 8.03092 11.5178 7.15658 10.3749 6.59175C10.2586 6.53314 10.1302 6.50261 9.99992 6.50261C9.86967 6.50261 9.74123 6.53314 9.62492 6.59175C8.48208 7.15658 7.52079 8.03092 6.85045 9.11524C6.18012 10.1996 5.82768 11.4503 5.83325 12.7251V15.6667H4.16658V5.66675H15.8333V15.6667ZM15.8333 4.00008H4.16658V2.33341H15.8333V4.00008Z" fill="white"/>
</svg>
