<svg width="20" height="20" viewBox="0 0 20 20" fill="none" xmlns="http://www.w3.org/2000/svg">
<path d="M17.9084 3.94176L14.1667 1.80842C14.0401 1.73528 13.8964 1.69678 13.7501 1.69678C13.6038 1.69678 13.4601 1.73528 13.3334 1.80842L10.0001 3.70842L6.66675 1.80842C6.54007 1.73528 6.39636 1.69678 6.25008 1.69678C6.1038 1.69678 5.9601 1.73528 5.83342 1.80842L2.09175 3.94176C1.96303 4.01411 1.85584 4.11937 1.78117 4.24676C1.70649 4.37415 1.667 4.51909 1.66675 4.66676V8.93342C1.667 9.08109 1.70649 9.22603 1.78117 9.35342C1.85584 9.48081 1.96303 9.58607 2.09175 9.65842L5.42508 11.5501V15.3334C5.42534 15.4811 5.46482 15.626 5.5395 15.7534C5.61418 15.8808 5.72136 15.9861 5.85008 16.0584L9.60008 18.1918C9.72676 18.2649 9.87047 18.3034 10.0167 18.3034C10.163 18.3034 10.3067 18.2649 10.4334 18.1918L14.1667 16.0584C14.2955 15.9861 14.4027 15.8808 14.4773 15.7534C14.552 15.626 14.5915 15.4811 14.5917 15.3334V11.5501L17.9251 9.65842C18.0538 9.58607 18.161 9.48081 18.2357 9.35342C18.3103 9.22603 18.3498 9.08109 18.3501 8.93342V4.66676C18.3482 4.51742 18.3062 4.37134 18.2285 4.2438C18.1508 4.11626 18.0402 4.01194 17.9084 3.94176ZM3.33341 8.45009V5.11676L6.25008 3.45009L9.16675 5.11676V8.45009L6.25008 10.1168L3.33341 8.45009ZM12.9167 14.8501L10.0001 16.5168L7.08342 14.8501V11.5168L10.0001 9.85009L12.9167 11.5168V14.8501ZM16.6667 8.45009L13.7501 10.1168L10.8334 8.45009V5.11676L13.7501 3.45009L16.6667 5.11676V8.45009Z" fill="white"/>
</svg>
