<svg width="20" height="20" viewBox="0 0 20 20" fill="none" xmlns="http://www.w3.org/2000/svg">
<path d="M9.03613 4.88361C8.86192 4.8397 8.68747 4.84838 8.52684 4.89841L8.69614 4.15801C8.75744 3.88974 8.71519 3.61185 8.57693 3.37539C8.43872 3.13894 8.22176 2.97336 7.96613 2.90909C7.79515 2.86601 7.62037 2.87273 7.4558 2.92445C7.57024 2.37574 7.24522 1.82732 6.72222 1.6957C6.19413 1.56281 5.65881 1.90587 5.53155 2.46134L5.40515 3.01415C5.2582 2.8612 5.07315 2.74949 4.87914 2.70009C4.47914 2.598 3.94912 2.74753 3.77187 3.50405L2.88206 7.30561C2.82136 7.13076 2.74735 6.97161 2.66961 6.85554C2.49412 6.59361 2.2217 6.25292 1.8801 6.32136C1.52478 6.39217 1.37331 6.84705 1.26267 7.32793C1.23685 7.44028 1.21025 7.55289 1.18346 7.66573C0.955872 8.62846 0.720546 9.62402 0.892314 10.6523C1.02007 11.4164 1.33135 11.867 1.63249 12.3027C2.06855 12.9336 2.5174 13.5878 2.44789 15.3736L2.10525 15.3405C1.93234 15.3237 1.76186 15.379 1.62719 15.4965C1.49266 15.6139 1.40977 15.7789 1.3938 15.9609L1.29991 17.0308C1.2838 17.2128 1.33668 17.391 1.44862 17.5321C1.56055 17.6734 1.71782 17.7604 1.89138 17.7771L7.62145 18.3302C7.64179 18.3323 7.66209 18.3333 7.68225 18.3333C7.83418 18.3333 7.98049 18.2779 8.09933 18.1742C8.23401 18.0568 8.31694 17.8918 8.33287 17.7098L8.42676 16.6399C8.44287 16.4578 8.38998 16.2797 8.27805 16.1386C8.16611 15.9973 8.00885 15.9103 7.83529 15.8936L7.82154 15.8923C7.89004 15.5011 8.08533 15.2232 8.21546 15.1285C8.67948 14.7906 9.82482 13.328 9.02725 11.1147C8.74258 10.3247 8.76933 10.2222 8.91839 9.65298C8.94711 9.5436 8.97952 9.41957 9.01436 9.27405L9.76549 6.13505C9.82905 5.86948 9.78873 5.59283 9.65194 5.35622C9.51337 5.1165 9.29466 4.94856 9.03613 4.88361ZM7.89706 16.4709C7.92431 16.5052 7.93723 16.5484 7.93351 16.5922L7.83962 17.6621C7.83576 17.7059 7.81542 17.7458 7.78251 17.7746C7.7496 17.8031 7.70814 17.8157 7.66685 17.8128L1.93681 17.2596C1.89503 17.2556 1.85696 17.2343 1.82957 17.1997C1.80232 17.1654 1.7894 17.1222 1.79312 17.0784L1.88701 16.0085C1.89087 15.9646 1.91121 15.9246 1.94394 15.896C1.97298 15.8707 2.00861 15.8571 2.04538 15.8571C2.05007 15.8571 2.05491 15.8575 2.05974 15.8578L7.78982 16.4109C7.83157 16.415 7.86963 16.4363 7.89706 16.4709ZM9.28484 6.0085L8.53371 9.1475C8.50002 9.28877 8.4684 9.40909 8.44065 9.51535C8.26741 10.1772 8.23565 10.3878 8.56372 11.2985C9.26146 13.2346 8.24371 14.4752 7.9329 14.7014C7.68132 14.8847 7.40911 15.3056 7.32643 15.8444L2.9415 15.4212C3.02285 13.4351 2.49924 12.6713 2.0336 11.9976C1.74102 11.574 1.48826 11.2084 1.38037 10.5626C1.22665 9.64243 1.44923 8.70107 1.66439 7.79077C1.69132 7.67692 1.7181 7.5633 1.74424 7.44993C1.85378 6.97397 1.94183 6.86121 1.97198 6.83541C1.99973 6.8469 2.09537 6.90223 2.26409 7.15428C2.43443 7.40842 2.56491 7.92352 2.5228 8.17515L2.50246 8.29487C2.44589 8.62331 2.38473 8.98358 2.42458 9.29779C2.4249 9.32976 2.43042 9.36082 2.44127 9.38974C2.45717 9.46866 2.47822 9.5451 2.51116 9.61534C2.61117 9.82802 2.81664 10.0574 3.05486 10.3227C3.60279 10.9337 4.2847 11.6941 4.00376 12.5507C3.95925 12.6864 4.02797 12.8343 4.1573 12.881C4.28714 12.928 4.42761 12.8556 4.47216 12.7199C4.85053 11.5665 3.98714 10.6038 3.41569 9.96655C3.2136 9.74137 3.02278 9.52857 2.95568 9.38569C2.94329 9.35928 2.93366 9.32938 2.92621 9.29685L4.25316 3.62797C4.33283 3.28693 4.50897 3.14085 4.7622 3.20505C5.02996 3.2733 5.27961 3.56174 5.21015 3.86683L4.20267 8.27274C4.17091 8.41232 4.25284 8.55258 4.3859 8.58609C4.40527 8.59101 4.42478 8.59338 4.4438 8.59338C4.55573 8.59338 4.65735 8.51318 4.6846 8.39407L5.69147 3.99037C5.69161 3.98977 5.6919 3.98924 5.69204 3.98864C5.69229 3.98759 5.69233 3.98658 5.69258 3.98553L6.01334 2.5826C6.07672 2.30587 6.34334 2.13481 6.60674 2.20104C6.87046 2.26745 7.03353 2.54661 6.97029 2.82326L5.72978 8.2478C5.69802 8.38738 5.77995 8.52764 5.91301 8.56115C6.04625 8.59465 6.17977 8.50845 6.21171 8.36909L7.25747 3.7961C7.2575 3.79602 7.2575 3.79598 7.25754 3.79591C7.28787 3.66267 7.36657 3.54946 7.47915 3.47715C7.59173 3.40473 7.72336 3.38249 7.85062 3.41446C7.97755 3.44643 8.08562 3.52903 8.15448 3.64701C8.22351 3.76511 8.24478 3.90341 8.21417 4.03669L6.98562 9.40961C6.95386 9.5492 7.03578 9.68946 7.16884 9.72296C7.18822 9.72788 7.20773 9.73025 7.22674 9.73025C7.33868 9.73025 7.4403 9.65005 7.46755 9.53094L8.32736 5.77065C8.32736 5.77062 8.32739 5.77058 8.32739 5.77054C8.39063 5.49382 8.65725 5.32276 8.92061 5.38898C9.04948 5.4214 9.15884 5.50546 9.2282 5.62559C9.2958 5.74263 9.31596 5.87865 9.28484 6.0085ZM18.3672 12.3027C18.6683 11.867 18.9798 11.4164 19.1075 10.6523C19.2793 9.62398 19.044 8.62842 18.8164 7.66569C18.7896 7.55285 18.763 7.44024 18.7372 7.32796C18.6265 6.84701 18.4751 6.3922 18.1197 6.3214C17.7776 6.25356 17.5055 6.59346 17.33 6.85558C17.2523 6.97161 17.1784 7.13069 17.1177 7.30543L16.2279 3.50401C16.0507 2.74753 15.5195 2.59777 15.1208 2.70006C14.9267 2.74945 14.7415 2.86116 14.5945 3.01419L14.4681 2.46142C14.4068 2.19315 14.2489 1.96567 14.0236 1.82068C13.7982 1.67583 13.5332 1.63091 13.2776 1.6957C13.0218 1.76009 12.8048 1.92566 12.6668 2.16201C12.5321 2.39242 12.4893 2.66215 12.5439 2.92404C12.3831 2.87378 12.2083 2.86503 12.0336 2.90913C11.5042 3.04221 11.1766 3.6025 11.3036 4.15809L11.4728 4.89819C11.3123 4.84826 11.1379 4.8397 10.9637 4.88372C10.7052 4.94871 10.4865 5.11661 10.3479 5.35637C10.2111 5.59298 10.1708 5.86963 10.2344 6.1352L10.9855 9.2742C11.0204 9.41979 11.0529 9.54397 11.0815 9.65347C11.2304 10.2225 11.2573 10.325 10.9724 11.1148C10.175 13.3278 11.3202 14.7905 11.7844 15.1286C11.9144 15.2232 12.1097 15.5011 12.1781 15.8924L12.1645 15.8937C11.9909 15.9103 11.8337 15.9974 11.7218 16.1387C11.6098 16.2798 11.5569 16.458 11.573 16.6401L11.6669 17.7099C11.6829 17.892 11.7658 18.0568 11.9003 18.1742C12.0192 18.2781 12.1655 18.3334 12.3174 18.3334C12.3376 18.3334 12.3579 18.3324 12.3782 18.3304L18.1085 17.7773C18.282 17.7605 18.4393 17.6736 18.551 17.5323C18.663 17.391 18.7157 17.213 18.6999 17.0309L18.606 15.9611C18.5901 15.779 18.5072 15.614 18.3725 15.4966C18.2378 15.379 18.0681 15.3232 17.8946 15.3406L17.5519 15.3737C17.4825 13.5878 17.9313 12.9334 18.3672 12.3027ZM17.9401 15.8578C17.983 15.855 18.023 15.8675 18.0559 15.8961C18.0886 15.9249 18.109 15.9648 18.1127 16.0086L18.2066 17.0784C18.2103 17.1223 18.1974 17.1654 18.1701 17.1999C18.1429 17.2343 18.1048 17.2556 18.063 17.2596L12.3328 17.8128C12.2913 17.8158 12.25 17.8033 12.2171 17.7745C12.1844 17.7457 12.164 17.7058 12.1602 17.662L12.0663 16.5922C12.0626 16.5483 12.0755 16.5052 12.1027 16.4707C12.1302 16.4363 12.1682 16.415 12.21 16.411L17.9401 15.8578ZM12.6733 15.8444C12.5906 15.3054 12.3184 14.8846 12.0668 14.7014C11.756 14.4752 10.7382 13.2342 11.436 11.2985C11.7642 10.388 11.7324 10.1774 11.5594 9.51577C11.5315 9.40943 11.4999 9.28896 11.4661 9.1475L10.715 6.0085C10.6839 5.87865 10.704 5.74259 10.7716 5.62559C10.841 5.50546 10.9503 5.42136 11.0792 5.38898C11.3427 5.32291 11.6085 5.49344 11.6721 5.76953L12.5323 9.5309C12.5595 9.65009 12.6611 9.73021 12.7731 9.73021C12.7921 9.73021 12.8116 9.72784 12.831 9.72292C12.964 9.68942 13.0459 9.54916 13.0142 9.40958L11.7855 4.03676C11.7221 3.75996 11.8853 3.48076 12.149 3.41446C12.4131 3.34857 12.679 3.51922 12.7423 3.79598L13.7879 8.36913C13.8199 8.50864 13.9533 8.59465 14.0866 8.56119C14.2197 8.52768 14.3016 8.38742 14.2699 8.24784L13.0294 2.82326C12.9989 2.69003 13.0202 2.55168 13.0892 2.4337C13.1581 2.31568 13.2662 2.23304 13.3931 2.20104C13.5202 2.16896 13.652 2.19138 13.7646 2.26373C13.8771 2.33607 13.9558 2.44932 13.9862 2.5826L14.3075 3.98789C14.3075 3.98812 14.3076 3.98834 14.3076 3.98857C14.3077 3.98872 14.3077 3.98879 14.3078 3.98894L15.3151 8.39407C15.3423 8.51326 15.4439 8.59338 15.5559 8.59338C15.5749 8.59338 15.5944 8.59101 15.6138 8.58609C15.7468 8.55258 15.8287 8.41232 15.797 8.27274L14.7895 3.86686C14.7201 3.56174 14.9699 3.27319 15.2376 3.20505C15.4922 3.141 15.6671 3.28693 15.7467 3.62797L17.0735 9.29651C17.0661 9.32915 17.0564 9.35913 17.0439 9.38561C16.9768 9.52857 16.786 9.74137 16.5839 9.96663C16.0125 10.6038 15.1491 11.5666 15.5275 12.7198C15.572 12.8555 15.7129 12.9279 15.8423 12.8809C15.9717 12.8342 16.0404 12.6863 15.9959 12.5506C15.7149 11.6941 16.3968 10.9338 16.9448 10.3228C17.183 10.0573 17.3886 9.82795 17.4885 9.61527C17.5214 9.54514 17.5425 9.46877 17.5584 9.38997C17.5695 9.36041 17.5752 9.32855 17.5753 9.2958C17.6148 8.98174 17.5537 8.62185 17.4972 8.29374L17.4768 8.17497C17.4347 7.92363 17.5654 7.40842 17.7355 7.1542C17.9044 6.902 18 6.84675 18.0278 6.83533C18.0578 6.86106 18.1458 6.97375 18.2555 7.44993C18.2817 7.56322 18.3084 7.67681 18.3354 7.7907C18.5505 8.70099 18.7731 9.64231 18.6194 10.5625C18.5115 11.2083 18.2587 11.574 17.966 11.9973C17.5003 12.6713 16.9768 13.4351 17.0582 15.4211L12.6733 15.8444Z" fill="white" stroke="white" stroke-width="0.5"/>
</svg>
