<svg width="20" height="20" viewBox="0 0 20 20" fill="none" xmlns="http://www.w3.org/2000/svg">
<path d="M10 1.6667C8.72326 1.66439 7.46304 1.95548 6.31664 2.51751C5.17023 3.07954 4.1683 3.89747 3.38817 4.90817C2.60804 5.91887 2.07057 7.09531 1.81727 8.3467C1.56396 9.59808 1.60158 10.8909 1.92722 12.1255C2.25286 13.36 2.85782 14.5032 3.6954 15.4668C4.53298 16.4305 5.58078 17.1888 6.75792 17.6832C7.93507 18.1776 9.21008 18.3949 10.4845 18.3184C11.759 18.2418 12.9988 17.8735 14.1084 17.2417H14.1667H14.2084C15.8127 16.3284 17.0684 14.9082 17.7783 13.204C18.4882 11.4998 18.6121 9.60811 18.1305 7.82589C17.649 6.04367 16.5893 4.47181 15.1177 3.35705C13.6461 2.24228 11.8461 1.64772 10 1.6667ZM10.8334 3.3917C12.3 3.57769 13.6633 4.24595 14.7087 5.29136C15.7541 6.33676 16.4224 7.70002 16.6084 9.1667H10.8334V3.3917ZM10 16.6667C8.31211 16.6552 6.6914 16.0038 5.46497 14.8441C4.23854 13.6843 3.49769 12.1025 3.39194 10.4179C3.28619 8.73323 3.8234 7.07119 4.89517 5.76717C5.96694 4.46314 7.49347 3.61421 9.16669 3.3917V10C9.16997 10.0998 9.18968 10.1983 9.22502 10.2917V10.3584V10.4167L12.5584 16.1417C11.7498 16.4878 10.8795 16.6664 10 16.6667ZM14.025 15.3L11.4417 10.8334H16.6084C16.4962 11.7122 16.2099 12.5598 15.7663 13.3268C15.3228 14.0937 14.7308 14.7645 14.025 15.3Z" fill="white"/>
</svg>
