<svg width="20" height="20" viewBox="0 0 20 20" fill="none" xmlns="http://www.w3.org/2000/svg">
<path fill-rule="evenodd" clip-rule="evenodd" d="M10.0001 3.33341C8.23197 3.33341 6.53628 4.03579 5.28604 5.28604C4.03579 6.53628 3.33341 8.23197 3.33341 10.0001V15.0001C3.33341 15.4603 2.96032 15.8334 2.50008 15.8334C2.03984 15.8334 1.66675 15.4603 1.66675 15.0001V10.0001C1.66675 7.78994 2.54472 5.67033 4.10752 4.10752C5.67033 2.54472 7.78994 1.66675 10.0001 1.66675C12.2102 1.66675 14.3298 2.54472 15.8926 4.10752C17.4554 5.67033 18.3334 7.78994 18.3334 10.0001V15.0001C18.3334 15.4603 17.9603 15.8334 17.5001 15.8334C17.0398 15.8334 16.6667 15.4603 16.6667 15.0001V10.0001C16.6667 8.23197 15.9644 6.53628 14.7141 5.28604C13.4639 4.03579 11.7682 3.33341 10.0001 3.33341Z" fill="white"/>
<path fill-rule="evenodd" clip-rule="evenodd" d="M1.66675 11.6666C1.66675 11.2063 2.03984 10.8333 2.50008 10.8333H5.00008C5.66312 10.8333 6.29901 11.0966 6.76785 11.5655C7.23669 12.0343 7.50008 12.6702 7.50008 13.3333V15.8333C7.50008 16.4963 7.23669 17.1322 6.76785 17.601C6.29901 18.0699 5.66312 18.3333 5.00008 18.3333H4.16675C3.50371 18.3333 2.86782 18.0699 2.39898 17.601C1.93014 17.1322 1.66675 16.4963 1.66675 15.8333V11.6666ZM3.33341 12.4999V15.8333C3.33341 16.0543 3.42121 16.2662 3.57749 16.4225C3.73377 16.5788 3.94573 16.6666 4.16675 16.6666H5.00008C5.2211 16.6666 5.43306 16.5788 5.58934 16.4225C5.74562 16.2662 5.83342 16.0543 5.83342 15.8333V13.3333C5.83342 13.1122 5.74562 12.9003 5.58934 12.744C5.43306 12.5877 5.2211 12.4999 5.00008 12.4999H3.33341ZM15.0001 12.4999C14.7791 12.4999 14.5671 12.5877 14.4108 12.744C14.2545 12.9003 14.1667 13.1122 14.1667 13.3333V15.8333C14.1667 16.0543 14.2545 16.2662 14.4108 16.4225C14.5671 16.5788 14.7791 16.6666 15.0001 16.6666H15.8334C16.0544 16.6666 16.2664 16.5788 16.4227 16.4225C16.579 16.2662 16.6667 16.0543 16.6667 15.8333V12.4999H15.0001ZM13.2323 11.5655C13.7012 11.0966 14.337 10.8333 15.0001 10.8333H17.5001C17.9603 10.8333 18.3334 11.2063 18.3334 11.6666V15.8333C18.3334 16.4963 18.07 17.1322 17.6012 17.601C17.1323 18.0699 16.4965 18.3333 15.8334 18.3333H15.0001C14.337 18.3333 13.7012 18.0699 13.2323 17.601C12.7635 17.1322 12.5001 16.4963 12.5001 15.8333V13.3333C12.5001 12.6702 12.7635 12.0343 13.2323 11.5655Z" fill="white"/>
</svg>
