<svg width="20" height="20" viewBox="0 0 20 20" fill="none" xmlns="http://www.w3.org/2000/svg">
<g clip-path="url(#clip0_1452_10015)">
<path fill-rule="evenodd" clip-rule="evenodd" d="M1.22039 12.0536C2.00179 11.2722 3.0616 10.8333 4.16667 10.8333H7.5C7.96024 10.8333 8.33333 11.2063 8.33333 11.6666C8.33333 12.1268 7.96024 12.4999 7.5 12.4999H4.16667C3.50363 12.4999 2.86774 12.7633 2.3989 13.2322C1.93006 13.701 1.66667 14.3369 1.66667 14.9999V18.3333C1.66667 18.7935 1.29357 19.1666 0.833333 19.1666C0.373096 19.1666 0 18.7935 0 18.3333V14.9999C0 13.8948 0.438987 12.835 1.22039 12.0536Z" fill="white"/>
<path fill-rule="evenodd" clip-rule="evenodd" d="M7.08341 2.49992C5.7027 2.49992 4.58341 3.61921 4.58341 4.99992C4.58341 6.38063 5.7027 7.49992 7.08341 7.49992C8.46413 7.49992 9.58341 6.38063 9.58341 4.99992C9.58341 3.61921 8.46413 2.49992 7.08341 2.49992ZM2.91675 4.99992C2.91675 2.69873 4.78223 0.833252 7.08341 0.833252C9.3846 0.833252 11.2501 2.69873 11.2501 4.99992C11.2501 7.30111 9.3846 9.16659 7.08341 9.16659C4.78223 9.16659 2.91675 7.30111 2.91675 4.99992Z" fill="white"/>
<path d="M19.183 14.4967C19.1014 14.4055 19.0564 14.2882 19.0564 14.1667C19.0564 14.0453 19.1014 13.928 19.183 13.8368L19.8344 13.1169C19.9062 13.0382 19.9507 12.9393 19.9617 12.8342C19.9727 12.7291 19.9495 12.6233 19.8955 12.532L18.8776 10.8022C18.8241 10.711 18.7427 10.6387 18.6449 10.5956C18.5471 10.5525 18.438 10.5408 18.333 10.5622L17.3762 10.7522C17.2545 10.7769 17.1277 10.757 17.0199 10.6962C16.9121 10.6354 16.8306 10.538 16.791 10.4223L16.4805 9.50738C16.4464 9.40808 16.3813 9.32184 16.2946 9.26084C16.2078 9.19983 16.1037 9.16716 15.997 9.16743H13.9613C13.8503 9.16174 13.7405 9.19189 13.6486 9.25327C13.5567 9.31466 13.4877 9.40391 13.4523 9.50738L13.1673 10.4223C13.1276 10.538 13.0462 10.6354 12.9384 10.6962C12.8305 10.757 12.7038 10.7769 12.5821 10.7522L11.5998 10.5622C11.5003 10.5484 11.3989 10.5638 11.3084 10.6066C11.2178 10.6493 11.1421 10.7173 11.0909 10.8022L10.073 12.532C10.0176 12.6223 9.99271 12.7275 10.0018 12.8325C10.011 12.9376 10.0537 13.0371 10.1239 13.1169L10.7702 13.8368C10.8518 13.928 10.8968 14.0453 10.8968 14.1667C10.8968 14.2882 10.8518 14.4055 10.7702 14.4967L10.1239 15.2166C10.0537 15.2964 10.011 15.3959 10.0018 15.501C9.99271 15.606 10.0176 15.7112 10.073 15.8015L11.0909 17.5313C11.1444 17.6225 11.2258 17.6948 11.3236 17.7379C11.4214 17.781 11.5305 17.7927 11.6354 17.7713L12.5922 17.5813C12.714 17.5566 12.8407 17.5765 12.9485 17.6373C13.0564 17.6981 13.1378 17.7955 13.1775 17.9112L13.488 18.8261C13.5234 18.9296 13.5923 19.0188 13.6842 19.0802C13.7761 19.1416 13.8859 19.1718 13.9969 19.1661H16.0326C16.1393 19.1663 16.2434 19.1337 16.3302 19.0727C16.4169 19.0117 16.482 18.9254 16.5161 18.8261L16.8266 17.9112C16.8663 17.7955 16.9477 17.6981 17.0555 17.6373C17.1634 17.5765 17.2901 17.5566 17.4119 17.5813L18.3687 17.7713C18.4736 17.7927 18.5827 17.781 18.6805 17.7379C18.7783 17.6948 18.8597 17.6225 18.9132 17.5313L19.9311 15.8015C19.9851 15.7102 20.0083 15.6044 19.9973 15.4993C19.9864 15.3942 19.9418 15.2953 19.87 15.2166L19.183 14.4967ZM18.4246 15.1666L18.8318 15.6165L18.1803 16.7264L17.5798 16.6064C17.2133 16.5328 16.832 16.594 16.5083 16.7783C16.1846 16.9626 15.9411 17.2572 15.824 17.6063L15.6306 18.1662H14.3277L14.1445 17.5963C14.0274 17.2472 13.7838 16.9526 13.4602 16.7683C13.1365 16.584 12.7552 16.5228 12.3887 16.5964L11.7881 16.7164L11.1265 15.6116L11.5337 15.1616C11.784 14.8866 11.9224 14.5307 11.9224 14.1617C11.9224 13.7928 11.784 13.4369 11.5337 13.1619L11.1265 12.7119L11.7779 11.6121L12.3785 11.7321C12.745 11.8057 13.1263 11.7445 13.45 11.5602C13.7737 11.3759 14.0172 11.0812 14.1343 10.7322L14.3277 10.1673H15.6306L15.824 10.7372C15.9411 11.0862 16.1846 11.3809 16.5083 11.5652C16.832 11.7495 17.2133 11.8107 17.5798 11.7371L18.1803 11.6171L18.8318 12.7269L18.4246 13.1769C18.1771 13.4512 18.0404 13.8051 18.0404 14.1717C18.0404 14.5384 18.1771 14.8923 18.4246 15.1666ZM14.9791 12.167C14.5765 12.167 14.1829 12.2843 13.8481 12.504C13.5134 12.7238 13.2524 13.0361 13.0984 13.4015C12.9443 13.7669 12.904 14.169 12.9825 14.5569C13.0611 14.9448 13.255 15.3011 13.5397 15.5808C13.8244 15.8604 14.1871 16.0509 14.582 16.1281C14.9769 16.2052 15.3862 16.1656 15.7582 16.0143C16.1302 15.8629 16.4481 15.6066 16.6718 15.2777C16.8955 14.9489 17.0149 14.5623 17.0149 14.1667C17.0149 13.6364 16.8004 13.1277 16.4186 12.7527C16.0369 12.3777 15.5191 12.167 14.9791 12.167ZM14.9791 15.1666C14.7778 15.1666 14.581 15.108 14.4136 14.9981C14.2463 14.8882 14.1158 14.7321 14.0388 14.5494C13.9617 14.3667 13.9416 14.1656 13.9808 13.9717C14.0201 13.7777 14.117 13.5996 14.2594 13.4597C14.4018 13.3199 14.5831 13.2247 14.7806 13.1861C14.978 13.1475 15.1827 13.1673 15.3687 13.243C15.5547 13.3187 15.7136 13.4468 15.8255 13.6113C15.9373 13.7757 15.997 13.969 15.997 14.1667C15.997 14.4319 15.8898 14.6862 15.6989 14.8738C15.508 15.0613 15.2491 15.1666 14.9791 15.1666Z" fill="white" stroke="white" stroke-width="0.4"/>
</g>
<defs>
<clipPath id="clip0_1452_10015">
<rect width="20" height="20" fill="white"/>
</clipPath>
</defs>
</svg>
