<svg width="20" height="20" viewBox="0 0 20 20" fill="none" xmlns="http://www.w3.org/2000/svg">
<path fill-rule="evenodd" clip-rule="evenodd" d="M1.66663 4.99984C1.66663 4.5396 2.03972 4.1665 2.49996 4.1665H17.5C17.9602 4.1665 18.3333 4.5396 18.3333 4.99984C18.3333 5.46007 17.9602 5.83317 17.5 5.83317H2.49996C2.03972 5.83317 1.66663 5.46007 1.66663 4.99984Z" fill="#EF1B1B"/>
<path fill-rule="evenodd" clip-rule="evenodd" d="M8.33337 2.50016C8.11236 2.50016 7.9004 2.58796 7.74412 2.74424C7.58784 2.90052 7.50004 3.11248 7.50004 3.3335V4.16683H12.5V3.3335C12.5 3.11248 12.4122 2.90052 12.256 2.74424C12.0997 2.58796 11.8877 2.50016 11.6667 2.50016H8.33337ZM14.1667 4.16683V3.3335C14.1667 2.67045 13.9033 2.03457 13.4345 1.56573C12.9656 1.09689 12.3297 0.833496 11.6667 0.833496H8.33337C7.67033 0.833496 7.03445 1.09689 6.56561 1.56573C6.09677 2.03457 5.83337 2.67045 5.83337 3.3335V4.16683H4.16671C3.70647 4.16683 3.33337 4.53993 3.33337 5.00016V16.6668C3.33337 17.3299 3.59677 17.9658 4.06561 18.4346C4.53445 18.9034 5.17033 19.1668 5.83337 19.1668H14.1667C14.8297 19.1668 15.4656 18.9034 15.9345 18.4346C16.4033 17.9658 16.6667 17.3299 16.6667 16.6668V5.00016C16.6667 4.53993 16.2936 4.16683 15.8334 4.16683H14.1667ZM5.00004 5.8335V16.6668C5.00004 16.8878 5.08784 17.0998 5.24412 17.2561C5.4004 17.4124 5.61236 17.5002 5.83337 17.5002H14.1667C14.3877 17.5002 14.5997 17.4124 14.756 17.2561C14.9122 17.0998 15 16.8878 15 16.6668V5.8335H5.00004Z" fill="#EF1B1B"/>
<path fill-rule="evenodd" clip-rule="evenodd" d="M11.6667 8.3335C12.1269 8.3335 12.5 8.70659 12.5 9.16683V14.1668C12.5 14.6271 12.1269 15.0002 11.6667 15.0002C11.2065 15.0002 10.8334 14.6271 10.8334 14.1668V9.16683C10.8334 8.70659 11.2065 8.3335 11.6667 8.3335Z" fill="#EF1B1B"/>
<path fill-rule="evenodd" clip-rule="evenodd" d="M8.33333 8.3335C8.79357 8.3335 9.16667 8.70659 9.16667 9.16683V14.1668C9.16667 14.6271 8.79357 15.0002 8.33333 15.0002C7.8731 15.0002 7.5 14.6271 7.5 14.1668V9.16683C7.5 8.70659 7.8731 8.3335 8.33333 8.3335Z" fill="#EF1B1B"/>
</svg>
