<svg width="20" height="20" viewBox="0 0 20 20" fill="none" xmlns="http://www.w3.org/2000/svg">
<path d="M17.5 9.16675C17.2789 9.16675 17.067 9.25455 16.9107 9.41083C16.7544 9.56711 16.6666 9.77907 16.6666 10.0001C16.6766 11.5609 16.1419 13.0764 15.1547 14.2855C14.1675 15.4945 12.7896 16.3215 11.2583 16.6239C9.72695 16.9264 8.13811 16.6854 6.76538 15.9424C5.39265 15.1994 4.32196 14.0011 3.73773 12.5536C3.1535 11.1062 3.09229 9.50034 3.56464 8.01264C4.037 6.52494 5.01335 5.24853 6.32555 4.40323C7.63774 3.55793 9.20362 3.19668 10.7535 3.38167C12.3034 3.56667 13.7403 4.28635 14.8166 5.41675H12.8166C12.5956 5.41675 12.3837 5.50454 12.2274 5.66083C12.0711 5.81711 11.9833 6.02907 11.9833 6.25008C11.9833 6.47109 12.0711 6.68306 12.2274 6.83934C12.3837 6.99562 12.5956 7.08341 12.8166 7.08341H16.5916C16.8126 7.08341 17.0246 6.99562 17.1809 6.83934C17.3372 6.68306 17.425 6.47109 17.425 6.25008V2.50008C17.425 2.27907 17.3372 2.06711 17.1809 1.91083C17.0246 1.75455 16.8126 1.66675 16.5916 1.66675C16.3706 1.66675 16.1587 1.75455 16.0024 1.91083C15.8461 2.06711 15.7583 2.27907 15.7583 2.50008V3.97508C14.3705 2.64846 12.5673 1.84171 10.6533 1.69119C8.73937 1.54067 6.83215 2.05562 5.25406 3.14899C3.67597 4.24236 2.5238 5.84709 1.99232 7.69191C1.46083 9.53673 1.58264 11.5085 2.33714 13.2739C3.09163 15.0392 4.43255 16.49 6.13321 17.3808C7.83387 18.2716 9.78996 18.5479 11.6708 18.163C13.5517 17.778 15.242 16.7555 16.4559 15.2681C17.6699 13.7808 18.333 11.9199 18.3333 10.0001C18.3333 9.77907 18.2455 9.56711 18.0892 9.41083C17.9329 9.25455 17.721 9.16675 17.5 9.16675Z" fill="#006E8C"/>
</svg>
