<svg width="1170" height="300" viewBox="0 0 1170 300" fill="none" xmlns="http://www.w3.org/2000/svg">
<rect width="1170" height="300" transform="matrix(-1 0 0 1 1170 0)" fill="#F5F5F5"/>
<g clip-path="url(#clip0_3469_52110)">
<path d="M591.134 201.095C591.081 200.906 591.195 200.701 591.386 200.648L643.008 185.251L642.809 184.464L590.791 199.778L642.451 183.98L639.912 182.497C636.474 183.208 629.483 184.616 621.157 186.144C609.714 188.24 592.583 189.776 585.515 198.492C578.448 189.783 561.317 188.24 549.873 186.144C541.548 184.616 534.557 183.208 531.118 182.497L528.579 183.98L580.239 199.778L528.198 184.464L528 185.251L579.622 200.648C579.813 200.709 579.927 200.906 579.874 201.095L579.485 202.487C579.271 203.244 579.843 203.993 580.636 203.993H590.372C591.165 203.993 591.736 203.244 591.523 202.487L591.134 201.095Z" fill="#C5C5C5"/>
<path d="M607.724 159.42C607.724 159.42 607.663 159.405 607.632 159.397H596.745L606.687 158.792C607.624 158.732 608.471 158.202 608.913 157.377C610.178 155.017 610.971 152.013 610.453 148.358C609.172 139.37 593.97 130.381 587.817 125.471C587.817 125.395 587.84 125.327 587.84 125.244C587.84 124.51 587.49 123.851 586.948 123.435C586.46 123.057 586.148 122.489 586.094 121.877L585.873 119.471C586.148 119.334 586.338 119.062 586.338 118.737C586.338 118.714 586.338 118.699 586.338 118.676C586.59 118.646 586.842 118.593 587.093 118.525C589.876 117.768 591.652 115.165 591.454 112.411C591.454 112.411 591.454 112.419 591.454 112.426C591.446 112.479 591.431 112.532 591.424 112.585C591.012 114.469 589.495 116.066 587.398 116.437C584.997 116.86 582.572 115.423 581.802 113.123C580.963 110.618 582.244 107.97 584.6 106.986C584.585 106.986 584.57 106.986 584.562 106.986C581.345 107.501 579.096 110.603 579.644 113.796C580.102 116.459 582.221 118.321 584.692 118.661C584.692 118.684 584.692 118.699 584.692 118.722C584.692 119.047 584.882 119.327 585.157 119.455L584.936 121.861C584.875 122.474 584.57 123.042 584.082 123.42C583.54 123.844 583.19 124.495 583.19 125.228C583.19 125.304 583.205 125.38 583.212 125.455C577.068 130.366 561.858 139.355 560.577 148.343C560.058 151.998 560.851 155.001 562.117 157.362C562.559 158.187 563.405 158.716 564.343 158.777L574.285 159.382H563.398C563.398 159.382 563.337 159.397 563.306 159.405C560.958 159.927 559.304 162.008 559.304 164.399V186.008C560.241 186.167 561.187 186.341 562.132 186.515V177.761C562.132 174.235 564.831 172.759 565.99 172.237C567.149 171.715 567.324 171.027 567.324 171.027C567.324 171.027 567.499 171.708 568.658 172.237C569.817 172.759 572.516 174.235 572.516 177.761V189.019C573.69 189.397 574.834 189.806 575.939 190.252V177.526C575.939 171.012 580.925 168.288 583.068 167.319C585.202 166.351 585.53 165.095 585.53 165.095C585.53 165.095 585.858 166.358 587.993 167.319C590.135 168.288 595.121 171.012 595.121 177.526V190.252C596.227 189.806 597.37 189.397 598.544 189.019V177.761C598.544 174.235 601.251 172.759 602.402 172.237C603.561 171.715 603.736 171.027 603.736 171.027C603.736 171.027 603.912 171.708 605.07 172.237C606.229 172.759 608.928 174.235 608.928 177.761V186.515C609.881 186.341 610.819 186.167 611.757 186.008V164.399C611.757 162.008 610.095 159.927 607.754 159.405L607.724 159.42Z" fill="#C5C5C5"/>
<path d="M584.471 112.683L584.227 114.083L585.5 113.425L586.773 114.083L586.529 112.683L587.558 111.685L586.133 111.48L585.5 110.202L584.867 111.48L583.441 111.685L584.471 112.683Z" fill="#C5C5C5"/>
<path d="M554.196 144.469H553.319V131.311H553.281C553.365 131.251 553.441 131.175 553.487 131.084C553.8 130.494 553.998 129.745 553.868 128.837C553.495 126.196 548.288 123.563 547.67 122.587C547.052 123.556 541.845 126.196 541.472 128.837C541.342 129.745 541.54 130.494 541.853 131.084C541.906 131.175 541.975 131.251 542.059 131.311H542.021V144.469H541.152C540.694 144.469 540.328 144.832 540.328 145.286V149.47C540.328 150.348 540.808 151.165 541.578 151.604L542.021 151.853V182.958C544.43 183.42 547.068 183.919 549.858 184.434C550.964 184.638 552.122 184.835 553.319 185.031V151.853L553.769 151.604C554.539 151.165 555.02 150.355 555.02 149.47V145.286C555.02 144.832 554.654 144.469 554.204 144.469H554.196ZM545.299 144.469H543.317V135.147C543.317 134.603 543.759 134.171 544.308 134.171C544.582 134.171 544.826 134.277 545.009 134.459C545.192 134.633 545.299 134.882 545.299 135.147V144.469ZM548.661 144.469H546.687V135.147C546.687 134.603 547.129 134.171 547.67 134.171C548.211 134.171 548.654 134.61 548.654 135.147V144.469H548.661ZM552.023 144.469H550.049V135.147C550.049 134.603 550.491 134.171 551.032 134.171C551.307 134.171 551.551 134.277 551.734 134.459C551.909 134.633 552.023 134.882 552.023 135.147V144.469Z" fill="#C5C5C5"/>
<path d="M629.856 144.469H628.98V131.311H628.941C629.025 131.251 629.094 131.175 629.147 131.084C629.467 130.494 629.658 129.745 629.528 128.837C629.155 126.196 623.948 123.563 623.33 122.587C622.713 123.556 617.505 126.196 617.132 128.837C617.002 129.745 617.2 130.494 617.513 131.084C617.566 131.175 617.635 131.251 617.719 131.311H617.673V144.469H616.804C616.354 144.469 615.988 144.832 615.988 145.286V149.47C615.988 150.348 616.461 151.165 617.239 151.604L617.688 151.853V185.031C618.885 184.827 620.044 184.63 621.15 184.434C623.94 183.919 626.586 183.427 628.987 182.958V151.853L629.429 151.604C630.199 151.165 630.68 150.355 630.68 149.47V145.286C630.68 144.832 630.314 144.469 629.856 144.469ZM620.959 144.469H618.977V135.147C618.977 134.603 619.419 134.171 619.968 134.171C620.242 134.171 620.486 134.277 620.669 134.459C620.852 134.633 620.959 134.882 620.959 135.147V144.469ZM624.321 144.469H622.347V135.147C622.347 134.603 622.789 134.171 623.33 134.171C623.871 134.171 624.314 134.61 624.314 135.147V144.469H624.321ZM627.683 144.469H625.709V135.147C625.709 134.603 626.151 134.171 626.692 134.171C626.967 134.171 627.211 134.277 627.394 134.459C627.569 134.633 627.683 134.882 627.683 135.147V144.469Z" fill="#C5C5C5"/>
<path d="M548.494 121.324C548.494 121.771 548.128 122.134 547.678 122.134C547.228 122.134 546.862 121.771 546.862 121.324C546.862 120.878 547.228 120.515 547.678 120.515C548.128 120.515 548.494 120.878 548.494 121.324Z" fill="#C5C5C5"/>
<path d="M624.154 121.324C624.154 121.771 623.788 122.134 623.338 122.134C622.888 122.134 622.522 121.771 622.522 121.324C622.522 120.878 622.888 120.515 623.338 120.515C623.788 120.515 624.154 120.878 624.154 121.324Z" fill="#C5C5C5"/>
<path d="M614.784 149.818H611.734V139.105C611.734 127.332 606.214 116.134 596.974 109.142C596.669 108.916 596.364 108.689 596.051 108.462C595.335 107.939 594.542 107.402 593.696 106.827C591.233 105.148 588.237 103.112 585.508 100.426C582.778 103.105 579.782 105.148 577.319 106.827C576.473 107.402 575.68 107.947 574.964 108.462C574.651 108.689 574.338 108.916 574.041 109.142C564.801 116.126 559.281 127.324 559.281 139.105V149.818H556.231V139.105C556.231 126.393 562.201 114.295 572.188 106.736C572.509 106.494 572.829 106.26 573.164 106.018C573.919 105.473 574.735 104.921 575.596 104.33C578.417 102.409 581.619 100.23 584.387 97.2257L585.515 96L586.643 97.2257C589.411 100.237 592.613 102.409 595.434 104.33C596.295 104.921 597.111 105.473 597.866 106.018C598.194 106.26 598.522 106.494 598.842 106.736C608.837 114.288 614.799 126.393 614.799 139.105V149.818H614.784Z" fill="#C5C5C5"/>
</g>
<defs>
<clipPath id="clip0_3469_52110">
<rect width="115" height="108" fill="white" transform="translate(528 96)"/>
</clipPath>
</defs>
</svg>
