<svg width="284" height="284" viewBox="0 0 284 284" fill="none" xmlns="http://www.w3.org/2000/svg">
<g clip-path="url(#clip0_2652_29367)">
<path opacity="0.3" d="M10.1778 123.473C5.48077 117.993 2.64206 110.871 2.64206 103.087C2.64206 96.1137 4.91855 89.6733 8.77142 84.4677C5.64011 80.7543 3.75272 75.9593 3.75272 70.7215C3.75272 58.9362 13.306 49.3829 25.0913 49.3829C28.4433 49.3829 31.6144 50.1565 34.4363 51.5337C37.6595 43.8403 45.2611 38.4355 54.125 38.4355C65.9103 38.4355 75.4636 47.9888 75.4636 59.7741C75.4636 61.2004 75.3226 62.5945 75.0546 63.9426C76.8178 63.4953 78.6225 63.1506 80.4608 62.9162C78.9902 60.0193 78.1598 56.7409 78.1598 53.2695C78.1598 41.4841 87.7131 31.9308 99.4984 31.9308C99.7696 31.9308 100.038 31.937 100.306 31.9477C100.245 31.2889 100.212 30.6225 100.212 29.9485C100.212 18.1631 109.766 8.60986 121.551 8.60986C131.06 8.60986 139.115 14.8311 141.872 23.4239C146.652 23.7778 150.992 25.7065 154.378 28.6938C157.811 26.3346 161.969 24.9512 166.45 24.9512C178.235 24.9512 187.788 34.5045 187.788 46.2899C187.788 52.1006 185.466 57.3674 181.699 61.2142C182.671 61.1544 183.652 61.1238 184.64 61.1238C184.735 61.1238 184.83 61.1238 184.926 61.1253C187.232 51.8309 195.629 44.9402 205.637 44.9402C217.422 44.9402 226.976 54.4935 226.976 66.2788C226.976 69.2907 226.351 72.1569 225.225 74.7551C228.918 73.0639 233.027 72.1202 237.355 72.1202C253.463 72.1202 266.521 85.1786 266.521 101.287C266.521 117.396 253.463 130.454 237.355 130.454C233.776 130.454 230.349 129.809 227.181 128.629C227.155 128.683 227.129 128.737 227.103 128.79C238.477 137.035 245.877 150.431 245.877 165.553C245.877 172.126 244.478 178.372 241.964 184.011C252.705 187.565 260.452 197.687 260.452 209.619C260.452 224.516 248.377 236.591 233.48 236.591C226.976 236.591 221.009 234.287 216.348 230.452C213.595 228.185 211.299 225.383 209.62 222.206C201.26 234.526 187.14 242.619 171.13 242.619C155.119 242.619 139.846 233.849 131.64 220.671C123.124 231.341 110.006 238.177 95.2932 238.177C80.5803 238.177 66.8463 231.015 58.3516 219.913C53.3038 224.087 46.8252 226.595 39.7644 226.595C23.6421 226.595 10.5715 213.526 10.5715 197.402C10.5715 186.156 16.9306 176.394 26.2495 171.521C21.5541 164.376 18.821 155.823 18.821 146.633C18.821 141.421 19.7004 136.416 21.3166 131.756C17.0042 129.85 13.2034 126.999 10.1747 123.468L10.1778 123.473Z" fill="white"/>
<path d="M68.7441 31.0343C64.3762 26.6664 64.3762 19.5846 68.7441 15.2166C73.1121 10.8487 80.1939 10.8487 84.5618 15.2166C88.9298 19.5846 88.9298 26.6664 84.5618 31.0343C80.1939 35.4023 73.1121 35.4023 68.7441 31.0343Z" fill="white"/>
<path d="M262.2 160.759C252.912 160.759 245.382 153.229 245.382 143.941C245.382 134.653 252.912 127.123 262.2 127.123C271.488 127.123 279.018 134.653 279.018 143.941C279.018 153.229 271.488 160.759 262.2 160.759Z" fill="white"/>
<path d="M27.0013 70.3839C27.0013 78.7591 32.7691 80.4151 40.504 80.7338C42.0651 80.7981 43.7073 80.8088 45.3971 80.8088C55.462 80.8088 63.4512 80.4488 63.4512 70.3839C63.4512 60.3189 46.4526 52.7204 45.2898 52.1873C45.2485 52.1689 45.227 52.1582 45.227 52.1582C45.227 52.1582 27.0029 60.3174 27.0029 70.3823L27.0013 70.3839Z" fill="#94D2F9"/>
<path d="M27.0014 70.3839C27.0014 78.7591 32.7692 80.4151 40.5041 80.7338C41.1138 79.6966 41.6684 78.5063 42.1586 77.1521C46.7989 64.3143 46.1049 55.9896 45.2899 52.1873C45.2486 52.1689 45.2271 52.1582 45.2271 52.1582C45.2271 52.1582 27.003 60.3174 27.003 70.3824L27.0014 70.3839Z" fill="#6AB2CE"/>
<path d="M45.1101 49.998H45.4395V55.2006H45.1101V49.998Z" fill="#F0C835"/>
<path d="M48.2791 47.4044C48.2791 49.1386 46.8727 50.5449 45.1386 50.5449C43.4044 50.5449 41.998 49.1386 41.998 47.4044C41.998 45.6703 43.4044 44.2639 45.1386 44.2639C45.2044 44.2639 45.2703 44.2654 45.3347 44.27C45.3929 44.2731 45.4511 44.2792 45.5078 44.2854C44.3113 44.4447 43.3875 45.4696 43.3875 46.7089C43.3875 48.0601 44.4829 49.1539 45.8325 49.1539C47.0734 49.1539 48.0968 48.2302 48.2561 47.0337C48.2622 47.0904 48.2684 47.1486 48.2714 47.2068C48.276 47.2711 48.2776 47.337 48.2776 47.4029L48.2791 47.4044Z" fill="#DBB001"/>
<path d="M48.2791 47.4044C48.2791 49.1386 46.8727 50.5449 45.1386 50.5449C43.4044 50.5449 41.998 49.1386 41.998 47.4044C41.998 45.6703 43.4044 44.2639 45.1386 44.2639C45.2044 44.2639 45.2703 44.2654 45.3347 44.27C45.3929 44.2731 45.4511 44.2792 45.5078 44.2854C44.3113 44.4447 43.3875 45.4696 43.3875 46.7089C43.3875 48.0601 44.4829 49.1539 45.8325 49.1539C47.0734 49.1539 48.0968 48.2302 48.2561 47.0337C48.2622 47.0904 48.2684 47.1486 48.2714 47.2068C48.276 47.2711 48.2776 47.337 48.2776 47.4029L48.2791 47.4044Z" fill="#FFE95B"/>
<path d="M45.5192 49.8601C43.9551 49.8601 42.6836 48.5886 42.6836 47.0245C42.6836 45.4603 43.8464 44.293 45.3293 44.195C45.4457 44.1873 45.5667 44.1873 45.6847 44.195V44.3481C45.628 44.3512 45.5729 44.3573 45.5177 44.365C44.3473 44.5213 43.4649 45.5293 43.4649 46.7135C43.4649 48.0202 44.5281 49.0819 45.8333 49.0819C47.016 49.0819 48.0255 48.1995 48.1803 47.0291C48.1879 46.9739 48.1925 46.9172 48.1971 46.8621H48.3503C48.3534 46.9172 48.3549 46.9724 48.3549 47.0275C48.3549 47.0919 48.3534 47.1547 48.3488 47.2175C48.2507 48.702 47.0083 49.8632 45.5192 49.8632V49.8601ZM44.6353 44.4906C43.5844 44.8583 42.8353 45.8617 42.8353 47.0245C42.8353 48.5043 44.0394 49.7069 45.5177 49.7069C46.6805 49.7069 47.6839 48.9578 48.0516 47.9069C47.6211 48.7004 46.7785 49.232 45.8318 49.232C44.4407 49.232 43.3102 48.1014 43.3102 46.7104C43.3102 45.7637 43.8418 44.9211 44.6353 44.4906Z" fill="white"/>
<path d="M48.2779 47.0244C48.2779 47.0857 48.2763 47.1485 48.2717 47.2083C48.1768 48.6468 46.9803 49.7835 45.5188 49.7835C44.0573 49.7835 42.7598 48.5487 42.7598 47.0244C42.7598 45.5001 43.8965 44.3665 45.335 44.2715C45.3963 44.2669 45.4575 44.2654 45.5188 44.2654C45.5724 44.2654 45.626 44.2669 45.6797 44.27C45.6215 44.273 45.5632 44.2792 45.5066 44.2868C44.3101 44.4461 43.3863 45.471 43.3863 46.7104C43.3863 48.0616 44.4817 49.1554 45.8313 49.1554C47.0722 49.1554 48.0956 48.2316 48.2549 47.0352C48.2626 46.9785 48.2687 46.9203 48.2717 46.862C48.2748 46.9157 48.2763 46.9693 48.2763 47.0229L48.2779 47.0244Z" fill="#F0C835"/>
<path d="M45.2316 52.155C45.2316 52.155 50.3438 56.4399 50.3438 73.5779H38.8786C38.8786 73.5779 38.5676 58.819 45.2316 52.155Z" fill="#89C6E5"/>
<path d="M30.5557 74.2854H58.7422V221.414H30.5557V74.2854Z" fill="#B7E0FE"/>
<path d="M30.5577 79.1831H42.8164V221.413H30.5577V79.1831Z" fill="#53A5BA"/>
<path d="M25.0087 81.728C25.0087 82.0513 25.1404 82.3439 25.3518 82.5568C25.5632 82.7682 25.8558 82.9 26.1791 82.9H63.4745C64.121 82.9 64.6465 82.376 64.6465 81.728C64.6465 81.4048 64.5147 81.1122 64.3033 80.9008C64.1946 80.792 64.0643 80.7047 63.9203 80.6449C63.7825 80.5882 63.6323 80.5576 63.4745 80.5576H26.1791C26.0213 80.5576 25.8711 80.5882 25.7333 80.6449C25.3074 80.8196 25.0087 81.2393 25.0087 81.728Z" fill="#4E84A6"/>
<path d="M25.0091 73.8549C25.0091 74.2303 25.1607 74.5688 25.4074 74.8139C25.4518 74.8584 25.5008 74.9013 25.5514 74.9396C25.7781 75.1111 26.0615 75.2123 26.3679 75.2123H63.2896C63.5929 75.2123 63.8717 75.1127 64.0985 74.9457C64.4324 74.6991 64.6484 74.3023 64.6484 73.8549C64.6484 73.4796 64.4968 73.1411 64.2501 72.8944C64.005 72.6493 63.6649 72.4961 63.2896 72.4961H26.3679C25.6188 72.4961 25.0106 73.1043 25.0106 73.8534L25.0091 73.8549Z" fill="#4E84A6"/>
<path d="M22.787 77.791C22.787 78.5785 23.1072 79.2924 23.622 79.8086C24.1382 80.3249 24.8521 80.6435 25.6395 80.6435H63.894C63.9017 80.6435 63.9109 80.6435 63.9185 80.6435C65.4827 80.6313 66.748 79.3582 66.748 77.791C66.748 77.0036 66.4294 76.2897 65.9131 75.7735C65.4413 75.3016 64.804 74.9937 64.0962 74.9447C64.0304 74.9401 63.963 74.937 63.8955 74.937H25.6411C25.6104 74.937 25.5798 74.937 25.5507 74.937C24.0172 74.9845 22.7886 76.2438 22.7886 77.788L22.787 77.791Z" fill="#D2EEFF"/>
<path d="M38.8681 73.5886H50.3379V221.413H38.8681V73.5886Z" fill="#93D3F7"/>
<path d="M32.2353 132.663V149.161H37.2188V132.663C37.2188 129.848 34.7278 128.196 34.7278 128.196C34.7278 128.196 34.5715 128.3 34.3387 128.5C33.6386 129.1 32.2368 130.562 32.2368 132.663H32.2353Z" fill="#395A7D"/>
<path d="M42.1489 132.663V149.161H47.1309V132.663C47.1309 129.848 44.6399 128.196 44.6399 128.196C44.6399 128.196 44.4836 128.3 44.2508 128.5C43.5507 129.1 42.1489 130.562 42.1489 132.663Z" fill="#395A7D"/>
<path d="M52.0634 132.663V149.161H57.0469V132.663C57.0469 129.848 54.5559 128.196 54.5559 128.196C54.5559 128.196 54.3997 128.3 54.1668 128.5C53.4667 129.1 52.065 130.562 52.065 132.663H52.0634Z" fill="#395A7D"/>
<path d="M32.3286 96.3981V112.896H37.3105V96.3981C37.3105 93.5824 34.8196 91.9309 34.8196 91.9309C34.8196 91.9309 34.6633 92.0351 34.4305 92.2342C33.7304 92.8348 32.3286 94.2962 32.3286 96.3981Z" fill="#395A7D"/>
<path d="M42.2407 96.3981V112.896H47.2227V96.3981C47.2227 93.5824 44.7317 91.9309 44.7317 91.9309C44.7317 91.9309 44.5754 92.0351 44.3426 92.2342C43.6425 92.8348 42.2407 94.2962 42.2407 96.3981Z" fill="#395A7D"/>
<path d="M52.1567 96.3981V112.896H57.1387V96.3981C57.1387 93.5824 54.6477 91.9309 54.6477 91.9309C54.6477 91.9309 54.4915 92.0351 54.2586 92.2342C53.557 92.8348 52.1567 94.2962 52.1567 96.3981Z" fill="#395A7D"/>
<path d="M25.6416 80.645H25.7351C25.3092 80.8196 25.0105 81.2394 25.0105 81.7281C25.0105 82.0513 25.1422 82.3439 25.3536 82.5569C25.565 82.7683 25.8577 82.9 26.1809 82.9H42.8164V72.498H26.3663C25.6171 72.498 25.0089 73.1062 25.0089 73.8554C25.0089 74.2307 25.1606 74.5693 25.4073 74.8144C25.4517 74.8588 25.5007 74.9017 25.5513 74.94C24.0178 74.9875 22.7891 76.2468 22.7891 77.791C22.7891 78.5784 23.1093 79.2923 23.6241 79.8085C24.1403 80.3248 24.8542 80.6435 25.6416 80.6435V80.645Z" fill="#213B60"/>
<path d="M22.7872 77.791C22.7872 78.5785 23.1074 79.2924 23.6221 79.8086C24.1384 80.3249 24.8523 80.6435 25.6397 80.6435H42.8145V74.937H25.6397C25.6091 74.937 25.5784 74.937 25.5493 74.937C24.0158 74.9845 22.7872 76.2438 22.7872 77.788V77.791Z" fill="#94D3F6"/>
<path d="M38.8681 72.498H50.3379V82.9H38.8681V72.498Z" fill="#375B7D"/>
<path d="M38.8681 74.9382H50.3379V80.6448H38.8681V74.9382Z" fill="#B7E0FE"/>
<path d="M35.4447 136.93V149.161H37.2188V133.67C37.1682 133.708 37.0931 133.765 37.0027 133.843C36.4834 134.288 35.4447 135.372 35.4447 136.93Z" fill="#0A2246"/>
<path d="M42.7928 136.93V149.161H46.4863V136.93C46.4863 134.842 44.6388 133.618 44.6388 133.618C44.6388 133.618 44.5239 133.695 44.3508 133.843C43.8314 134.288 42.7928 135.372 42.7928 136.93Z" fill="#0A2246"/>
<path d="M52.0639 133.67V149.161H53.8379V136.93C53.8379 135.092 52.4055 133.923 52.0639 133.67Z" fill="#0A2246"/>
<path d="M26.726 151.089C26.726 151.793 27.0125 152.432 27.4736 152.895C27.9363 153.358 28.5736 153.642 29.2798 153.642H60.2744C61.6853 153.642 62.8281 152.5 62.8281 151.089C62.8281 150.384 62.5416 149.745 62.0805 149.283C61.6179 148.82 60.9806 148.535 60.2744 148.535H29.2798C27.8689 148.535 26.726 149.678 26.726 151.089Z" fill="#D2EEFF"/>
<path d="M26.7263 151.088C26.7263 151.793 27.0127 152.432 27.4739 152.895C27.9365 153.357 28.5738 153.642 29.28 153.642H42.8164V148.535H29.28C27.8691 148.535 26.7263 149.678 26.7263 151.088Z" fill="#94D3F6"/>
<path d="M38.8681 148.535H50.3379V153.642H38.8681V148.535Z" fill="#B7E0FE"/>
<path d="M35.3849 100.463V112.895H37.3105V97.1299C37.2799 97.1069 37.263 97.0962 37.263 97.0962C37.263 97.0962 37.1451 97.1743 36.9689 97.3245C36.4404 97.7764 35.3849 98.8794 35.3849 100.462V100.463Z" fill="#0A2246"/>
<path d="M42.8565 100.463V112.895H46.6113V100.463C46.6113 98.3417 44.7347 97.0962 44.7347 97.0962C44.7347 97.0962 44.6167 97.1743 44.4421 97.326C43.9135 97.7779 42.858 98.8794 42.858 100.463H42.8565Z" fill="#0A2246"/>
<path d="M52.1564 97.1314V112.895H54.082V100.463C54.082 98.3417 52.2054 97.0962 52.2054 97.0962C52.2054 97.0962 52.1885 97.1085 52.1564 97.1299V97.1314Z" fill="#0A2246"/>
<path d="M26.726 113.824C26.726 114.528 27.0125 115.167 27.4736 115.63C27.9363 116.093 28.5736 116.378 29.2798 116.378H60.2744C61.6853 116.378 62.8281 115.235 62.8281 113.824C62.8281 113.119 62.5416 112.48 62.0805 112.018C61.6179 111.555 60.9806 111.27 60.2744 111.27H29.2798C27.8689 111.27 26.726 112.413 26.726 113.824Z" fill="#D2EEFF"/>
<path d="M26.7263 113.824C26.7263 114.528 27.0127 115.167 27.4739 115.63C27.9365 116.093 28.5738 116.378 29.28 116.378H42.8164V111.27H29.28C27.8691 111.27 26.7263 112.413 26.7263 113.824Z" fill="#94D3F6"/>
<path d="M38.8681 111.27H50.3379V116.378H38.8681V111.27Z" fill="#B7E0FE"/>
<path d="M238.54 231.828H250.97C256.277 231.828 253.902 238.95 243.149 238.392C232.395 237.833 249.714 241.883 248.736 248.028C247.759 254.173 228.346 253.615 216.754 254.453C205.161 255.291 217.452 263.112 200.832 263.95C184.212 264.788 155.163 261.018 150.694 263.95C146.225 266.882 153.907 273.446 135.891 272.33C117.875 271.213 89.1049 272.051 87.7077 267.162C86.3106 262.274 97.7635 256.129 65.6414 255.291C33.5194 254.453 27.0959 252.917 36.0333 248.028C44.9723 243.14 14.6656 242.023 26.5367 235.04C38.4079 228.058 22.2074 225.962 22.4862 222.471C22.765 218.979 124.499 219.298 126.074 219.417C127.65 219.537 238.54 231.828 238.54 231.828Z" fill="#FFA158"/>
<path d="M148.877 234.202C148.877 234.202 158.235 236.716 155.86 241.884C153.486 247.051 139.381 242.722 126.252 244.676C113.125 246.631 113.125 236.436 103.907 238.532C94.6891 240.626 99.1578 231.967 107.398 232.107C115.639 232.246 102.51 230.152 106.001 225.403C109.492 220.654 130.86 223.168 130.86 223.168L148.876 234.201L148.877 234.202Z" fill="#E28333"/>
<path d="M229.806 232.55C229.806 232.55 240.774 238.251 226.807 238.531C212.842 238.81 226.389 244.956 214.377 245.235C202.367 245.514 208.372 249.286 196.919 249.005C185.468 248.726 171.083 247.19 179.043 244.955C187.003 242.72 162.982 247.887 161.725 242.023C160.469 236.157 165.217 236.855 160.609 234.62C156 232.385 163.821 224.845 163.821 224.845L229.806 232.55Z" fill="#E28333"/>
<path d="M124.374 226.239C120.893 226.302 117.413 226.366 113.932 226.429C113.154 226.443 112.34 226.467 111.663 226.85C110.986 227.233 110.517 228.103 110.848 228.808C111.107 229.359 111.735 229.618 112.307 229.828C113.02 230.09 113.736 230.352 114.45 230.614C115.228 230.899 116.161 231.418 116.068 232.243C115.922 233.523 113.733 233.281 113.056 234.378C112.665 235.011 112.97 235.889 113.541 236.364C114.113 236.838 114.874 237.005 115.606 237.13C118.126 237.557 120.689 237.658 123.245 237.761C133.662 238.174 144.089 238.586 154.509 238.282C155.204 238.262 155.94 238.226 156.523 237.848C157.107 237.47 157.447 236.621 157.041 236.054C156.865 235.807 156.586 235.659 156.314 235.526C154.982 234.878 153.559 234.421 152.099 234.173C152.07 233.404 152.98 233.002 153.456 232.399C154.143 231.529 153.843 230.179 153.083 229.372C152.323 228.566 151.231 228.175 150.173 227.841C143.837 225.836 137.193 224.806 130.548 224.799L124.371 226.239H124.374Z" fill="#B35D22"/>
<path d="M201.664 229.359C206.138 229.834 210.592 230.508 215.007 231.375C216.113 231.593 217.404 231.982 217.749 233.054C218.055 234.007 217.383 235.055 216.493 235.515C215.603 235.974 214.56 235.993 213.558 236.002C210.799 236.026 208.038 236.049 205.279 236.074C204.498 236.08 203.649 236.111 203.044 236.604C202.439 237.097 202.344 238.239 203.055 238.565C203.398 238.723 203.828 238.651 204.141 238.865C204.614 239.188 204.479 239.982 204.032 240.339C203.583 240.696 202.97 240.739 202.397 240.765C191.721 241.244 181.014 241.047 170.361 240.177C169.181 240.08 167.959 239.962 166.931 239.375C165.903 238.787 165.123 237.592 165.399 236.44C165.735 235.032 167.322 234.407 168.613 233.756C169.905 233.105 171.236 231.694 170.588 230.4C170.465 230.156 170.274 229.923 170.289 229.652C170.304 229.347 170.571 229.123 170.825 228.955C172.831 227.637 175.358 227.469 177.757 227.432C185.111 227.323 192.476 228.097 199.646 229.732L201.664 229.359Z" fill="#B35D22"/>
<path d="M27.0943 221.913H68.7129L68.6823 220.183L68.5843 214.693L68.5735 214.091C68.5735 214.091 69.6811 209.662 67.4904 206.339C67.2361 205.953 66.9374 205.582 66.5866 205.235C66.5452 205.193 66.5008 205.15 66.4564 205.109C65.8359 204.525 65.0623 204.012 64.1033 203.615C59.2102 201.595 58.6909 206.622 58.7231 209.133C58.7322 209.919 58.7951 210.458 58.7951 210.458C58.7951 210.458 58.6342 209.613 58.1378 208.871C57.712 208.233 57.0364 207.675 56.0023 207.804C53.7672 208.082 54.4657 211.854 54.4657 211.854C54.4657 211.854 52.511 210.457 51.1138 211.016C49.7458 211.563 50.9254 215.463 50.9729 215.621C50.9223 215.532 49.9557 213.827 48.4605 214.507C47.624 214.887 47.4494 216.179 47.4662 217.277C47.4785 218.195 47.6225 218.976 47.6225 218.976C47.6225 218.976 47.457 218.645 47.1507 218.247C46.6604 217.608 45.8071 216.795 44.6903 216.88C42.875 217.02 43.0144 219.394 43.0144 219.394C43.0144 219.394 41.6172 217.159 40.2216 217.44C38.8245 217.718 38.9654 219.675 38.9654 219.675C38.9654 219.675 38.4062 217.72 36.1726 218.419C34.5442 218.927 34.6959 219.808 34.8981 220.246C34.4798 219.589 33.2727 217.97 31.7039 218.419C30.126 218.869 30.0938 220.05 30.1413 220.487C30.149 220.577 30.1643 220.637 30.1659 220.651C30.1092 220.577 28.8882 219.004 27.9323 220.095C27.9246 220.102 27.9185 220.11 27.9123 220.117C26.9564 221.22 27.0943 221.91 27.0943 221.91V221.913Z" fill="#668E0A"/>
<path d="M58.7224 209.135C58.8373 209.228 58.9323 209.346 58.9982 209.485C59.1636 208.563 59.3321 207.632 59.7274 206.783C60.1211 205.936 60.7753 205.167 61.65 204.836C62.6228 204.468 63.7381 204.692 64.6511 205.19C65.5641 205.688 66.3133 206.432 67.0471 207.169L67.4883 206.34C67.234 205.954 66.9352 205.583 66.5844 205.236C66.5431 205.194 66.4986 205.151 66.4542 205.11C65.8338 204.526 65.0601 204.013 64.1011 203.616C59.2081 201.596 58.6887 206.624 58.7209 209.135H58.7224Z" fill="#8EAE0D"/>
<path d="M47.4671 217.28C47.726 216.745 48.112 216.274 48.5946 215.923C48.7907 215.78 49.0097 215.655 49.2503 215.623C49.7619 215.555 50.2369 215.929 50.5065 216.369C50.7761 216.807 50.9032 217.318 51.1346 217.778C51.6953 216.724 51.9097 215.488 51.7351 214.305C51.6631 213.816 51.565 213.22 51.9496 212.911C52.4689 212.493 53.1905 213.061 53.6026 213.582C54.5003 213.21 55.6584 213.706 56.0062 214.614C55.5144 213.332 55.5022 211.872 55.971 210.581C56.2053 209.934 56.5929 209.297 57.2118 208.995C57.4937 208.857 57.8292 208.816 58.1387 208.874C57.7128 208.235 57.0372 207.678 56.0031 207.806C53.768 208.085 54.4666 211.857 54.4666 211.857C54.4666 211.857 52.5118 210.46 51.1147 211.019C49.7466 211.566 50.9262 215.466 50.9737 215.624C50.9232 215.535 49.9565 213.83 48.4613 214.51C47.6249 214.89 47.4502 216.182 47.4671 217.28Z" fill="#8EAE0D"/>
<path d="M30.1391 220.49C30.4639 220.138 30.9526 219.989 31.4153 219.854C31.7891 219.745 32.1644 219.638 32.5382 219.529C32.8262 219.447 33.1326 219.364 33.4175 219.454C34.0043 219.637 34.2172 220.45 34.8085 220.619C34.8637 220.294 34.997 219.984 35.1946 219.724C35.4627 219.909 35.7629 219.562 36.005 219.344C36.4692 218.924 37.206 218.943 37.7667 219.223C38.3274 219.5 38.7502 219.987 39.1577 220.462C39.1976 219.862 39.2451 219.237 39.5469 218.716C39.8502 218.197 40.4921 217.823 41.0589 218.025C41.3147 218.117 41.52 218.31 41.7146 218.501C42.4484 219.218 43.1516 219.963 43.8241 220.738C43.9528 219.9 44.2117 219.027 44.8536 218.475C45.4939 217.922 46.6153 217.869 47.1086 218.557C47.1163 218.454 47.1316 218.353 47.1484 218.252C46.6582 217.613 45.8049 216.799 44.6881 216.885C42.8728 217.025 43.0122 219.399 43.0122 219.399C43.0122 219.399 41.615 217.164 40.2194 217.444C38.8223 217.723 38.9632 219.679 38.9632 219.679C38.9632 219.679 38.404 217.725 36.1704 218.423C34.542 218.932 34.6936 219.813 34.8959 220.251C34.4776 219.594 33.2705 217.974 31.7017 218.423C30.1238 218.874 30.0916 220.055 30.1391 220.491V220.49Z" fill="#8EAE0D"/>
<path d="M27.0936 221.913H67.4393C67.8284 221.554 68.1685 221.145 68.435 220.676C68.5269 220.517 68.6081 220.353 68.6801 220.183C69.0355 219.356 69.1704 218.437 69.1504 217.533C69.129 216.561 68.9344 215.596 68.5821 214.694C68.4166 214.271 68.2175 213.862 67.9862 213.47L66.5859 205.236L66.468 204.542C66.4603 204.732 66.4573 204.92 66.4573 205.11C66.4481 206.902 66.7177 208.699 66.5124 210.478C66.2872 212.447 65.293 214.516 63.4378 215.21C63.2003 215.298 62.9491 215.363 62.6963 215.351C61.5718 215.299 61.0724 213.937 60.2099 213.213C60.7277 213.977 60.7232 215.06 60.1946 215.818C60.0368 216.048 59.8361 216.25 59.7289 216.506C59.5711 216.889 59.6477 217.321 59.6339 217.735C59.5803 219.288 57.9518 220.589 56.426 220.301C56.2253 220.263 56.017 220.201 55.8209 220.261C55.6371 220.316 55.4976 220.466 55.323 220.545C54.8986 220.733 54.413 220.451 53.9488 220.488C53.5214 220.522 53.1675 220.819 52.8014 221.041C51.1117 222.064 48.6207 221.366 47.7046 219.619C47.8945 220.018 47.6954 220.535 47.3384 220.811C46.9677 221.099 46.476 221.176 46.0056 221.196C45.4771 221.217 44.9486 221.179 44.4308 221.081C43.7736 220.957 43.0796 220.741 42.4546 220.981C42.2263 221.068 42.0226 221.216 41.7897 221.289C41.5477 221.363 41.2918 221.356 41.039 221.346C39.8119 221.304 38.5848 221.262 37.3577 221.22C36.509 221.191 35.5623 221.118 34.9893 220.491C34.7733 221.012 34.133 221.182 33.5769 221.288C31.999 221.583 30.2142 221.836 28.9167 220.889C28.5781 220.641 28.2763 220.313 27.9132 220.123C26.9573 221.226 27.0952 221.916 27.0952 221.916L27.0936 221.913Z" fill="#0F682E"/>
<path d="M63.4129 122.206C63.4129 125.343 63.7775 128.056 64.4669 130.402C64.5527 130.694 64.643 130.979 64.7396 131.26C69.3507 144.787 85.4393 145.354 104.259 145.354C126.609 145.354 144.348 144.554 144.348 122.204C144.348 99.8546 104.439 81.989 103.887 81.7408C103.884 81.7408 103.883 81.7393 103.883 81.7393C103.883 81.7393 63.4159 99.8562 63.4159 122.206H63.4129Z" fill="#94D2F9"/>
<path d="M63.4136 122.206C63.4136 125.343 63.7782 128.056 64.4675 130.402C64.6115 130.503 64.7418 130.563 64.8551 130.575C66.214 130.722 90.7099 129.955 91.1527 129.512C91.5923 129.072 103.704 82.4409 103.885 81.7408C103.882 81.7408 103.88 81.7393 103.88 81.7393C103.88 81.7393 63.4136 99.8562 63.4136 122.206Z" fill="#6AB2CE"/>
<path d="M103.406 74.9329H104.051V85.151H103.406V74.9329Z" fill="#F0C835"/>
<path d="M110.233 69.8417C110.233 73.2472 107.472 76.0078 104.067 76.0078C100.661 76.0078 97.9004 73.2472 97.9004 69.8417C97.9004 66.4361 100.661 63.6755 104.067 63.6755C104.197 63.6755 104.325 63.6801 104.453 63.6878C104.566 63.6955 104.679 63.7046 104.793 63.7184C102.443 64.031 100.63 66.0424 100.63 68.4782C100.63 71.13 102.78 73.2809 105.433 73.2809C107.869 73.2809 109.88 71.4686 110.193 69.1186C110.207 69.2304 110.216 69.3438 110.223 69.4587C110.231 69.5858 110.236 69.7145 110.236 69.8447L110.233 69.8417Z" fill="#DBB001"/>
<path d="M110.233 69.8417C110.233 73.2472 107.472 76.0078 104.067 76.0078C100.661 76.0078 97.9004 73.2472 97.9004 69.8417C97.9004 66.4361 100.661 63.6755 104.067 63.6755C104.197 63.6755 104.325 63.6801 104.453 63.6878C104.566 63.6955 104.679 63.7046 104.793 63.7184C102.443 64.031 100.63 66.0424 100.63 68.4782C100.63 71.13 102.78 73.2809 105.433 73.2809C107.869 73.2809 109.88 71.4686 110.193 69.1186C110.207 69.2304 110.216 69.3438 110.223 69.4587C110.231 69.5858 110.236 69.7145 110.236 69.8447L110.233 69.8417Z" fill="#FFE95B"/>
<path d="M104.813 74.5894C101.783 74.5894 99.3184 72.1245 99.3184 69.0943C99.3184 66.0641 101.57 63.8014 104.446 63.6114C104.671 63.5961 104.907 63.5945 105.134 63.6083V63.7615C105.023 63.7677 104.91 63.7799 104.8 63.7937C102.463 64.1047 100.703 66.1177 100.703 68.4769C100.703 71.0827 102.823 73.203 105.429 73.203C107.789 73.203 109.803 71.4412 110.113 69.1065C110.128 68.9962 110.139 68.8844 110.145 68.7725H110.298C110.304 68.8798 110.307 68.987 110.307 69.0943C110.307 69.2184 110.302 69.3424 110.295 69.4619C110.105 72.3374 107.697 74.5894 104.812 74.5894H104.813ZM103.989 63.8151C101.42 64.2134 99.4716 66.447 99.4716 69.0943C99.4716 72.0402 101.868 74.4362 104.813 74.4362C107.459 74.4362 109.694 72.486 110.093 69.9185C109.472 71.9253 107.592 73.3562 105.431 73.3562C102.741 73.3562 100.552 71.167 100.552 68.4769C100.552 66.3153 101.982 64.4356 103.989 63.8151Z" fill="white"/>
<path d="M110.232 69.0941C110.232 69.2151 110.227 69.3361 110.219 69.4556C110.032 72.279 107.684 74.5126 104.813 74.5126C101.942 74.5126 99.3945 72.086 99.3945 69.0941C99.3945 66.1022 101.627 63.8732 104.452 63.6878C104.571 63.6801 104.692 63.6755 104.813 63.6755C104.919 63.6755 105.024 63.6786 105.13 63.6847C105.015 63.6924 104.903 63.7031 104.792 63.7184C102.442 64.031 100.629 66.0424 100.629 68.4782C100.629 71.13 102.779 73.2809 105.432 73.2809C107.868 73.2809 109.879 71.4686 110.192 69.1186C110.207 69.0067 110.218 68.8934 110.225 68.78C110.232 68.8842 110.235 68.9899 110.235 69.0971L110.232 69.0941Z" fill="#F0C835"/>
<path d="M103.887 81.7327C103.887 81.7327 85.1236 101.264 88.641 124.312L94.6386 130.487L118.159 124.312C118.159 124.312 118.601 94.9703 103.887 81.7327Z" fill="#89C6E5"/>
<path d="M65.7339 132.189H141.492V221.855H65.7339V132.189Z" fill="#B7E0FE"/>
<path d="M65.7341 132.189H104.182V221.855H65.7341V132.189Z" fill="#53A5BA"/>
<path d="M88.6296 132.189H118.172V221.855H88.6296V132.189Z" fill="#93D3F7"/>
<path d="M95.4455 162.487V221.855H111.836V162.487C111.836 153.223 103.642 147.791 103.642 147.791C103.642 147.791 95.4471 153.271 95.4471 162.487H95.4455Z" fill="#395A7D"/>
<path d="M85.865 132.189H89.9277V221.855H85.865V132.189Z" fill="#35577A"/>
<path d="M87.8841 132.189H89.9277V221.855H87.8841V132.189Z" fill="#4E83AD"/>
<path d="M117.021 132.189H120.805V221.855H117.021V132.189Z" fill="#4E83AD"/>
<path d="M124.585 180.821V221.855H136.979V180.821C136.979 173.817 130.782 169.708 130.782 169.708C130.782 169.708 130.394 169.967 129.814 170.465C128.07 171.957 124.585 175.594 124.585 180.821Z" fill="#37597C"/>
<path d="M69.6514 180.821V221.855H82.0449V180.821C82.0449 173.817 75.8481 169.708 75.8481 169.708C75.8481 169.708 75.4606 169.967 74.88 170.465C73.1366 171.957 69.6514 175.594 69.6514 180.821Z" fill="#37597C"/>
<path d="M117.021 132.189H118.9V221.855H117.021V132.189Z" fill="#35577A"/>
<path d="M61.8574 135.777C61.8574 136.203 62.0305 136.589 62.3093 136.869C62.5881 137.15 62.9742 137.321 63.4001 137.321H144.243C145.096 137.321 145.787 136.63 145.787 135.777C145.787 135.635 145.767 135.498 145.732 135.367C145.695 135.236 145.643 135.112 145.577 134.997C145.407 134.708 145.145 134.478 144.831 134.348C144.65 134.273 144.451 134.231 144.243 134.231H63.4001C63.1917 134.231 62.9941 134.273 62.8118 134.348C62.2511 134.579 61.8558 135.131 61.8558 135.776L61.8574 135.777Z" fill="#4E84A6"/>
<path d="M61.8574 125.862C61.8574 126.227 61.9845 126.562 62.1944 126.826C62.2296 126.87 62.2679 126.913 62.3093 126.955C62.5881 127.233 62.9742 127.406 63.4001 127.406H144.243C144.732 127.406 145.167 127.18 145.45 126.826C145.661 126.562 145.787 126.227 145.787 125.862C145.787 125.675 145.753 125.495 145.692 125.329C145.631 125.164 145.542 125.01 145.432 124.877C145.148 124.536 144.721 124.32 144.243 124.32H63.4001C62.5483 124.32 61.8558 125.01 61.8558 125.864L61.8574 125.862Z" fill="#4E84A6"/>
<path d="M57.154 130.587C57.154 131.626 57.5753 132.566 58.2555 133.247C58.9356 133.927 59.8763 134.348 60.9149 134.348H146.479C148.557 134.348 150.24 132.665 150.24 130.587C150.24 130.213 150.185 129.852 150.084 129.51C149.983 129.169 149.834 128.848 149.646 128.556C148.976 127.514 147.809 126.825 146.479 126.825H60.9149C58.8376 126.825 57.154 128.508 57.154 130.586V130.587Z" fill="#D2EEFF"/>
<path d="M57.1537 130.587C57.1537 131.626 57.5749 132.566 58.2551 133.246C58.9353 133.927 59.8759 134.348 60.9146 134.348H62.8127C62.252 134.579 61.8568 135.131 61.8568 135.776C61.8568 136.202 62.0299 136.588 62.3087 136.868C62.5875 137.148 62.9736 137.32 63.3994 137.32H104.182V124.318H63.3994C62.5477 124.318 61.8552 125.009 61.8552 125.862C61.8552 126.227 61.9824 126.562 62.1923 126.826H60.9131C58.8357 126.826 57.1521 128.51 57.1521 130.587H57.1537Z" fill="#213B60"/>
<path d="M57.1537 130.587C57.1537 131.626 57.5749 132.566 58.2551 133.247C58.9353 133.927 59.8759 134.348 60.9146 134.348H104.182V126.826H60.9146C58.8373 126.826 57.1537 128.51 57.1537 130.587Z" fill="#94D3F6"/>
<path d="M88.6296 124.32H118.172V137.321H88.6296V124.32Z" fill="#375B7D"/>
<path d="M88.6296 126.826H118.172V134.348H88.6296V126.826Z" fill="#B7E0FE"/>
<path d="M97.2307 175.972V221.855H109.898V175.972C109.898 168.814 103.565 164.615 103.565 164.615C103.565 164.615 97.2322 168.849 97.2322 175.972H97.2307Z" fill="#0A2246"/>
<path d="M124.585 181.583V221.856H129.332V190.143C129.332 185.028 125.056 181.912 124.585 181.584V181.583Z" fill="#0A2246"/>
<path d="M77.2974 190.142V221.855H82.0449V181.583C81.9484 181.652 81.688 181.839 81.3387 182.137C79.9921 183.291 77.2974 186.102 77.2974 190.14V190.142Z" fill="#0A2246"/>
<path d="M63.5452 221.913H97.2038C97.4826 221.075 96.2264 220.936 96.2264 220.936C96.2264 220.936 96.2264 220.173 95.7637 219.771C95.632 219.655 95.465 219.571 95.249 219.54C94.2716 219.401 93.9928 219.958 93.9928 219.958C93.9928 219.958 93.9928 218.561 92.876 218.282C91.7592 218.003 91.3394 219.26 91.3394 219.26C91.3394 219.26 91.3394 218.665 91.128 217.99C90.9565 217.441 90.6455 216.842 90.0817 216.465C88.8255 215.627 87.9875 216.744 87.9875 216.744C87.9875 216.744 87.9875 214.65 86.451 214.509C84.9144 214.37 84.6356 216.324 84.6356 216.324C84.6356 216.324 84.4962 214.648 82.8202 214.648C82.5261 214.648 82.281 214.736 82.0818 214.878C81.1443 215.546 81.1443 217.441 81.1443 217.441C81.1443 217.058 81.0707 216.611 80.9237 216.171C80.5345 215.007 79.6307 213.887 78.2121 214.089C76.8701 214.281 76.5147 216.579 76.4228 218C76.3906 218.514 76.3921 218.913 76.3952 219.059C76.3875 218.861 76.3431 218.206 76.0704 217.62C75.833 217.115 75.4255 216.664 74.7208 216.603C73.0448 216.464 73.0448 218.279 73.0448 218.279C73.0448 218.279 72.6266 215.347 70.5309 215.626C69.7909 215.725 69.4524 216.24 69.3222 216.867C69.0939 217.97 69.5167 219.417 69.5504 219.529C69.5045 219.407 68.8227 217.686 66.9262 217.714C66.8726 217.714 66.8174 217.718 66.7607 217.721C65.2533 217.823 65.12 219.295 65.1629 220.116C65.1813 220.436 65.2242 220.655 65.2242 220.655C65.0909 220.615 64.9683 220.595 64.855 220.591C63.7765 220.539 63.5482 221.911 63.5482 221.911L63.5452 221.913Z" fill="#668E0A"/>
<path d="M63.5452 221.913H97.2038C97.4826 221.075 96.2264 220.936 96.2264 220.936C96.2264 220.936 96.2264 220.173 95.7637 219.771C96.0088 220.444 95.5615 221.366 94.8246 221.582C93.9315 221.843 92.9556 221.262 92.5022 220.452C92.1054 220.812 91.6627 221.143 91.1464 221.29C90.6317 221.437 90.0296 221.368 89.6344 221.005C89.5532 220.93 89.4796 220.841 89.3785 220.795C89.1365 220.681 88.8653 220.845 88.6309 220.974C87.4774 221.608 85.7432 221.268 85.2759 220.038C85.0645 220.197 84.8547 220.358 84.6432 220.517C84.3537 219.888 83.8191 219.375 83.1772 219.116C82.7467 218.94 82.2749 218.875 81.8536 218.681C81.4323 218.485 81.0432 218.099 81.0539 217.633C80.9849 218.35 80.9191 219.065 80.8501 219.782C80.8103 220.214 80.7506 220.684 80.4426 220.989C80.1332 221.294 79.4867 221.253 79.3779 220.833C78.9444 221.305 78.134 221.216 77.633 220.813C77.1336 220.412 76.8686 219.794 76.625 219.202C76.363 219.952 76.0291 220.787 75.2968 221.1C75.1007 221.184 74.8923 221.222 74.6825 221.259C73.8705 221.401 73.0295 221.509 72.2268 221.316C71.4255 221.121 70.6626 220.567 70.442 219.773C70.3516 220.479 69.7235 221.08 69.0127 221.141C68.7676 221.162 68.5179 221.124 68.2743 221.147C68.0169 221.17 67.7718 221.257 67.5206 221.313C66.6137 221.51 65.6225 221.257 64.9208 220.655C64.8979 220.635 64.8764 220.616 64.8535 220.597C63.775 220.545 63.5467 221.918 63.5467 221.918L63.5452 221.913Z" fill="#0F682E"/>
<path d="M82.8191 214.65C82.525 214.65 82.2799 214.737 82.0807 214.88C82.6889 214.786 83.3124 215.088 83.7337 215.539C84.1673 216.003 84.417 216.605 84.6085 217.209C84.7709 216.631 84.9884 215.986 85.5322 215.738C86.0883 215.485 86.7731 215.784 87.1439 216.268C87.5161 216.75 87.6479 217.374 87.752 217.976C88.1611 217.253 89.0711 216.852 89.8799 217.038C90.4039 217.159 90.8573 217.521 91.127 217.987C90.9554 217.438 90.6444 216.839 90.0806 216.462C88.8244 215.624 87.9864 216.741 87.9864 216.741C87.9864 216.741 87.9864 214.647 86.4499 214.506C84.9133 214.367 84.6345 216.322 84.6345 216.322C84.6345 216.322 84.4951 214.646 82.8191 214.646V214.65Z" fill="#8EAE0D"/>
<path d="M76.4195 218.002C76.4394 218.034 76.4547 218.068 76.47 218.103C76.5635 217.305 76.8224 216.53 77.2207 215.834C77.3662 215.581 77.5409 215.33 77.7982 215.194C78.0296 215.07 78.3022 215.053 78.5642 215.068C79.4527 215.12 80.3152 215.526 80.9219 216.176C80.5328 215.012 79.6289 213.892 78.2103 214.094C76.8683 214.285 76.5129 216.583 76.421 218.005L76.4195 218.002Z" fill="#8EAE0D"/>
<path d="M69.3197 216.87C69.672 216.59 70.1944 216.492 70.6356 216.626C71.2944 216.827 71.7723 217.405 72.0879 218.016C72.402 218.629 72.5935 219.3 72.909 219.911C73.1404 219.064 73.4835 218.178 74.2051 217.676C74.7459 217.302 75.5517 217.273 76.0664 217.621C75.829 217.115 75.4214 216.665 74.7167 216.604C73.0408 216.464 73.0408 218.279 73.0408 218.279C73.0408 218.279 72.6226 215.347 70.5268 215.626C69.7869 215.726 69.4483 216.24 69.3181 216.867L69.3197 216.87Z" fill="#8EAE0D"/>
<path d="M65.1605 220.116C65.5405 219.824 65.7105 219.217 65.9464 218.75C66.1624 218.318 66.5102 217.965 66.9238 217.716C66.8702 217.716 66.815 217.72 66.7584 217.723C65.2509 217.824 65.1177 219.297 65.1605 220.118V220.116Z" fill="#8EAE0D"/>
<path d="M118.011 223.03H120.525C120.525 223.03 120.106 216.605 125.133 214.51C125.133 214.51 118.011 212.834 118.011 223.03Z" fill="#8EAE0D"/>
<path d="M119.627 222.99H122.479C122.479 222.99 124.154 219.123 127.504 220.375C127.383 220.28 122.052 216.187 119.625 222.99H119.627Z" fill="#0F682E"/>
<path d="M111.866 218.002C115.777 218.002 115.777 223.03 115.777 223.03H119.129C118.441 215.324 112.06 217.921 111.87 218C111.867 218 111.866 218 111.866 218V218.002Z" fill="#648C08"/>
<path d="M121.179 222.99H122.481C122.481 222.99 124.155 219.123 127.506 220.375C127.386 220.31 123.425 218.215 121.223 222.89C121.208 222.924 121.193 222.957 121.179 222.99Z" fill="#0C5121"/>
<path d="M111.865 218.002C115.776 218.002 115.776 223.03 115.776 223.03H117.703C116.43 216.874 112.024 217.96 111.869 218C111.866 218 111.865 218 111.865 218V218.002Z" fill="#526D07"/>
<path d="M119.687 223.029H120.525C120.525 223.029 120.106 216.604 125.133 214.51C125.133 214.51 118.568 215.209 119.687 223.029Z" fill="#648C08"/>
<path d="M125.113 231.131L143.548 231.27C143.548 231.27 148.017 228.756 153.045 229.316C158.073 229.875 183.71 229.296 183.71 229.296C183.71 229.296 201.786 226.941 198.575 223.03C196.308 220.271 194.936 219.966 194.325 220.026C194.069 220.049 193.947 220.138 193.947 220.138C193.947 220.138 194.524 214.371 190.354 214.212C189.613 214.184 188.94 214.263 188.335 214.414C185.539 215.105 184.19 217.304 184.19 217.304C184.19 217.304 184.277 216.046 183.957 214.546C183.578 212.77 182.626 210.659 180.28 209.903C175.951 208.506 172.4 215.111 172.4 215.111C172.4 215.111 173.298 209.206 170.067 206.313C166.834 203.419 163.104 207.251 163.104 207.251C163.104 207.251 164.081 202.223 160.91 199.848C158.321 197.912 156.768 200.902 156.285 202.07C156.176 202.332 156.121 202.503 156.121 202.503C156.121 202.503 156.19 199.021 155.133 196.736C154.68 195.752 154.016 194.989 153.05 194.822C149.837 194.263 148.72 198.453 148.72 198.453C148.72 198.453 147.522 192.838 142.825 191.804C141.108 191.426 138.92 191.659 136.151 193.007C125.816 198.035 130.026 216.19 130.026 216.19L126.077 219.422L125.119 231.134L125.113 231.131Z" fill="#648C08"/>
<path d="M188.336 214.414C189.743 214.597 190.974 215.51 191.844 216.631C192.722 217.762 193.286 219.1 193.841 220.421L194.326 220.026C194.07 220.049 193.948 220.138 193.948 220.138C193.948 220.138 194.525 214.371 190.355 214.212C189.614 214.184 188.941 214.263 188.336 214.414Z" fill="#8EAE0D"/>
<path d="M156.283 202.066C156.312 202.573 156.393 203.07 156.58 203.546C157.7 203.43 159.167 203.528 159.495 204.606C159.654 205.13 159.452 205.686 159.391 206.229C159.227 207.673 160.071 209.029 160.295 210.464C160.647 212.724 159.452 214.906 158.302 216.882C159.625 215.885 159.9 214.055 160.41 212.477C161.023 210.582 162.201 208.769 163.991 207.897C165.782 207.025 168.232 207.368 169.363 209.011C170.003 209.942 170.148 211.117 170.276 212.24C170.562 214.763 170.849 217.286 171.135 219.809C171.873 218.159 172.658 216.451 174.049 215.298C175.441 214.146 177.277 213.694 179.061 213.413C180.135 213.245 181.252 213.13 182.294 213.438C182.939 213.629 183.55 214.019 183.959 214.544C183.581 212.769 182.628 210.657 180.282 209.901C175.953 208.504 172.402 215.109 172.402 215.109C172.402 215.109 173.3 209.204 170.069 206.311C166.836 203.417 163.106 207.249 163.106 207.249C163.106 207.249 164.083 202.221 160.912 199.846C158.323 197.91 156.77 200.9 156.287 202.068L156.283 202.066Z" fill="#8EAE0D"/>
<path d="M142.823 191.801C145.391 193.005 147.175 195.732 147.237 198.569C147.258 199.483 147.142 200.498 147.702 201.221C147.923 201.507 148.229 201.712 148.485 201.965C148.887 202.359 149.172 202.869 149.297 203.417C148.913 200.807 150.222 198.011 152.497 196.665C152.89 196.432 153.32 196.236 153.777 196.216C154.302 196.191 154.757 196.395 155.131 196.73C154.677 195.747 154.014 194.984 153.047 194.817C149.835 194.258 148.718 198.448 148.718 198.448C148.718 198.448 147.52 192.833 142.823 191.799V191.801Z" fill="#8EAE0D"/>
<path d="M131.681 198.433C130.385 202.384 132 206.64 133.593 210.48C134.276 212.13 135.444 214.086 137.219 213.881C136.968 215.778 138.088 217.84 139.903 218.445C141.719 219.05 143.988 217.892 144.36 216.015C144.447 215.577 144.443 215.11 144.648 214.714C144.888 214.252 145.369 213.976 145.806 213.693C148.971 211.629 150.869 207.769 150.572 204.002C151.525 206.094 151.984 208.409 151.905 210.705C151.827 212.953 151.257 215.3 152.092 217.388C152.49 218.382 153.178 219.229 153.872 220.044C154.529 220.818 155.249 221.611 156.216 221.919C157.351 222.281 158.625 221.876 159.558 221.135C160.491 220.393 161.138 219.355 161.705 218.307C162.61 220.046 164.068 222.072 165.991 221.691C166.083 222.675 166.95 223.453 167.9 223.722C168.85 223.992 169.867 223.846 170.83 223.632C173.234 223.094 175.541 222.123 177.605 220.776C178.669 220.082 179.751 219.154 179.907 217.892C181.262 218.515 181.704 220.174 182.129 221.602C182.553 223.031 183.403 224.654 184.891 224.75C186.024 224.825 186.965 223.961 187.901 223.318C188.837 222.675 190.237 222.264 191.011 223.097C191.236 223.339 191.372 223.661 191.619 223.882C192.402 224.583 193.715 223.908 194.668 224.35C195.185 224.591 195.5 225.115 195.783 225.61C196.305 226.521 196.845 227.583 196.501 228.576C195.985 230.074 193.978 230.268 192.396 230.195C174.784 229.374 157.173 228.554 139.562 227.733C138.535 227.686 137.472 227.643 136.515 228.02C135.557 228.396 134.731 229.311 134.8 230.337C134.813 230.51 134.848 230.684 134.837 230.857C134.816 231.218 134.59 231.538 134.321 231.779C132.878 233.06 130.404 232.131 129.442 230.458C128.481 228.785 128.596 226.725 128.768 224.802C129.484 216.724 130.664 208.695 131.842 200.671L131.681 198.433Z" fill="#0F682E"/>
<path d="M149.35 203.721C149.339 203.622 149.322 203.524 149.298 203.429C149.313 203.527 149.33 203.625 149.35 203.721Z" fill="#8EAE0D"/>
<path d="M126.949 163.947V231.258C126.949 231.764 127.247 232.2 127.679 232.399C127.839 232.473 128.018 232.514 128.205 232.514C128.899 232.514 129.461 231.952 129.461 231.258V163.947C129.461 163.253 128.899 162.691 128.205 162.691C127.952 162.691 127.716 162.766 127.518 162.894C127.445 162.942 127.377 162.997 127.316 163.058C127.089 163.285 126.949 163.599 126.949 163.947Z" fill="#395C7C"/>
<path d="M126.949 163.947V231.258C126.949 231.764 127.248 232.2 127.68 232.399C128.023 232.176 128.25 231.788 128.25 231.347V164.036C128.25 163.53 127.951 163.094 127.519 162.895C127.446 162.942 127.378 162.997 127.317 163.058C127.09 163.285 126.949 163.599 126.949 163.947Z" fill="#F5C535"/>
<path d="M137.115 164.242V231.553C137.115 232.059 137.413 232.496 137.845 232.695C138.005 232.768 138.184 232.81 138.371 232.81C139.065 232.81 139.627 232.247 139.627 231.553V164.242C139.627 163.548 139.065 162.986 138.371 162.986C138.118 162.986 137.882 163.061 137.684 163.19C137.611 163.237 137.543 163.292 137.482 163.354C137.255 163.58 137.115 163.895 137.115 164.242Z" fill="#395C7C"/>
<path d="M137.115 164.243V231.554C137.115 232.059 137.414 232.496 137.846 232.695C138.189 232.471 138.416 232.084 138.416 231.643V164.332C138.416 163.826 138.117 163.389 137.685 163.19C137.612 163.238 137.544 163.293 137.483 163.354C137.256 163.581 137.115 163.895 137.115 164.243Z" fill="#F5C535"/>
<path d="M138.102 172.782C138.734 173.217 139.553 173.699 140.48 174.196C142.292 175.169 144.511 176.193 146.499 177.015C149.016 178.055 151.167 178.767 151.665 178.632C152.759 178.337 153.969 174.85 153.586 174.289C153.201 173.729 149.981 172.192 146.73 170.478C145.195 169.669 144.161 169.056 143.429 168.449C143.161 168.227 142.933 168.005 142.735 167.774C142.331 167.302 142.056 166.792 141.825 166.164C141.365 164.909 138.516 163.918 136.417 165.248C134.32 166.577 134.674 170.418 138.101 172.782H138.102Z" fill="#FEF1DA"/>
<path d="M140.481 174.195C142.294 175.168 144.512 176.193 146.5 177.014C147.614 177.045 148.524 176.973 148.844 176.726C149.878 175.928 148.043 173.852 148.043 173.852C148.043 173.852 143.792 174.511 143.585 172.383C143.449 170.975 143.427 169.371 143.43 168.449C143.162 168.227 142.934 168.005 142.736 167.773L141.575 167.92C141.575 167.92 140.831 171.772 140.481 174.195Z" fill="#FAE2C0"/>
<path d="M167.336 169.399V179.53L165.969 180.708L164.863 181.66L163.114 183.168L158.631 179.047L163.114 173.037L164.724 171.649L165.969 170.577L167.336 169.399Z" fill="#7F3C05"/>
<path d="M167.336 169.399L165.969 170.577L164.724 171.649L163.114 173.037L157.205 176.292L145.748 173.037L147.356 171.649L148.638 170.545L149.968 169.399H167.336Z" fill="#D69551"/>
<path d="M145.747 173.037H163.115V183.168H145.747V173.037Z" fill="#B2652F"/>
<path d="M165.971 170.544V180.707L164.865 181.66V171.649H147.357L148.64 170.544H165.971Z" fill="#F6C73B"/>
<path d="M165.971 170.564V180.708L164.865 181.66V171.772L164.875 171.66L165.971 170.564Z" fill="#DE9C00"/>
<path d="M145.747 174.911V183.168H157.99C157.574 182.549 157.019 181.839 156.821 181.071C156.23 178.767 153.246 179.83 153.955 178.854C154.664 177.88 152.301 177.318 149.345 176.431C146.963 175.715 146.021 175.116 145.745 174.911H145.747Z" fill="#A05827"/>
<path d="M133.247 229.536C133.258 230.429 133.287 231.241 133.341 231.886C133.344 231.93 133.348 231.973 133.353 232.014C133.43 232.848 133.555 233.369 133.745 233.369C134.69 233.369 147.574 233.516 147.574 233.516C147.56 233.001 147.426 232.549 147.203 232.148C147.199 232.14 147.196 232.132 147.191 232.125C146.773 231.388 146.051 230.827 145.209 230.384C144.809 230.173 144.382 229.989 143.947 229.824C142.045 229.104 140.003 228.767 139.466 228.28C139.375 228.198 139.328 228.113 139.331 228.019C139.36 226.836 140.425 220.365 140.425 220.365L133.48 220.483C133.48 220.483 133.203 225.735 133.249 229.533L133.247 229.536Z" fill="#EDA471"/>
<path d="M123.08 230.708C123.162 232.685 123.321 234.107 123.61 234.107C124.556 234.107 137.439 234.254 137.439 234.254C137.326 230.208 129.842 229.955 129.234 228.903C129.207 228.857 129.194 228.808 129.194 228.757C129.224 227.575 131.027 218.771 131.027 218.771L126.003 213.807L123.108 218.86C123.108 218.86 122.895 226.213 123.08 230.706V230.708Z" fill="#EDA471"/>
<path d="M133.247 229.536C133.258 230.429 133.287 231.241 133.341 231.886C133.344 231.93 133.348 231.973 133.353 232.014C133.43 232.848 133.555 233.369 133.745 233.369C134.69 233.369 147.574 233.516 147.574 233.516C147.56 233.001 147.426 232.549 147.203 232.148C147.199 232.14 147.196 232.132 147.191 232.125C146.773 231.388 146.051 230.827 145.209 230.384C144.809 230.173 144.382 229.989 143.947 229.824C142.045 229.104 140.003 228.767 139.466 228.28C138.667 228.712 136.057 229.96 133.249 229.534L133.247 229.536Z" fill="#003C06"/>
<path d="M133.341 231.886C133.344 231.93 133.348 231.973 133.353 232.015C133.43 232.848 133.555 233.369 133.745 233.369C134.69 233.369 147.574 233.516 147.574 233.516C147.56 233.001 147.426 232.549 147.203 232.148L133.342 231.885L133.341 231.886Z" fill="#160800"/>
<path d="M123.08 230.708C123.117 231.595 123.169 232.37 123.241 232.956C123.33 233.676 123.451 234.108 123.61 234.108C124.556 234.108 137.439 234.255 137.439 234.255C137.426 233.769 137.306 233.339 137.105 232.954C135.63 230.135 129.769 229.829 129.236 228.904C128.471 229.366 126.336 230.471 123.082 230.707L123.08 230.708Z" fill="#004F08"/>
<path d="M123.241 232.957C123.33 233.677 123.451 234.109 123.61 234.109C124.556 234.109 137.439 234.256 137.439 234.256C137.426 233.77 137.306 233.34 137.105 232.955H123.243L123.241 232.957Z" fill="#160800"/>
<path d="M141.103 222.999L141.25 226.928L131.943 227.106L132.001 222.466L141.398 222.821L141.103 222.999Z" fill="#004F08"/>
<path d="M133.303 221.758C133.274 221.965 131.323 227.342 131.323 227.342L121.72 226.81L121.66 220.96C121.66 220.96 126.063 212.154 126.24 212.272C126.418 212.39 133.303 221.757 133.303 221.757V221.758Z" fill="#004F08"/>
<path d="M137.689 149.825C138.109 150.784 138.858 151.601 138.711 152.762C138.475 154.624 142.611 151.137 142.611 151.137L142.311 148.49L142.048 146.159L141.933 145.139L140.223 145.205L138.89 145.257C138.89 145.257 138.241 145.73 137.56 147.828C137.305 148.617 137.438 149.246 137.691 149.825H137.689Z" fill="#491426"/>
<path d="M138.71 152.763C138.474 154.625 142.61 151.138 142.61 151.138L142.31 148.491C142.713 148.187 143.096 147.579 143.289 145.997C143.378 145.272 144.02 144.92 144.725 144.753C144.771 144.75 144.815 144.748 144.859 144.745C144.855 144.739 144.85 144.733 144.844 144.727C144.36 144.117 143.937 143.709 143.91 143.752C143.85 143.841 143.065 144.854 143.065 144.854C143.065 144.88 143.016 145.709 142.58 146.145C142.442 146.283 142.266 146.249 142.045 146.162C141.592 145.98 140.957 145.565 140.12 145.928C140.054 145.957 139.988 145.989 139.92 146.027C138.562 146.795 139.271 148.213 139.271 149.396C139.271 150.321 138.277 150.323 137.687 149.827C138.107 150.786 138.856 151.602 138.709 152.763H138.71Z" fill="#280B16"/>
<path d="M147.692 143.84L148.342 151.434C148.342 151.434 148.803 151.308 149.382 150.967C150.124 150.529 151.06 149.735 151.475 148.39C151.665 147.776 151.758 147.178 151.793 146.628C151.896 145.032 151.504 143.84 151.504 143.84C150.617 142.244 147.692 143.84 147.692 143.84Z" fill="#491426"/>
<path d="M148.519 150.222C148.613 150.455 148.983 150.781 149.382 150.967C150.123 150.528 151.059 149.735 151.474 148.39C151.664 147.775 151.758 147.178 151.793 146.628C151.738 146.985 151.626 147.348 151.415 147.593C150.854 148.243 150.941 145.347 150.587 145.17C150.233 144.992 148.844 145.14 148.637 146.706C148.43 148.272 148.401 149.926 148.519 150.222Z" fill="#280B16"/>
<path d="M136.538 154.285C136.538 154.285 137.069 154.787 137.572 155.999C138.074 157.211 141.271 160.731 142.033 160.993C142.361 161.105 142.609 161.185 142.796 161.232C142.739 160.764 142.659 160.339 142.552 159.945C142.41 159.664 142.284 159.346 142.22 159.003C142.157 158.674 142.151 158.32 142.24 157.951C142.284 157.764 142.341 157.592 142.407 157.432C142.661 156.817 143.061 156.379 143.485 156.068C144.361 155.425 145.342 155.322 145.342 155.322C145.342 155.322 142.949 143.089 141.501 147.492C140.752 149.772 139.447 151.512 138.364 152.661C137.852 153.205 137.389 153.615 137.057 153.888C136.735 154.153 136.538 154.288 136.538 154.288V154.285Z" fill="#EDA471"/>
<path d="M121.099 224.269L125.473 224.416C125.473 224.416 125.784 218.521 125.695 216.306L126.566 224.416C126.566 224.416 133.954 225.539 142.759 224.741C142.759 224.741 142.655 221.771 142.529 217.241C142.505 216.335 142.479 215.365 142.453 214.347C142.234 205.778 142.001 193.605 142.149 184.535C142.159 183.942 142.171 183.363 142.183 182.798C142.421 172.497 142.951 166.884 142.919 163.349C142.911 162.545 142.874 161.85 142.799 161.229C142.742 160.76 142.663 160.336 142.555 159.942C142.499 159.732 142.434 159.53 142.361 159.336C142.318 159.222 142.272 159.11 142.223 159C140.892 156.014 137.094 153.888 137.094 153.888C137.094 153.888 137.085 153.888 137.06 153.883C136.901 153.865 137.73 153.444 134.635 153.796C131.001 154.21 126.45 155.806 123.628 169.914C121.876 178.675 120.952 192.138 120.685 203.842C120.653 205.281 120.63 206.693 120.616 208.067C120.55 214.93 120.725 220.831 121.102 224.268L121.099 224.269Z" fill="#006E8C"/>
<path d="M147.885 181.558C147.885 181.558 150.515 183.42 153.175 183.479C153.659 183.49 154.088 183.392 154.455 183.222C154.645 183.135 154.818 183.031 154.973 182.911C155.168 182.763 155.335 182.594 155.474 182.416C155.545 182.324 155.609 182.231 155.664 182.136C155.797 181.909 155.886 181.678 155.928 181.457C155.946 181.356 155.955 181.26 155.955 181.166C155.95 180.725 155.722 180.382 155.237 180.325C155.183 180.319 155.126 180.316 155.067 180.318C153.61 180.342 152.471 179.867 152.113 179.697C152.035 179.66 151.993 179.637 151.993 179.637C151.993 179.637 152.038 179.611 152.107 179.568C152.231 179.49 152.435 179.352 152.603 179.202C152.94 178.9 153.129 178.548 152.229 178.516C150.633 178.456 150.043 178.634 150.043 178.634L147.886 181.558H147.885Z" fill="#EDA471"/>
<path d="M145.033 156.988C148.169 156.961 148.052 155.09 149.164 151.901C149.247 151.663 149.338 151.418 149.436 151.167C150.623 148.124 150.548 145.352 150.491 144.529C150.48 144.37 150.47 144.282 150.47 144.282C149.613 141.948 144.501 142.717 142.876 143.277C141.25 143.838 141.279 145.581 140.69 148.507C140.098 151.432 141.664 157.017 145.033 156.988Z" fill="#EDA471"/>
<path d="M136.805 153.96C138.253 157.062 142.36 159.337 142.36 159.337C142.627 158.243 142.345 157.565 142.345 157.565C142.279 157.523 142.214 157.48 142.15 157.436C139.707 155.783 138.147 152.872 138.147 152.872C137.704 152.843 137.334 153.192 137.095 153.502C136.911 153.742 136.804 153.958 136.804 153.958L136.805 153.96Z" fill="#FEF1DA"/>
<path d="M144.847 144.725C144.807 144.733 144.767 144.742 144.727 144.752C144.773 144.748 144.818 144.747 144.862 144.744C145.91 144.683 146.719 144.637 146.719 144.637C146.719 144.637 145.754 144.537 144.847 144.724V144.725Z" fill="#491426"/>
<path d="M139.626 150.073C139.626 150.073 140.187 149.631 141.517 148.891C141.754 148.759 142.036 148.696 142.31 148.489C142.713 148.186 143.096 147.578 143.289 145.995C143.378 145.271 144.02 144.918 144.725 144.751C144.201 144.782 143.625 144.817 143.066 144.852C141.612 144.944 140.273 145.039 140.245 145.079C140.241 145.087 140.231 145.131 140.219 145.205C140.196 145.347 140.161 145.603 140.12 145.925C139.936 147.349 139.625 150.073 139.625 150.073H139.626Z" fill="#491426"/>
<path d="M139.626 150.073C139.626 150.073 140.187 149.631 141.517 148.891C141.754 148.759 142.036 148.696 142.31 148.489C142.713 148.186 143.096 147.578 143.289 145.995C143.378 145.271 144.02 144.918 144.725 144.751C144.201 144.782 143.625 144.817 143.066 144.852C143.066 144.878 143.016 145.707 142.58 146.144C142.442 146.282 142.266 146.248 142.045 146.161C141.592 145.978 140.958 145.563 140.12 145.926C139.936 147.351 139.625 150.075 139.625 150.075L139.626 150.073Z" fill="#280B16"/>
<path d="M149.672 147.976C149.12 150.102 149.357 150.755 149.164 151.901C149.247 151.664 149.338 151.418 149.436 151.167C150.623 148.125 150.548 145.352 150.491 144.529C150.372 144.509 150.246 144.495 150.116 144.489C148.875 144.43 147.072 144.903 147.072 144.903C147.426 144.992 150.47 144.903 149.672 147.976Z" fill="#B24A27"/>
<path d="M138.578 145.579C146.89 144.427 151.985 145.671 151.985 145.671C151.985 145.671 152.241 143.547 151.674 142.006C151.624 141.867 151.566 141.732 151.5 141.603C151.371 141.352 151.206 141.13 151.01 140.931C150.003 139.909 148.186 139.529 146.348 139.27C144.295 138.982 140.269 139.515 139.4 141.121C139.341 141.231 139.296 141.347 139.267 141.468C139.022 142.527 138.834 143.702 138.716 144.522C138.625 145.154 138.578 145.577 138.578 145.577V145.579Z" fill="#47A920"/>
<path d="M138.578 145.578C146.89 144.426 151.985 145.67 151.985 145.67C151.985 145.67 152.241 143.547 151.674 142.006C151.736 142.812 151.273 143.801 148.758 143.988C145.02 144.265 140.376 144.241 138.717 144.524C138.627 145.157 138.579 145.58 138.579 145.58L138.578 145.578Z" fill="#399215"/>
<path d="M139.4 141.121C140.325 141.655 142.355 142.028 146.245 142.126C150.318 142.228 151.083 141.531 151.009 140.931C150.003 139.909 148.186 139.529 146.347 139.27C144.294 138.982 140.268 139.515 139.4 141.121Z" fill="#006E8C"/>
<path d="M142.408 157.428C142.663 156.814 143.062 156.376 143.487 156.065C143.554 155.599 143.645 154.839 143.645 154.654C143.645 154.418 140.896 151.876 140.896 151.876C139.893 155.213 141.806 156.973 142.408 157.428Z" fill="#B24A27"/>
<path d="M140.668 149.899C140.665 150.985 140.788 152.889 141.56 154.492C142.712 156.885 144.691 157.594 146.288 157.091C147.81 156.612 148.517 155.077 148.494 154.208C148.494 154.167 148.489 154.126 148.484 154.087C148.484 154.087 148.563 153.485 147.026 153.781C145.489 154.077 145.992 152.598 144.751 153.131C143.51 153.663 143.539 152.836 142.505 152.747C141.471 152.658 141.442 149.053 141.442 149.053L140.704 149.024C140.704 149.024 140.671 149.361 140.67 149.899H140.668Z" fill="#491426"/>
<path d="M140.668 149.899C140.665 150.985 140.788 152.889 141.56 154.491C142.712 156.884 144.691 157.594 146.288 157.091C147.81 156.612 148.517 155.077 148.494 154.208C148.055 154.965 147.009 156.426 145.476 156.426C143.408 156.426 144.382 155.363 142.551 154.21C140.719 153.057 140.69 149.896 140.69 149.896C140.69 149.896 140.684 149.896 140.67 149.899H140.668Z" fill="#280B16"/>
<path d="M140.119 148.993C140.459 150.161 141.313 150.94 142.027 150.732C142.74 150.524 143.044 149.41 142.705 148.241C142.365 147.074 141.512 146.294 140.798 146.502C140.084 146.711 139.781 147.824 140.119 148.993Z" fill="#EDA471"/>
<path d="M140.724 148.817C140.905 149.439 141.36 149.853 141.74 149.743C142.12 149.632 142.28 149.039 142.1 148.417C141.919 147.796 141.464 147.382 141.084 147.492C140.704 147.602 140.543 148.195 140.724 148.817Z" fill="#B24A27"/>
<path d="M151.178 179.672C151.181 179.743 151.241 179.799 151.312 179.799H151.318L151.998 179.77C152.049 179.767 152.09 179.738 152.111 179.697C152.033 179.66 151.992 179.637 151.992 179.637C151.992 179.637 152.036 179.611 152.105 179.568C152.081 179.528 152.036 179.502 151.986 179.505L151.306 179.534C151.232 179.537 151.175 179.6 151.178 179.674V179.672Z" fill="#B24A27"/>
<path d="M152.504 180.972C153.634 181.434 154.478 181.568 155.077 181.568C155.454 181.568 155.734 181.514 155.928 181.456C155.946 181.355 155.955 181.258 155.955 181.165C155.583 181.301 154.54 181.515 152.605 180.723C152.537 180.696 152.459 180.728 152.432 180.797C152.404 180.864 152.436 180.943 152.505 180.97L152.504 180.972Z" fill="#B24A27"/>
<path d="M152.522 181.794C153.542 182.313 154.555 182.421 155.217 182.421C155.31 182.421 155.396 182.419 155.474 182.414C155.545 182.323 155.609 182.229 155.664 182.134C155.551 182.143 155.404 182.149 155.232 182.149C154.598 182.149 153.617 182.05 152.645 181.555C152.579 181.521 152.499 181.547 152.465 181.613C152.432 181.679 152.458 181.759 152.524 181.792L152.522 181.794Z" fill="#B24A27"/>
<path d="M151.657 182.529C152.63 183.105 153.633 183.225 154.297 183.225C154.35 183.225 154.402 183.225 154.453 183.222C154.643 183.134 154.816 183.03 154.971 182.911C154.712 182.949 153.194 183.131 151.792 182.301C151.729 182.264 151.648 182.284 151.61 182.347C151.573 182.41 151.593 182.491 151.656 182.529H151.657Z" fill="#B24A27"/>
<path d="M136.805 153.96C138.253 157.062 142.36 159.337 142.36 159.337C142.627 158.243 142.345 157.565 142.345 157.565C142.279 157.523 142.214 157.48 142.15 157.436C141.89 158.692 140.151 157.477 138.504 155.717C137.372 154.507 137.13 153.825 137.096 153.502C136.912 153.742 136.805 153.958 136.805 153.958V153.96Z" fill="#FAE2C0"/>
<path d="M150.469 178.943C150.469 178.943 150.447 179.084 150.409 179.329C150.466 179.103 150.469 178.943 150.469 178.943Z" fill="#CB1814"/>
<path d="M129.993 169.546C131.027 176.164 133.333 178.528 138.532 181.75C140.159 182.758 141.319 183.706 142.148 184.535C142.157 183.942 142.169 183.363 142.181 182.797C142.419 172.497 142.949 166.883 142.917 163.349C142.828 165.744 142.454 168.59 141.224 169.31C139.005 170.608 138.356 157.577 134.456 155.864C130.555 154.15 130.053 157.814 130.053 157.814C130.053 157.814 128.959 162.926 129.993 169.544V169.546Z" fill="#47A920"/>
<path d="M129.978 164.064C130.28 165.779 130.514 167.266 130.737 168.541C131.182 171.098 131.582 172.798 132.376 173.751C132.702 174.142 133.093 174.407 133.583 174.552C133.779 174.61 133.986 174.656 134.196 174.689C136.091 174.969 138.398 174.083 138.554 171.21C138.568 170.954 138.565 170.681 138.543 170.393C138.534 170.284 138.524 170.172 138.51 170.059C138.494 169.938 138.478 169.814 138.456 169.687C138.447 169.635 138.438 169.583 138.429 169.529C138.409 169.423 138.39 169.316 138.37 169.206C137.486 164.172 136.938 154.934 133.583 154.992C130.156 155.052 128.826 157.503 129.978 164.063V164.064Z" fill="#FEF1DA"/>
<path d="M132.376 173.753C132.858 174.716 133.658 175.662 134.795 176.446C138.222 178.81 147.263 182.592 148.357 182.296C148.882 182.154 149.434 181.278 149.823 180.34C150.244 179.326 150.477 178.244 150.277 177.952C149.892 177.391 146.672 175.855 143.421 174.14C141.324 173.034 140.161 172.297 139.426 171.438C139.155 171.121 138.94 170.787 138.761 170.41C138.707 170.3 138.658 170.186 138.609 170.068C138.577 169.989 138.546 169.908 138.516 169.825C138.499 169.779 138.479 169.733 138.454 169.687C138.378 169.537 138.266 169.391 138.128 169.255C137.169 168.313 134.873 167.79 133.108 168.909C132.327 169.404 131.885 170.246 131.816 171.231C131.761 172.016 131.942 172.889 132.374 173.75L132.376 173.753Z" fill="#FEF1DA"/>
<path d="M130.736 168.542C131.181 171.099 131.581 172.8 132.375 173.753C132.857 174.716 133.657 175.661 134.794 176.446C138.221 178.81 147.262 182.592 148.356 182.296C148.882 182.154 149.433 181.278 149.822 180.34C149.159 180.944 147.814 181.275 145.09 180.095C141.018 178.33 137.032 177.485 134.193 174.69C133.325 173.835 132.563 172.798 131.941 171.496C131.9 171.409 131.859 171.321 131.817 171.234C131.393 170.323 131.036 169.417 130.734 168.542H130.736Z" fill="#FAE2C0"/>
<path d="M130.465 181.336C130.465 181.336 133.272 193.333 139.447 200.04C139.447 200.04 132.947 188.368 130.465 181.336Z" fill="#47A920"/>
<path d="M134.934 184.941C134.934 184.941 136.278 190.682 139.234 193.893C139.234 193.893 136.123 188.306 134.934 184.941Z" fill="#47A920"/>
<path d="M121.097 224.269L125.471 224.416C125.471 224.416 125.782 218.521 125.693 216.306L126.565 224.416C126.565 224.416 133.952 225.539 142.758 224.741C142.758 224.741 142.654 221.771 142.528 217.241C142.504 216.335 142.477 215.365 142.451 214.347C141.682 216.349 140.299 218.327 137.852 219.629C131.66 222.926 122.357 213.385 120.682 203.842C120.65 205.281 120.627 206.693 120.613 208.067C120.548 214.93 120.722 220.831 121.099 224.268L121.097 224.269Z" fill="#FEF1DA"/>
<path d="M138.51 170.061C138.545 170.064 138.579 170.067 138.611 170.07C138.579 169.991 138.549 169.909 138.518 169.827C138.501 169.781 138.481 169.735 138.457 169.689C138.447 169.637 138.438 169.585 138.429 169.531C138.409 169.425 138.391 169.318 138.371 169.208C138.29 169.222 138.208 169.238 138.13 169.257C137.171 169.49 136.47 170.089 137.292 170.047C137.827 170.021 138.228 170.035 138.512 170.06L138.51 170.061Z" fill="#FAE2C0"/>
<path d="M136.465 171.279C137.209 171.071 137.945 171.101 138.555 171.211C138.89 171.273 139.187 171.357 139.428 171.44C139.157 171.123 138.942 170.789 138.763 170.412C138.689 170.404 138.617 170.398 138.544 170.395C136.575 170.305 134.787 171.749 136.465 171.279Z" fill="#FAE2C0"/>
<path d="M174.684 234.614H187.741L187.816 233.481L187.825 233.352L188.243 227.073L190.584 191.962L182.373 191.121L182.881 227.014L182.917 229.467L182.926 230.086C182.926 230.086 181.087 230.316 179.148 230.938C178.739 231.069 178.325 231.216 177.924 231.383C176.758 231.869 175.692 232.511 175.12 233.35C174.862 233.73 174.704 234.15 174.685 234.613L174.684 234.614Z" fill="#EDA471"/>
<path d="M177.922 231.385C178.803 231.426 181.488 231.722 183.662 233.729L185.084 233.816C185.084 233.816 182.38 231.155 179.145 230.939C178.736 231.071 178.322 231.218 177.922 231.385Z" fill="#160800"/>
<path d="M182.881 227.015L182.916 229.467C187.622 229.498 187.484 232.681 187.155 234.189C187.12 234.351 187.081 234.495 187.048 234.613H187.742L187.817 233.48L187.826 233.351L188.244 227.071C187.423 226.888 185.284 226.909 182.881 227.013V227.015Z" fill="#B24A27"/>
<path d="M174.683 234.614H187.74L187.824 233.352H175.12C174.861 233.732 174.703 234.151 174.685 234.614H174.683Z" fill="#160800"/>
<path d="M186.67 235.583L199.722 235.242L199.739 234.836L199.75 234.576L199.787 233.666L199.98 228.912L200.075 226.558L201.455 192.535L193.225 191.908L194.676 227.993L194.71 228.814L194.771 230.326L194.786 230.708L194.793 230.846C194.793 230.846 192.312 231.223 190.094 232.157C189.688 232.329 189.291 232.519 188.919 232.727C188.747 232.823 188.582 232.925 188.424 233.029C188.208 233.171 188.006 233.321 187.821 233.481C187.574 233.692 187.358 233.917 187.182 234.158C187.174 234.169 187.167 234.179 187.159 234.19C187.062 234.326 186.977 234.467 186.906 234.614C186.762 234.916 186.679 235.238 186.675 235.583H186.67Z" fill="#EDA471"/>
<path d="M195.055 228.878C194.994 228.869 194.874 228.845 194.707 228.811L194.768 230.323C199.638 229.897 199.251 234.847 199.251 234.847C199.429 234.81 199.594 234.715 199.749 234.576L199.785 233.666L199.979 228.912C199.807 228.915 199.623 228.915 199.429 228.909C198.483 228.88 195.617 228.969 195.055 228.88V228.878Z" fill="#B24A27"/>
<path d="M161.449 185.088C161.455 185.174 161.471 185.263 161.497 185.353C161.559 185.577 161.68 185.809 161.852 186.027C161.915 186.107 161.984 186.185 162.059 186.258C162.307 186.505 162.624 186.719 162.995 186.86C163.14 186.916 163.294 186.96 163.456 186.989C163.782 187.05 164.139 187.056 164.521 186.986C167.088 186.508 169.342 184.287 169.342 184.287L166.788 181.794C166.788 181.794 166.188 181.716 164.651 182.026C163.369 182.284 164.51 182.844 164.922 183.021C165.003 183.057 165.057 183.076 165.057 183.076C165.057 183.076 165.02 183.106 164.95 183.153C164.628 183.375 163.602 184.014 162.186 184.221C161.641 184.3 161.417 184.654 161.448 185.085L161.449 185.088Z" fill="#EDA471"/>
<path d="M165.257 183.22C165.479 183.22 165.831 183.162 166.246 182.879C166.308 182.837 166.323 182.755 166.282 182.693C166.24 182.632 166.157 182.617 166.096 182.658C165.514 183.055 165.103 182.942 165.087 182.937C165.016 182.917 164.943 182.955 164.921 183.026C164.9 183.096 164.938 183.17 165.008 183.191C165.018 183.194 165.106 183.22 165.257 183.22Z" fill="#B24A27"/>
<path d="M161.449 185.088C161.455 185.174 161.47 185.262 161.496 185.353C161.994 185.338 163.449 185.209 164.742 184.264C164.802 184.221 164.814 184.136 164.771 184.078C164.728 184.019 164.644 184.006 164.586 184.049C163.327 184.97 161.87 185.076 161.449 185.086V185.088Z" fill="#B24A27"/>
<path d="M161.854 186.028C161.916 186.108 161.985 186.186 162.06 186.26C162.537 186.165 163.732 185.87 164.796 185.186C164.858 185.146 164.876 185.063 164.836 185.002C164.796 184.941 164.714 184.922 164.652 184.962C163.485 185.714 162.116 185.982 161.854 186.028Z" fill="#B24A27"/>
<path d="M162.997 186.862C163.142 186.917 163.296 186.961 163.458 186.991C164.181 186.741 165.488 186.215 166.012 185.538C166.056 185.48 166.045 185.397 165.987 185.351C165.929 185.307 165.846 185.318 165.8 185.376C165.214 186.134 163.456 186.719 162.995 186.862H162.997Z" fill="#B24A27"/>
<path d="M176.437 174.471C176.713 175.236 177.194 175.778 177.774 176.135C178.764 176.743 180.042 176.807 181.076 176.498C181.497 176.372 181.843 176.156 182.139 175.847C182.69 175.268 183.057 174.359 183.369 173.088C183.777 171.43 184.095 169.157 184.615 166.197C185.747 159.755 184.44 157.349 181.076 157.29C180.066 157.273 179.316 158.113 178.735 159.429C178.352 160.298 178.043 161.374 177.781 162.548C177.12 165.523 176.771 169.125 176.318 171.565C176.262 171.861 176.226 172.141 176.206 172.409C176.2 172.495 176.193 172.579 176.19 172.662C176.163 173.368 176.255 173.967 176.437 174.471Z" fill="#49BC1D"/>
<path d="M166.818 182.594C167.346 183.697 168.299 185.008 169.001 185.08C170.107 185.194 178.271 180.097 181.218 177.264C181.589 176.907 181.909 176.536 182.18 176.157C182.909 175.139 183.289 174.068 183.369 173.088C183.495 171.533 182.86 170.208 181.658 169.695C181.554 169.65 181.45 169.61 181.344 169.577C180.23 169.212 179.06 169.39 178.153 169.816C177.296 170.217 176.677 170.841 176.563 171.438C176.486 171.839 176.385 172.198 176.244 172.538C176.227 172.579 176.209 172.621 176.19 172.661C176.039 172.999 175.843 173.319 175.588 173.646C175.521 173.733 175.449 173.819 175.372 173.908C175.297 173.993 175.219 174.079 175.136 174.167C174.533 174.799 173.689 175.493 172.494 176.396C169.615 178.571 166.737 180.57 166.453 181.174C166.349 181.394 166.514 181.96 166.818 182.594Z" fill="#49BC1D"/>
<path d="M166.817 182.594C167.346 183.697 168.299 185.008 169 185.08C170.106 185.194 178.27 180.097 181.218 177.264C181.588 176.907 181.909 176.537 182.18 176.157C182.166 176.056 182.152 175.951 182.137 175.847C181.89 174.03 181.607 171.752 181.342 169.577C180.865 165.66 180.456 162.07 180.456 162.07C180.456 162.07 179.925 160.002 179.54 159.706C179.404 159.601 179.088 159.495 178.733 159.429C178.35 160.298 178.04 161.375 177.778 162.548C177.716 164.299 177.729 166.969 178.151 169.817C178.218 170.275 178.296 170.737 178.387 171.201C178.88 173.738 178.515 175.199 177.771 176.134C176.913 177.214 175.551 177.592 174.426 178.114C172.329 179.089 173.481 179.711 171.442 179.947C169.403 180.183 171.088 180.981 168.576 181.75C167.71 182.015 167.157 182.304 166.814 182.594H166.817Z" fill="#409C1C"/>
<path d="M181.907 228.666C181.907 228.666 186.549 230.321 189.684 228.666L192.392 199.265L193.107 191.499L182.371 191.123L181.935 226.388L181.907 228.668V228.666Z" fill="#395C7C"/>
<path d="M192.4 227.358C192.413 228.204 192.431 228.749 192.454 228.913C192.685 230.48 201.042 229.61 201.042 229.61L201.131 227.304L202.605 189.33L202.652 188.106L192.584 190.804C192.584 190.804 192.393 210.078 192.378 221.232C192.374 223.831 192.379 225.99 192.399 227.36L192.4 227.358Z" fill="#395C7C"/>
<path d="M181.907 228.666C181.907 228.666 186.549 230.32 189.684 228.666L192.392 199.264L192.412 198.926L192.041 193.45C192.041 193.45 189.618 223.915 187.934 226.574C186.681 228.554 183.511 228.552 181.937 226.387L181.909 228.667L181.907 228.666Z" fill="#1E3C60"/>
<path d="M192.399 227.358C192.411 228.203 192.43 228.749 192.453 228.913C192.684 230.48 201.041 229.61 201.041 229.61L201.13 227.304L202.604 189.33C202.355 189.134 202.078 189.393 201.761 190.497C201.761 190.497 200.756 217.031 200.46 223.326C200.198 228.916 194.481 229.005 192.398 227.359L192.399 227.358Z" fill="#1E3C60"/>
<path d="M194.052 193.184C194.052 193.184 194.052 205.739 193.935 209.714C193.817 213.69 196.683 211.061 197.924 204.354C199.165 197.647 198.366 189.668 198.366 189.668L194.052 193.184Z" fill="#4781A7"/>
<path d="M184.211 190.556C184.211 190.556 183.443 204.029 183.591 208.963C183.738 213.898 185.777 211.091 187.313 199.686C188.85 188.281 187.313 188.516 187.313 188.516L184.211 190.556Z" fill="#4781A7"/>
<path d="M182.576 161.352C185.708 161.177 190.67 155.055 188.146 154.098C185.621 153.14 184.49 150.414 184.49 150.414C184.49 150.414 180.815 152.958 181.109 155.458C181.128 155.615 181.162 155.771 181.212 155.926C181.437 156.607 181.428 157.309 181.344 157.974C181.105 159.884 180.252 161.48 182.576 161.35V161.352Z" fill="#EDA471"/>
<path d="M181.213 155.927C181.438 156.609 181.429 157.311 181.345 157.975L181.789 158.112C181.789 158.112 183.001 158.437 183.975 156.457C184.949 154.478 183.975 152.321 183.975 152.321C183.975 152.321 181.523 154.478 181.345 154.596C181.287 154.634 181.199 154.994 181.107 155.46C181.126 155.616 181.159 155.773 181.21 155.927H181.213Z" fill="#B24A27"/>
<path d="M181.683 192.499C181.659 192.49 181.647 192.484 181.647 192.484C181.647 192.484 181.686 193.242 181.683 192.499Z" fill="#F5C535"/>
<path d="M181.502 185.086C181.64 189.918 181.68 191.827 181.683 192.501C182.423 192.806 194.436 197.594 203.262 190.454C203.262 190.454 203.23 189.696 203.15 188.416C202.833 183.324 201.756 169.956 198.88 163.093C195.283 154.505 190.887 154.694 187.463 153.765C187.463 153.765 186.998 157.914 184.503 158.988C182.007 160.061 181.37 156.783 181.37 156.783C181.37 156.783 179.532 157.548 178.948 158.741C178.587 159.479 178.41 160.431 178.37 161.549C178.173 167.059 181.261 176.645 181.502 185.086Z" fill="#006E8C"/>
<path d="M175.201 152.189C176.383 155.493 179.373 157.447 181.879 156.55C184.387 155.654 185.461 152.249 184.28 148.944C183.877 147.817 183.263 146.845 182.529 146.093C182.045 145.597 181.51 145.194 180.948 144.903C179.866 144.342 178.688 144.195 177.602 144.584C177.188 144.731 176.813 144.949 176.481 145.222C175.416 146.096 174.791 147.553 174.727 149.205C174.688 150.159 174.838 151.179 175.2 152.19L175.201 152.189Z" fill="#EDA471"/>
<path d="M174.401 148.213C175.791 149.129 178.3 148.271 179.66 147.503C181.493 146.469 181.079 148.213 181.581 150.34C182.084 152.468 183.391 151.276 183.391 151.276C182.02 150.619 182.415 147.404 182.531 146.094C182.547 145.913 182.557 145.769 182.557 145.673C182.557 145.11 181.897 144.988 180.949 144.903C180.552 144.868 180.103 144.839 179.631 144.787C178.983 144.715 177.706 144.862 176.481 145.222C175.417 146.097 174.465 146.563 174.401 148.214V148.213Z" fill="#B24A27"/>
<path d="M172.218 147.251C173.756 149.079 177.063 148.209 179.53 146.758C181.996 145.307 181.734 147.686 181.821 149.63C181.909 151.575 182.808 152.532 183.33 151.72C183.827 150.948 183.589 150.438 183.565 150.389C184.639 152.273 186.321 153.836 187.654 150.384C188.43 148.376 188.628 145.673 187.932 143.837C187.471 142.619 186.616 141.782 185.276 141.779C185.163 141.779 185.046 141.785 184.927 141.796C183.327 141.955 182.235 141.404 181.149 140.802C179.655 139.973 178.169 139.048 175.381 139.736C174.669 139.912 174.064 140.16 173.557 140.462C170.631 142.197 170.909 145.693 172.219 147.251H172.218Z" fill="#4F152B"/>
<path d="M183.886 142.421C184.375 142.074 184.845 141.877 185.275 141.779C185.162 141.779 185.046 141.786 184.926 141.796C183.327 141.956 182.234 141.404 181.148 140.802C180.621 141.807 182.175 143.641 183.886 142.421Z" fill="#3A0F21"/>
<path d="M172.218 147.252C173.756 149.079 177.063 148.209 179.53 146.758C181.996 145.307 181.734 147.687 181.821 149.631C181.909 151.575 182.808 152.532 183.33 151.72C183.827 150.948 183.589 150.438 183.565 150.389C184.639 152.273 186.321 153.836 187.654 150.384C188.43 148.376 188.628 145.674 187.932 143.837C188.102 145.095 188.197 147.268 187.108 148.479C185.512 150.251 186.901 147.829 184.951 146.795C183.001 145.761 182.528 148.096 182.44 145.761C182.351 143.426 179.81 143.279 176.826 145.494C174.381 147.31 171.222 143.135 173.557 140.462C170.631 142.198 170.909 145.694 172.219 147.252H172.218Z" fill="#3A0F21"/>
<path d="M184.273 151.4C183.576 151.4 183.01 150.51 183.01 149.413C183.01 148.316 183.576 147.426 184.273 147.426C184.97 147.426 185.535 148.316 185.535 149.413C185.535 150.51 184.97 151.4 184.273 151.4Z" fill="#EDA471"/>
<path d="M184.273 150.466C183.905 150.466 183.606 149.995 183.606 149.414C183.606 148.832 183.905 148.361 184.273 148.361C184.642 148.361 184.941 148.832 184.941 149.414C184.941 149.995 184.642 150.466 184.273 150.466Z" fill="#B24A27"/>
<path d="M175.588 173.646C175.822 174.021 176.156 174.318 176.437 174.47C176.875 174.707 177.19 174.596 176.823 173.889C176.516 173.301 176.342 172.858 176.242 172.538C176.228 172.492 176.215 172.449 176.204 172.408C176.198 172.494 176.192 172.578 176.188 172.661C176.037 172.999 175.841 173.319 175.586 173.646H175.588Z" fill="#409C1C"/>
<path d="M175.135 174.166C175.668 175.669 177.342 176.313 176.529 175.662C175.885 175.147 175.522 174.321 175.372 173.907C175.297 173.993 175.219 174.079 175.136 174.166H175.135Z" fill="#409C1C"/>
<path d="M181.683 192.499C181.659 192.49 181.647 192.484 181.647 192.484C181.647 192.484 181.686 193.242 181.683 192.499Z" fill="#E5B02C"/>
<path d="M181.502 185.087C181.64 189.918 181.68 191.827 181.683 192.501C182.423 192.806 194.436 197.595 203.262 190.455C203.262 190.455 203.23 189.696 203.15 188.417C199.531 194.147 184.481 194.009 184.535 189.433C184.595 184.409 189.825 182.075 191.951 177.171C194.079 172.266 193.874 163.216 193.874 163.216C193.874 163.216 188.583 158.143 187.164 163.166C185.745 168.189 182.939 174.04 180.871 171.409C179.169 169.246 178.539 163.514 178.369 161.551C178.171 167.062 181.26 176.647 181.5 185.088L181.502 185.087Z" fill="#47A920"/>
<path d="M185.298 173.091C185.402 176.331 188.229 177.082 190.185 176.498C190.665 176.354 191.051 176.095 191.369 175.711C192.538 174.309 192.835 171.254 193.724 166.197C194.856 159.755 193.549 157.349 190.185 157.29C186.819 157.232 186.331 166.704 185.427 171.565C185.424 171.577 185.422 171.59 185.421 171.602C185.413 171.642 185.407 171.68 185.401 171.718C185.367 171.922 185.341 172.117 185.324 172.305C185.309 172.463 185.301 172.616 185.298 172.766C185.295 172.876 185.295 172.985 185.298 173.091Z" fill="#49BC1D"/>
<path d="M171.971 181.556C171.596 181.731 170.494 182.178 169.093 182.155C168.46 182.145 168.187 182.56 168.222 183.09C168.228 183.179 168.242 183.272 168.267 183.366C168.322 183.592 168.426 183.828 168.576 184.055C168.647 184.161 168.726 184.266 168.817 184.366C169.045 184.62 169.338 184.844 169.685 185.005C169.855 185.083 170.039 185.147 170.235 185.19C170.457 185.239 170.695 185.265 170.949 185.259C173.56 185.201 176.143 183.373 176.143 183.373L174.024 180.501C174.024 180.501 173.443 180.326 171.878 180.384C170.623 180.43 171.525 181.109 171.936 181.379L171.971 181.556Z" fill="#EDA471"/>
<path d="M175.681 184.1C176.755 184.389 185.632 180.676 188.998 178.355C190.113 177.586 190.898 176.656 191.373 175.711C191.484 175.489 191.578 175.266 191.656 175.046C192.246 173.361 191.869 171.728 190.653 170.957C188.741 169.745 186.195 170.496 185.476 171.594C185.449 171.636 185.424 171.677 185.403 171.72C185.38 171.764 185.36 171.81 185.343 171.856C185.279 172.032 185.21 172.199 185.136 172.359C185.058 172.527 184.974 172.687 184.88 172.841C184.785 172.998 184.681 173.149 184.566 173.295C183.852 174.202 182.7 174.945 180.526 176.092C177.888 177.483 175.269 178.756 174.227 179.466C174.008 179.614 173.859 179.738 173.795 179.835C173.418 180.386 174.607 183.81 175.681 184.1Z" fill="#49BC1D"/>
<path d="M175.681 184.1C176.755 184.389 185.633 180.676 188.998 178.355C190.376 177.405 191.247 176.213 191.656 175.046C190.824 176.071 189.299 177.379 186.517 178.559C181.279 180.78 175.381 184.451 174.227 179.466C174.008 179.614 173.86 179.738 173.795 179.835C173.418 180.386 174.607 183.81 175.681 184.1Z" fill="#409C1C"/>
<path d="M172.61 181.626C172.765 181.626 172.935 181.615 173.097 181.584C173.169 181.571 173.216 181.502 173.203 181.43C173.189 181.358 173.12 181.31 173.048 181.324C172.605 181.407 172.078 181.321 172.074 181.319C172.002 181.307 171.933 181.356 171.92 181.428C171.908 181.5 171.957 181.569 172.029 181.581C172.045 181.584 172.297 181.626 172.61 181.626Z" fill="#B24A27"/>
<path d="M168.224 183.09C168.23 183.179 168.244 183.273 168.269 183.366C168.396 183.383 168.604 183.403 168.885 183.403C169.508 183.403 170.49 183.306 171.743 182.865C171.812 182.841 171.849 182.764 171.824 182.695C171.8 182.626 171.723 182.589 171.654 182.614C169.741 183.286 168.469 183.13 168.224 183.09Z" fill="#B24A27"/>
<path d="M168.576 184.056C168.646 184.161 168.726 184.267 168.816 184.366C168.924 184.38 169.061 184.393 169.228 184.393C169.803 184.393 170.725 184.261 171.932 183.657C171.998 183.623 172.024 183.544 171.992 183.48C171.96 183.414 171.88 183.388 171.814 183.42C169.817 184.419 168.646 184.066 168.634 184.062C168.614 184.056 168.594 184.054 168.576 184.057V184.056Z" fill="#B24A27"/>
<path d="M169.688 185.005C169.858 185.083 170.042 185.148 170.238 185.19C170.755 185.114 171.643 184.909 172.564 184.36C172.627 184.322 172.648 184.241 172.61 184.178C172.572 184.115 172.49 184.094 172.428 184.132C171.084 184.932 169.786 184.97 169.774 184.97C169.74 184.97 169.71 184.984 169.687 185.005H169.688Z" fill="#B24A27"/>
<path d="M185.325 172.307C187.29 171.809 189.21 172.577 187.963 171.939C187.004 171.449 186.002 171.509 185.473 171.593C185.455 171.596 185.438 171.599 185.421 171.602C185.414 171.642 185.408 171.68 185.401 171.719C185.378 171.763 185.359 171.809 185.342 171.855C185.277 172.031 185.208 172.198 185.135 172.358C185.198 172.339 185.262 172.321 185.325 172.305V172.307Z" fill="#409C1C"/>
<path d="M184.565 173.295C184.817 173.2 185.065 173.136 185.299 173.091C186.37 172.891 187.145 173.125 186.604 172.885C186.205 172.707 185.702 172.714 185.298 172.767C185.138 172.786 184.994 172.816 184.878 172.84C184.783 172.996 184.679 173.148 184.564 173.294L184.565 173.295Z" fill="#409C1C"/>
<path d="M186.671 235.583L199.723 235.243L199.787 233.665L195.196 233.844L194.1 233.887L187.179 234.158C186.867 234.584 186.68 235.059 186.672 235.583H186.671Z" fill="#160800"/>
<path d="M188.916 232.726C190.049 232.727 192.388 232.868 194.099 233.887C194.284 233.997 194.464 234.118 194.632 234.251L195.561 234.193C195.561 234.193 195.438 234.052 195.194 233.844C194.491 233.243 192.779 232.084 190.091 232.154C189.685 232.326 189.289 232.514 188.916 232.724V232.726Z" fill="#160800"/>
<path d="M213.1 233.085H247.037C248.358 231.293 247.768 230.265 247.246 229.789C246.995 229.559 246.759 229.455 246.759 229.455C246.759 229.455 246.995 228.748 246.854 227.984C246.777 227.572 246.592 227.143 246.199 226.801C245.083 225.824 244.245 226.801 244.245 226.801C244.245 226.801 244.384 222.89 241.591 223.449C239.208 223.926 239.062 226.132 239.07 226.769C239.033 226.265 238.831 224.82 237.68 224.706C236.283 224.566 236.283 226.103 236.283 226.103C236.283 226.103 235.724 222.751 233.21 223.31C232.076 223.561 231.511 224.695 231.231 225.864C230.891 227.284 230.975 228.756 230.975 228.756C230.975 228.756 230.889 228.272 230.681 227.768C230.426 227.154 229.99 226.509 229.299 226.662C228.043 226.941 227.902 228.617 227.902 228.617C227.902 228.617 227.343 224.706 224.829 225.125C223.821 225.292 223.35 226.025 223.151 226.84C222.891 227.903 223.087 229.107 223.14 229.392C223.071 229.09 222.71 227.811 221.477 228.058C221.036 228.145 220.72 228.346 220.495 228.577C220.006 229.079 219.94 229.733 219.94 229.733C219.94 229.733 218.692 227.097 216.746 228.188C216.74 228.191 216.734 228.194 216.728 228.197C214.773 229.314 215.89 231.828 215.89 231.828C214.532 231.515 213.642 232.373 213.282 232.825C213.16 232.978 213.097 233.085 213.097 233.085H213.1Z" fill="#668E0A"/>
<path d="M239.619 228.975C239.642 229.21 239.688 229.446 239.754 229.675C239.751 229.438 239.708 229.202 239.619 228.975Z" fill="#0F682E"/>
<path d="M213.1 233.086H247.037C248.358 231.293 247.768 230.265 247.246 229.789C247.172 230.201 246.976 230.586 246.656 230.854C246.075 231.342 245.084 231.312 244.625 230.708C244.755 231.191 244.343 231.682 243.863 231.826C243.385 231.97 242.872 231.86 242.385 231.75C241.78 231.613 241.155 231.466 240.661 231.09C240.208 230.742 239.914 230.23 239.753 229.676C239.761 230.514 239.269 231.364 238.526 231.785C237.57 232.324 236.324 232.197 235.399 231.61C234.869 231.761 234.336 231.912 233.804 232.062C233.61 232.117 233.412 232.174 233.208 232.171C233.041 232.171 232.876 232.127 232.718 232.07C231.793 231.736 231.087 230.857 230.964 229.881C230.874 230.756 230.191 231.517 229.349 231.773C228.507 232.029 227.554 231.797 226.875 231.238C226.016 232.507 224.053 232.508 222.741 231.721C221.978 232.344 220.911 232.384 219.926 232.398C219.144 232.407 218.364 232.419 217.581 232.428C216.147 232.448 214.664 232.479 213.287 232.827C213.164 232.98 213.102 233.087 213.102 233.087L213.1 233.086Z" fill="#0F682E"/>
<path d="M231.232 225.864C231.337 225.658 231.462 225.461 231.598 225.275C232.05 224.658 232.796 224.125 233.533 224.333C233.807 224.41 234.043 224.58 234.271 224.748C234.722 225.078 235.18 225.412 235.552 225.83C235.897 226.215 236.165 226.663 236.339 227.149C236.699 226.602 237.32 225.976 237.9 226.282C238.122 226.4 238.259 226.63 238.384 226.847C238.597 227.218 238.81 227.59 239.025 227.961C239.261 227.069 239.933 226.372 240.578 225.714C240.88 225.407 241.191 225.095 241.583 224.92C241.975 224.747 242.475 224.742 242.798 225.023C243.106 225.289 243.183 225.724 243.265 226.121C243.412 226.817 243.636 227.495 243.933 228.14C244.335 227.555 245.094 227.238 245.791 227.367C246.202 227.442 246.579 227.668 246.852 227.984C246.775 227.572 246.59 227.143 246.197 226.801C245.081 225.824 244.243 226.801 244.243 226.801C244.243 226.801 244.382 222.89 241.589 223.449C239.206 223.926 239.06 226.132 239.068 226.769C239.031 226.265 238.829 224.82 237.678 224.706C236.281 224.566 236.281 226.103 236.281 226.103C236.281 226.103 235.722 222.751 233.208 223.31C232.074 223.561 231.509 224.695 231.229 225.864H231.232Z" fill="#8EAE0D"/>
<path d="M223.156 226.838C223.506 226.449 223.787 225.961 224.288 225.863C224.732 225.775 225.162 226.04 225.539 226.295C225.947 226.57 226.363 226.854 226.656 227.249C226.869 227.537 227.007 227.871 227.142 228.202C227.407 228.848 227.672 229.493 227.938 230.14C228.026 229.539 228.232 228.957 228.545 228.436C228.775 228.05 229.083 227.686 229.501 227.517C229.902 227.356 230.42 227.43 230.684 227.768C230.429 227.154 229.993 226.509 229.302 226.662C228.046 226.941 227.905 228.617 227.905 228.617C227.905 228.617 227.345 224.706 224.832 225.126C223.823 225.293 223.353 226.025 223.154 226.84L223.156 226.838Z" fill="#8EAE0D"/>
<path d="M216.749 228.188C217.132 228.213 217.502 228.315 217.817 228.531C218.102 228.727 218.323 229.001 218.539 229.271C218.764 229.551 218.989 229.832 219.213 230.115C219.461 230.426 219.714 230.742 219.867 231.111C219.867 230.362 219.973 229.6 220.3 228.925C220.357 228.807 220.425 228.689 220.498 228.577C220.009 229.08 219.943 229.734 219.943 229.734C219.943 229.734 218.695 227.097 216.749 228.188Z" fill="#8EAE0D"/>
<path d="M163.522 233.085H166.036C166.036 233.085 165.618 226.66 170.645 224.566C170.645 224.566 163.522 222.89 163.522 233.085Z" fill="#8EAE0D"/>
<path d="M165.136 233.044H167.989C167.989 233.044 169.663 229.177 173.014 230.429C172.893 230.334 167.561 226.241 165.135 233.044H165.136Z" fill="#0F682E"/>
<path d="M157.376 228.058C161.287 228.058 161.287 233.086 161.287 233.086H164.639C163.951 225.38 157.57 227.977 157.38 228.056C157.377 228.056 157.376 228.056 157.376 228.056V228.058Z" fill="#648C08"/>
<path d="M166.689 233.044H167.991C167.991 233.044 169.665 229.177 173.016 230.429C172.896 230.365 168.934 228.269 166.733 232.945C166.718 232.978 166.702 233.012 166.689 233.044Z" fill="#0C5121"/>
<path d="M157.377 228.058C161.288 228.058 161.288 233.086 161.288 233.086H163.215C161.942 226.93 157.536 228.016 157.381 228.056C157.378 228.056 157.377 228.056 157.377 228.056V228.058Z" fill="#526D07"/>
<path d="M165.198 233.085H166.036C166.036 233.085 165.618 226.66 170.645 224.566C170.645 224.566 164.08 225.264 165.198 233.085Z" fill="#648C08"/>
<path d="M75.0966 225.809C71.3862 225.518 67.6589 225.533 63.9378 225.55C62.6249 225.556 61.2983 225.564 60.0191 225.856C59.7157 225.925 59.4032 226.019 59.175 226.23C58.9467 226.442 58.8287 226.805 58.985 227.074C59.0585 227.201 59.1872 227.302 59.2133 227.448C59.2592 227.707 58.9636 227.885 58.7138 227.973C58.1133 228.186 57.499 228.356 56.8755 228.485C56.6396 228.533 56.3776 228.591 56.2428 228.79C56.085 229.023 56.1815 229.357 56.3853 229.551C56.5875 229.746 56.8679 229.833 57.1375 229.911C60.2198 230.805 63.4001 231.318 66.5881 231.688C66.9818 231.734 67.4 231.774 67.7601 231.607C68.1201 231.439 68.3759 230.982 68.1844 230.634C68.0343 230.359 67.662 230.233 67.5762 229.931C67.5088 229.692 67.662 229.433 67.875 229.305C68.0879 229.176 68.3437 229.147 68.5919 229.129C70.5819 228.975 72.575 229.25 74.565 229.398C75.5684 229.472 76.6699 229.485 77.4619 228.867C77.6902 228.689 77.8832 228.458 77.9797 228.185C78.2157 227.511 77.7806 226.748 77.1678 226.383C76.555 226.019 75.812 225.96 75.0981 225.933V225.813L75.0966 225.809Z" fill="#B35D22"/>
<path d="M81.3743 228.707C81.6133 228.749 81.8799 228.814 82.0009 229.023C82.1786 229.331 81.9029 229.724 81.575 229.867C81.2487 230.009 80.8734 230.009 80.5471 230.155C80.2208 230.299 79.9512 230.7 80.1365 231.004C80.1978 231.103 80.3004 231.183 80.3142 231.298C80.3341 231.477 80.1319 231.592 79.9604 231.644C77.8432 232.286 75.5912 231.03 73.3898 231.253C72.7326 231.321 72.0922 231.52 71.4319 231.552C70.7732 231.586 70.0869 231.439 69.5675 231.034C69.0191 230.607 68.6683 229.911 68.0203 229.657C67.7951 229.568 67.5469 229.541 67.3324 229.43C67.118 229.32 66.9356 229.079 67.0031 228.848C67.0858 228.568 67.4427 228.499 67.7353 228.48C69.589 228.37 71.4473 228.353 73.304 228.364C75.0228 228.373 76.6958 228.212 78.4131 228.338C79.4058 228.41 80.3939 228.534 81.3728 228.706L81.3743 228.707Z" fill="#E28333"/>
<path d="M154.672 254.453C151.78 254.453 149.435 253.765 149.435 252.917C149.435 252.068 151.78 251.38 154.672 251.38C157.565 251.38 159.91 252.068 159.91 252.917C159.91 253.765 157.565 254.453 154.672 254.453Z" fill="#B35D22"/>
<path d="M232.114 244.676C230.802 244.676 229.739 244.114 229.739 243.42C229.739 242.726 230.802 242.164 232.114 242.164C233.425 242.164 234.488 242.726 234.488 243.42C234.488 244.114 233.425 244.676 232.114 244.676Z" fill="#B35D22"/>
<path d="M192.311 256.618C192.311 257.197 193.281 257.666 194.476 257.666C195.671 257.666 196.641 257.197 196.641 256.618C196.641 256.039 195.671 255.57 194.476 255.57C193.281 255.57 192.311 256.039 192.311 256.618Z" fill="#B35D22"/>
<path d="M100.974 250.124C99.5859 250.124 98.4604 249.687 98.4604 249.147C98.4604 248.607 99.5859 248.169 100.974 248.169C102.363 248.169 103.488 248.607 103.488 249.147C103.488 249.687 102.363 250.124 100.974 250.124Z" fill="#B35D22"/>
<path d="M93.2925 225.544C92.1359 225.544 91.1984 225.231 91.1984 224.845C91.1984 224.459 92.1359 224.147 93.2925 224.147C94.4491 224.147 95.3867 224.459 95.3867 224.845C95.3867 225.231 94.4491 225.544 93.2925 225.544Z" fill="#B35D22"/>
<path d="M44.132 230.99C42.4348 230.99 41.0589 230.427 41.0589 229.733C41.0589 229.04 42.4348 228.477 44.132 228.477C45.8292 228.477 47.2051 229.04 47.2051 229.733C47.2051 230.427 45.8292 230.99 44.132 230.99Z" fill="#B35D22"/>
<path d="M60.263 241.603C58.6047 241.603 57.2604 241.26 57.2604 240.836C57.2604 240.412 58.6047 240.068 60.263 240.068C61.9213 240.068 63.2656 240.412 63.2656 240.836C63.2656 241.26 61.9213 241.603 60.263 241.603Z" fill="#B35D22"/>
<path d="M78.7691 245.584C78.7691 246.085 80.2383 246.493 82.0506 246.493C83.8629 246.493 85.332 246.087 85.332 245.584C85.332 245.082 83.8629 244.676 82.0506 244.676C80.2383 244.676 78.7691 245.082 78.7691 245.584Z" fill="#FFB583"/>
<path d="M224.293 250.122C222.288 250.122 220.662 249.56 220.662 248.866C220.662 248.172 222.288 247.61 224.293 247.61C226.298 247.61 227.924 248.172 227.924 248.866C227.924 249.56 226.298 250.122 224.293 250.122Z" fill="#FFB583"/>
<path d="M133.935 247.4C133.935 247.67 135.091 247.889 136.519 247.889C137.947 247.889 139.104 247.67 139.104 247.4C139.104 247.131 137.947 246.912 136.519 246.912C135.091 246.912 133.935 247.131 133.935 247.4Z" fill="#FFB583"/>
<path d="M173.738 257.735C173.738 258.159 175.332 258.502 177.3 258.502C179.267 258.502 180.861 258.159 180.861 257.735C180.861 257.31 179.267 256.967 177.3 256.967C175.332 256.967 173.738 257.31 173.738 257.735Z" fill="#FFB583"/>
<path d="M48.1824 223.309C48.1824 223.772 49.8706 224.147 51.9525 224.147C54.0344 224.147 55.7227 223.772 55.7227 223.309C55.7227 222.846 54.0344 222.471 51.9525 222.471C49.8706 222.471 48.1824 222.846 48.1824 223.309Z" fill="#FFB583"/>
<path d="M46.3681 247.539C46.3681 248.04 47.681 248.448 49.3003 248.448C50.9195 248.448 52.2324 248.042 52.2324 247.539C52.2324 247.037 50.9195 246.631 49.3003 246.631C47.681 246.631 46.3681 247.037 46.3681 247.539Z" fill="#FFB583"/>
<path d="M120.666 252.218C132.96 252.218 134.912 254.453 130.024 255.15C125.135 255.847 140.637 255.568 142.173 257.943C143.71 260.317 136.168 260.457 129.464 260.596C122.761 260.736 106.142 260.596 104.466 258.222C102.79 255.847 112.008 256.406 116.058 256.546C120.109 256.685 106.283 255.847 106.002 253.614C105.722 251.38 116.896 252.216 120.666 252.216V252.218Z" fill="#E28333"/>
<path d="M122.412 262.972C119.674 262.972 117.454 262.253 117.454 261.367C117.454 260.48 119.674 259.761 122.412 259.761C125.15 259.761 127.369 260.48 127.369 261.367C127.369 262.253 125.15 262.972 122.412 262.972Z" fill="#FFB583"/>
<path d="M86.4492 235.319C86.4492 235.627 88.1067 235.878 90.1504 235.878C92.194 235.878 93.8516 235.629 93.8516 235.319C93.8516 235.01 92.194 234.76 90.1504 234.76C88.1067 234.76 86.4492 235.01 86.4492 235.319Z" fill="#B35D22"/>
<path d="M90.9082 235.179H89.0346C89.0346 235.179 89.3471 230.392 85.6 228.831C85.6 228.831 90.9067 227.583 90.9067 235.179H90.9082Z" fill="#8EAE0D"/>
<path d="M89.7031 235.15H87.5768C87.5768 235.15 86.3297 232.269 83.8327 233.202C83.923 233.131 87.8954 230.081 89.7031 235.15Z" fill="#0F682E"/>
<path d="M95.4863 231.434C92.5725 231.434 92.5725 235.18 92.5725 235.18H90.0754C90.5887 229.438 95.3423 231.373 95.4833 231.432C95.4848 231.432 95.4863 231.432 95.4863 231.432V231.434Z" fill="#648C08"/>
<path d="M88.5488 235.15H87.5791C87.5791 235.15 86.3321 232.269 83.835 233.202C83.9239 233.154 86.8759 231.592 88.5151 235.075C88.5259 235.1 88.5381 235.126 88.5488 235.149V235.15Z" fill="#0C5121"/>
<path d="M95.4863 231.434C92.5725 231.434 92.5725 235.18 92.5725 235.18H91.1371C92.0869 230.593 95.3684 231.402 95.4833 231.433C95.4848 231.433 95.4863 231.433 95.4863 231.433V231.434Z" fill="#526D07"/>
<path d="M89.6579 235.179H89.0329C89.0329 235.179 89.3454 230.392 85.5982 228.831C85.5982 228.831 90.4898 229.352 89.6564 235.179H89.6579Z" fill="#648C08"/>
<path d="M47.7364 239.929C44.9308 239.929 42.6565 239.585 42.6565 239.162C42.6565 238.738 44.9308 238.394 47.7364 238.394C50.542 238.394 52.8164 238.738 52.8164 239.162C52.8164 239.585 50.542 239.929 47.7364 239.929Z" fill="#B35D22"/>
<path d="M48.7773 238.97H46.2067C46.2067 238.97 46.6357 232.399 41.4929 230.257C41.4929 230.257 48.7773 228.543 48.7773 238.97Z" fill="#8EAE0D"/>
<path d="M47.125 238.928H44.2066C44.2066 238.928 42.4939 234.972 39.0669 236.255C39.191 236.158 44.6432 231.971 47.1235 238.928H47.125Z" fill="#0F682E"/>
<path d="M55.0625 233.829C51.0626 233.829 51.0626 238.97 51.0626 238.97H47.634C48.3387 231.089 54.8633 233.744 55.0564 233.827C55.0594 233.827 55.061 233.827 55.061 233.827L55.0625 233.829Z" fill="#648C08"/>
<path d="M45.5391 238.928H44.2078C44.2078 238.928 42.4951 234.973 39.0681 236.255C39.1906 236.189 43.2411 234.046 45.4931 238.827C45.5084 238.861 45.5237 238.896 45.5391 238.928Z" fill="#0C5121"/>
<path d="M55.0625 233.829C51.0626 233.829 51.0626 238.97 51.0626 238.97H49.0909C50.3931 232.675 54.8986 233.786 55.0564 233.827C55.0594 233.827 55.061 233.827 55.061 233.827L55.0625 233.829Z" fill="#526D07"/>
<path d="M47.0644 238.97H46.208C46.208 238.97 46.6369 232.399 41.4942 230.257C41.4942 230.257 48.2072 230.971 47.0644 238.97Z" fill="#648C08"/>
<path d="M141.17 263.532C138.364 263.532 136.09 263.188 136.09 262.764C136.09 262.34 138.364 261.997 141.17 261.997C143.976 261.997 146.25 262.34 146.25 262.764C146.25 263.188 143.976 263.532 141.17 263.532Z" fill="#B35D22"/>
<path d="M142.209 262.572H139.638C139.638 262.572 140.067 256.002 134.925 253.86C134.925 253.86 142.209 252.146 142.209 262.572Z" fill="#8EAE0D"/>
<path d="M140.557 262.531H137.638C137.638 262.531 135.926 258.575 132.499 259.857C132.623 259.761 138.075 255.574 140.555 262.531H140.557Z" fill="#0F682E"/>
<path d="M148.494 257.431C144.494 257.431 144.494 262.573 144.494 262.573H141.066C141.77 254.692 148.295 257.347 148.488 257.43C148.491 257.43 148.493 257.43 148.493 257.43L148.494 257.431Z" fill="#648C08"/>
<path d="M138.971 262.531H137.639C137.639 262.531 135.927 258.576 132.5 259.858C132.622 259.792 136.673 257.649 138.925 262.43C138.94 262.464 138.957 262.499 138.971 262.531Z" fill="#0C5121"/>
<path d="M148.494 257.431C144.494 257.431 144.494 262.573 144.494 262.573H142.523C143.825 256.278 148.33 257.389 148.488 257.43C148.491 257.43 148.493 257.43 148.493 257.43L148.494 257.431Z" fill="#526D07"/>
<path d="M140.496 262.572H139.64C139.64 262.572 140.069 256.002 134.926 253.86C134.926 253.86 141.639 254.574 140.496 262.572Z" fill="#648C08"/>
<path d="M205.832 253.197C203.027 253.197 200.752 252.854 200.752 252.43C200.752 252.006 203.027 251.662 205.832 251.662C208.638 251.662 210.912 252.006 210.912 252.43C210.912 252.854 208.638 253.197 205.832 253.197Z" fill="#B35D22"/>
<path d="M206.871 252.238H204.3C204.3 252.238 204.729 245.667 199.587 243.526C199.587 243.526 206.871 241.811 206.871 252.238Z" fill="#8EAE0D"/>
<path d="M205.219 252.196H202.3C202.3 252.196 200.588 248.241 197.161 249.523C197.285 249.426 202.737 245.24 205.217 252.196H205.219Z" fill="#0F682E"/>
<path d="M213.156 247.095C209.156 247.095 209.156 252.236 209.156 252.236H205.728C206.432 244.356 212.957 247.011 213.15 247.093C213.153 247.093 213.155 247.093 213.155 247.093L213.156 247.095Z" fill="#648C08"/>
<path d="M203.633 252.197H202.302C202.302 252.197 200.589 248.241 197.162 249.524C197.284 249.458 201.335 247.314 203.587 252.096C203.602 252.129 203.619 252.165 203.633 252.197Z" fill="#0C5121"/>
<path d="M213.156 247.095C209.156 247.095 209.156 252.236 209.156 252.236H207.185C208.487 245.941 212.992 247.052 213.15 247.093C213.153 247.093 213.155 247.093 213.155 247.093L213.156 247.095Z" fill="#526D07"/>
<path d="M205.158 252.238H204.302C204.302 252.238 204.731 245.667 199.588 243.526C199.588 243.526 206.301 244.24 205.158 252.238Z" fill="#648C08"/>
<path d="M97.147 48.9673C97.36 49.4487 97.7519 49.8505 98.1836 50.1601C97.9848 49.6617 97.6099 49.2385 97.147 48.9673Z" fill="#94D2F9"/>
</g>
<defs>
<clipPath id="clip0_2652_29367">
<rect width="284" height="284" fill="white" transform="matrix(-1 0 0 1 284 0)"/>
</clipPath>
</defs>
</svg>
