<svg width="358" height="233" viewBox="0 0 358 233" fill="none" xmlns="http://www.w3.org/2000/svg">
<g opacity="0.4" clip-path="url(#clip0_2057_19506)">
<path d="M285.781 131.597C285.595 121.093 307.172 123.542 302.628 95.5333C299.616 76.9754 281.792 71.7286 264.194 68.9012C251.018 74.2168 241.639 87.9115 241.639 103.981C241.639 107.468 242.091 110.841 242.916 114.047C241.408 114.976 239.988 116.048 238.667 117.243C233.322 109.779 224.95 104.965 215.532 104.965C213.174 104.965 210.889 105.274 208.693 105.84C206.846 90.3505 194.583 78.3817 179.727 78.3817C179.467 78.3817 179.206 78.3965 178.946 78.4014C178.685 78.3916 178.425 78.3817 178.165 78.3817C163.308 78.3817 151.045 90.3505 149.198 105.84C147.002 105.27 144.718 104.965 142.359 104.965C132.941 104.965 124.57 109.779 119.225 117.243C117.903 116.048 116.478 114.976 114.975 114.047C115.8 110.846 116.252 107.472 116.252 103.981C116.252 87.9115 106.869 74.2168 93.6973 68.9012C76.0993 71.7286 58.2753 76.9705 55.2637 95.5333C50.7193 123.547 72.2967 121.093 72.11 131.597C71.9233 142.1 23.0401 130.299 27.0294 174.515C30.4045 211.926 76.9836 209.624 112.44 206.177C116.41 205.789 120.325 205.671 124.147 205.745C126.068 205.784 127.96 205.873 129.827 206.01C129.945 206.02 130.062 206.03 130.185 206.035C131.929 206.168 133.644 206.335 135.334 206.541C135.481 206.561 135.629 206.576 135.776 206.595C136.277 206.659 136.773 206.723 137.27 206.792C137.481 206.822 137.692 206.851 137.903 206.881C138.974 207.033 140.031 207.195 141.072 207.372C141.077 207.372 141.087 207.372 141.092 207.372C141.48 207.436 141.863 207.51 142.251 207.579C142.585 207.638 142.915 207.697 143.244 207.761C143.593 207.825 143.936 207.894 144.28 207.958C144.703 208.041 145.12 208.125 145.538 208.213C145.789 208.262 146.039 208.316 146.29 208.366C146.933 208.503 147.572 208.646 148.206 208.789C148.432 208.838 148.653 208.892 148.879 208.946C149.35 209.059 149.822 209.167 150.289 209.285C150.495 209.334 150.702 209.384 150.903 209.438C151.551 209.6 152.19 209.762 152.819 209.929H205.068C205.696 209.762 206.34 209.6 206.984 209.438C207.185 209.388 207.391 209.334 207.598 209.285C208.064 209.172 208.536 209.059 209.008 208.946C209.234 208.892 209.455 208.843 209.681 208.789C210.315 208.646 210.948 208.503 211.597 208.366C211.842 208.312 212.098 208.262 212.348 208.213C212.766 208.13 213.184 208.041 213.606 207.958C213.95 207.889 214.299 207.825 214.643 207.761C214.972 207.697 215.301 207.638 215.635 207.579C216.018 207.51 216.407 207.441 216.795 207.372C216.8 207.372 216.809 207.372 216.814 207.372C217.856 207.195 218.912 207.033 219.983 206.881C220.194 206.851 220.406 206.822 220.617 206.792C221.113 206.723 221.609 206.659 222.11 206.595C222.258 206.576 222.405 206.561 222.553 206.541C224.243 206.34 225.957 206.168 227.701 206.035C227.819 206.025 227.937 206.015 228.06 206.01C229.927 205.877 231.823 205.784 233.739 205.745C237.561 205.666 241.472 205.789 245.447 206.177C280.903 209.624 327.482 211.926 330.857 174.515C334.842 130.299 285.963 142.1 285.777 131.597H285.781Z" fill="#FCB63A"/>
<path d="M285.781 131.597C285.595 121.093 307.172 123.542 302.628 95.5333C299.616 76.9754 281.792 71.7286 264.194 68.9012C251.018 74.2168 241.639 87.9115 241.639 103.981C241.639 107.468 242.091 110.841 242.916 114.047C241.408 114.976 239.988 116.048 238.667 117.243C233.322 109.779 224.95 104.965 215.532 104.965C213.174 104.965 210.889 105.274 208.693 105.84C206.846 90.3505 194.583 78.3817 179.727 78.3817C179.467 78.3817 179.206 78.3965 178.946 78.4014C178.685 78.3916 178.425 78.3817 178.165 78.3817C163.308 78.3817 151.045 90.3505 149.198 105.84C147.002 105.27 144.718 104.965 142.359 104.965C132.941 104.965 124.57 109.779 119.225 117.243C117.903 116.048 116.478 114.976 114.975 114.047C115.8 110.846 116.252 107.472 116.252 103.981C116.252 87.9115 106.869 74.2168 93.6973 68.9012C76.0993 71.7286 58.2753 76.9705 55.2637 95.5333C50.7193 123.547 72.2967 121.093 72.11 131.597C71.9233 142.1 23.0401 130.299 27.0294 174.515C30.4045 211.926 76.9836 209.624 112.44 206.177C116.41 205.789 120.325 205.671 124.147 205.745C126.068 205.784 127.96 205.873 129.827 206.01C129.945 206.02 130.062 206.03 130.185 206.035C131.929 206.168 133.644 206.335 135.334 206.541C135.481 206.561 135.629 206.576 135.776 206.595C136.277 206.659 136.773 206.723 137.27 206.792C137.481 206.822 137.692 206.851 137.903 206.881C138.974 207.033 140.031 207.195 141.072 207.372C141.077 207.372 141.087 207.372 141.092 207.372C141.48 207.436 141.863 207.51 142.251 207.579C142.585 207.638 142.915 207.697 143.244 207.761C143.593 207.825 143.936 207.894 144.28 207.958C144.703 208.041 145.12 208.125 145.538 208.213C145.789 208.262 146.039 208.316 146.29 208.366C146.933 208.503 147.572 208.646 148.206 208.789C148.432 208.838 148.653 208.892 148.879 208.946C149.35 209.059 149.822 209.167 150.289 209.285C150.495 209.334 150.702 209.384 150.903 209.438C151.551 209.6 152.19 209.762 152.819 209.929H205.068C205.696 209.762 206.34 209.6 206.984 209.438C207.185 209.388 207.391 209.334 207.598 209.285C208.064 209.172 208.536 209.059 209.008 208.946C209.234 208.892 209.455 208.843 209.681 208.789C210.315 208.646 210.948 208.503 211.597 208.366C211.842 208.312 212.098 208.262 212.348 208.213C212.766 208.13 213.184 208.041 213.606 207.958C213.95 207.889 214.299 207.825 214.643 207.761C214.972 207.697 215.301 207.638 215.635 207.579C216.018 207.51 216.407 207.441 216.795 207.372C216.8 207.372 216.809 207.372 216.814 207.372C217.856 207.195 218.912 207.033 219.983 206.881C220.194 206.851 220.406 206.822 220.617 206.792C221.113 206.723 221.609 206.659 222.11 206.595C222.258 206.576 222.405 206.561 222.553 206.541C224.243 206.34 225.957 206.168 227.701 206.035C227.819 206.025 227.937 206.015 228.06 206.01C229.927 205.877 231.823 205.784 233.739 205.745C237.561 205.666 241.472 205.789 245.447 206.177C280.903 209.624 327.482 211.926 330.857 174.515C334.842 130.299 285.963 142.1 285.777 131.597H285.781Z" fill="url(#paint0_linear_2057_19506)"/>
<path d="M285.782 131.597C285.6 121.58 305.202 123.341 303.099 99.2606H302.987V103.224C302.987 103.224 294.32 115.148 282.185 120.882C268.056 127.56 276.015 145.218 286.366 145.218V147.48H276.811V153.818H278.304V157.895H272.433V157.909H271.932C271.932 154.221 270.871 151.384 269.348 149.215V147.494H267.918C267.147 146.698 266.317 146.019 265.477 145.444V124.786L267.854 121.846V115.783H264.799V114.116H261.993C261.993 114.116 265.27 113.319 266.145 108.028C266.282 107.212 266.361 106.287 266.361 105.24C266.361 97.4215 259.046 95.0514 259.046 95.0514V92.6813H256.206V95.0514C256.206 95.0514 249.937 97.0872 249.009 103.598C248.935 104.119 248.891 104.665 248.891 105.245C248.891 113.063 253.258 114.116 253.258 114.116H250.453V115.783H247.397V121.846L249.775 124.786V145.119C248.773 145.759 247.771 146.545 246.847 147.494H245.963V127.619H242.091V104.911L244.469 101.965V95.9021H241.413V94.2351H238.608C238.608 94.2351 242.976 93.1828 242.976 85.3643C242.976 84.8136 242.936 84.2874 242.867 83.7908C241.973 77.2262 235.66 75.1757 235.66 75.1757V72.8055H232.821V75.1757C232.821 75.1757 225.505 77.5458 225.505 85.3643C225.505 86.4904 225.599 87.4738 225.751 88.3344C226.675 93.4631 229.873 94.2401 229.873 94.2401H227.068V95.907H224.012V101.97L226.39 104.916V127.624H222.518V188.923H135.516V127.624H131.645V104.916L134.022 101.97V95.907H130.967V94.2401H128.161C128.161 94.2401 131.438 93.4435 132.313 88.1524C132.45 87.3362 132.529 86.4117 132.529 85.3643C132.529 77.5458 125.214 75.1757 125.214 75.1757V72.8055H122.374V75.1757C122.374 75.1757 116.105 77.2114 115.177 83.7219C115.103 84.2432 115.059 84.789 115.059 85.3692C115.059 93.1878 119.426 94.2401 119.426 94.2401H116.621V95.907H113.565V101.97L115.943 104.916V127.624H112.072V147.499H111.05C110.195 146.614 109.266 145.877 108.338 145.262V124.786L110.716 121.846V115.783H107.66V114.116H104.855C104.855 114.116 108.131 113.319 109.006 108.028C109.144 107.212 109.222 106.287 109.222 105.24C109.222 97.4215 101.907 95.0514 101.907 95.0514V92.6813H99.0672V95.0514C99.0672 95.0514 92.7984 97.0872 91.8698 103.598C91.7961 104.119 91.7519 104.665 91.7519 105.245C91.7519 113.063 96.1195 114.116 96.1195 114.116H93.3142V115.783H90.2584V121.846L92.6362 124.786V145.301C91.7274 145.906 90.8234 146.634 89.9833 147.499H88.7649V148.935C87.1289 151.143 85.9695 154.059 85.9695 157.914H85.3652V157.899H79.4943V153.823H80.9878V147.485H71.4322V145.223C81.7837 145.223 89.7426 127.565 75.6131 120.887C63.4832 115.153 54.8119 103.229 54.8119 103.229V99.2655H54.7677C52.6601 123.35 72.2625 121.59 72.0856 131.602C71.8989 142.105 23.0157 130.304 27.005 174.52C30.3801 211.931 76.9592 209.629 112.416 206.182C127.311 204.732 141.431 206.915 152.795 209.929H205.043C216.407 206.915 230.526 204.737 245.422 206.182C280.879 209.629 327.458 211.931 330.833 174.52C334.817 130.304 285.939 142.105 285.752 131.602L285.782 131.597ZM104.84 126.758C105.621 126.758 106.255 127.481 106.255 128.371V144.062C105.203 143.546 104.221 143.177 103.425 142.926V128.371C103.425 127.481 104.059 126.758 104.84 126.758ZM100.669 126.758C101.45 126.758 102.084 127.481 102.084 128.371V142.548C101.691 142.454 101.465 142.415 101.465 142.415V140.935H99.6076V142.415C99.6076 142.415 99.4799 142.435 99.249 142.484V128.366C99.249 127.476 99.8828 126.753 100.664 126.753L100.669 126.758ZM94.9256 128.371C94.9256 127.481 95.5594 126.758 96.3406 126.758C97.1217 126.758 97.7555 127.481 97.7555 128.371V142.892C96.9645 143.138 95.9868 143.497 94.9256 144.008V128.371ZM121.057 126.502H118.227V108.495C118.227 107.605 118.861 106.882 119.642 106.882C120.424 106.882 121.057 107.605 121.057 108.495V126.502ZM125.381 126.502H122.551V108.495C122.551 107.605 123.185 106.882 123.966 106.882C124.747 106.882 125.381 107.605 125.381 108.495V126.502ZM129.552 126.502H126.722V108.495C126.722 107.605 127.356 106.882 128.137 106.882C128.918 106.882 129.552 107.605 129.552 108.495V126.502ZM231.322 126.502H228.492V108.495C228.492 107.605 229.126 106.882 229.907 106.882C230.688 106.882 231.322 107.605 231.322 108.495V126.502ZM235.493 126.502H232.663V108.495C232.663 107.605 233.297 106.882 234.078 106.882C234.859 106.882 235.493 107.605 235.493 108.495V126.502ZM239.817 126.502H236.987V108.495C236.987 107.605 237.621 106.882 238.402 106.882C239.183 106.882 239.817 107.605 239.817 108.495V126.502ZM261.954 126.758C262.735 126.758 263.369 127.481 263.369 128.371V144.195C262.332 143.669 261.355 143.285 260.539 143.01V128.366C260.539 127.476 261.173 126.753 261.954 126.753V126.758ZM257.783 126.758C258.564 126.758 259.198 127.481 259.198 128.371V142.616C258.638 142.474 258.304 142.42 258.304 142.42V140.94H256.447V142.42C256.447 142.42 256.417 142.42 256.363 142.435V128.371C256.363 127.481 256.997 126.758 257.778 126.758H257.783ZM252.04 128.371C252.04 127.481 252.674 126.758 253.455 126.758C254.236 126.758 254.87 127.481 254.87 128.371V142.803C254.103 143.03 253.116 143.374 252.04 143.875V128.371Z" fill="#F88601"/>
<path d="M340.777 184.118C340.777 184.118 344.122 184.615 349.202 188.333L344.496 187.462L351.678 190.068L354.282 193.294L349.698 191.558L355.643 194.794L357.5 198.752L344.987 194.794L342.756 192.055L344.117 194.794H342.629L339.534 189.454L341.268 194.794L325.753 189.513L330.12 184.787C330.12 184.787 336.851 182.678 340.772 184.118H340.777Z" fill="#003F64"/>
<path d="M286.145 206.438C286.145 206.438 291.844 206.812 301.631 201.85C311.417 196.889 319.592 192.429 319.592 192.429C319.592 192.429 317.362 190.196 314.886 189.823C314.886 189.823 318.728 190.068 320.958 191.932L322.569 191.062L319.597 189.326L323.808 190.565C323.808 190.565 336.566 183.376 340.777 184.118C340.777 184.118 297.543 171.786 275.494 207.525C275.494 207.525 281.743 206.94 286.145 206.438Z" fill="#0B8282"/>
<path d="M336.276 158.829C336.276 158.829 340.33 160.397 339.445 167.257L334.753 164.911L339.499 168.319C339.499 168.319 338.571 173.758 337.092 176.251C337.092 176.251 321.145 167.395 318.792 160.555C318.792 160.555 330.283 155.893 336.272 158.829H336.276Z" fill="#003F64"/>
<path d="M276.693 206.812C276.693 206.812 304.952 145.213 336.271 158.829C336.271 158.829 328.376 161.863 322.368 170.207L314.262 171.078L321.395 171.397L319.597 173.241L309.968 175.695L318.482 174.697L314.453 179.314L304.416 181.901L313.328 181.311C313.328 181.311 296.123 211.223 276.693 206.812Z" fill="#08979B"/>
<path d="M296.752 184.463C302.549 176.895 306.775 170.011 309.85 163.889H305.964L310.749 162.045C311.398 160.683 311.992 159.36 312.528 158.081L305.964 159.286L313.952 154.462C315.067 151.413 315.873 148.635 316.448 146.147L309.801 148.797L316.851 144.254C318.526 135.688 317.377 131.026 317.377 131.026C312.159 133.397 307.58 136.903 303.561 141.131L302.26 146.368L302.633 142.135C301.975 142.857 301.336 143.605 300.712 144.367L300.073 151.099L299.562 145.808C297.926 147.917 296.394 150.14 294.969 152.441L295.426 157.855L294.512 153.189C292.719 156.149 291.098 159.232 289.624 162.359L290.095 169.883L288.543 164.71C286.322 169.706 284.48 174.756 282.967 179.545L283.222 187.856L282.186 182.073C278.069 195.836 276.688 206.807 276.688 206.807C284.288 199.411 290.493 192.453 295.563 185.982L291.137 187.029L296.742 184.458L296.752 184.463Z" fill="#00AAB7"/>
<path d="M17.2235 184.118C17.2235 184.118 13.8778 184.615 8.79787 188.333L13.5044 187.462L6.32177 190.068L3.71794 193.294L8.30167 191.558L2.35707 194.794L0.5 198.752L13.0131 194.794L15.2436 192.055L13.8827 194.794H15.3713L18.4664 189.454L16.7322 194.794L32.252 189.513L27.8844 184.787C27.8844 184.787 21.1538 182.678 17.2333 184.118H17.2235Z" fill="#003F64"/>
<path d="M71.855 206.438C71.855 206.438 66.156 206.812 56.3695 201.85C46.5831 196.889 38.408 192.429 38.408 192.429C38.408 192.429 40.6385 190.196 43.1146 189.823C43.1146 189.823 39.2727 190.068 37.0422 191.932L35.4308 191.062L38.4031 189.326L34.1928 190.565C34.1928 190.565 21.434 183.376 17.2236 184.118C17.2236 184.118 60.4571 171.786 82.5061 207.525C82.5061 207.525 76.2569 206.94 71.855 206.438Z" fill="#0B8282"/>
<path d="M21.7237 158.829C21.7237 158.829 17.6706 160.397 18.5549 167.257L23.2467 164.911L18.5009 168.319C18.5009 168.319 19.4294 173.758 20.9082 176.251C20.9082 176.251 36.8554 167.395 39.2087 160.555C39.2087 160.555 27.7174 155.893 21.7286 158.829H21.7237Z" fill="#003F64"/>
<path d="M81.3022 206.812C81.3022 206.812 53.0433 145.213 21.7236 158.829C21.7236 158.829 29.6186 161.863 35.6271 170.207L43.7334 171.078L36.5999 171.397L38.398 173.241L48.0272 175.695L39.5132 174.697L43.5418 179.314L53.5788 181.901L44.6668 181.311C44.6668 181.311 61.8718 211.223 81.3022 206.812Z" fill="#08979B"/>
<path d="M61.2429 184.463C55.4457 176.895 51.2206 170.011 48.1452 163.889H52.0312L47.2461 162.045C46.5976 160.683 46.0031 159.36 45.4676 158.081L52.0312 159.286L44.0429 154.462C42.9277 151.413 42.122 148.635 41.5471 146.147L48.1943 148.797L41.1443 144.254C39.469 135.688 40.6186 131.026 40.6186 131.026C45.8361 133.397 50.4149 136.903 54.4337 141.131L55.7356 146.368L55.3622 142.135C56.0205 142.857 56.6592 143.605 57.2831 144.367L57.9218 151.099L58.4327 145.808C60.0687 147.917 61.6016 150.14 63.0263 152.441L62.5694 157.855L63.4832 153.189C65.2764 156.149 66.8976 159.232 68.3715 162.359L67.8999 169.883L69.4524 164.71C71.673 169.706 73.5153 174.756 75.0285 179.545L74.773 187.856L75.8096 182.073C79.9266 195.836 81.3072 206.807 81.3072 206.807C73.7069 199.411 67.5019 192.453 62.4318 185.982L66.8584 187.029L61.2527 184.458L61.2429 184.463Z" fill="#00AAB7"/>
<path d="M288.793 203.753V122.903H283.738V94.776L286.843 91.1323V83.6236H282.854V81.5583H279.189C279.189 81.5583 283.463 80.5749 284.612 74.0201C284.789 73.0071 284.892 71.8663 284.892 70.5682C284.892 60.8811 275.342 57.9455 275.342 57.9455V55.0098H271.633V57.9455C271.633 57.9455 263.448 60.468 262.234 68.5275C262.136 69.1717 262.077 69.8502 262.077 70.5682C262.077 80.2552 267.781 81.5583 267.781 81.5583H264.116V83.6236H260.127V91.1323L263.232 94.776V122.903H258.176V203.753H100.124V122.903H95.0682V94.776L98.1732 91.1323V83.6236H94.1839V81.5583H90.5189C90.5189 81.5583 96.2228 80.2503 96.2228 70.5682C96.2228 69.8847 96.1687 69.2356 96.0803 68.616C94.911 60.4877 86.6672 57.9455 86.6672 57.9455V55.0098H82.958V57.9455C82.958 57.9455 73.4073 60.8811 73.4073 70.5682C73.4073 71.9647 73.5301 73.1793 73.7316 74.2463C74.9352 80.5945 79.1112 81.5583 79.1112 81.5583H75.4462V83.6236H71.4569V91.1323L74.5618 94.776V122.903H69.5065V135.113V142.489V203.753H64.8589V206.861C80.0102 208.961 97.5198 207.682 112.932 206.182C127.827 204.732 141.947 206.915 153.311 209.929H205.569C216.932 206.915 231.047 204.737 245.943 206.182C261.153 207.662 278.407 208.926 293.421 206.94V203.753H288.774H288.793ZM81.0125 121.526H77.3131V99.2164C77.3131 98.1149 78.1384 97.2199 79.1603 97.2199C80.1822 97.2199 81.0075 98.1149 81.0075 99.2164V121.526H81.0125ZM86.4609 121.526H82.7615V99.2164C82.7615 98.1149 83.5868 97.2199 84.6087 97.2199C85.6306 97.2199 86.4559 98.1149 86.4559 99.2164V121.526H86.4609ZM92.1107 121.526H88.4113V99.2164C88.4113 98.1149 89.2366 97.2199 90.2585 97.2199C91.2804 97.2199 92.1058 98.1149 92.1058 99.2164V121.526H92.1107ZM269.908 121.526H266.209V99.2164C266.209 98.1149 267.039 97.2199 268.056 97.2199C269.073 97.2199 269.903 98.1149 269.903 99.2164V121.526H269.908ZM275.558 121.526H271.859V99.2164C271.859 98.1149 272.684 97.2199 273.706 97.2199C274.728 97.2199 275.553 98.1149 275.553 99.2164V121.526H275.558ZM281.006 121.526H277.307V99.2164C277.307 98.1149 278.137 97.2199 279.154 97.2199C280.171 97.2199 281.001 98.1149 281.001 99.2164V121.526H281.006Z" fill="#133C84"/>
<path d="M273.701 97.2199C274.722 97.2199 275.548 98.1149 275.548 99.2164V121.526H273.484V201.034H281.134V206.802H293.431V203.753H288.783V122.903H283.728V94.776L286.833 91.1323V83.6236H282.843V81.5583H279.178C279.178 81.5583 284.882 80.2503 284.882 70.5682C284.882 60.886 275.332 57.9455 275.332 57.9455V55.0098H273.475V97.2543C273.543 97.2445 273.617 97.2298 273.686 97.2298L273.701 97.2199ZM277.297 99.2164C277.297 98.1149 278.127 97.2199 279.144 97.2199C280.161 97.2199 280.991 98.1149 280.991 99.2164V121.526H277.292V99.2164H277.297Z" fill="#2054A0"/>
<path d="M84.8248 97.2445V55H82.9677V57.9356C82.9677 57.9356 73.4171 60.8713 73.4171 70.5583C73.4171 80.2454 79.1209 81.5485 79.1209 81.5485H75.4559V83.6138H71.4667V91.1225L74.5716 94.7662V122.893H69.5162V203.743H64.8687V206.792H77.1656V201.024H84.815V121.516H82.7516V99.2065C82.7516 98.105 83.5769 97.2101 84.5988 97.2101C84.6725 97.2101 84.7413 97.2249 84.8101 97.2347L84.8248 97.2445ZM81.0124 121.526H77.313V99.2164C77.313 98.1149 78.1433 97.2199 79.1602 97.2199C80.1772 97.2199 81.0075 98.1149 81.0075 99.2164V121.526H81.0124Z" fill="#2054A0"/>
<path d="M273.131 201.034V193.574H270.655V189.99H267.275V180.917H266.145V179H263.399V165.482H264.774V163.653H267.604V160.427H262.106C262.106 144.033 244.322 141.24 244.322 141.24V139.41H241.895V141.24C241.895 141.24 224.11 144.033 224.11 160.427H223.319V160.407H215.65V155.362H217.601V147.509H205.127V144.706C218.642 144.706 226.581 116.442 208.129 108.171C192.289 101.07 183.427 92.6911 183.427 92.6911V87.7836H179.958V83.4269C182.321 82.9745 184.119 80.7519 184.119 78.0769C184.119 75.4019 182.321 73.1743 179.958 72.7268V71.1631C181.619 70.7353 182.857 69.1225 182.857 67.1998C182.857 65.2771 181.619 63.6643 179.958 63.2365V58.7666H179.511V56.6178C179.737 56.6374 179.968 56.6522 180.204 56.6522C183.142 56.6522 185.701 55.059 187.082 52.6888C185.844 53.569 184.33 54.0854 182.695 54.0854C178.494 54.0854 175.089 50.6777 175.089 46.4734C175.089 44.5163 175.826 42.7313 177.04 41.384C174.22 42.6084 172.25 45.4162 172.25 48.6911C172.25 52.4626 174.873 55.6146 178.391 56.4358V58.7666H178.199V63.2365C176.539 63.6643 175.301 65.2771 175.301 67.1998C175.301 69.1225 176.539 70.7353 178.199 71.1631V72.7268C175.836 73.1792 174.038 75.4019 174.038 78.0769C174.038 80.7519 175.836 82.9794 178.199 83.4269V87.7836H174.598V92.6911C174.598 92.6911 165.244 101.07 149.405 108.171C130.952 116.442 139.382 144.706 152.898 144.706V147.509H140.424V155.362H142.374V160.407H134.705V160.427H134.052C134.052 144.033 116.267 141.24 116.267 141.24V139.41H113.84V141.24C113.84 141.24 96.0557 144.033 96.0557 160.427H90.5582V163.653H93.388V165.482H94.7636V179H92.0173V180.917H90.8873V189.99H87.5073V193.574H84.7757V201.034H76.5073V206.802H167.985V203.734H189.941V206.802H281.419V201.034H273.151H273.131Z" fill="#2C6CB7"/>
<path d="M179.87 50.5695L182.454 49.2074L185.033 50.5695L184.542 47.688L186.63 45.6522L183.741 45.2293L182.454 42.6084L181.162 45.2293L178.273 45.6522L180.361 47.688L179.87 50.5695Z" fill="#2C6CB7"/>
<path d="M170.427 109.587C176.013 104.124 179.005 92.3567 179.005 92.3567V58.7519H178.189V63.2217C176.529 63.6495 175.291 65.2624 175.291 67.1851C175.291 69.1077 176.529 70.7206 178.189 71.1484V72.7121C175.826 73.1645 174.028 75.3871 174.028 78.0621C174.028 80.7371 175.826 82.9647 178.189 83.4122V87.7689H174.588V92.6763C174.588 92.6763 165.234 101.055 149.395 108.156C130.942 116.427 139.373 144.692 152.888 144.692V147.494H140.414V155.347H142.365V160.392H134.696V160.412H134.042C134.042 144.018 116.258 141.225 116.258 141.225V139.396H113.831V141.225C113.831 141.225 96.0459 144.018 96.0459 160.412H90.5484V163.638H93.3782V165.467H94.7539V178.985H92.0075V180.903H90.8776V189.975H87.4975V193.56H84.766V201.019H76.4976V206.787H167.976V203.719H178.17V144.692C162.91 144.692 161.368 118.443 170.437 109.577L170.427 109.587Z" fill="#276C9B"/>
<path d="M205.127 144.701H152.883V147.504H205.127V144.701Z" fill="#144682"/>
<path d="M153.07 185.22V185.81C153.07 186.189 152.844 186.518 152.515 186.636C152.475 186.651 148.58 188.077 148.58 190.85V200.596H132.396V201.811H225.732V200.596H207.745V190.85C207.745 188.106 203.85 186.646 203.81 186.636C203.481 186.518 203.255 186.184 203.255 185.81V185.22H197.148V185.81C197.148 186.189 196.922 186.518 196.593 186.636C196.554 186.651 192.658 188.077 192.658 190.85C192.658 191.332 192.294 191.721 191.852 191.721C191.41 191.721 191.047 191.332 191.047 190.85V184.055C191.047 179.083 184.306 176.634 184.237 176.61C183.908 176.492 183.682 176.157 183.682 175.784V174.259H172.638V175.784C172.638 176.157 172.412 176.492 172.083 176.61C172.014 176.634 165.274 179.098 165.274 184.055V190.85C165.274 191.332 164.91 191.721 164.468 191.721C164.026 191.721 163.662 191.332 163.662 190.85C163.662 188.077 159.766 186.646 159.727 186.636C159.398 186.518 159.172 186.184 159.172 185.81V185.22H153.065H153.07Z" fill="#144682"/>
<path d="M230.35 202.986H127.778V203.753H230.35V202.986Z" fill="#144682"/>
<path d="M215.65 155.357H142.355V160.402H215.65V155.357Z" fill="#144682"/>
<path d="M225.732 169.367L228.96 165.669H129.169L132.397 169.367H225.732Z" fill="#144682"/>
<path d="M225.732 171.653H132.396V172.204H225.732V171.653Z" fill="#144682"/>
<path d="M240.736 206.536H117.393V209.438H240.736V206.536Z" fill="#133C84"/>
<path d="M181.108 185.038H175.217C175.217 185.038 169.803 186.336 169.803 192.448V201.039H186.527V192.448C186.527 186.336 181.113 185.038 181.113 185.038H181.108Z" fill="#F0FEF2"/>
<path d="M158.508 190H154.549C154.549 190 150.908 190.87 150.908 194.981V200.754H162.144V194.981C162.144 190.875 158.504 190 158.504 190H158.508Z" fill="#F0FEF2"/>
<path d="M202.199 190H198.239C198.239 190 194.599 190.87 194.599 194.981V200.754H205.834V194.981C205.834 190.875 202.194 190 202.194 190H202.199Z" fill="#F0FEF2"/>
<path d="M129.169 160.422H134.032C134.032 144.028 116.248 141.235 116.248 141.235V139.405H115.196V126.424C115.26 126.424 115.319 126.434 115.383 126.434C116.415 126.434 117.314 125.829 117.8 124.934C117.363 125.268 116.832 125.46 116.258 125.46C114.784 125.46 113.59 124.172 113.59 122.578C113.59 121.836 113.85 121.162 114.273 120.651C113.285 121.113 112.593 122.175 112.593 123.414C112.593 124.875 113.551 126.089 114.828 126.37V139.401H113.821V141.23C113.821 141.23 96.0362 144.023 96.0362 160.417H90.5387V163.643H93.3685V165.472H94.7441V178.99H91.9978V180.907H90.8678V189.98H87.4878V193.565H84.7562V201.024H76.4878V206.792H112.529V203.743H127.778V201.801H132.396V169.357L129.169 165.659V160.417V160.422Z" fill="#2054A0"/>
<path d="M273.858 201.034L273.731 193.574H270.64V189.99H267.26V180.917H266.13V179H263.384V165.482H264.76V163.653H267.59V160.427H262.092C262.092 144.033 244.307 141.24 244.307 141.24V139.41H243.315V126.429C243.379 126.429 243.438 126.439 243.502 126.439C244.533 126.439 245.432 125.834 245.919 124.939C245.482 125.273 244.951 125.465 244.376 125.465C242.902 125.465 241.708 124.177 241.708 122.583C241.708 121.841 241.969 121.167 242.391 120.656C241.404 121.118 240.711 122.18 240.711 123.419C240.711 124.88 241.669 126.094 242.946 126.375V139.405H241.88V141.235C241.88 141.235 224.096 144.028 224.096 160.422H228.959V165.664L225.732 169.362V201.806H230.35V203.748H245.599V206.797H281.64V201.029H273.858V201.034Z" fill="#2054A0"/>
<path d="M102.875 168.604C101.568 168.604 100.507 169.75 100.507 171.161V178.995H105.248V171.161C105.248 169.75 104.187 168.604 102.88 168.604H102.875Z" fill="#EAE0B7"/>
<path d="M109.866 168.604C108.559 168.604 107.498 169.75 107.498 171.161V178.995H112.239V171.161C112.239 169.75 111.178 168.604 109.871 168.604H109.866Z" fill="#EAE0B7"/>
<path d="M117.392 168.604C116.086 168.604 115.024 169.75 115.024 171.161V178.995H119.765V171.161C119.765 169.75 118.704 168.604 117.397 168.604H117.392Z" fill="#EAE0B7"/>
<path d="M124.389 168.604C123.082 168.604 122.021 169.75 122.021 171.161V178.995H126.761V171.161C126.761 169.75 125.7 168.604 124.393 168.604H124.389Z" fill="#EAE0B7"/>
<path d="M255.258 168.604C253.951 168.604 252.89 169.75 252.89 171.161V178.995H257.631V171.161C257.631 169.75 256.57 168.604 255.263 168.604H255.258Z" fill="#EAE0B7"/>
<path d="M248.262 168.604C246.955 168.604 245.894 169.75 245.894 171.161V178.995H250.635V171.161C250.635 169.75 249.574 168.604 248.267 168.604H248.262Z" fill="#EAE0B7"/>
<path d="M240.735 168.604C239.428 168.604 238.367 169.75 238.367 171.161V178.995H243.108V171.161C243.108 169.75 242.047 168.604 240.74 168.604H240.735Z" fill="#EAE0B7"/>
<path d="M233.744 168.604C232.438 168.604 231.376 169.75 231.376 171.161V178.995H236.117V171.161C236.117 169.75 235.056 168.604 233.749 168.604H233.744Z" fill="#EAE0B7"/>
<path d="M129.169 163.653H93.3735V164.69H129.169V163.653Z" fill="#174777"/>
<path d="M94.749 165.482V167.159H130.471L129.169 165.482H94.749Z" fill="#174777"/>
<path d="M132.397 180.032H92.0029V180.917H132.397V180.032Z" fill="#174777"/>
<path d="M132.397 187.9H90.8682V189.931H132.397V187.9Z" fill="#174777"/>
<path d="M132.397 199.219H84.7563V201.034H132.397V199.219Z" fill="#174777"/>
<path d="M132.396 192.507H87.4927V193.57H132.396V192.507Z" fill="#174777"/>
<path d="M264.755 163.653H228.959V164.69H264.755V163.653Z" fill="#174777"/>
<path d="M263.379 165.482H228.96L227.658 167.159H263.379V165.482Z" fill="#174777"/>
<path d="M266.126 180.032H225.732V180.917H266.126V180.032Z" fill="#174777"/>
<path d="M267.261 187.9H225.732V189.931H267.261V187.9Z" fill="#174777"/>
<path d="M273.372 199.219H225.732V201.034H273.372V199.219Z" fill="#174777"/>
<path d="M270.636 192.507H225.732V193.57H270.636V192.507Z" fill="#174777"/>
<path d="M112.529 206.536V203.709C112.529 203.709 106.368 199.097 100.124 203.709C100.124 203.709 90.5533 200.287 87.4877 207.559C87.4877 207.559 48.9264 199.5 48.1895 210.839C48.1895 210.839 93.2357 210.534 91.3197 210.839C89.4037 211.144 96.4979 210.121 102.87 209.915L117.392 209.438V206.536H112.529Z" fill="#00AAB7"/>
<path d="M245.604 206.536V203.709C245.604 203.709 251.765 199.097 258.009 203.709C258.009 203.709 267.579 200.287 270.645 207.559C270.645 207.559 309.206 199.5 309.943 210.839C309.943 210.839 264.897 210.534 266.813 210.839C268.729 211.144 261.635 210.121 255.263 209.915L240.74 209.438V206.536H245.604Z" fill="#00AAB7"/>
<path d="M240.706 209.438H179.157H179.049H117.393C117.393 209.438 86.3923 210.333 92.0028 210.657C97.6084 210.987 138.547 212.953 126.757 212.953C114.966 212.953 112.018 215.742 141.333 215.083C170.648 214.429 168.025 217.05 157.708 217.212C147.44 217.374 164.728 219.97 178.941 220C178.976 220 179.01 220 179.049 220C179.084 220 179.118 220 179.157 220C193.37 219.975 210.659 217.379 200.391 217.212C190.074 217.05 187.455 214.424 216.766 215.083C246.081 215.737 243.133 212.953 231.342 212.953C219.551 212.953 260.49 210.987 266.096 210.657C271.702 210.328 240.706 209.438 240.706 209.438Z" fill="#FCB63A"/>
<path d="M94.4148 215.211C86.5935 215.211 80.251 215.624 80.251 216.13C80.251 216.637 86.5935 217.05 94.4148 217.05C102.236 217.05 108.579 216.637 108.579 216.13C108.579 215.624 102.236 215.211 94.4148 215.211Z" fill="#FCB63A"/>
<path d="M250.635 217.969C258.458 217.969 264.799 217.557 264.799 217.05C264.799 216.542 258.458 216.13 250.635 216.13C242.813 216.13 236.471 216.542 236.471 217.05C236.471 217.557 242.813 217.969 250.635 217.969Z" fill="#FCB63A"/>
<path d="M142.316 45.8686C141.952 45.8686 141.662 46.1833 141.662 46.5767C141.662 46.9701 141.957 47.2848 142.316 47.2848C142.674 47.2848 142.969 46.9701 142.969 46.5767C142.969 46.1833 142.674 45.8686 142.316 45.8686Z" fill="white"/>
<path d="M160.164 26.4305C160.434 26.4305 160.655 26.1945 160.655 25.8994C160.655 25.6044 160.434 25.3683 160.164 25.3683C159.894 25.3683 159.673 25.6044 159.673 25.8994C159.673 26.1945 159.894 26.4305 160.164 26.4305Z" fill="white"/>
<path d="M159.992 53.1118C160.437 53.1118 160.798 52.7221 160.798 52.2414C160.798 51.7607 160.437 51.371 159.992 51.371C159.547 51.371 159.187 51.7607 159.187 52.2414C159.187 52.7221 159.547 53.1118 159.992 53.1118Z" fill="white"/>
<path d="M166.796 39.1516C166.57 39.1516 166.389 39.3482 166.389 39.5941C166.389 39.84 166.57 40.0367 166.796 40.0367C167.022 40.0367 167.204 39.84 167.204 39.5941C167.204 39.3482 167.022 39.1516 166.796 39.1516Z" fill="white"/>
<path d="M193.164 66.3639C192.938 66.3639 192.756 66.5606 192.756 66.8064C192.756 67.0523 192.938 67.249 193.164 67.249C193.39 67.249 193.572 67.0523 193.572 66.8064C193.572 66.5606 193.39 66.3639 193.164 66.3639Z" fill="white"/>
<path d="M206.512 42.6871C206.149 42.6871 205.859 43.0018 205.859 43.3952C205.859 43.7885 206.154 44.1033 206.512 44.1033C206.871 44.1033 207.166 43.7885 207.166 43.3952C207.166 43.0018 206.871 42.6871 206.512 42.6871Z" fill="white"/>
<path d="M210.433 68.9012C210.968 68.9012 211.405 68.4292 211.405 67.8538C211.405 67.2785 210.968 66.8065 210.433 66.8065C209.897 66.8065 209.46 67.2785 209.46 67.8538C209.46 68.4292 209.897 68.9012 210.433 68.9012Z" fill="white"/>
<path d="M226.326 41.802C226.056 41.802 225.835 42.038 225.835 42.3331C225.835 42.6281 226.056 42.8641 226.326 42.8641C226.596 42.8641 226.818 42.6281 226.818 42.3331C226.818 42.038 226.596 41.802 226.326 41.802Z" fill="white"/>
<path d="M141.333 76.0804C141.604 76.0804 141.824 75.8427 141.824 75.5494C141.824 75.2561 141.604 75.0183 141.333 75.0183C141.062 75.0183 140.842 75.2561 140.842 75.5494C140.842 75.8427 141.062 76.0804 141.333 76.0804Z" fill="white"/>
<path d="M119.962 59.4698C119.648 59.4698 119.387 59.7452 119.387 60.0894C119.387 60.4336 119.643 60.709 119.962 60.709C120.281 60.709 120.537 60.4336 120.537 60.0894C120.537 59.7452 120.281 59.4698 119.962 59.4698Z" fill="white"/>
<path d="M128.481 43.3854C128.885 43.3854 129.213 43.0309 129.213 42.5937C129.213 42.1565 128.885 41.802 128.481 41.802C128.077 41.802 127.749 42.1565 127.749 42.5937C127.749 43.0309 128.077 43.3854 128.481 43.3854Z" fill="white"/>
<path d="M154.681 65.1248C154.367 65.1248 154.106 65.4001 154.106 65.7443C154.106 66.0885 154.362 66.3639 154.681 66.3639C155.001 66.3639 155.256 66.0885 155.256 65.7443C155.256 65.4001 155.001 65.1248 154.681 65.1248Z" fill="white"/>
<path d="M175.07 12.1212C175.341 12.1212 175.561 11.8834 175.561 11.5901C175.561 11.2968 175.341 11.059 175.07 11.059C174.799 11.059 174.579 11.2968 174.579 11.5901C174.579 11.8834 174.799 12.1212 175.07 12.1212Z" fill="white"/>
<path d="M196.603 53.8297C197.01 53.8297 197.34 53.4731 197.34 53.0331C197.34 52.5932 197.01 52.2365 196.603 52.2365C196.196 52.2365 195.866 52.5932 195.866 53.0331C195.866 53.4731 196.196 53.8297 196.603 53.8297Z" fill="white"/>
<path d="M235.332 59.4698C234.88 59.4698 234.511 59.8632 234.511 60.355C234.511 60.8467 234.88 61.2401 235.332 61.2401C235.784 61.2401 236.152 60.8467 236.152 60.355C236.152 59.8632 235.784 59.4698 235.332 59.4698Z" fill="white"/>
<path d="M209.951 81.2043C209.681 81.2043 209.46 81.4403 209.46 81.7354C209.46 82.0304 209.681 82.2664 209.951 82.2664C210.221 82.2664 210.443 82.0304 210.443 81.7354C210.443 81.4403 210.221 81.2043 209.951 81.2043Z" fill="white"/>
<path d="M221.904 48.342C221.634 48.342 221.413 48.578 221.413 48.873C221.413 49.1681 221.634 49.4041 221.904 49.4041C222.175 49.4041 222.396 49.1681 222.396 48.873C222.396 48.578 222.175 48.342 221.904 48.342Z" fill="white"/>
<path d="M192.835 23.0769C193.242 23.0769 193.572 22.7203 193.572 22.2803C193.572 21.8404 193.242 21.4837 192.835 21.4837C192.428 21.4837 192.098 21.8404 192.098 22.2803C192.098 22.7203 192.428 23.0769 192.835 23.0769Z" fill="white"/>
<path d="M147.066 87.3903C146.703 87.3903 146.413 87.705 146.413 88.0984C146.413 88.4917 146.708 88.8064 147.066 88.8064C147.425 88.8064 147.72 88.4917 147.72 88.0984C147.72 87.705 147.425 87.3903 147.066 87.3903Z" fill="white"/>
<path d="M108.087 72.8007C107.724 72.8007 107.434 73.1154 107.434 73.5088C107.434 73.9021 107.729 74.2168 108.087 74.2168C108.446 74.2168 108.741 73.9021 108.741 73.5088C108.741 73.1154 108.446 72.8007 108.087 72.8007Z" fill="white"/>
<path d="M67.3941 88.0934C67.0797 88.0934 66.8193 88.3688 66.8193 88.713C66.8193 89.0572 67.0748 89.3326 67.3941 89.3326C67.7135 89.3326 67.969 89.0572 67.969 88.713C67.969 88.3688 67.7135 88.0934 67.3941 88.0934Z" fill="white"/>
<path d="M253.441 77.6688C253.126 77.6688 252.866 77.9441 252.866 78.2883C252.866 78.6326 253.121 78.9079 253.441 78.9079C253.76 78.9079 254.015 78.6326 254.015 78.2883C254.015 77.9441 253.76 77.6688 253.441 77.6688Z" fill="white"/>
<path d="M294.777 97.9919C295.049 97.9919 295.269 97.7542 295.269 97.4609C295.269 97.1676 295.049 96.9298 294.777 96.9298C294.506 96.9298 294.286 97.1676 294.286 97.4609C294.286 97.7542 294.506 97.9919 294.777 97.9919Z" fill="white"/>
<path d="M210.934 90.5668C210.664 90.5668 210.443 90.8029 210.443 91.0979C210.443 91.3929 210.664 91.629 210.934 91.629C211.204 91.629 211.425 91.3929 211.425 91.0979C211.425 90.8029 211.204 90.5668 210.934 90.5668Z" fill="white"/>
<path d="M170.482 56.4703C170.118 56.4703 169.828 56.785 169.828 57.1784C169.828 57.5718 170.123 57.8865 170.482 57.8865C170.84 57.8865 171.135 57.5718 171.135 57.1784C171.135 56.785 170.84 56.4703 170.482 56.4703Z" fill="white"/>
<path d="M166.88 17.9531C166.61 17.9531 166.389 18.1891 166.389 18.4841C166.389 18.7792 166.61 19.0152 166.88 19.0152C167.15 19.0152 167.371 18.7792 167.371 18.4841C167.371 18.1891 167.15 17.9531 166.88 17.9531Z" fill="white"/>
<path d="M150.668 35.2669C150.304 35.2669 150.014 35.5816 150.014 35.975C150.014 36.3684 150.309 36.6831 150.668 36.6831C151.026 36.6831 151.321 36.3684 151.321 35.975C151.321 35.5816 151.026 35.2669 150.668 35.2669Z" fill="white"/>
<path d="M67.5465 82.0452V79.3997H66.6033V77.7917H65.7533C65.7533 77.7917 65.4684 72.0237 59.5189 72.0237V69.8503H55.9276V72.0237C49.9731 72.0237 49.6931 77.7917 49.6931 77.7917H48.8432V79.3997H47.8999V82.0452H49.2215V98.4985H47.8999V100.2H50.0714V101.144H65.375V100.2H67.5465V98.4985H66.225V82.0452H67.5465Z" fill="#00AAB7"/>
<path d="M66.2252 82.0452H49.2168V82.5074H66.2252V82.0452Z" fill="#003F64"/>
<path d="M66.5985 79.1096H48.8384V79.3997H66.5985V79.1096Z" fill="#003F64"/>
<path d="M65.7143 77.4475H49.6885V77.7917H65.7143V77.4475Z" fill="#003F64"/>
<path d="M66.2252 98.1198H49.2168V98.4984H66.2252V98.1198Z" fill="#003F64"/>
<path d="M65.3701 100.205H50.0664V100.539H65.3701V100.205Z" fill="#003F64"/>
<path d="M59.5191 71.4877H55.9277V72.0237H59.5191V71.4877Z" fill="#003F64"/>
<path d="M57.0771 97.3429H51.9775V85.92C51.9775 84.5087 53.1173 83.3679 54.5273 83.3679C55.9373 83.3679 57.0771 84.5087 57.0771 85.92V97.3429Z" fill="white"/>
<path d="M63.4638 97.3429H58.3643V85.92C58.3643 84.5087 59.504 83.3679 60.914 83.3679C62.324 83.3679 63.4638 84.5087 63.4638 85.92V97.3429Z" fill="white"/>
<path d="M57.7207 69.8503V43.2231" stroke="#00AAB7" stroke-miterlimit="10"/>
<path d="M45.9543 100.293V97.6478H45.011V96.0398H44.1611C44.1611 96.0398 43.8761 90.2718 37.9266 90.2718V88.0984H34.3353V90.2718C28.3809 90.2718 28.1008 96.0398 28.1008 96.0398H27.2509V97.6478H26.3076V100.293H27.6292V116.747H26.3076V118.448H28.4791V119.392H43.7828V118.448H45.9543V116.747H44.6327V100.293H45.9543Z" fill="#00AAB7"/>
<path d="M44.6329 100.293H27.6245V100.756H44.6329V100.293Z" fill="#003F64"/>
<path d="M45.0111 97.3528H27.251V97.6429H45.0111V97.3528Z" fill="#003F64"/>
<path d="M44.1269 95.6956H28.1011V96.0398H44.1269V95.6956Z" fill="#003F64"/>
<path d="M44.6329 116.368H27.6245V116.747H44.6329V116.368Z" fill="#003F64"/>
<path d="M43.7827 118.448H28.479V118.782H43.7827V118.448Z" fill="#003F64"/>
<path d="M37.9268 89.731H34.3354V90.2669H37.9268V89.731Z" fill="#003F64"/>
<path d="M35.4848 115.591H30.3853V104.168C30.3853 102.757 31.525 101.616 32.935 101.616C34.345 101.616 35.4848 102.757 35.4848 104.168V115.591Z" fill="white"/>
<path d="M41.8716 115.591H36.772V104.168C36.772 102.757 37.9118 101.616 39.3218 101.616C40.7318 101.616 41.8716 102.757 41.8716 104.168V115.591Z" fill="white"/>
<path d="M36.1284 88.0935V57.7881" stroke="#00AAB7" stroke-miterlimit="10"/>
<path d="M290.297 82.0452V79.3997H291.24V77.7917H292.09C292.09 77.7917 292.375 72.0237 298.325 72.0237V69.8503H301.916V72.0237C307.87 72.0237 308.15 77.7917 308.15 77.7917H309V79.3997H309.944V82.0452H308.622V98.4985H309.944V100.2H307.772V101.144H292.468V100.2H290.297V98.4985H291.618V82.0452H290.297Z" fill="#00AAB7"/>
<path d="M291.619 82.5123H308.627V82.0501H291.619V82.5123Z" fill="#003F64"/>
<path d="M291.245 79.3997H309.005V79.1095H291.245V79.3997Z" fill="#003F64"/>
<path d="M292.129 77.7917H308.155V77.4475H292.129V77.7917Z" fill="#003F64"/>
<path d="M291.619 98.5034H308.627V98.1247H291.619V98.5034Z" fill="#003F64"/>
<path d="M292.473 100.539H307.777V100.205H292.473V100.539Z" fill="#003F64"/>
<path d="M298.33 72.0237H301.921V71.4878H298.33V72.0237Z" fill="#003F64"/>
<path d="M305.871 97.3429H300.771V85.92C300.771 84.5087 301.916 83.3679 303.321 83.3679C304.731 83.3679 305.871 84.5137 305.871 85.92V97.3429Z" fill="white"/>
<path d="M299.484 97.3429H294.384V85.92C294.384 84.5087 295.529 83.3679 296.934 83.3679C298.344 83.3679 299.484 84.5137 299.484 85.92V97.3429Z" fill="white"/>
<path d="M300.123 69.8503V43.2231" stroke="#00AAB7" stroke-miterlimit="10"/>
<path d="M311.889 100.293V97.6478H312.832V96.0398H313.682C313.682 96.0398 313.967 90.2718 319.917 90.2718V88.0984H323.508V90.2718C329.463 90.2718 329.743 96.0398 329.743 96.0398H330.593V97.6478H331.536V100.293H330.214V116.747H331.536V118.448H329.364V119.392H314.061V118.448H311.889V116.747H313.211V100.293H311.889Z" fill="#00AAB7"/>
<path d="M313.211 100.755H330.219V100.293H313.211V100.755Z" fill="#003F64"/>
<path d="M312.838 97.6478H330.598V97.3576H312.838V97.6478Z" fill="#003F64"/>
<path d="M313.722 96.0349H329.748V95.6907H313.722V96.0349Z" fill="#003F64"/>
<path d="M313.211 116.747H330.219V116.368H313.211V116.747Z" fill="#003F64"/>
<path d="M314.065 118.787H329.369V118.453H314.065V118.787Z" fill="#003F64"/>
<path d="M319.917 90.2719H323.508V89.7359H319.917V90.2719Z" fill="#003F64"/>
<path d="M322.358 115.591H327.458V104.168C327.458 102.757 326.318 101.616 324.908 101.616C323.498 101.616 322.358 102.757 322.358 104.168V115.591Z" fill="white"/>
<path d="M315.972 115.591H321.071V104.168C321.071 102.757 319.931 101.616 318.521 101.616C317.111 101.616 315.972 102.757 315.972 104.168V115.591Z" fill="white"/>
<path d="M321.715 88.0935V57.7881" stroke="#00AAB7" stroke-miterlimit="10"/>
<path d="M102.443 49.8073C102.359 49.8565 102.315 49.9008 102.261 49.9204C101.937 50.0483 101.603 50.1614 101.278 50.2941C100.463 50.6236 99.9125 51.2137 99.603 52.0349C99.4999 52.3102 99.4016 52.5905 99.2935 52.8659C99.269 52.9298 99.21 52.979 99.1707 53.038C99.1265 52.979 99.0626 52.9298 99.0331 52.861C98.871 52.4676 98.7482 52.0545 98.5615 51.6759C98.2176 50.9776 97.6526 50.5105 96.9255 50.24C96.6357 50.1319 96.3507 50.0286 96.0658 49.9155C96.0166 49.8958 95.9773 49.8368 95.9331 49.7975C95.9773 49.7631 96.0117 49.7139 96.0658 49.6942C96.4735 49.532 96.9009 49.3992 97.294 49.2074C98.0014 48.8632 98.4632 48.2928 98.7335 47.5552C98.8366 47.2749 98.9349 46.9995 99.043 46.7242C99.0675 46.6701 99.1265 46.6258 99.1658 46.5767C99.2051 46.6258 99.264 46.6701 99.2837 46.7291C99.4458 47.1323 99.5736 47.5552 99.7652 47.9437C100.104 48.637 100.669 49.0992 101.391 49.3697C101.686 49.4779 101.976 49.586 102.271 49.6942C102.32 49.7139 102.364 49.7532 102.438 49.8073H102.443Z" fill="#FCB63A"/>
<path d="M106.333 41.8069C106.284 41.8364 106.255 41.861 106.225 41.8757C106.029 41.9495 105.832 42.0183 105.641 42.097C105.154 42.2937 104.825 42.6477 104.638 43.1345C104.575 43.3017 104.516 43.4689 104.452 43.6312C104.437 43.6705 104.403 43.7 104.378 43.7344C104.349 43.7 104.314 43.6705 104.299 43.6263C104.206 43.3902 104.127 43.1444 104.019 42.9182C103.813 42.5002 103.479 42.2199 103.042 42.0626C102.87 41.9986 102.698 41.9396 102.526 41.8708C102.496 41.861 102.472 41.8216 102.447 41.797C102.472 41.7774 102.496 41.7479 102.526 41.7331C102.772 41.6348 103.022 41.5561 103.263 41.443C103.685 41.2365 103.96 40.8972 104.123 40.4546C104.182 40.2874 104.24 40.1202 104.309 39.958C104.324 39.9235 104.358 39.8989 104.383 39.8694C104.408 39.8989 104.442 39.9285 104.457 39.9629C104.555 40.2038 104.634 40.4546 104.747 40.6906C104.948 41.1037 105.287 41.384 105.719 41.5413C105.896 41.6053 106.068 41.6692 106.245 41.738C106.274 41.7479 106.299 41.7724 106.348 41.8069H106.333Z" fill="#FCB63A"/>
<path d="M137.923 15.7501C137.874 15.7796 137.845 15.8042 137.815 15.8189C137.619 15.8927 137.422 15.9615 137.23 16.0402C136.744 16.2369 136.415 16.591 136.228 17.0778C136.164 17.245 136.105 17.4121 136.042 17.5744C136.027 17.6138 135.992 17.6433 135.968 17.6777C135.938 17.6433 135.904 17.6138 135.889 17.5695C135.796 17.3335 135.717 17.0876 135.609 16.8614C135.403 16.4434 135.069 16.1632 134.632 16.0058C134.46 15.9419 134.288 15.8829 134.116 15.814C134.086 15.8042 134.062 15.7649 134.037 15.7403C134.062 15.7206 134.086 15.6911 134.116 15.6763C134.361 15.578 134.612 15.4993 134.853 15.3862C135.275 15.1797 135.55 14.8404 135.712 14.3978C135.771 14.2307 135.83 14.0635 135.899 13.9012C135.914 13.8668 135.948 13.8422 135.973 13.8127C135.997 13.8422 136.032 13.8717 136.046 13.9061C136.145 14.1471 136.223 14.3978 136.336 14.6339C136.538 15.0469 136.877 15.3272 137.309 15.4846C137.486 15.5485 137.658 15.6124 137.835 15.6813C137.864 15.6911 137.889 15.7157 137.938 15.7501H137.923Z" fill="#FCB63A"/>
<path d="M46.0672 66.3639C46.0181 66.3934 45.9886 66.418 45.9592 66.4327C45.7626 66.5065 45.5661 66.5753 45.3745 66.654C44.8882 66.8507 44.559 67.2047 44.3723 67.6915C44.3084 67.8587 44.2495 68.0259 44.1856 68.1882C44.1709 68.2275 44.1365 68.257 44.1119 68.2915C44.0824 68.257 44.0481 68.2275 44.0333 68.1833C43.94 67.9472 43.8614 67.7014 43.7533 67.4752C43.5469 67.0572 43.2129 66.7769 42.7756 66.6196C42.6037 66.5556 42.4317 66.4966 42.2598 66.4278C42.2303 66.418 42.2057 66.3786 42.1812 66.354C42.2057 66.3344 42.2303 66.3049 42.2598 66.2901C42.5054 66.1918 42.756 66.1131 42.9967 66C43.4192 65.7935 43.6943 65.4542 43.8564 65.0116C43.9154 64.8444 43.9744 64.6772 44.0431 64.515C44.0579 64.4805 44.0923 64.456 44.1168 64.4265C44.1414 64.456 44.1758 64.4855 44.1905 64.5199C44.2888 64.7608 44.3674 65.0116 44.4804 65.2476C44.6818 65.6607 45.0208 65.941 45.4531 66.0983C45.63 66.1623 45.802 66.2262 45.9788 66.295C46.0083 66.3049 46.0329 66.3294 46.082 66.3639H46.0672Z" fill="#FCB63A"/>
<path d="M60.6338 128.971C60.6044 128.991 60.5896 129 60.57 129.01C60.457 129.055 60.344 129.094 60.231 129.138C59.9509 129.251 59.7593 129.453 59.6562 129.738C59.6218 129.831 59.5874 129.93 59.5481 130.023C59.5383 130.043 59.5186 130.063 59.5039 130.082C59.4891 130.063 59.4646 130.043 59.4597 130.023C59.4056 129.886 59.3614 129.748 59.2975 129.615C59.1796 129.374 58.9831 129.217 58.7325 129.123C58.6343 129.089 58.536 129.05 58.4378 129.01C58.4181 129.005 58.4083 128.981 58.3936 128.971C58.4083 128.956 58.423 128.941 58.4378 128.936C58.5802 128.882 58.7227 128.833 58.8603 128.769C59.101 128.651 59.2631 128.455 59.3565 128.204C59.3909 128.11 59.4253 128.012 59.4646 127.919C59.4744 127.899 59.494 127.884 59.5088 127.869C59.5235 127.889 59.5432 127.904 59.5481 127.924C59.6021 128.061 59.6463 128.209 59.7151 128.342C59.833 128.582 60.0246 128.74 60.2752 128.833C60.3735 128.873 60.4766 128.907 60.5749 128.946C60.5896 128.951 60.6044 128.966 60.6338 128.986V128.971Z" fill="#FCB63A"/>
<path d="M29.2159 141.363C29.1864 141.382 29.1716 141.392 29.152 141.402C29.039 141.446 28.926 141.485 28.813 141.53C28.533 141.643 28.3414 141.844 28.2382 142.13C28.2038 142.223 28.1694 142.321 28.1301 142.415C28.1203 142.434 28.1006 142.454 28.0859 142.474C28.0712 142.454 28.0466 142.434 28.0417 142.415C27.9876 142.277 27.9434 142.139 27.8796 142.007C27.7616 141.766 27.5651 141.608 27.3146 141.515C27.2163 141.481 27.1181 141.441 27.0198 141.402C27.0002 141.397 26.9903 141.372 26.9756 141.363C26.9903 141.348 27.0051 141.333 27.0198 141.328C27.1623 141.274 27.3047 141.225 27.4423 141.161C27.683 141.043 27.8452 140.846 27.9385 140.595C27.9729 140.502 28.0073 140.404 28.0466 140.31C28.0564 140.291 28.0761 140.276 28.0908 140.261C28.1056 140.281 28.1252 140.295 28.1301 140.315C28.1842 140.453 28.2284 140.6 28.2972 140.733C28.4151 140.974 28.6067 141.131 28.8572 141.225C28.9555 141.264 29.0587 141.299 29.1569 141.338C29.1716 141.343 29.1864 141.358 29.2159 141.377V141.363Z" fill="#FCB63A"/>
<path d="M35.347 134.434C35.3077 134.459 35.2831 134.478 35.2586 134.488C35.1014 134.547 34.9392 134.606 34.782 134.67C34.3841 134.832 34.1188 135.118 33.9665 135.516C33.9174 135.649 33.8682 135.786 33.8142 135.919C33.8044 135.949 33.7749 135.973 33.7552 136.003C33.7307 135.973 33.7012 135.949 33.6914 135.914C33.6128 135.722 33.5538 135.521 33.4605 135.339C33.2934 135 33.0183 134.773 32.6646 134.641C32.5221 134.586 32.3845 134.537 32.247 134.483C32.2224 134.473 32.2028 134.444 32.1831 134.424C32.2028 134.405 32.2224 134.385 32.247 134.375C32.4484 134.296 32.6547 134.232 32.8463 134.139C33.1902 133.972 33.4162 133.692 33.5489 133.337C33.598 133.205 33.6471 133.067 33.7012 132.934C33.711 132.905 33.7405 132.885 33.7601 132.865C33.7798 132.89 33.8093 132.91 33.8191 132.939C33.8977 133.136 33.9616 133.342 34.0549 133.529C34.222 133.869 34.4922 134.09 34.8459 134.223C34.9884 134.277 35.1308 134.326 35.2733 134.38C35.2979 134.39 35.3175 134.409 35.3568 134.434H35.347Z" fill="#FCB63A"/>
<path d="M254.064 49.8073C254.147 49.8565 254.192 49.9008 254.246 49.9204C254.57 50.0483 254.904 50.1614 255.228 50.2941C256.044 50.6236 256.594 51.2137 256.904 52.0349C257.007 52.3102 257.105 52.5905 257.213 52.8659C257.238 52.9298 257.297 52.979 257.336 53.038C257.38 52.979 257.444 52.9298 257.474 52.861C257.636 52.4676 257.758 52.0545 257.945 51.6759C258.289 50.9776 258.854 50.5105 259.581 50.24C259.871 50.1319 260.156 50.0286 260.441 49.9155C260.49 49.8958 260.529 49.8368 260.574 49.7975C260.529 49.7631 260.495 49.7139 260.441 49.6942C260.033 49.532 259.606 49.3992 259.213 49.2074C258.505 48.8632 258.043 48.2928 257.773 47.5552C257.67 47.2749 257.572 46.9995 257.464 46.7242C257.439 46.6701 257.38 46.6258 257.341 46.5767C257.302 46.6258 257.243 46.6701 257.223 46.7291C257.061 47.1323 256.933 47.5552 256.741 47.9437C256.403 48.637 255.838 49.0992 255.115 49.3697C254.821 49.4779 254.531 49.586 254.236 49.6942C254.187 49.7139 254.143 49.7532 254.069 49.8073H254.064Z" fill="#FCB63A"/>
<path d="M250.173 41.8069C250.222 41.8364 250.252 41.861 250.281 41.8757C250.478 41.9495 250.674 42.0183 250.866 42.097C251.352 42.2937 251.681 42.6477 251.868 43.1345C251.932 43.3017 251.991 43.4689 252.055 43.6312C252.069 43.6705 252.104 43.7 252.128 43.7344C252.158 43.7 252.192 43.6705 252.207 43.6263C252.3 43.3902 252.379 43.1444 252.487 42.9182C252.693 42.5002 253.027 42.2199 253.465 42.0626C253.637 41.9986 253.808 41.9396 253.98 41.8708C254.01 41.861 254.034 41.8216 254.059 41.797C254.034 41.7774 254.01 41.7479 253.98 41.7331C253.735 41.6348 253.484 41.5561 253.243 41.443C252.821 41.2365 252.546 40.8972 252.384 40.4546C252.325 40.2874 252.266 40.1202 252.197 39.958C252.182 39.9235 252.148 39.8989 252.123 39.8694C252.099 39.8989 252.064 39.9285 252.05 39.9629C251.951 40.2038 251.873 40.4546 251.76 40.6906C251.558 41.1037 251.219 41.384 250.787 41.5413C250.61 41.6053 250.438 41.6692 250.261 41.738C250.232 41.7479 250.207 41.7724 250.158 41.8069H250.173Z" fill="#FCB63A"/>
<path d="M218.583 15.7501C218.632 15.7796 218.662 15.8042 218.691 15.8189C218.888 15.8927 219.084 15.9615 219.276 16.0402C219.762 16.2369 220.091 16.591 220.278 17.0778C220.342 17.245 220.401 17.4121 220.465 17.5744C220.479 17.6138 220.514 17.6433 220.538 17.6777C220.568 17.6433 220.602 17.6138 220.617 17.5695C220.71 17.3335 220.789 17.0876 220.897 16.8614C221.103 16.4434 221.437 16.1632 221.875 16.0058C222.047 15.9419 222.219 15.8829 222.391 15.814C222.42 15.8042 222.445 15.7649 222.469 15.7403C222.445 15.7206 222.42 15.6911 222.391 15.6763C222.145 15.578 221.894 15.4993 221.654 15.3862C221.231 15.1797 220.956 14.8404 220.794 14.3978C220.735 14.2307 220.676 14.0635 220.607 13.9012C220.592 13.8668 220.558 13.8422 220.534 13.8127C220.509 13.8422 220.475 13.8717 220.46 13.9061C220.362 14.1471 220.283 14.3978 220.17 14.6339C219.969 15.0469 219.63 15.3272 219.197 15.4846C219.02 15.5485 218.848 15.6124 218.672 15.6813C218.642 15.6911 218.617 15.7157 218.568 15.7501H218.583Z" fill="#FCB63A"/>
<path d="M310.44 66.3639C310.489 66.3934 310.518 66.418 310.548 66.4327C310.744 66.5065 310.941 66.5753 311.132 66.654C311.619 66.8507 311.948 67.2047 312.134 67.6915C312.198 67.8587 312.257 68.0259 312.321 68.1882C312.336 68.2275 312.37 68.257 312.395 68.2915C312.424 68.257 312.459 68.2275 312.473 68.1833C312.567 67.9472 312.645 67.7014 312.754 67.4752C312.96 67.0572 313.294 66.7769 313.731 66.6196C313.903 66.5556 314.075 66.4966 314.247 66.4278C314.276 66.418 314.301 66.3786 314.326 66.354C314.301 66.3344 314.276 66.3049 314.247 66.2901C314.001 66.1918 313.751 66.1131 313.51 66C313.088 65.7935 312.812 65.4542 312.65 65.0116C312.591 64.8444 312.532 64.6772 312.464 64.515C312.449 64.4805 312.415 64.456 312.39 64.4265C312.365 64.456 312.331 64.4855 312.316 64.5199C312.218 64.7608 312.139 65.0116 312.026 65.2476C311.825 65.6607 311.486 65.941 311.054 66.0983C310.877 66.1623 310.705 66.2262 310.528 66.295C310.498 66.3049 310.474 66.3294 310.425 66.3639H310.44Z" fill="#FCB63A"/>
<path d="M295.873 128.971C295.902 128.991 295.917 129 295.936 129.01C296.049 129.055 296.162 129.094 296.275 129.138C296.555 129.251 296.747 129.453 296.85 129.738C296.885 129.831 296.919 129.93 296.958 130.023C296.968 130.043 296.988 130.063 297.003 130.082C297.017 130.063 297.042 130.043 297.047 130.023C297.101 129.886 297.145 129.748 297.209 129.615C297.327 129.374 297.523 129.217 297.774 129.123C297.872 129.089 297.97 129.05 298.069 129.01C298.088 129.005 298.098 128.981 298.113 128.971C298.098 128.956 298.083 128.941 298.069 128.936C297.926 128.882 297.784 128.833 297.646 128.769C297.405 128.651 297.243 128.455 297.15 128.204C297.116 128.11 297.081 128.012 297.042 127.919C297.032 127.899 297.012 127.884 296.998 127.869C296.983 127.889 296.963 127.904 296.958 127.924C296.904 128.061 296.86 128.209 296.791 128.342C296.673 128.582 296.482 128.74 296.231 128.833C296.133 128.873 296.03 128.907 295.932 128.946C295.917 128.951 295.902 128.966 295.873 128.986V128.971Z" fill="#FCB63A"/>
<path d="M327.291 141.363C327.32 141.382 327.335 141.392 327.354 141.402C327.467 141.446 327.58 141.485 327.693 141.53C327.973 141.643 328.165 141.844 328.268 142.13C328.303 142.223 328.337 142.321 328.376 142.415C328.386 142.434 328.406 142.454 328.42 142.474C328.435 142.454 328.46 142.434 328.465 142.415C328.519 142.277 328.563 142.139 328.627 142.007C328.745 141.766 328.941 141.608 329.192 141.515C329.29 141.481 329.388 141.441 329.487 141.402C329.506 141.397 329.516 141.372 329.531 141.363C329.516 141.348 329.501 141.333 329.487 141.328C329.344 141.274 329.202 141.225 329.064 141.161C328.823 141.043 328.661 140.846 328.568 140.595C328.534 140.502 328.499 140.404 328.46 140.31C328.45 140.291 328.43 140.276 328.416 140.261C328.401 140.281 328.381 140.295 328.376 140.315C328.322 140.453 328.278 140.6 328.209 140.733C328.091 140.974 327.9 141.131 327.649 141.225C327.551 141.264 327.448 141.299 327.349 141.338C327.335 141.343 327.32 141.358 327.291 141.377V141.363Z" fill="#FCB63A"/>
<path d="M321.164 134.434C321.203 134.459 321.228 134.478 321.253 134.488C321.41 134.547 321.572 134.606 321.729 134.67C322.127 134.832 322.392 135.118 322.545 135.516C322.594 135.649 322.643 135.786 322.697 135.919C322.707 135.949 322.736 135.973 322.756 136.003C322.78 135.973 322.81 135.949 322.82 135.914C322.898 135.722 322.957 135.521 323.051 135.339C323.218 135 323.493 134.773 323.847 134.641C323.989 134.586 324.127 134.537 324.264 134.483C324.289 134.473 324.308 134.444 324.328 134.424C324.308 134.405 324.289 134.385 324.264 134.375C324.063 134.296 323.856 134.232 323.665 134.139C323.321 133.972 323.095 133.692 322.962 133.337C322.913 133.205 322.864 133.067 322.81 132.934C322.8 132.905 322.771 132.885 322.751 132.865C322.731 132.89 322.702 132.91 322.692 132.939C322.613 133.136 322.55 133.342 322.456 133.529C322.289 133.869 322.019 134.09 321.665 134.223C321.523 134.277 321.38 134.326 321.238 134.38C321.213 134.39 321.194 134.409 321.154 134.434H321.164Z" fill="#FCB63A"/>
</g>
<g clip-path="url(#clip1_2057_19506)">
<path fill-rule="evenodd" clip-rule="evenodd" d="M174.856 230.449C168.172 226.137 161.84 221.182 155.973 215.915C150.217 210.74 144.702 205.087 139.948 199.05C134.285 191.838 129.402 183.634 127.322 174.771C126.06 169.412 125.168 163.962 124.778 158.493C124.388 153.116 124.407 147.702 125.001 142.343C125.465 138.233 126.171 133.773 127.694 129.901C127.935 129.296 128.158 128.708 128.399 128.103L128.455 127.993L128.566 127.919C129.105 127.534 129.643 127.13 130.182 126.745C133.338 124.487 138.259 122.891 142.028 121.826C148.118 120.12 154.432 119.019 160.726 118.303C167.002 117.569 173.352 117.202 179.684 117.018C179.703 117.018 179.74 117.018 179.758 117.018H179.851H179.944C179.963 117.018 180 117.018 180.018 117.018C186.35 117.202 192.7 117.569 198.995 118.285C205.327 119.019 211.677 120.12 217.804 121.826C221.611 122.891 226.587 124.506 229.744 126.781C230.282 127.167 230.821 127.552 231.378 127.938L231.489 128.011L231.545 128.139C231.768 128.745 232.009 129.332 232.25 129.938C233.81 133.828 234.516 138.324 234.98 142.454C235.593 147.849 235.63 153.281 235.221 158.695C234.813 164.182 233.903 169.651 232.64 175.028C230.412 184.479 224.823 193.159 218.473 200.61C213.515 206.409 207.871 211.841 201.984 216.777C196.024 221.787 189.6 226.485 182.878 230.559C181.615 231.33 180.353 232.082 179.09 232.835L178.83 232.982L178.57 232.817C177.307 232.027 176.082 231.22 174.838 230.412L174.856 230.449Z" fill="url(#paint1_linear_2057_19506)"/>
<path fill-rule="evenodd" clip-rule="evenodd" d="M175.116 230.082C168.822 226.026 162.304 221.016 156.288 215.584C150.328 210.226 144.776 204.445 140.32 198.774C134.675 191.599 129.829 183.433 127.768 174.679C126.524 169.357 125.633 163.907 125.224 158.474C124.816 153.079 124.871 147.684 125.447 142.399C125.892 138.38 126.635 133.828 128.121 130.066C128.362 129.479 128.585 128.873 128.826 128.268C129.365 127.882 129.903 127.479 130.442 127.093C133.487 124.91 138.482 123.276 142.14 122.249C148.118 120.56 154.432 119.459 160.763 118.743C167.114 118.009 173.52 117.661 179.703 117.477C179.758 117.477 179.814 117.477 179.87 117.477C179.926 117.477 179.981 117.477 180.037 117.477C186.22 117.661 192.608 118.009 198.958 118.743C205.327 119.477 211.658 120.597 217.693 122.267C221.37 123.295 226.42 124.946 229.484 127.148C230.022 127.534 230.579 127.938 231.118 128.305C231.359 128.91 231.601 129.516 231.823 130.103C233.346 133.883 234.089 138.471 234.534 142.509C235.129 147.831 235.184 153.263 234.776 158.658C234.367 164.127 233.457 169.596 232.195 174.936C229.985 184.295 224.433 192.939 218.12 200.334C213.441 205.821 207.759 211.345 201.687 216.465C195.56 221.604 188.987 226.357 182.655 230.211C181.392 230.981 180.13 231.734 178.867 232.486C177.605 231.697 176.379 230.89 175.135 230.082H175.116Z" fill="url(#paint2_linear_2057_19506)"/>
<path fill-rule="evenodd" clip-rule="evenodd" d="M178.217 225.017C172.22 221.2 165.869 216.355 159.965 211.143C154.116 205.987 148.731 200.426 144.498 195.141C139.317 188.663 134.694 181.175 132.762 173.229C131.537 168.201 130.664 163.062 130.256 157.906C129.847 152.804 129.866 147.72 130.404 142.692C130.776 139.352 131.481 134.838 132.725 131.663C132.762 131.571 132.8 131.443 132.855 131.314C132.948 131.241 133.06 131.167 133.152 131.094C135.492 129.424 140.468 127.827 143.179 127.075C148.917 125.478 155.118 124.414 161.357 123.717C167.596 123.019 173.909 122.671 179.833 122.505C185.756 122.671 192.05 123.019 198.308 123.717C204.565 124.414 210.804 125.497 216.597 127.112C219.308 127.864 224.34 129.479 226.698 131.149C226.81 131.222 226.903 131.296 226.995 131.369C227.033 131.479 227.088 131.608 227.125 131.718C228.407 134.911 229.112 139.462 229.484 142.821C230.022 147.849 230.041 152.969 229.614 158.089C229.187 163.246 228.332 168.421 227.107 173.468C225.046 181.928 219.754 189.856 213.979 196.517C209.56 201.619 203.99 206.923 198.029 211.859C192.032 216.832 185.626 221.42 179.573 225.017C179.331 225.164 179.09 225.311 178.848 225.439C178.607 225.292 178.384 225.146 178.143 224.999L178.217 225.017Z" fill="#095235"/>
<path fill-rule="evenodd" clip-rule="evenodd" d="M178.923 225.127C179.109 225.017 179.294 224.907 179.48 224.797C185.589 221.145 191.939 216.612 197.881 211.712C203.786 206.831 209.3 201.546 213.812 196.352C219.55 189.709 224.823 181.836 226.884 173.413C228.11 168.384 228.964 163.228 229.391 158.089C229.818 153.006 229.8 147.886 229.261 142.876C228.871 139.352 228.24 135.15 226.922 131.846C226.884 131.755 226.847 131.681 226.829 131.589C226.736 131.534 226.662 131.479 226.587 131.424C224.192 129.718 219.476 128.231 216.579 127.424C210.73 125.79 204.547 124.726 198.327 124.029C192.125 123.331 185.867 123.001 179.87 122.836C173.872 123.001 167.615 123.35 161.413 124.029C155.212 124.726 149.066 125.79 143.272 127.387C140.376 128.194 135.715 129.663 133.338 131.369C133.246 131.443 133.171 131.479 133.097 131.534C133.06 131.608 133.023 131.7 133.004 131.791C131.686 135.095 131.073 139.26 130.702 142.766C130.145 147.776 130.145 152.859 130.553 157.924C130.962 163.044 131.853 168.182 133.06 173.192C134.972 181.102 139.577 188.553 144.739 194.994C149.047 200.389 154.413 205.895 160.206 211.015C166.055 216.172 172.35 220.925 178.403 224.797C178.589 224.925 178.774 225.017 178.96 225.146L178.923 225.127Z" fill="url(#paint3_radial_2057_19506)"/>
<path style="mix-blend-mode:screen" opacity="0.52" fill-rule="evenodd" clip-rule="evenodd" d="M204.603 125.827C198.197 124.818 190.064 123.992 179.833 123.717C161.989 124.212 150.532 126.304 143.514 128.268C136.495 130.231 133.914 132.085 133.914 132.085C133.914 132.085 132.41 135.902 131.649 142.821C130.887 149.813 130.887 159.924 134.025 172.917C134.322 174.183 134.731 175.431 135.176 176.679C141.508 175.028 148.471 172.825 156.158 170.036C182.562 160.401 197.51 139.077 204.584 125.845L204.603 125.827Z" fill="url(#paint4_linear_2057_19506)"/>
<path style="mix-blend-mode:screen" opacity="0.52" fill-rule="evenodd" clip-rule="evenodd" d="M179.833 123.717C161.989 124.212 150.532 126.304 143.514 128.268C136.495 130.231 133.914 132.085 133.914 132.085C133.914 132.085 132.41 135.902 131.649 142.821C130.887 149.813 130.887 159.924 134.025 172.917C134.248 173.798 134.508 174.697 134.787 175.578C148.044 169.963 160.058 161.392 168.246 153.795C177.289 145.408 183.026 132.379 186.016 123.974C184.029 123.863 181.968 123.79 179.814 123.717H179.833Z" fill="url(#paint5_linear_2057_19506)"/>
<path d="M163.4 146.674C163.27 146.674 163.177 146.564 163.177 146.454C163.177 146.344 163.27 146.234 163.4 146.234C163.53 146.234 163.623 146.326 163.623 146.454C163.623 146.583 163.53 146.674 163.4 146.674Z" fill="white"/>
<path d="M137.293 153.666C137.163 153.666 137.07 153.556 137.07 153.446C137.07 153.336 137.182 153.226 137.293 153.226C137.405 153.226 137.516 153.336 137.516 153.446C137.516 153.556 137.423 153.666 137.293 153.666Z" fill="white"/>
<path d="M136.031 155.098C135.845 155.098 135.696 154.951 135.696 154.767C135.696 154.584 135.845 154.437 136.031 154.437C136.216 154.437 136.365 154.584 136.365 154.767C136.365 154.951 136.216 155.098 136.031 155.098Z" fill="white"/>
<path d="M165.349 179.322C165.089 179.322 164.904 179.12 164.904 178.881C164.904 178.643 165.108 178.423 165.349 178.423C165.591 178.423 165.814 178.624 165.814 178.881C165.814 179.138 165.609 179.322 165.349 179.322Z" fill="white"/>
<path d="M154.599 168.586C154.599 168.586 154.469 168.531 154.469 168.458C154.469 168.384 154.524 168.329 154.599 168.329C154.673 168.329 154.729 168.384 154.729 168.458C154.729 168.531 154.673 168.586 154.599 168.586Z" fill="white"/>
<path d="M205.178 147.812C205.178 147.812 205.011 147.739 205.011 147.665C205.011 147.592 205.085 147.519 205.178 147.519C205.271 147.519 205.326 147.592 205.326 147.665C205.326 147.739 205.252 147.812 205.178 147.812Z" fill="white"/>
<path d="M161.358 168.513C161.246 168.513 161.153 168.421 161.153 168.293C161.153 168.164 161.246 168.091 161.358 168.091C161.469 168.091 161.58 168.182 161.58 168.293C161.58 168.403 161.488 168.513 161.358 168.513Z" fill="white"/>
<path d="M148.434 179.872C148.434 179.872 148.267 179.799 148.267 179.707C148.267 179.615 148.341 179.542 148.434 179.542C148.527 179.542 148.601 179.615 148.601 179.707C148.601 179.799 148.527 179.872 148.434 179.872Z" fill="white"/>
<path d="M150.309 181.763C150.068 181.763 149.845 181.561 149.845 181.304C149.845 181.047 150.049 180.845 150.309 180.845C150.569 180.845 150.755 181.047 150.755 181.304C150.755 181.561 150.551 181.763 150.309 181.763Z" fill="white"/>
<path d="M166.946 168.072C166.854 168.072 166.761 167.999 166.761 167.889C166.761 167.779 166.835 167.705 166.946 167.705C167.058 167.705 167.132 167.779 167.132 167.889C167.132 167.999 167.058 168.072 166.946 168.072Z" fill="white"/>
<path d="M172.276 171.908C172.09 171.908 171.941 171.761 171.941 171.577C171.941 171.394 172.09 171.247 172.276 171.247C172.461 171.247 172.61 171.394 172.61 171.577C172.61 171.761 172.461 171.908 172.276 171.908Z" fill="white"/>
<path d="M149.047 171.192C148.824 171.192 148.657 171.027 148.657 170.807C148.657 170.586 148.824 170.421 149.047 170.421C149.269 170.421 149.437 170.586 149.437 170.807C149.437 171.027 149.269 171.192 149.047 171.192Z" fill="white"/>
<path d="M219.55 168.972C219.345 168.972 219.16 168.806 219.16 168.586C219.16 168.366 219.327 168.201 219.55 168.201C219.772 168.201 219.94 168.366 219.94 168.586C219.94 168.806 219.772 168.972 219.55 168.972Z" fill="white"/>
<path d="M222.595 171.669C222.483 171.669 222.391 171.577 222.391 171.467C222.391 171.357 222.483 171.265 222.595 171.265C222.706 171.265 222.799 171.357 222.799 171.467C222.799 171.577 222.706 171.669 222.595 171.669Z" fill="white"/>
<path d="M201.799 171.265C201.539 171.265 201.334 171.064 201.334 170.807C201.334 170.55 201.539 170.348 201.799 170.348C202.059 170.348 202.263 170.55 202.263 170.807C202.263 171.064 202.059 171.265 201.799 171.265Z" fill="white"/>
<path d="M192.793 162.438C192.682 162.438 192.607 162.365 192.607 162.255C192.607 162.145 192.7 162.071 192.793 162.071C192.886 162.071 192.979 162.145 192.979 162.255C192.979 162.365 192.905 162.438 192.793 162.438Z" fill="white"/>
<path d="M175.413 151.593C175.191 151.593 175.005 151.409 175.005 151.189C175.005 150.969 175.191 150.785 175.413 150.785C175.636 150.785 175.822 150.969 175.822 151.189C175.822 151.409 175.636 151.593 175.413 151.593Z" fill="white"/>
<path d="M164.273 129.075C164.106 129.075 163.957 128.928 163.957 128.763C163.957 128.598 164.106 128.451 164.273 128.451C164.44 128.451 164.588 128.58 164.588 128.763C164.588 128.947 164.458 129.075 164.273 129.075Z" fill="white"/>
<path d="M178.18 157.08C178.068 157.08 177.976 156.988 177.976 156.878C177.976 156.768 178.068 156.676 178.18 156.676C178.291 156.676 178.384 156.768 178.384 156.878C178.384 156.988 178.291 157.08 178.18 157.08Z" fill="white"/>
<path d="M156.994 151.299C156.994 151.299 156.864 151.244 156.864 151.171C156.864 151.097 156.919 151.042 156.994 151.042C157.068 151.042 157.124 151.097 157.124 151.171C157.124 151.244 157.068 151.299 156.994 151.299Z" fill="white"/>
<path d="M168.488 143.224C168.339 143.224 168.209 143.096 168.209 142.949C168.209 142.802 168.339 142.674 168.488 142.674C168.636 142.674 168.766 142.802 168.766 142.949C168.766 143.096 168.636 143.224 168.488 143.224Z" fill="white"/>
<path d="M139.41 196.737C139.317 196.737 139.224 196.664 139.224 196.572C139.224 196.48 139.298 196.389 139.41 196.389C139.521 196.389 139.595 196.462 139.595 196.572C139.595 196.682 139.521 196.737 139.41 196.737Z" fill="white"/>
<path d="M189.841 167.265C189.674 167.265 189.562 167.136 189.562 166.99C189.562 166.843 189.692 166.714 189.841 166.714C189.99 166.714 190.12 166.843 190.12 166.99C190.12 167.136 189.99 167.265 189.841 167.265Z" fill="white"/>
<path d="M148.898 134.195C148.75 134.195 148.638 134.085 148.638 133.938C148.638 133.792 148.75 133.682 148.898 133.682C149.047 133.682 149.158 133.792 149.158 133.938C149.158 134.085 149.047 134.195 148.898 134.195Z" fill="white"/>
<path d="M193.499 151.593C193.295 151.593 193.146 151.427 193.146 151.244C193.146 151.06 193.313 150.895 193.499 150.895C193.684 150.895 193.852 151.06 193.852 151.244C193.852 151.427 193.684 151.593 193.499 151.593Z" fill="white"/>
<path d="M197.026 158.438C197.026 158.438 196.896 158.383 196.896 158.309C196.896 158.236 196.952 158.181 197.026 158.181C197.101 158.181 197.175 158.236 197.175 158.309C197.175 158.383 197.119 158.438 197.026 158.438Z" fill="white"/>
<path d="M184.475 155.869C184.308 155.869 184.159 155.74 184.159 155.557C184.159 155.373 184.308 155.245 184.475 155.245C184.642 155.245 184.79 155.391 184.79 155.557C184.79 155.722 184.661 155.869 184.475 155.869Z" fill="white"/>
<path d="M207.592 175.67C207.443 175.67 207.313 175.541 207.313 175.395C207.313 175.248 207.443 175.119 207.592 175.119C207.741 175.119 207.871 175.248 207.871 175.395C207.871 175.541 207.741 175.67 207.592 175.67Z" fill="white"/>
<path d="M174.875 135.719C174.671 135.719 174.522 135.553 174.522 135.37C174.522 135.186 174.689 135.021 174.875 135.021C175.06 135.021 175.228 135.186 175.228 135.37C175.228 135.553 175.06 135.719 174.875 135.719Z" fill="white"/>
<g clip-path="url(#clip2_2057_19506)">
<path d="M200.447 173.817C200.447 168.04 198.927 168.04 198.775 167.896C198.623 167.751 199.839 162.552 196.343 162.263C191.63 162.263 191.782 153.454 191.782 153.454H189.045C189.045 153.454 189.045 152.876 189.045 152.587C189.045 147.822 184.941 143.922 179.924 143.922C174.907 143.922 170.802 147.822 170.802 152.587C170.802 152.876 170.802 153.165 170.802 153.454H167.914C167.914 153.454 168.218 162.119 163.353 162.263C160.009 162.552 161.225 167.751 160.921 167.896C160.769 168.04 159.249 167.896 159.249 173.817C159.249 173.817 159.249 173.961 159.249 174.106C159.249 174.106 159.249 174.25 159.249 174.394C159.249 180.171 160.769 180.171 160.921 180.315C161.073 180.46 159.857 185.659 163.353 185.948C168.066 185.948 167.914 194.757 167.914 194.757H170.65C170.65 194.757 170.65 195.335 170.65 195.624C170.65 200.39 174.755 204.289 179.772 204.289C184.789 204.289 188.893 200.39 188.893 195.624C188.893 195.335 188.893 195.046 188.893 194.757H191.782C191.782 194.757 191.478 186.092 196.343 185.948C199.687 185.659 198.471 180.604 198.775 180.315C198.927 180.171 200.447 180.315 200.447 174.394C200.447 174.394 200.447 174.25 200.447 174.106C200.447 173.961 200.447 173.961 200.447 173.817ZM174.755 184.215L177.796 173.528C175.819 172.806 174.451 171.073 174.451 168.906C174.451 166.163 176.731 163.996 179.62 163.996C182.508 163.996 184.789 166.163 184.789 168.906C184.789 170.784 183.725 172.373 182.052 173.239L185.093 184.215H174.451H174.755Z" fill="url(#paint6_linear_2057_19506)"/>
</g>
</g>
<defs>
<linearGradient id="paint0_linear_2057_19506" x1="178.941" y1="209.924" x2="178.941" y2="68.9012" gradientUnits="userSpaceOnUse">
<stop offset="0.3" stop-color="white"/>
<stop offset="0.77" stop-color="#FCB63A" stop-opacity="0"/>
</linearGradient>
<linearGradient id="paint1_linear_2057_19506" x1="179.963" y1="151.024" x2="182.557" y2="201.053" gradientUnits="userSpaceOnUse">
<stop stop-color="#E6E7E8"/>
<stop offset="1" stop-color="#BCBEC0"/>
</linearGradient>
<linearGradient id="paint2_linear_2057_19506" x1="227.107" y1="128.25" x2="136.127" y2="195.128" gradientUnits="userSpaceOnUse">
<stop stop-color="#813A08"/>
<stop offset="0.13" stop-color="#C88A29"/>
<stop offset="0.28" stop-color="#F1C03D"/>
<stop offset="0.41" stop-color="#FBE470"/>
<stop offset="0.55" stop-color="white"/>
<stop offset="0.66" stop-color="white"/>
<stop offset="0.75" stop-color="#FBE470"/>
<stop offset="0.85" stop-color="#E9B335"/>
<stop offset="1" stop-color="#AA5B14"/>
</linearGradient>
<radialGradient id="paint3_radial_2057_19506" cx="0" cy="0" r="1" gradientUnits="userSpaceOnUse" gradientTransform="translate(161.395 147.886) scale(66.9008 66.1206)">
<stop offset="0.09" stop-color="#B0D235"/>
<stop offset="0.2" stop-color="#A5CA34"/>
<stop offset="0.38" stop-color="#89B632"/>
<stop offset="0.61" stop-color="#5B952E"/>
<stop offset="0.78" stop-color="#367B2C"/>
<stop offset="1" stop-color="#114A1D"/>
</radialGradient>
<linearGradient id="paint4_linear_2057_19506" x1="192.83" y1="181.047" x2="153.994" y2="129.389" gradientUnits="userSpaceOnUse">
<stop/>
<stop offset="0.11" stop-color="#040501"/>
<stop offset="0.25" stop-color="#121404"/>
<stop offset="0.4" stop-color="#282E0A"/>
<stop offset="0.56" stop-color="#465113"/>
<stop offset="0.74" stop-color="#6E7F1D"/>
<stop offset="0.91" stop-color="#9EB62A"/>
<stop offset="1" stop-color="#B9D532"/>
</linearGradient>
<linearGradient id="paint5_linear_2057_19506" x1="170.122" y1="171.577" x2="149.258" y2="123.518" gradientUnits="userSpaceOnUse">
<stop/>
<stop offset="0.11" stop-color="#040501"/>
<stop offset="0.25" stop-color="#121404"/>
<stop offset="0.4" stop-color="#282E0A"/>
<stop offset="0.56" stop-color="#465113"/>
<stop offset="0.74" stop-color="#6E7F1D"/>
<stop offset="0.91" stop-color="#9EB62A"/>
<stop offset="1" stop-color="#B9D532"/>
</linearGradient>
<linearGradient id="paint6_linear_2057_19506" x1="202.395" y1="140.2" x2="146.054" y2="189.106" gradientUnits="userSpaceOnUse">
<stop stop-color="#813A08"/>
<stop offset="0.13" stop-color="#C88A29"/>
<stop offset="0.28" stop-color="#F1C03D"/>
<stop offset="0.41" stop-color="#FBE470"/>
<stop offset="0.552083" stop-color="white"/>
<stop offset="0.75" stop-color="#FBE470"/>
<stop offset="0.85" stop-color="#E9B335"/>
<stop offset="1" stop-color="#AA5B14"/>
</linearGradient>
<clipPath id="clip0_2057_19506">
<rect width="357" height="220" fill="white" transform="translate(0.5)"/>
</clipPath>
<clipPath id="clip1_2057_19506">
<rect width="111" height="116" fill="white" transform="translate(124.5 117)"/>
</clipPath>
<clipPath id="clip2_2057_19506">
<rect width="40.8947" height="59.9333" fill="white" transform="translate(159.553 144.067)"/>
</clipPath>
</defs>
</svg>
