<svg width="32" height="32" viewBox="0 0 32 32" fill="none" xmlns="http://www.w3.org/2000/svg">
<g id="mosque type">
<path id="Vector" d="M29.3333 26.667H28V10.667H29.3333C29.6869 10.667 30.0261 10.5265 30.2761 10.2765C30.5262 10.0264 30.6667 9.68728 30.6667 9.33366C30.6667 8.98004 30.5262 8.6409 30.2761 8.39085C30.0261 8.1408 29.6869 8.00033 29.3333 8.00033H28V4.00033C28 3.6467 27.8595 3.30756 27.6095 3.05752C27.3594 2.80747 27.0203 2.66699 26.6667 2.66699H5.33333C4.97971 2.66699 4.64057 2.80747 4.39052 3.05752C4.14047 3.30756 3.99999 3.6467 3.99999 4.00033V8.00033H2.66666C2.31304 8.00033 1.9739 8.1408 1.72385 8.39085C1.4738 8.6409 1.33333 8.98004 1.33333 9.33366C1.33333 9.68728 1.4738 10.0264 1.72385 10.2765C1.9739 10.5265 2.31304 10.667 2.66666 10.667H3.99999V26.667H2.66666C2.31304 26.667 1.9739 26.8075 1.72385 27.0575C1.4738 27.3076 1.33333 27.6467 1.33333 28.0003C1.33333 28.3539 1.4738 28.6931 1.72385 28.9431C1.9739 29.1932 2.31304 29.3337 2.66666 29.3337H29.3333C29.6869 29.3337 30.0261 29.1932 30.2761 28.9431C30.5262 28.6931 30.6667 28.3539 30.6667 28.0003C30.6667 27.6467 30.5262 27.3076 30.2761 27.0575C30.0261 26.8075 29.6869 26.667 29.3333 26.667ZM20 26.667H12V21.9603C11.9968 20.5313 12.3635 19.1257 13.0644 17.8804C13.7654 16.6351 14.7767 15.5923 16 14.8537C17.2233 15.5923 18.2346 16.6351 18.9356 17.8804C19.6365 19.1257 20.0032 20.5313 20 21.9603V26.667ZM25.3333 26.667H22.6667V21.9603C22.6756 19.9207 22.1117 17.9195 21.0391 16.1846C19.9666 14.4497 18.4285 13.0507 16.6 12.147C16.4139 12.0532 16.2084 12.0044 16 12.0044C15.7916 12.0044 15.5861 12.0532 15.4 12.147C13.5715 13.0507 12.0334 14.4497 10.9608 16.1846C9.88831 17.9195 9.32441 19.9207 9.33333 21.9603V26.667H6.66666V10.667H25.3333V26.667ZM25.3333 8.00033H6.66666V5.33366H25.3333V8.00033Z" fill="#BDBDBD"/>
</g>
</svg>
