<svg width="32" height="32" viewBox="0 0 32 32" fill="none" xmlns="http://www.w3.org/2000/svg">
<path fill-rule="evenodd" clip-rule="evenodd" d="M16 0.333252C16.5523 0.333252 17 0.780967 17 1.33325V5.33325C17 5.88554 16.5523 6.33325 16 6.33325C15.4477 6.33325 15 5.88554 15 5.33325V1.33325C15 0.780967 15.4477 0.333252 16 0.333252Z" fill="#006E8C"/>
<path fill-rule="evenodd" clip-rule="evenodd" d="M5.67101 13.2437C6.12481 8.19626 10.6302 4.33325 16.0003 4.33325C21.3704 4.33325 25.8758 8.19626 26.3296 13.2437C26.3548 13.5234 26.2612 13.8007 26.0718 14.008C25.8823 14.2152 25.6145 14.3333 25.3337 14.3333H6.667C6.38621 14.3333 6.11836 14.2152 5.92891 14.008C5.73946 13.8007 5.64587 13.5234 5.67101 13.2437ZM7.84677 12.3333H24.1539C23.3067 8.93611 20.0211 6.33325 16.0003 6.33325C11.9795 6.33325 8.69388 8.93612 7.84677 12.3333Z" fill="#006E8C"/>
<path fill-rule="evenodd" clip-rule="evenodd" d="M21.667 24C21.667 23.4477 22.1147 23 22.667 23H25.3337C25.8859 23 26.3337 23.4477 26.3337 24V30.6667C26.3337 31.219 25.8859 31.6667 25.3337 31.6667H22.667C22.1147 31.6667 21.667 31.219 21.667 30.6667V24ZM23.667 25V29.6667H24.3337V25H23.667Z" fill="#006E8C"/>
<path fill-rule="evenodd" clip-rule="evenodd" d="M5.66699 24C5.66699 23.4477 6.11471 23 6.66699 23H9.33366C9.88594 23 10.3337 23.4477 10.3337 24V30.6667C10.3337 31.219 9.88594 31.6667 9.33366 31.6667H6.66699C6.11471 31.6667 5.66699 31.219 5.66699 30.6667V24ZM7.66699 25V29.6667H8.33366V25H7.66699Z" fill="#006E8C"/>
<path fill-rule="evenodd" clip-rule="evenodd" d="M3 16C3 15.4477 3.44772 15 4 15H28C28.5523 15 29 15.4477 29 16V30.6667C29 31.219 28.5523 31.6667 28 31.6667H4C3.44772 31.6667 3 31.219 3 30.6667V16ZM5 17V29.6667H27V17H5Z" fill="#006E8C"/>
<path fill-rule="evenodd" clip-rule="evenodd" d="M4.33301 13.3333C4.33301 12.781 4.78072 12.3333 5.33301 12.3333H26.6663C27.2186 12.3333 27.6663 12.781 27.6663 13.3333V15.9999C27.6663 16.5522 27.2186 16.9999 26.6663 16.9999H5.33301C4.78072 16.9999 4.33301 16.5522 4.33301 15.9999V13.3333ZM6.33301 14.3333V14.9999H25.6663V14.3333H6.33301Z" fill="#006E8C"/>
<path fill-rule="evenodd" clip-rule="evenodd" d="M11 21.3333C11 20.781 11.4477 20.3333 12 20.3333H20C20.5523 20.3333 21 20.781 21 21.3333V30.6666C21 31.2189 20.5523 31.6666 20 31.6666H12C11.4477 31.6666 11 31.2189 11 30.6666V21.3333ZM13 22.3333V29.6666H19V22.3333H13Z" fill="#006E8C"/>
<path fill-rule="evenodd" clip-rule="evenodd" d="M9.66699 18.6667C9.66699 18.1145 10.1147 17.6667 10.667 17.6667H21.3337C21.8859 17.6667 22.3337 18.1145 22.3337 18.6667V21.3334C22.3337 21.8857 21.8859 22.3334 21.3337 22.3334H10.667C10.1147 22.3334 9.66699 21.8857 9.66699 21.3334V18.6667ZM11.667 19.6667V20.3334H20.3337V19.6667H11.667Z" fill="#006E8C"/>
<path fill-rule="evenodd" clip-rule="evenodd" d="M1.66699 30.6667C1.66699 30.1145 2.11471 29.6667 2.66699 29.6667H29.3337C29.8859 29.6667 30.3337 30.1145 30.3337 30.6667C30.3337 31.219 29.8859 31.6667 29.3337 31.6667H2.66699C2.11471 31.6667 1.66699 31.219 1.66699 30.6667Z" fill="#006E8C"/>
<path fill-rule="evenodd" clip-rule="evenodd" d="M16 23C16.5523 23 17 23.4477 17 24V29.3333C17 29.8856 16.5523 30.3333 16 30.3333C15.4477 30.3333 15 29.8856 15 29.3333V24C15 23.4477 15.4477 23 16 23Z" fill="#006E8C"/>
</svg>
