<svg width="32" height="32" viewBox="0 0 32 32" fill="none" xmlns="http://www.w3.org/2000/svg">
<path fill-rule="evenodd" clip-rule="evenodd" d="M16 0.333008C16.5523 0.333008 17 0.780723 17 1.33301V5.33301C17 5.88529 16.5523 6.33301 16 6.33301C15.4477 6.33301 15 5.88529 15 5.33301V1.33301C15 0.780723 15.4477 0.333008 16 0.333008Z" fill="#BDBDBD"/>
<path fill-rule="evenodd" clip-rule="evenodd" d="M5.67068 13.2435C6.12447 8.19601 10.6298 4.33301 16 4.33301C21.3701 4.33301 25.8754 8.19601 26.3293 13.2434C26.3545 13.5231 26.2609 13.8005 26.0714 14.0077C25.882 14.215 25.6141 14.333 25.3333 14.333H6.66666C6.38587 14.333 6.11802 14.215 5.92857 14.0077C5.73912 13.8005 5.64553 13.5231 5.67068 13.2435ZM7.84644 12.333H24.1535C23.3064 8.93587 20.0208 6.33301 16 6.33301C11.9792 6.33301 8.69355 8.93587 7.84644 12.333Z" fill="#BDBDBD"/>
<path fill-rule="evenodd" clip-rule="evenodd" d="M21.6667 24C21.6667 23.4477 22.1144 23 22.6667 23H25.3333C25.8856 23 26.3333 23.4477 26.3333 24V30.6667C26.3333 31.219 25.8856 31.6667 25.3333 31.6667H22.6667C22.1144 31.6667 21.6667 31.219 21.6667 30.6667V24ZM23.6667 25V29.6667H24.3333V25H23.6667Z" fill="#BDBDBD"/>
<path fill-rule="evenodd" clip-rule="evenodd" d="M5.66667 24C5.66667 23.4477 6.11439 23 6.66667 23H9.33334C9.88562 23 10.3333 23.4477 10.3333 24V30.6667C10.3333 31.219 9.88562 31.6667 9.33334 31.6667H6.66667C6.11439 31.6667 5.66667 31.219 5.66667 30.6667V24ZM7.66667 25V29.6667H8.33334V25H7.66667Z" fill="#BDBDBD"/>
<path fill-rule="evenodd" clip-rule="evenodd" d="M3 16C3 15.4477 3.44772 15 4 15H28C28.5523 15 29 15.4477 29 16V30.6667C29 31.219 28.5523 31.6667 28 31.6667H4C3.44772 31.6667 3 31.219 3 30.6667V16ZM5 17V29.6667H27V17H5Z" fill="#BDBDBD"/>
<path fill-rule="evenodd" clip-rule="evenodd" d="M4.33333 13.333C4.33333 12.7807 4.78104 12.333 5.33333 12.333H26.6667C27.2189 12.333 27.6667 12.7807 27.6667 13.333V15.9997C27.6667 16.552 27.2189 16.9997 26.6667 16.9997H5.33333C4.78104 16.9997 4.33333 16.552 4.33333 15.9997V13.333ZM6.33333 14.333V14.9997H25.6667V14.333H6.33333Z" fill="#BDBDBD"/>
<path fill-rule="evenodd" clip-rule="evenodd" d="M11 21.333C11 20.7807 11.4477 20.333 12 20.333H20C20.5523 20.333 21 20.7807 21 21.333V30.6663C21 31.2186 20.5523 31.6663 20 31.6663H12C11.4477 31.6663 11 31.2186 11 30.6663V21.333ZM13 22.333V29.6663H19V22.333H13Z" fill="#BDBDBD"/>
<path fill-rule="evenodd" clip-rule="evenodd" d="M9.66667 18.667C9.66667 18.1147 10.1144 17.667 10.6667 17.667H21.3333C21.8856 17.667 22.3333 18.1147 22.3333 18.667V21.3337C22.3333 21.8859 21.8856 22.3337 21.3333 22.3337H10.6667C10.1144 22.3337 9.66667 21.8859 9.66667 21.3337V18.667ZM11.6667 19.667V20.3337H20.3333V19.667H11.6667Z" fill="#BDBDBD"/>
<path fill-rule="evenodd" clip-rule="evenodd" d="M1.66667 30.667C1.66667 30.1147 2.11439 29.667 2.66667 29.667H29.3333C29.8856 29.667 30.3333 30.1147 30.3333 30.667C30.3333 31.2193 29.8856 31.667 29.3333 31.667H2.66667C2.11439 31.667 1.66667 31.2193 1.66667 30.667Z" fill="#BDBDBD"/>
<path fill-rule="evenodd" clip-rule="evenodd" d="M16 23C16.5523 23 17 23.4477 17 24V29.3333C17 29.8856 16.5523 30.3333 16 30.3333C15.4477 30.3333 15 29.8856 15 29.3333V24C15 23.4477 15.4477 23 16 23Z" fill="#BDBDBD"/>
</svg>
