<svg width="250" height="320" viewBox="0 0 250 320" fill="none" xmlns="http://www.w3.org/2000/svg">
<rect width="250" height="320" fill="#F5F5F5"/>
<g clip-path="url(#clip0_3469_54775)">
<path d="M131.134 211.095C131.081 210.906 131.195 210.701 131.386 210.648L183.008 195.251L182.809 194.464L130.791 209.778L182.451 193.98L179.912 192.497C176.474 193.208 169.483 194.616 161.157 196.144C149.714 198.24 132.583 199.776 125.515 208.492C118.448 199.783 101.317 198.24 89.8732 196.144C81.5478 194.616 74.5566 193.208 71.1182 192.497L68.5794 193.98L120.239 209.778L68.1982 194.464L68 195.251L119.622 210.648C119.813 210.709 119.927 210.906 119.874 211.095L119.485 212.487C119.271 213.244 119.843 213.993 120.636 213.993H130.372C131.165 213.993 131.736 213.244 131.523 212.487L131.134 211.095Z" fill="#C5C5C5"/>
<path d="M147.724 169.42C147.724 169.42 147.663 169.405 147.632 169.397H136.745L146.687 168.792C147.624 168.732 148.471 168.202 148.913 167.377C150.178 165.017 150.971 162.013 150.453 158.358C149.172 149.37 133.97 140.381 127.817 135.471C127.817 135.395 127.84 135.327 127.84 135.244C127.84 134.51 127.49 133.851 126.948 133.435C126.46 133.057 126.148 132.489 126.094 131.877L125.873 129.471C126.148 129.334 126.338 129.062 126.338 128.737C126.338 128.714 126.338 128.699 126.338 128.676C126.59 128.646 126.842 128.593 127.093 128.525C129.876 127.768 131.652 125.165 131.454 122.411C131.454 122.411 131.454 122.419 131.454 122.426C131.446 122.479 131.431 122.532 131.424 122.585C131.012 124.469 129.495 126.066 127.398 126.437C124.997 126.86 122.572 125.423 121.802 123.123C120.963 120.618 122.244 117.97 124.6 116.986C124.585 116.986 124.57 116.986 124.562 116.986C121.345 117.501 119.096 120.603 119.644 123.796C120.102 126.459 122.221 128.321 124.692 128.661C124.692 128.684 124.692 128.699 124.692 128.722C124.692 129.047 124.882 129.327 125.157 129.455L124.936 131.861C124.875 132.474 124.57 133.042 124.082 133.42C123.54 133.844 123.19 134.495 123.19 135.228C123.19 135.304 123.205 135.38 123.212 135.455C117.068 140.366 101.858 149.355 100.577 158.343C100.058 161.998 100.851 165.001 102.117 167.362C102.559 168.187 103.405 168.716 104.343 168.777L114.285 169.382H103.398C103.398 169.382 103.337 169.397 103.306 169.405C100.958 169.927 99.3037 172.008 99.3037 174.399V196.008C100.241 196.167 101.187 196.341 102.132 196.515V187.761C102.132 184.235 104.831 182.759 105.99 182.237C107.149 181.715 107.324 181.027 107.324 181.027C107.324 181.027 107.499 181.708 108.658 182.237C109.817 182.759 112.516 184.235 112.516 187.761V199.019C113.69 199.397 114.834 199.806 115.939 200.252V187.526C115.939 181.012 120.925 178.288 123.068 177.319C125.202 176.351 125.53 175.095 125.53 175.095C125.53 175.095 125.858 176.358 127.993 177.319C130.135 178.288 135.121 181.012 135.121 187.526V200.252C136.227 199.806 137.37 199.397 138.544 199.019V187.761C138.544 184.235 141.251 182.759 142.402 182.237C143.561 181.715 143.736 181.027 143.736 181.027C143.736 181.027 143.912 181.708 145.07 182.237C146.229 182.759 148.928 184.235 148.928 187.761V196.515C149.881 196.341 150.819 196.167 151.757 196.008V174.399C151.757 172.008 150.095 169.927 147.754 169.405L147.724 169.42Z" fill="#C5C5C5"/>
<path d="M124.471 122.683L124.227 124.083L125.5 123.425L126.773 124.083L126.529 122.683L127.558 121.685L126.133 121.48L125.5 120.202L124.867 121.48L123.441 121.685L124.471 122.683Z" fill="#C5C5C5"/>
<path d="M94.1961 154.469H93.3194V141.311H93.2813C93.3651 141.251 93.4414 141.175 93.4871 141.084C93.7997 140.494 93.9979 139.745 93.8683 138.837C93.4947 136.196 88.2876 133.563 87.67 132.587C87.0525 133.556 81.8453 136.196 81.4717 138.837C81.3421 139.745 81.5403 140.494 81.8529 141.084C81.9063 141.175 81.9749 141.251 82.0588 141.311H82.0206V154.469H81.1515C80.6941 154.469 80.3281 154.832 80.3281 155.286V159.47C80.3281 160.348 80.8084 161.165 81.5785 161.604L82.0206 161.853V192.958C84.4298 193.42 87.0677 193.919 89.8581 194.434C90.9636 194.638 92.1224 194.835 93.3194 195.031V161.853L93.7692 161.604C94.5392 161.165 95.0195 160.355 95.0195 159.47V155.286C95.0195 154.832 94.6536 154.469 94.2038 154.469H94.1961ZM85.299 154.469H83.3167V145.147C83.3167 144.603 83.7589 144.171 84.3078 144.171C84.5823 144.171 84.8263 144.277 85.0092 144.459C85.1922 144.633 85.299 144.882 85.299 145.147V154.469ZM88.6611 154.469H86.6865V145.147C86.6865 144.603 87.1287 144.171 87.67 144.171C88.2113 144.171 88.6535 144.61 88.6535 145.147V154.469H88.6611ZM92.0233 154.469H90.0487V145.147C90.0487 144.603 90.4909 144.171 91.0322 144.171C91.3066 144.171 91.5506 144.277 91.7336 144.459C91.9089 144.633 92.0233 144.882 92.0233 145.147V154.469Z" fill="#C5C5C5"/>
<path d="M169.856 154.469H168.98V141.311H168.941C169.025 141.251 169.094 141.175 169.147 141.084C169.467 140.494 169.658 139.745 169.528 138.837C169.155 136.196 163.948 133.563 163.33 132.587C162.713 133.556 157.505 136.196 157.132 138.837C157.002 139.745 157.2 140.494 157.513 141.084C157.566 141.175 157.635 141.251 157.719 141.311H157.673V154.469H156.804C156.354 154.469 155.988 154.832 155.988 155.286V159.47C155.988 160.348 156.461 161.165 157.239 161.604L157.688 161.853V195.031C158.885 194.827 160.044 194.63 161.15 194.434C163.94 193.919 166.586 193.427 168.987 192.958V161.853L169.429 161.604C170.199 161.165 170.68 160.355 170.68 159.47V155.286C170.68 154.832 170.314 154.469 169.856 154.469ZM160.959 154.469H158.977V145.147C158.977 144.603 159.419 144.171 159.968 144.171C160.242 144.171 160.486 144.277 160.669 144.459C160.852 144.633 160.959 144.882 160.959 145.147V154.469ZM164.321 154.469H162.347V145.147C162.347 144.603 162.789 144.171 163.33 144.171C163.871 144.171 164.314 144.61 164.314 145.147V154.469H164.321ZM167.683 154.469H165.709V145.147C165.709 144.603 166.151 144.171 166.692 144.171C166.967 144.171 167.211 144.277 167.394 144.459C167.569 144.633 167.683 144.882 167.683 145.147V154.469Z" fill="#C5C5C5"/>
<path d="M88.4938 131.324C88.4938 131.771 88.1279 132.134 87.6781 132.134C87.2283 132.134 86.8623 131.771 86.8623 131.324C86.8623 130.878 87.2283 130.515 87.6781 130.515C88.1279 130.515 88.4938 130.878 88.4938 131.324Z" fill="#C5C5C5"/>
<path d="M164.154 131.324C164.154 131.771 163.788 132.134 163.338 132.134C162.888 132.134 162.522 131.771 162.522 131.324C162.522 130.878 162.888 130.515 163.338 130.515C163.788 130.515 164.154 130.878 164.154 131.324Z" fill="#C5C5C5"/>
<path d="M154.784 159.818H151.734V149.105C151.734 137.332 146.214 126.134 136.974 119.142C136.669 118.916 136.364 118.689 136.051 118.462C135.335 117.939 134.542 117.402 133.696 116.827C131.233 115.148 128.237 113.112 125.508 110.426C122.778 113.105 119.782 115.148 117.319 116.827C116.473 117.402 115.68 117.947 114.964 118.462C114.651 118.689 114.338 118.916 114.041 119.142C104.801 126.126 99.281 137.324 99.281 149.105V159.818H96.2314V149.105C96.2314 136.393 102.201 124.295 112.188 116.736C112.509 116.494 112.829 116.26 113.164 116.018C113.919 115.473 114.735 114.921 115.596 114.33C118.417 112.409 121.619 110.23 124.387 107.226L125.515 106L126.643 107.226C129.411 110.237 132.613 112.409 135.434 114.33C136.295 114.921 137.111 115.473 137.866 116.018C138.194 116.26 138.522 116.494 138.842 116.736C148.837 124.288 154.799 136.393 154.799 149.105V159.818H154.784Z" fill="#C5C5C5"/>
</g>
<defs>
<clipPath id="clip0_3469_54775">
<rect width="115" height="108" fill="white" transform="translate(68 106)"/>
</clipPath>
</defs>
</svg>
