<svg width="28" height="28" viewBox="0 0 28 28" fill="none" xmlns="http://www.w3.org/2000/svg">
<path fill-rule="evenodd" clip-rule="evenodd" d="M14.0001 7.77832C10.5637 7.77832 7.7779 10.5641 7.7779 14.0005C7.7779 17.437 10.5637 20.2228 14.0001 20.2228C17.4366 20.2228 20.2223 17.437 20.2223 14.0005C20.2223 10.5641 17.4366 7.77832 14.0001 7.77832Z" fill="#FFBA0A"/>
<path fill-rule="evenodd" clip-rule="evenodd" d="M14 1.68262C14.6312 1.68262 15.1429 2.19429 15.1429 2.82547V4.85722C15.1429 5.4884 14.6312 6.00008 14 6.00008C13.3688 6.00008 12.8571 5.4884 12.8571 4.85722V2.82547C12.8571 2.19429 13.3688 1.68262 14 1.68262Z" fill="#FFBA0A"/>
<path fill-rule="evenodd" clip-rule="evenodd" d="M14 22C14.6312 22 15.1429 22.5117 15.1429 23.1429V25.1746C15.1429 25.8058 14.6312 26.3175 14 26.3175C13.3688 26.3175 12.8571 25.8058 12.8571 25.1746V23.1429C12.8571 22.5117 13.3688 22 14 22Z" fill="#FFBA0A"/>
<path fill-rule="evenodd" clip-rule="evenodd" d="M5.28838 5.28884C5.7347 4.84252 6.45832 4.84252 6.90463 5.28884L8.34717 6.73138C8.79348 7.17769 8.79348 7.90131 8.34717 8.34762C7.90086 8.79393 7.17724 8.79393 6.73092 8.34762L5.28838 6.90508C4.84207 6.45877 4.84207 5.73515 5.28838 5.28884Z" fill="#FFBA0A"/>
<path fill-rule="evenodd" clip-rule="evenodd" d="M19.6528 19.6531C20.0991 19.2068 20.8228 19.2068 21.2691 19.6531L22.7116 21.0956C23.1579 21.5419 23.1579 22.2656 22.7116 22.7119C22.2653 23.1582 21.5417 23.1582 21.0954 22.7119L19.6528 21.2693C19.2065 20.823 19.2065 20.0994 19.6528 19.6531Z" fill="#FFBA0A"/>
<path fill-rule="evenodd" clip-rule="evenodd" d="M1.68254 14.0003C1.68254 13.3691 2.19421 12.8574 2.8254 12.8574H4.85714C5.48832 12.8574 6 13.3691 6 14.0003C6 14.6315 5.48832 15.1431 4.85714 15.1431H2.8254C2.19421 15.1431 1.68254 14.6315 1.68254 14.0003Z" fill="#FFBA0A"/>
<path fill-rule="evenodd" clip-rule="evenodd" d="M22 14.0003C22 13.3691 22.5117 12.8574 23.1429 12.8574H25.1746C25.8058 12.8574 26.3175 13.3691 26.3175 14.0003C26.3175 14.6315 25.8058 15.1431 25.1746 15.1431H23.1429C22.5117 15.1431 22 14.6315 22 14.0003Z" fill="#FFBA0A"/>
<path fill-rule="evenodd" clip-rule="evenodd" d="M8.34717 19.6531C8.79348 20.0994 8.79348 20.823 8.34717 21.2693L6.90463 22.7119C6.45832 23.1582 5.7347 23.1582 5.28838 22.7119C4.84207 22.2656 4.84207 21.5419 5.28838 21.0956L6.73092 19.6531C7.17724 19.2068 7.90086 19.2068 8.34717 19.6531Z" fill="#FFBA0A"/>
<path fill-rule="evenodd" clip-rule="evenodd" d="M22.7116 5.28884C23.1579 5.73515 23.1579 6.45877 22.7116 6.90508L21.2691 8.34762C20.8228 8.79393 20.0991 8.79393 19.6528 8.34762C19.2065 7.90131 19.2065 7.17769 19.6528 6.73138L21.0954 5.28884C21.5417 4.84252 22.2653 4.84252 22.7116 5.28884Z" fill="#FFBA0A"/>
</svg>
