<svg width="32" height="32" viewBox="0 0 32 32" fill="none" xmlns="http://www.w3.org/2000/svg">
<rect width="32" height="32" fill="#173F53"/>
<g clip-path="url(#clip0_5912_37536)">
<path d="M17.2738 27.3544C17.2617 27.3123 17.2876 27.2669 17.3307 27.2552L29.0017 23.8335L28.9569 23.6587L17.1962 27.0618L28.8759 23.5511L28.3019 23.2215C27.5245 23.3796 25.9439 23.6923 24.0617 24.032C21.4744 24.4977 17.6013 24.839 16.0034 26.776C14.4056 24.8407 10.5325 24.4977 7.94524 24.032C6.06298 23.6923 4.48237 23.3796 3.70499 23.2215L3.131 23.5511L14.8107 27.0618L3.04482 23.6587L3 23.8335L14.671 27.2552C14.7141 27.2686 14.74 27.3123 14.7279 27.3544L14.64 27.6637C14.5918 27.8319 14.721 27.9983 14.9003 27.9983H17.1014C17.2807 27.9983 17.41 27.8319 17.3617 27.6637L17.2738 27.3544Z" fill="white"/>
<path d="M17.2738 27.3544C17.2617 27.3123 17.2876 27.2669 17.3307 27.2552L29.0017 23.8335L28.9569 23.6587L17.1962 27.0618L28.8759 23.5511L28.3019 23.2215C27.5245 23.3796 25.9439 23.6923 24.0617 24.032C21.4744 24.4977 17.6013 24.839 16.0034 26.776C14.4056 24.8407 10.5325 24.4977 7.94524 24.032C6.06298 23.6923 4.48237 23.3796 3.70499 23.2215L3.131 23.5511L14.8107 27.0618L3.04482 23.6587L3 23.8335L14.671 27.2552C14.7141 27.2686 14.74 27.3123 14.7279 27.3544L14.64 27.6637C14.5918 27.8319 14.721 27.9983 14.9003 27.9983H17.1014C17.2807 27.9983 17.41 27.8319 17.3617 27.6637L17.2738 27.3544Z" fill="url(#paint0_linear_5912_37536)"/>
<path d="M21.0245 18.0933C21.0245 18.0933 21.0107 18.09 21.0038 18.0883H18.5424L20.7901 17.9538C21.0021 17.9403 21.1934 17.8226 21.2934 17.6393C21.5795 17.1148 21.7588 16.4472 21.6416 15.6351C21.352 13.6377 17.915 11.6402 16.524 10.549C16.524 10.5322 16.5291 10.517 16.5291 10.4985C16.5291 10.3354 16.4498 10.1892 16.3275 10.0967C16.2171 10.0126 16.1465 9.88651 16.1344 9.75031L16.0844 9.21564C16.1465 9.18537 16.1896 9.12484 16.1896 9.05254C16.1896 9.0475 16.1896 9.04413 16.1896 9.03909C16.2464 9.03236 16.3033 9.0206 16.3602 9.00546C16.9894 8.83732 17.391 8.25893 17.3462 7.64691C17.3462 7.64691 17.3462 7.64859 17.3462 7.65027C17.3444 7.66204 17.341 7.67381 17.3393 7.68558C17.2462 8.10424 16.9032 8.45901 16.4292 8.5414C15.8862 8.63556 15.3381 8.3161 15.164 7.80496C14.9744 7.24842 15.2639 6.65994 15.7966 6.44136C15.7931 6.44136 15.7897 6.44136 15.7879 6.44136C15.0606 6.55569 14.5521 7.24506 14.6762 7.9546C14.7796 8.54645 15.2588 8.96007 15.8172 9.03573C15.8172 9.04077 15.8172 9.04413 15.8172 9.04918C15.8172 9.12148 15.8603 9.18369 15.9224 9.21227L15.8724 9.74695C15.8586 9.88314 15.7897 10.0092 15.6794 10.0933C15.557 10.1875 15.4777 10.3321 15.4777 10.4952C15.4777 10.512 15.4811 10.5288 15.4829 10.5456C14.0936 11.6368 10.6548 13.6343 10.3652 15.6318C10.248 16.4439 10.4273 17.1114 10.7134 17.636C10.8134 17.8192 11.0047 17.9369 11.2167 17.9504L13.4644 18.0849H11.003C11.003 18.0849 10.9892 18.0883 10.9823 18.09C10.4514 18.206 10.0774 18.6683 10.0774 19.1997V24.0017C10.2894 24.037 10.5031 24.0757 10.7169 24.1143V22.169C10.7169 21.3855 11.3271 21.0576 11.5891 20.9416C11.8511 20.8256 11.8907 20.6725 11.8907 20.6725C11.8907 20.6725 11.9303 20.8239 12.1923 20.9416C12.4543 21.0576 13.0645 21.3855 13.0645 22.169V24.6709C13.33 24.7549 13.5885 24.8457 13.8385 24.9449V22.1169C13.8385 20.6692 14.9658 20.0639 15.4501 19.8487C15.9327 19.6335 16.0069 19.3543 16.0069 19.3543C16.0069 19.3543 16.081 19.6351 16.5636 19.8487C17.048 20.0639 18.1752 20.6692 18.1752 22.1169V24.9449C18.4252 24.8457 18.6837 24.7549 18.9492 24.6709V22.169C18.9492 21.3855 19.5611 21.0576 19.8214 20.9416C20.0834 20.8256 20.123 20.6725 20.123 20.6725C20.123 20.6725 20.1626 20.8239 20.4246 20.9416C20.6866 21.0576 21.2968 21.3855 21.2968 22.169V24.1143C21.5123 24.0757 21.7243 24.037 21.9363 24.0017V19.1997C21.9363 18.6683 21.5606 18.206 21.0314 18.09L21.0245 18.0933Z" fill="white"/>
<path d="M21.0245 18.0933C21.0245 18.0933 21.0107 18.09 21.0038 18.0883H18.5424L20.7901 17.9538C21.0021 17.9403 21.1934 17.8226 21.2934 17.6393C21.5795 17.1148 21.7588 16.4472 21.6416 15.6351C21.352 13.6377 17.915 11.6402 16.524 10.549C16.524 10.5322 16.5291 10.517 16.5291 10.4985C16.5291 10.3354 16.4498 10.1892 16.3275 10.0967C16.2171 10.0126 16.1465 9.88651 16.1344 9.75031L16.0844 9.21564C16.1465 9.18537 16.1896 9.12484 16.1896 9.05254C16.1896 9.0475 16.1896 9.04413 16.1896 9.03909C16.2464 9.03236 16.3033 9.0206 16.3602 9.00546C16.9894 8.83732 17.391 8.25893 17.3462 7.64691C17.3462 7.64691 17.3462 7.64859 17.3462 7.65027C17.3444 7.66204 17.341 7.67381 17.3393 7.68558C17.2462 8.10424 16.9032 8.45901 16.4292 8.5414C15.8862 8.63556 15.3381 8.3161 15.164 7.80496C14.9744 7.24842 15.2639 6.65994 15.7966 6.44136C15.7931 6.44136 15.7897 6.44136 15.7879 6.44136C15.0606 6.55569 14.5521 7.24506 14.6762 7.9546C14.7796 8.54645 15.2588 8.96007 15.8172 9.03573C15.8172 9.04077 15.8172 9.04413 15.8172 9.04918C15.8172 9.12148 15.8603 9.18369 15.9224 9.21227L15.8724 9.74695C15.8586 9.88314 15.7897 10.0092 15.6794 10.0933C15.557 10.1875 15.4777 10.3321 15.4777 10.4952C15.4777 10.512 15.4811 10.5288 15.4829 10.5456C14.0936 11.6368 10.6548 13.6343 10.3652 15.6318C10.248 16.4439 10.4273 17.1114 10.7134 17.636C10.8134 17.8192 11.0047 17.9369 11.2167 17.9504L13.4644 18.0849H11.003C11.003 18.0849 10.9892 18.0883 10.9823 18.09C10.4514 18.206 10.0774 18.6683 10.0774 19.1997V24.0017C10.2894 24.037 10.5031 24.0757 10.7169 24.1143V22.169C10.7169 21.3855 11.3271 21.0576 11.5891 20.9416C11.8511 20.8256 11.8907 20.6725 11.8907 20.6725C11.8907 20.6725 11.9303 20.8239 12.1923 20.9416C12.4543 21.0576 13.0645 21.3855 13.0645 22.169V24.6709C13.33 24.7549 13.5885 24.8457 13.8385 24.9449V22.1169C13.8385 20.6692 14.9658 20.0639 15.4501 19.8487C15.9327 19.6335 16.0069 19.3543 16.0069 19.3543C16.0069 19.3543 16.081 19.6351 16.5636 19.8487C17.048 20.0639 18.1752 20.6692 18.1752 22.1169V24.9449C18.4252 24.8457 18.6837 24.7549 18.9492 24.6709V22.169C18.9492 21.3855 19.5611 21.0576 19.8214 20.9416C20.0834 20.8256 20.123 20.6725 20.123 20.6725C20.123 20.6725 20.1626 20.8239 20.4246 20.9416C20.6866 21.0576 21.2968 21.3855 21.2968 22.169V24.1143C21.5123 24.0757 21.7243 24.037 21.9363 24.0017V19.1997C21.9363 18.6683 21.5606 18.206 21.0314 18.09L21.0245 18.0933Z" fill="url(#paint1_linear_5912_37536)"/>
<path d="M15.7673 7.70744L15.7121 8.01849L16 7.87221L16.2879 8.01849L16.2327 7.70744L16.4654 7.48549L16.1431 7.4401L16 7.15594L15.8569 7.4401L15.5346 7.48549L15.7673 7.70744Z" fill="white"/>
<path d="M15.7673 7.70744L15.7121 8.01849L16 7.87221L16.2879 8.01849L16.2327 7.70744L16.4654 7.48549L16.1431 7.4401L16 7.15594L15.8569 7.4401L15.5346 7.48549L15.7673 7.70744Z" fill="url(#paint2_linear_5912_37536)"/>
<path d="M8.92255 14.7709H8.72432V11.847H8.7157C8.73466 11.8335 8.7519 11.8167 8.76224 11.7966C8.83291 11.6654 8.87773 11.499 8.84843 11.2972C8.76397 10.7104 7.58669 10.1253 7.44707 9.90837C7.30746 10.1236 6.13018 10.7104 6.04572 11.2972C6.01642 11.499 6.06124 11.6654 6.13191 11.7966C6.14397 11.8167 6.15949 11.8335 6.17845 11.847H6.16983V14.7709H5.97333C5.86991 14.7709 5.78717 14.8516 5.78717 14.9525V15.8823C5.78717 16.0773 5.89576 16.2589 6.06985 16.3565L6.16983 16.4119V23.3241C6.71451 23.4267 7.3109 23.5376 7.94177 23.652C8.19171 23.6974 8.4537 23.7411 8.72432 23.7848V16.4119L8.82602 16.3565C9.00011 16.2589 9.1087 16.079 9.1087 15.8823V14.9525C9.1087 14.8516 9.02597 14.7709 8.92427 14.7709H8.92255ZM6.91101 14.7709H6.46285V12.6995C6.46285 12.5784 6.56283 12.4826 6.68693 12.4826C6.74898 12.4826 6.80414 12.5061 6.84551 12.5465C6.88688 12.5851 6.91101 12.6406 6.91101 12.6995V14.7709ZM7.67115 14.7709H7.22472V12.6995C7.22472 12.5784 7.32469 12.4826 7.44707 12.4826C7.56946 12.4826 7.66943 12.5801 7.66943 12.6995V14.7709H7.67115ZM8.4313 14.7709H7.98486V12.6995C7.98486 12.5784 8.08484 12.4826 8.20722 12.4826C8.26927 12.4826 8.32443 12.5061 8.3658 12.5465C8.40544 12.5851 8.4313 12.6406 8.4313 12.6995V14.7709Z" fill="white"/>
<path d="M8.92255 14.7709H8.72432V11.847H8.7157C8.73466 11.8335 8.7519 11.8167 8.76224 11.7966C8.83291 11.6654 8.87773 11.499 8.84843 11.2972C8.76397 10.7104 7.58669 10.1253 7.44707 9.90837C7.30746 10.1236 6.13018 10.7104 6.04572 11.2972C6.01642 11.499 6.06124 11.6654 6.13191 11.7966C6.14397 11.8167 6.15949 11.8335 6.17845 11.847H6.16983V14.7709H5.97333C5.86991 14.7709 5.78717 14.8516 5.78717 14.9525V15.8823C5.78717 16.0773 5.89576 16.2589 6.06985 16.3565L6.16983 16.4119V23.3241C6.71451 23.4267 7.3109 23.5376 7.94177 23.652C8.19171 23.6974 8.4537 23.7411 8.72432 23.7848V16.4119L8.82602 16.3565C9.00011 16.2589 9.1087 16.079 9.1087 15.8823V14.9525C9.1087 14.8516 9.02597 14.7709 8.92427 14.7709H8.92255ZM6.91101 14.7709H6.46285V12.6995C6.46285 12.5784 6.56283 12.4826 6.68693 12.4826C6.74898 12.4826 6.80414 12.5061 6.84551 12.5465C6.88688 12.5851 6.91101 12.6406 6.91101 12.6995V14.7709ZM7.67115 14.7709H7.22472V12.6995C7.22472 12.5784 7.32469 12.4826 7.44707 12.4826C7.56946 12.4826 7.66943 12.5801 7.66943 12.6995V14.7709H7.67115ZM8.4313 14.7709H7.98486V12.6995C7.98486 12.5784 8.08484 12.4826 8.20722 12.4826C8.26927 12.4826 8.32443 12.5061 8.3658 12.5465C8.40544 12.5851 8.4313 12.6406 8.4313 12.6995V14.7709Z" fill="url(#paint3_linear_5912_37536)"/>
<path d="M26.0284 14.7709H25.8302V11.847H25.8215C25.8405 11.8335 25.856 11.8167 25.8681 11.7966C25.9405 11.6654 25.9836 11.499 25.9543 11.2972C25.8698 10.7104 24.6925 10.1253 24.5529 9.90837C24.4133 10.1236 23.236 10.7104 23.1516 11.2972C23.1223 11.499 23.1671 11.6654 23.2377 11.7966C23.2498 11.8167 23.2653 11.8335 23.2843 11.847H23.2739V14.7709H23.0774C22.9757 14.7709 22.893 14.8516 22.893 14.9525V15.8823C22.893 16.0773 22.9999 16.2589 23.1757 16.3565L23.2774 16.4119V23.7848C23.548 23.7394 23.81 23.6957 24.0599 23.652C24.6908 23.5376 25.2889 23.4283 25.8319 23.3241V16.4119L25.9319 16.3565C26.1059 16.2589 26.2145 16.079 26.2145 15.8823V14.9525C26.2145 14.8516 26.1318 14.7709 26.0284 14.7709ZM24.0168 14.7709H23.5687V12.6995C23.5687 12.5784 23.6687 12.4826 23.7928 12.4826C23.8548 12.4826 23.91 12.5061 23.9513 12.5465C23.9927 12.5851 24.0168 12.6406 24.0168 12.6995V14.7709ZM24.777 14.7709H24.3306V12.6995C24.3306 12.5784 24.4305 12.4826 24.5529 12.4826C24.6753 12.4826 24.7753 12.5801 24.7753 12.6995V14.7709H24.777ZM25.5371 14.7709H25.0907V12.6995C25.0907 12.5784 25.1907 12.4826 25.3131 12.4826C25.3751 12.4826 25.4303 12.5061 25.4716 12.5465C25.5113 12.5851 25.5371 12.6406 25.5371 12.6995V14.7709Z" fill="white"/>
<path d="M26.0284 14.7709H25.8302V11.847H25.8215C25.8405 11.8335 25.856 11.8167 25.8681 11.7966C25.9405 11.6654 25.9836 11.499 25.9543 11.2972C25.8698 10.7104 24.6925 10.1253 24.5529 9.90837C24.4133 10.1236 23.236 10.7104 23.1516 11.2972C23.1223 11.499 23.1671 11.6654 23.2377 11.7966C23.2498 11.8167 23.2653 11.8335 23.2843 11.847H23.2739V14.7709H23.0774C22.9757 14.7709 22.893 14.8516 22.893 14.9525V15.8823C22.893 16.0773 22.9999 16.2589 23.1757 16.3565L23.2774 16.4119V23.7848C23.548 23.7394 23.81 23.6957 24.0599 23.652C24.6908 23.5376 25.2889 23.4283 25.8319 23.3241V16.4119L25.9319 16.3565C26.1059 16.2589 26.2145 16.079 26.2145 15.8823V14.9525C26.2145 14.8516 26.1318 14.7709 26.0284 14.7709ZM24.0168 14.7709H23.5687V12.6995C23.5687 12.5784 23.6687 12.4826 23.7928 12.4826C23.8548 12.4826 23.91 12.5061 23.9513 12.5465C23.9927 12.5851 24.0168 12.6406 24.0168 12.6995V14.7709ZM24.777 14.7709H24.3306V12.6995C24.3306 12.5784 24.4305 12.4826 24.5529 12.4826C24.6753 12.4826 24.7753 12.5801 24.7753 12.6995V14.7709H24.777ZM25.5371 14.7709H25.0907V12.6995C25.0907 12.5784 25.1907 12.4826 25.3131 12.4826C25.3751 12.4826 25.4303 12.5061 25.4716 12.5465C25.5113 12.5851 25.5371 12.6406 25.5371 12.6995V14.7709Z" fill="url(#paint4_linear_5912_37536)"/>
<path d="M7.63321 9.62757C7.63321 9.72677 7.55047 9.80748 7.44878 9.80748C7.34708 9.80748 7.26434 9.72677 7.26434 9.62757C7.26434 9.52837 7.34708 9.44766 7.44878 9.44766C7.55047 9.44766 7.63321 9.52837 7.63321 9.62757Z" fill="white"/>
<path d="M7.63321 9.62757C7.63321 9.72677 7.55047 9.80748 7.44878 9.80748C7.34708 9.80748 7.26434 9.72677 7.26434 9.62757C7.26434 9.52837 7.34708 9.44766 7.44878 9.44766C7.55047 9.44766 7.63321 9.52837 7.63321 9.62757Z" fill="url(#paint5_linear_5912_37536)"/>
<path d="M24.739 9.62757C24.739 9.72677 24.6563 9.80748 24.5546 9.80748C24.4529 9.80748 24.3702 9.72677 24.3702 9.62757C24.3702 9.52837 24.4529 9.44766 24.5546 9.44766C24.6563 9.44766 24.739 9.52837 24.739 9.62757Z" fill="white"/>
<path d="M24.739 9.62757C24.739 9.72677 24.6563 9.80748 24.5546 9.80748C24.4529 9.80748 24.3702 9.72677 24.3702 9.62757C24.3702 9.52837 24.4529 9.44766 24.5546 9.44766C24.6563 9.44766 24.739 9.52837 24.739 9.62757Z" fill="url(#paint6_linear_5912_37536)"/>
<path d="M22.6206 15.9596H21.9311V13.5788C21.9311 10.9626 20.6832 8.47415 18.5941 6.92055C18.5252 6.87011 18.4562 6.81967 18.3855 6.76923C18.2235 6.65322 18.0442 6.53384 17.8529 6.40605C17.2962 6.03279 16.6188 5.5805 16.0017 4.98361C15.3846 5.57881 14.7072 6.03279 14.1505 6.40605C13.9591 6.53384 13.7799 6.6549 13.6178 6.76923C13.5472 6.81967 13.4765 6.87011 13.4093 6.92055C11.3202 8.47247 10.0722 10.9609 10.0722 13.5788V15.9596H9.38275V13.5788C9.38275 10.7541 10.7324 8.06557 12.9904 6.38588C13.0628 6.33207 13.1352 6.27995 13.211 6.22615C13.3817 6.10509 13.5661 5.98235 13.7609 5.8512C14.3987 5.42413 15.1226 4.93989 15.7483 4.27238L16.0034 4L16.2585 4.27238C16.8842 4.94157 17.6082 5.42413 18.2459 5.8512C18.4407 5.98235 18.6251 6.10509 18.7958 6.22615C18.8699 6.27995 18.944 6.33207 19.0164 6.38588C21.2761 8.06389 22.6241 10.7541 22.6241 13.5788V15.9596H22.6206Z" fill="white"/>
<path d="M22.6206 15.9596H21.9311V13.5788C21.9311 10.9626 20.6832 8.47415 18.5941 6.92055C18.5252 6.87011 18.4562 6.81967 18.3855 6.76923C18.2235 6.65322 18.0442 6.53384 17.8529 6.40605C17.2962 6.03279 16.6188 5.5805 16.0017 4.98361C15.3846 5.57881 14.7072 6.03279 14.1505 6.40605C13.9591 6.53384 13.7799 6.6549 13.6178 6.76923C13.5472 6.81967 13.4765 6.87011 13.4093 6.92055C11.3202 8.47247 10.0722 10.9609 10.0722 13.5788V15.9596H9.38275V13.5788C9.38275 10.7541 10.7324 8.06557 12.9904 6.38588C13.0628 6.33207 13.1352 6.27995 13.211 6.22615C13.3817 6.10509 13.5661 5.98235 13.7609 5.8512C14.3987 5.42413 15.1226 4.93989 15.7483 4.27238L16.0034 4L16.2585 4.27238C16.8842 4.94157 17.6082 5.42413 18.2459 5.8512C18.4407 5.98235 18.6251 6.10509 18.7958 6.22615C18.8699 6.27995 18.944 6.33207 19.0164 6.38588C21.2761 8.06389 22.6241 10.7541 22.6241 13.5788V15.9596H22.6206Z" fill="url(#paint7_linear_5912_37536)"/>
</g>
<defs>
<linearGradient id="paint0_linear_5912_37536" x1="-1.74983" y1="27.4021" x2="35.5268" y2="29.93" gradientUnits="userSpaceOnUse">
<stop stop-color="#D69C47"/>
<stop offset="0.24" stop-color="#FFE68F"/>
<stop offset="0.32" stop-color="#E8BC66"/>
<stop offset="0.39" stop-color="#D69C47"/>
<stop offset="0.53" stop-color="#ECC675"/>
<stop offset="0.67" stop-color="#FFEB9E"/>
<stop offset="0.81" stop-color="#977943"/>
<stop offset="0.89" stop-color="#603D13"/>
<stop offset="0.92" stop-color="#7A5118"/>
<stop offset="0.95" stop-color="#8C5E1C"/>
<stop offset="1" stop-color="#D69C47"/>
</linearGradient>
<linearGradient id="paint1_linear_5912_37536" x1="7.91108" y1="22.6353" x2="24.9894" y2="22.7717" gradientUnits="userSpaceOnUse">
<stop stop-color="#D69C47"/>
<stop offset="0.24" stop-color="#FFE68F"/>
<stop offset="0.32" stop-color="#E8BC66"/>
<stop offset="0.39" stop-color="#D69C47"/>
<stop offset="0.53" stop-color="#ECC675"/>
<stop offset="0.67" stop-color="#FFEB9E"/>
<stop offset="0.81" stop-color="#977943"/>
<stop offset="0.89" stop-color="#603D13"/>
<stop offset="0.92" stop-color="#7A5118"/>
<stop offset="0.95" stop-color="#8C5E1C"/>
<stop offset="1" stop-color="#D69C47"/>
</linearGradient>
<linearGradient id="paint2_linear_5912_37536" x1="15.4532" y1="6.67644" x2="16.3883" y2="8.76488" gradientUnits="userSpaceOnUse">
<stop stop-color="#D69C47"/>
<stop offset="0.24" stop-color="#FFE68F"/>
<stop offset="0.32" stop-color="#E8BC66"/>
<stop offset="0.39" stop-color="#D69C47"/>
<stop offset="0.53" stop-color="#ECC675"/>
<stop offset="0.67" stop-color="#FFEB9E"/>
<stop offset="0.81" stop-color="#977943"/>
<stop offset="0.89" stop-color="#603D13"/>
<stop offset="0.92" stop-color="#7A5118"/>
<stop offset="0.95" stop-color="#8C5E1C"/>
<stop offset="1" stop-color="#D69C47"/>
</linearGradient>
<linearGradient id="paint3_linear_5912_37536" x1="5.18041" y1="22.0527" x2="9.96409" y2="22.067" gradientUnits="userSpaceOnUse">
<stop stop-color="#D69C47"/>
<stop offset="0.24" stop-color="#FFE68F"/>
<stop offset="0.32" stop-color="#E8BC66"/>
<stop offset="0.39" stop-color="#D69C47"/>
<stop offset="0.53" stop-color="#ECC675"/>
<stop offset="0.67" stop-color="#FFEB9E"/>
<stop offset="0.81" stop-color="#977943"/>
<stop offset="0.89" stop-color="#603D13"/>
<stop offset="0.92" stop-color="#7A5118"/>
<stop offset="0.95" stop-color="#8C5E1C"/>
<stop offset="1" stop-color="#D69C47"/>
</linearGradient>
<linearGradient id="paint4_linear_5912_37536" x1="22.2862" y1="22.0527" x2="27.0699" y2="22.067" gradientUnits="userSpaceOnUse">
<stop stop-color="#D69C47"/>
<stop offset="0.24" stop-color="#FFE68F"/>
<stop offset="0.32" stop-color="#E8BC66"/>
<stop offset="0.39" stop-color="#D69C47"/>
<stop offset="0.53" stop-color="#ECC675"/>
<stop offset="0.67" stop-color="#FFEB9E"/>
<stop offset="0.81" stop-color="#977943"/>
<stop offset="0.89" stop-color="#603D13"/>
<stop offset="0.92" stop-color="#7A5118"/>
<stop offset="0.95" stop-color="#8C5E1C"/>
<stop offset="1" stop-color="#D69C47"/>
</linearGradient>
<linearGradient id="paint5_linear_5912_37536" x1="7.2321" y1="9.24763" x2="7.63543" y2="10.1034" gradientUnits="userSpaceOnUse">
<stop stop-color="#D69C47"/>
<stop offset="0.24" stop-color="#FFE68F"/>
<stop offset="0.32" stop-color="#E8BC66"/>
<stop offset="0.39" stop-color="#D69C47"/>
<stop offset="0.53" stop-color="#ECC675"/>
<stop offset="0.67" stop-color="#FFEB9E"/>
<stop offset="0.81" stop-color="#977943"/>
<stop offset="0.89" stop-color="#603D13"/>
<stop offset="0.92" stop-color="#7A5118"/>
<stop offset="0.95" stop-color="#8C5E1C"/>
<stop offset="1" stop-color="#D69C47"/>
</linearGradient>
<linearGradient id="paint6_linear_5912_37536" x1="24.3379" y1="9.24763" x2="24.7413" y2="10.1034" gradientUnits="userSpaceOnUse">
<stop stop-color="#D69C47"/>
<stop offset="0.24" stop-color="#FFE68F"/>
<stop offset="0.32" stop-color="#E8BC66"/>
<stop offset="0.39" stop-color="#D69C47"/>
<stop offset="0.53" stop-color="#ECC675"/>
<stop offset="0.67" stop-color="#FFEB9E"/>
<stop offset="0.81" stop-color="#977943"/>
<stop offset="0.89" stop-color="#603D13"/>
<stop offset="0.92" stop-color="#7A5118"/>
<stop offset="0.95" stop-color="#8C5E1C"/>
<stop offset="1" stop-color="#D69C47"/>
</linearGradient>
<linearGradient id="paint7_linear_5912_37536" x1="6.96391" y1="14.4668" x2="26.0306" y2="14.7298" gradientUnits="userSpaceOnUse">
<stop stop-color="#D69C47"/>
<stop offset="0.24" stop-color="#FFE68F"/>
<stop offset="0.32" stop-color="#E8BC66"/>
<stop offset="0.39" stop-color="#D69C47"/>
<stop offset="0.53" stop-color="#ECC675"/>
<stop offset="0.67" stop-color="#FFEB9E"/>
<stop offset="0.81" stop-color="#977943"/>
<stop offset="0.89" stop-color="#603D13"/>
<stop offset="0.92" stop-color="#7A5118"/>
<stop offset="0.95" stop-color="#8C5E1C"/>
<stop offset="1" stop-color="#D69C47"/>
</linearGradient>
<clipPath id="clip0_5912_37536">
<rect width="26" height="24" fill="white" transform="translate(3 4)"/>
</clipPath>
</defs>
</svg>
