<svg width="72" height="53" viewBox="0 0 72 53" fill="none" xmlns="http://www.w3.org/2000/svg">
<g clip-path="url(#clip0_341_2649)">
<path d="M10.3603 50.3468H37.2423C44.323 50.3468 49.8137 45.0007 49.8137 38.1203C49.8137 31.289 44.2235 26.1163 36.795 26.0669C33.9378 20.6466 28.7951 17.3301 22.6584 17.3301C14.559 17.3301 7.70185 23.5919 6.93167 31.7346C2.80746 32.9721 0 36.4866 0 40.9416C0 46.4362 4.14907 50.3468 10.3603 50.3468Z" fill="#4590EA"/>
<path d="M52.6707 36.7836C56.323 34.3085 58.559 30.5467 58.559 26.166C58.559 19.3596 53.1179 13.8898 46.2858 13.8898C41.7888 13.8898 37.8882 16.3153 35.826 19.8793C36.8695 20.9683 37.764 22.1316 38.5092 23.5671C46.7081 24.2106 52.0001 29.3091 52.6707 36.7836ZM31.8757 14.7313C32.6957 15.5481 34.0372 15.5233 34.8073 14.7313C35.5777 13.9393 35.6023 12.6523 34.8073 11.8603L30.9812 8.04879C30.1862 7.25679 28.8943 7.25679 28.0993 8.04879C27.3042 8.84079 27.2796 10.1525 28.0993 10.9445L31.8757 14.7313ZM46.2858 9.97927C47.4286 9.97927 48.3478 9.01404 48.3478 7.92503V2.55426C48.3478 1.4405 47.4286 0.5 46.2858 0.5C45.1427 0.5 44.2235 1.4405 44.2235 2.55426V7.92503C44.2235 9.01404 45.1427 9.97927 46.2858 9.97927ZM64.5715 28.2201H69.9627C71.0808 28.2201 72 27.3044 72 26.166C72 25.0521 71.0808 24.1116 69.9627 24.1116H64.5715C63.4783 24.1116 62.5092 25.0521 62.5092 26.166C62.5092 27.3044 63.4783 28.2201 64.5715 28.2201ZM57.764 14.7313C58.5341 15.5233 59.8758 15.5481 60.6955 14.7313L64.4969 10.9445C65.292 10.1525 65.292 8.84079 64.4969 8.04879C63.7019 7.25679 62.4097 7.25679 61.615 8.04879L57.764 11.8603C56.9689 12.6523 56.9936 13.9393 57.764 14.7313ZM61.615 44.3324C62.4097 45.1244 63.7019 45.0998 64.4969 44.3078C65.292 43.5158 65.292 42.204 64.4969 41.4365L60.6459 37.6499C59.8509 36.8827 58.559 36.8579 57.764 37.6499C56.9689 38.4419 56.9689 39.7537 57.764 40.5457L61.615 44.3324Z" fill="#FFBA0A"/>
</g>
<defs>
<clipPath id="clip0_341_2649">
<rect width="72" height="52" fill="white" transform="translate(0 0.5)"/>
</clipPath>
</defs>
</svg>
