<svg xmlns="http://www.w3.org/2000/svg" width="600" height="600" viewBox="0 0 600 600" version="1.1"><path d="M -0 186.505 L -0 298.003 300.250 297.752 L 600.500 297.500 600.754 186 L 601.009 74.500 300.504 74.753 L -0 75.007 -0 186.505 M 0.483 186.500 C 0.483 248.100, 0.603 273.153, 0.750 242.173 C 0.897 211.193, 0.897 160.793, 0.750 130.173 C 0.603 99.553, 0.483 124.900, 0.483 186.500" stroke="none" fill="#e40414" fill-rule="evenodd"/><path d="M -0 411.005 L 0 524.003 300.250 523.752 L 600.500 523.500 600.754 410.500 L 601.009 297.500 300.504 297.753 L -0 298.007 -0 411.005 M 0.483 411 C 0.483 473.425, 0.603 498.963, 0.750 467.750 C 0.897 436.538, 0.897 385.463, 0.750 354.250 C 0.603 323.038, 0.483 348.575, 0.483 411" stroke="none" fill="#fcfcfc" fill-rule="evenodd"/></svg>